<svg width="275" height="168" viewBox="0 0 275 168" fill="none" xmlns="http://www.w3.org/2000/svg">
<path d="M274.524 131.299C263.971 131.299 253.476 131.299 242.716 131.299C243.363 133.821 244.597 135.786 246.596 137.135C252.123 140.89 259.443 139.922 263.794 134.906C264.47 134.114 264.911 134.173 265.676 134.76C268.057 136.578 270.438 138.338 272.878 140.039C273.819 140.684 273.613 141.183 272.996 141.887C269.321 145.993 264.735 148.515 259.326 149.336C251.829 150.51 244.744 149.366 238.541 144.673C235.043 142.033 232.632 138.602 231.221 134.613C230.868 136.578 230.722 138.631 230.134 140.567C228.899 144.732 225.9 147.401 221.873 148.633C213.876 151.067 206.409 149.542 199.589 144.79C199.295 144.585 199.031 144.409 198.472 144.028C198.472 145.289 198.443 146.316 198.472 147.313C198.501 148.134 198.237 148.545 197.325 148.515C194.239 148.486 191.152 148.486 188.036 148.515C187.154 148.515 186.801 148.193 186.86 147.342C186.889 147.049 186.86 146.726 186.86 146.404C186.86 127.281 186.86 108.129 186.86 89.0057C186.86 88.4484 186.86 87.8912 186.86 87.2752C190.77 87.2752 194.503 87.2752 198.413 87.2752C198.413 87.8618 198.413 88.3604 198.413 88.859C198.413 102.585 198.443 116.311 198.384 130.038C198.384 131.299 198.678 132.091 199.795 132.765C202.852 134.642 205.733 136.813 208.849 138.602C210.907 139.804 213.289 140.215 215.729 139.716C217.228 139.423 218.316 138.69 218.61 137.106C218.904 135.581 218.374 134.261 217.022 133.587C214.406 132.237 211.73 131.094 209.085 129.803C205.821 128.19 202.705 126.401 201 122.969C199.324 119.567 199.354 116.077 200.853 112.704C203.499 106.721 208.644 104.58 214.758 104.198C221.314 103.788 227.047 106.193 232.515 109.507C233.514 110.123 234.602 111.091 235.602 111.061C236.542 111.032 237.512 109.918 238.394 109.214C246.008 103.025 257.091 102.761 264.353 107.073C269.703 110.27 273.26 114.933 274.319 121.034C274.995 124.348 274.524 127.75 274.524 131.299ZM230.486 131.885C229.722 127.985 229.987 124.201 231.074 120.447C231.162 120.124 230.927 119.479 230.663 119.332C227.106 117.397 223.607 115.344 219.903 113.701C217.434 112.616 214.847 113.027 212.701 114.962C211.319 116.223 211.201 117.866 212.73 119.01C214.2 120.095 215.817 121.033 217.463 121.825C222.519 124.26 228.046 126.02 230.486 131.885ZM262.589 121.943C262.119 117.455 258.15 114.728 253.505 114.464C248.772 114.2 244.686 117.191 243.274 121.943C249.683 121.943 256.092 121.943 262.589 121.943Z" fill="white"/>
<path d="M0.21194 87.2752C9.76627 87.2752 19.1442 87.2752 28.7279 87.2752C28.7279 89.3576 28.7279 91.3814 28.7279 93.4051C28.7279 94.6956 28.6985 95.9861 28.7573 97.2473C28.8161 98.1858 28.434 98.5084 27.4932 98.5084C25.2884 98.4498 23.0835 98.5084 20.7905 98.5084C20.7611 99.095 20.7023 99.535 20.7023 99.9749C20.7023 111.736 20.7317 123.527 20.6729 135.288C20.6729 136.607 20.9375 137.135 22.3486 137.047C24.1713 136.93 26.0233 137.018 28.0224 137.018C28.0224 136.343 28.0224 135.845 28.0224 135.346C28.0224 125.99 28.0518 116.634 27.993 107.278C27.993 105.753 28.434 105.342 29.9039 105.43C32.1675 105.548 34.4311 105.46 36.6948 105.46C38.8702 105.46 38.8702 105.46 38.9878 107.63C47.572 102.292 55.6859 102.703 63.4469 109.624C66.1515 106.779 69.6499 105.02 73.6774 104.404C79.9392 103.436 85.7012 104.433 90.3166 109.155C93.374 112.264 94.8439 116.077 94.8439 120.418C94.8733 129.304 94.8145 138.221 94.8733 147.107C94.8733 148.31 94.4617 148.574 93.3446 148.545C90.5518 148.486 87.7884 148.457 84.9956 148.545C83.7315 148.574 83.3199 148.193 83.3199 146.902C83.3787 139.658 83.3787 132.413 83.3199 125.14C83.3199 123.615 83.2023 122.06 82.9377 120.535C82.3498 117.367 79.6158 115.109 76.1762 114.757C72.9131 114.434 69.4147 116.253 68.3564 119.098C67.7684 120.682 67.3274 122.441 67.3274 124.142C67.2099 131.739 67.2392 139.364 67.298 146.961C67.298 148.193 66.9747 148.545 65.74 148.515C63.0059 148.427 60.2719 148.427 57.5379 148.515C56.1562 148.574 55.6859 148.222 55.7153 146.755C55.8035 138.954 55.774 131.123 55.7447 123.321C55.7447 117.749 51.8935 114.229 46.5725 114.845C42.7508 115.285 39.4876 119.01 39.4876 122.94C39.4876 130.859 39.4582 138.778 39.517 146.697C39.5464 148.222 39.0466 148.545 37.6061 148.545C25.7588 148.486 13.9114 148.486 2.03461 148.545C0.38833 148.545 0.035555 148.075 0.0943509 146.55C0.211943 143.998 0.211943 141.417 0.0943509 138.837C0.035555 137.458 0.358933 136.901 1.85823 136.989C3.88669 137.135 5.94454 137.018 8.11999 137.018C8.11999 124.142 8.11999 111.443 8.11999 98.5084C5.88574 98.5084 3.7103 98.4498 1.50545 98.5378C0.417727 98.5671 0.0943509 98.2445 0.0943509 97.1593C0.241341 93.9037 0.21194 90.6775 0.21194 87.2752Z" fill="white"/>
<path d="M109.367 145.758C109.367 152.797 109.367 159.543 109.367 166.406C105.457 166.406 101.664 166.406 97.7249 166.406C97.6955 165.908 97.6661 165.35 97.6661 164.822C97.6661 145.612 97.6661 126.371 97.6367 107.161C97.6367 105.841 97.9601 105.342 99.3712 105.401C101.841 105.518 104.31 105.489 106.779 105.401C108.102 105.342 108.72 105.723 108.514 107.102C108.455 107.601 108.514 108.129 108.514 108.95C113.6 105.108 119.097 103.641 125.183 104.374C131.327 105.108 136.354 107.982 140.058 112.851C146.584 121.444 146.526 132.853 139.911 141.3C136.295 145.934 131.474 148.75 125.565 149.542C119.715 150.363 114.394 149.16 109.367 145.758ZM132.561 127.017C132.62 119.978 127.211 114.962 120.832 114.904C114.511 114.845 109.367 120.447 109.249 126.723C109.102 133.616 114.746 139.13 120.92 139.071C127.358 139.042 132.561 133.733 132.561 127.017Z" fill="white"/>
<path d="M78.2051 53.7516C78.7342 51.9625 79.1752 50.1734 79.7926 48.4137C82.3796 40.8466 85.8779 33.7489 90.1406 26.9738C93.9036 21.0199 98.5778 16.0046 104.016 11.5758C112.013 5.06466 121.185 1.16384 131.474 0.577246C138.089 0.195962 144.733 0.01999 151.288 1.75043C161.342 4.39008 169.78 9.61074 176.894 17.0604C184.537 25.0381 189.653 34.5115 193.68 44.6595C194.562 46.8885 195.268 49.2056 196.003 51.4933C196.297 52.4318 196.385 53.4583 196.473 54.4555C184.155 30.4347 164.929 16.5325 137.618 16.4152C110.366 16.2979 91.0226 29.9947 78.6166 53.8396C78.4697 53.781 78.3521 53.781 78.2051 53.7516Z" fill="white"/>
<path d="M173.601 148.486C173.543 147.547 173.513 146.843 173.484 145.934C170.926 148.251 167.957 149.424 164.694 149.776C157.227 150.598 150.583 148.075 146.967 141.095C145.879 139.012 145.174 136.519 145.115 134.202C144.88 125.052 144.997 115.901 144.938 106.75C144.938 105.723 145.321 105.43 146.291 105.46C149.172 105.518 152.053 105.548 154.934 105.46C156.227 105.43 156.492 105.899 156.462 107.073C156.404 114.874 156.433 122.705 156.462 130.507C156.492 135.024 158.785 138.191 162.665 139.13C167.604 140.332 172.631 136.431 172.631 131.357C172.661 123.351 172.661 115.314 172.602 107.307C172.602 105.958 172.867 105.401 174.366 105.46C177.129 105.577 179.922 105.548 182.715 105.489C183.773 105.46 184.155 105.753 184.155 106.867C184.126 120.271 184.126 133.704 184.155 147.107C184.155 148.105 183.95 148.603 182.803 148.574C179.834 148.427 176.806 148.486 173.601 148.486Z" fill="white"/>
<path d="M182.215 75.5728C172.631 57.3592 158.167 46.9179 137.647 46.7419C117.216 46.5659 102.576 56.7139 92.845 74.3996C92.7274 74.3409 92.6098 74.2823 92.4922 74.1943C92.5804 73.6957 92.6392 73.1677 92.7862 72.6985C95.3438 64.6329 99.0773 57.2418 104.31 50.5547C111.483 41.3746 120.744 36.0366 132.297 34.4821C140.793 33.3383 148.819 34.9221 156.345 38.7642C163.518 42.4304 169.015 47.9737 173.366 54.7488C177.011 60.4094 179.863 66.3926 181.833 72.8158C181.98 73.3144 182.097 73.813 182.185 74.3116C182.274 74.5756 182.215 74.8689 182.215 75.5728Z" fill="white"/>
<path d="M163.077 87.0113C157.138 77.2446 148.848 71.5546 137.412 71.5546C125.976 71.5546 117.716 77.3325 112.042 87.1286C111.865 87.0113 111.718 86.8646 111.542 86.7473C112.542 84.3716 113.423 81.9373 114.599 79.6496C117.774 73.5197 122.096 68.4457 128.74 65.9234C130.768 65.1608 133.032 64.7795 135.207 64.7502C138.382 64.6915 141.675 64.6329 144.673 65.4541C151.582 67.3018 156.139 72.2879 159.578 78.3004C160.872 80.5588 161.783 83.0225 162.812 85.4275C163.018 85.8674 162.988 86.454 163.077 87.0113Z" fill="white"/>
</svg>
