<svg width="385" height="385" viewBox="0 0 385 385" fill="none" xmlns="http://www.w3.org/2000/svg">
<g clip-path="url(#clip0_419_505)">
<path d="M327.51 282.956C327.28 289.417 327.785 295.922 325.548 302.211C320.046 317.682 306.485 327.486 290.055 327.498C247.678 327.543 205.309 327.511 162.932 327.511C121.834 327.511 80.7426 327.517 39.6445 327.511C16.6318 327.505 0.795867 311.611 0.795867 288.522C0.789477 243.602 0.757503 198.676 0.815019 153.756C0.840581 135.607 12.8422 120.666 30.2375 116.966C36.8582 115.553 43.6066 116.103 50.2976 116.179C52.8347 116.211 53.461 115.496 53.4418 113.003C53.3907 105.347 52.9689 97.6659 53.6783 90.0227C55.391 71.5921 70.7796 57.1876 89.2613 56.6892C94.476 56.5486 99.6972 56.6444 104.912 56.6444C181.357 56.6444 257.795 56.6316 334.24 56.6508C352.83 56.6572 367.4 68.0389 371.631 85.7537C372.053 87.5111 372.347 89.2941 372.705 91.0643C372.673 91.697 372.615 92.3361 372.615 92.9687C372.615 138.828 372.724 184.693 372.551 230.553C372.494 246.395 364.819 257.84 350.593 264.762C344.215 267.867 337.294 268.327 330.328 268.014C328.168 267.918 327.274 268.526 327.376 270.833C327.561 274.871 327.478 278.917 327.51 282.956ZM315.144 282.655C315.183 278.936 315.036 275.197 315.323 271.497C315.547 268.621 314.576 267.989 311.789 267.995C262.083 268.085 212.377 268.181 162.677 268.014C135.977 267.925 109.27 268.826 82.5831 267.433C77.5856 265.643 72.5818 263.899 68.3 260.582C58.0495 252.639 53.3651 242.094 53.3715 229.262C53.3907 197.008 53.3843 164.748 53.3715 132.495C53.3715 127.868 53.7741 128.501 49.2176 128.475C45.3832 128.456 41.5425 128.347 37.7209 128.558C22.8755 129.383 13.1042 139.639 13.0914 154.472C13.0595 199.5 13.085 244.529 13.0978 289.557C13.0978 292.765 13.5132 295.922 14.6635 298.951C18.549 309.189 27.6237 315.196 39.3505 315.196C121.438 315.203 203.526 315.203 285.613 315.196C287.422 315.196 289.237 315.247 291.039 315.152C302.191 314.583 311.406 307.368 314.23 296.913C315.496 292.248 315.425 287.448 315.144 282.655ZM357.815 84.5523C358.115 83.1527 357.354 82.0855 356.677 81.0119C351.437 72.7488 343.832 68.9464 334.137 68.9464C253.436 68.9655 172.742 68.9592 92.0412 68.9719C76.2627 68.9719 65.8205 79.4078 65.8141 95.1799C65.8013 139.569 65.8013 183.958 65.8077 228.348C65.8077 230.156 65.7438 231.984 65.9802 233.767C67.0091 241.455 70.5495 247.59 77.3875 251.59C82.1421 255.271 87.7276 255.642 93.428 255.642C173.4 255.636 253.373 255.636 333.338 255.629C335.888 255.629 338.445 255.604 340.956 254.997C352.197 252.261 357.802 244.51 359.994 233.697C360.773 232.54 360.492 231.224 360.492 229.977C360.511 184.904 360.511 139.831 360.492 94.7581C360.492 93.5119 360.786 92.1955 359.987 91.0388C359.08 88.9426 359.054 86.5462 357.815 84.5523Z" fill="#4F4F4F"/>
<path d="M327.511 282.956C327.479 278.917 327.562 274.878 327.383 270.845C327.281 268.538 328.175 267.931 330.335 268.027C337.301 268.34 344.222 267.88 350.6 264.774C364.825 257.853 372.501 246.408 372.558 230.565C372.731 184.706 372.616 138.841 372.622 92.9815C372.622 92.3488 372.68 91.7098 372.712 91.0771C378.252 93.9656 380.674 99.1804 382.79 104.612C384.496 108.99 384.151 113.591 384.144 118.148C384.138 163.144 384.157 208.147 384.093 253.143C384.074 266.525 372.839 279.358 359.624 281.69C355.508 282.412 351.418 282.649 347.27 282.694C340.675 282.758 334.087 282.285 327.511 282.956Z" fill="#C50000"/>
<path d="M359.994 233.697C357.802 244.51 352.197 252.268 340.956 254.997C338.445 255.61 335.895 255.629 333.339 255.629C253.366 255.636 173.394 255.636 93.4281 255.642C87.7277 255.642 82.1487 255.271 77.394 251.59C77.426 250.21 77.4835 248.823 77.4835 247.443C77.4835 203.156 77.3877 158.869 77.5283 114.582C77.5794 97.4613 90.7632 83.7343 108.35 83.5937C137.523 83.3636 166.697 83.5106 195.87 83.5106C247.934 83.5106 300.005 83.5042 352.07 83.5489C353.999 83.5489 356.153 82.814 357.821 84.5459C360.384 85.9135 360.556 87.4344 360.55 90.8662C360.505 91.7161 360.55 92.7067 360.55 93.5503C360.544 138.668 359.853 183.799 359.86 228.916C359.853 230.514 359.943 232.105 359.994 233.697ZM201.327 166.244C201.327 176.034 201.289 185.818 201.347 195.609C201.372 200.433 205.283 202.734 209.38 200.286C225.318 190.764 241.243 181.204 257.118 171.573C261.719 168.781 261.7 164.045 257.13 161.214C250.503 157.111 243.78 153.168 237.102 149.142C228.085 143.704 219.087 138.234 210.051 132.821C205.117 129.868 201.372 131.875 201.34 137.518C201.283 147.091 201.327 156.664 201.327 166.244Z" fill="#C50000"/>
<path d="M315.144 282.655C246.119 282.649 177.094 282.713 108.063 282.566C98.2786 282.547 90.1178 278.239 83.9125 270.551C83.2031 269.67 82.3276 268.768 82.5704 267.439C109.258 268.832 135.97 267.925 162.664 268.021C212.37 268.193 262.077 268.091 311.777 268.002C314.563 267.995 315.534 268.628 315.311 271.504C315.036 275.197 315.183 278.936 315.144 282.655Z" fill="#C50000"/>
<path d="M359.994 233.697C359.949 232.105 359.86 230.514 359.86 228.923C359.853 183.805 359.854 138.694 359.854 93.5758C359.854 92.7323 359.937 91.8823 359.988 91.0388C360.787 92.1891 360.493 93.5055 360.493 94.7581C360.512 139.831 360.505 184.904 360.493 229.977C360.486 231.223 360.774 232.54 359.994 233.697Z" fill="#FF0000"/>
<path d="M165 168C165 158.427 193.442 145.573 193.5 136C193.532 130.357 211.066 123.548 216 126.5C225.036 131.913 245.483 143.062 254.5 148.5C261.178 152.526 273.873 160.397 280.5 164.5C285.076 167.331 277.601 197.207 273 200C257.126 209.631 231.938 225.478 216 235C211.904 237.448 186.026 201.825 186 197C185.942 187.21 165 177.784 165 168Z" fill="#C50000"/>
<path d="M129.899 300.785C102.004 300.785 74.1157 300.785 46.2206 300.785C45.3706 300.785 44.5143 300.792 43.6643 300.779C41.0825 300.753 39.3315 299.673 39.1206 296.919C38.9353 294.433 40.6096 292.842 43.6324 292.676C45.7541 292.561 47.8885 292.637 50.0166 292.637C104.631 292.637 159.245 292.637 213.859 292.644C215.138 292.644 216.429 292.612 217.681 292.823C219.828 293.181 221.164 294.516 221.132 296.747C221.1 299.092 219.771 300.491 217.4 300.734C216.345 300.843 215.272 300.792 214.211 300.792C186.111 300.785 158.005 300.785 129.899 300.785Z" fill="#4F4F4F"/>
<path d="M261.668 300.785C254.542 300.785 247.416 300.805 240.297 300.779C236.808 300.766 234.993 299.322 235.031 296.702C235.063 294.203 236.776 292.695 240.106 292.682C254.67 292.625 269.24 292.618 283.805 292.669C286.987 292.682 288.872 294.376 288.821 296.81C288.77 299.258 286.91 300.76 283.683 300.773C276.34 300.811 269.004 300.785 261.668 300.785Z" fill="#4F4F4F"/>
<path d="M205.454 179.728C205.454 170.155 205.409 160.575 205.466 151.002C205.498 145.359 209.243 143.352 214.177 146.305C223.213 151.718 232.211 157.188 241.228 162.627C247.907 166.653 254.629 170.596 261.257 174.699C265.832 177.53 265.845 182.265 261.244 185.058C245.369 194.688 229.444 204.249 213.506 213.771C209.409 216.218 205.498 213.918 205.473 209.093C205.415 199.309 205.454 189.518 205.454 179.728Z" fill="#F6F5F2"/>
</g>
<defs>
<clipPath id="clip0_419_505">
<rect width="385" height="385" fill="white"/>
</clipPath>
</defs>
</svg>
