<svg width="385" height="385" viewBox="0 0 385 385" fill="none" xmlns="http://www.w3.org/2000/svg">
<path d="M155.547 109.488C141.592 101.018 134.65 89.2086 135.106 74.5758C135.19 71.8498 135.777 69.0654 136.724 66.4465C148.006 35.0389 148.294 31.2809 140.897 0C144.613 3.40751 147.611 5.99722 150.392 8.73296C162.981 21.0779 176.804 32.7608 187.763 46.0014C205.962 68.0236 203.78 88.0306 183.099 108.573C179.718 111.932 178.723 114.999 179.67 119.166C180.917 124.647 181.312 130.264 183.231 136.067C187.055 130.313 190.592 124.423 194.776 118.844C202.449 108.602 210.003 98.2629 218.575 88.5271C223.982 82.3839 225.625 76.2601 224.617 68.9583C222.352 52.5535 223.467 36.2462 228.298 20.1627C228.862 18.274 229.473 16.3755 230.312 14.5647C237.242 -0.584153 236.295 0.155778 255.634 2.5313C268.054 4.05981 278.269 9.42421 287.489 16.2003C290.402 18.3422 290.978 20.5327 290.163 23.5216C285.007 42.2434 275.979 59.6314 262.563 75.4131C254.638 84.7302 249.028 94.7191 245.251 105.633C240.563 119.185 234.868 132.513 229.629 145.939C229.101 147.282 228.634 148.645 227.998 150.349C238.513 151.975 248.716 153.241 258.739 155.139C290.606 161.175 321.383 169.46 348.286 185.232C362.266 193.43 374.063 203.282 380.465 216.542C390.093 236.481 383.787 254.083 367.253 269.777C354.101 282.259 337.148 290.378 318.793 296.755C272.718 312.761 224.606 322.195 174.802 326.04C170.282 326.391 169.071 327.812 168.064 331.171C162.993 347.994 157.454 364.73 152.035 381.476C151.699 382.517 150.992 383.471 150.164 385C142.863 373.969 139.266 362.569 136.389 351.012C134.806 344.665 133.895 338.21 132.42 331.833C132.073 330.344 130.658 329.019 129.735 327.618C127.696 328.533 125.191 329.107 123.704 330.441C119.4 334.277 115.491 338.424 111.427 342.445C110.792 342.182 110.156 341.919 109.521 341.647C109.137 338.638 108.262 335.601 108.502 332.622C108.849 328.134 107.027 326.644 101.284 326.118C75.1356 323.743 49.8503 318.534 26.2555 308.828C20.9802 306.656 15.9208 303.823 11.5567 300.581C2.63668 293.951 0.886269 285.15 8.35556 277.449C14.9257 270.683 22.7427 264.218 31.5308 259.477C46.4454 251.435 62.6548 245 78.109 237.601C85.1227 234.242 91.8966 230.455 98.2869 226.356C100.409 224.993 102.639 221.537 101.884 220.008C101.008 218.246 96.8481 216.562 94.1386 216.591C82.6169 216.688 70.9873 216.786 59.5976 218.09C43.5679 219.921 27.6822 222.433 11.4248 220.32C9.47056 220.067 7.46835 219.736 5.64599 219.142C-0.0968605 217.282 -1.82334 213.748 2.16908 210.019C6.55714 205.911 11.5687 201.929 17.2156 199.067C54.0825 180.403 92.3162 164.028 134.842 155.402C138.667 154.623 140.417 153.406 141.136 150.106C142.623 143.252 144.553 136.437 146.939 129.758C149.301 123.147 152.454 116.683 155.547 109.488ZM206.718 192.962C200.231 205.083 193.985 216.776 187.942 228.089C193.661 231.049 199.512 233.327 204.224 236.666C212.796 242.751 212.544 250.374 203.912 256.255C200.459 258.601 196.335 260.499 192.163 261.911C177.967 266.711 162.885 268.191 147.682 268.668C134.83 269.067 122.085 268.259 110.312 263.43C96.4405 257.734 95.0498 248.261 107.435 240.619C112.914 237.231 119.616 235.177 125.598 232.305C127.241 231.516 129.387 230.065 129.543 228.78C130.67 219.298 131.341 209.776 132.168 200.264C123.5 199.213 115 198.502 106.679 197.061C101.104 196.097 94.3664 194.832 93.3832 189.38C92.3522 183.675 98.3228 180.53 103.802 178.758C113.189 175.73 122.985 173.501 132.72 171.252C135.825 170.531 138.031 170.044 136.76 166.705C135.537 166.832 134.362 166.851 133.259 167.085C107.626 172.508 83.1804 180.462 60.3409 191.278C52.9435 194.783 46.4333 199.904 40.6066 205.083C36.4223 208.803 38.4965 212.044 44.8028 212.882C48.4835 213.369 52.3801 213.291 56.1087 212.95C68.7933 211.811 81.406 209.942 94.1146 209.328C102.375 208.929 110.9 209.62 119.04 210.935C127.325 212.278 128.476 216.523 122.481 221.303C119.376 223.786 115.863 226.035 112.17 227.904C102.015 233.035 91.381 237.581 81.4419 242.965C68.5895 249.917 56.5763 257.773 49.5146 269.398C42.465 281.022 45.6421 291.809 59.3098 298.43C67.0549 302.188 75.831 305.586 84.6191 306.686C108.634 309.704 132.84 312.595 157.07 313.403C201.79 314.903 244.052 305.43 284.707 290.924C308.015 282.599 328.912 271.53 344.774 254.94C365.611 233.152 362.014 209.64 335.122 192.797C332.125 190.918 329.032 189.097 325.771 187.549C295.21 173.102 261.616 166.53 227.027 162.431C221.536 161.779 220.589 163.784 220.409 167.523C236.655 167.669 250.922 171.67 260.957 181.961C267.395 188.562 275.332 191.093 284.935 192.203C302.02 194.179 317.738 199.252 331.681 207.498C336.777 210.506 341.68 214.07 345.493 218.12C351.392 224.38 348.31 230.484 338.887 232.558C335.818 233.229 332.629 233.629 329.463 233.901C323.565 234.408 320.687 236.705 320.615 241.748C320.483 249.527 317.102 256.342 309.777 261.599C294.011 272.912 276.087 277.683 255.538 272.143C241.45 268.346 238.861 258.873 249.279 250.403C252.6 247.697 256.569 245.088 260.873 243.705C270.464 240.619 280.463 238.389 290.258 235.712C293.879 234.719 297.38 233.453 300.941 232.314C300.881 231.828 300.821 231.341 300.773 230.864C298.615 230.27 296.505 229.423 294.287 229.131C283.497 227.709 276.075 222.734 271.759 214.809C269.757 211.139 268.534 207.157 267.371 203.234C266.292 199.554 263.535 197.889 259.206 198.307C241.378 200.021 224.21 197.587 206.718 192.962ZM151.735 155.86C150.584 159.754 148.989 163.911 148.162 168.165C142.947 195.017 142.923 222.092 143.306 249.177C143.45 259.166 143.534 259.029 155.955 258.172C160.535 257.861 162.417 256.712 162.621 252.662C163.928 226.755 165.582 200.848 167.141 174.951C167.525 168.516 167.932 162.09 168.316 155.85C162.753 155.86 157.693 155.86 151.735 155.86ZM183.77 202.318C184.31 202.367 184.837 202.426 185.377 202.474C197.881 176.791 210.398 151.099 222.807 125.62C217.592 124.267 212.604 122.972 207.077 121.531C197.258 132.533 190.268 145.199 183.998 158.167C183.722 158.741 183.782 159.452 183.782 160.095C183.77 174.172 183.77 188.25 183.77 202.318ZM236.499 54.6857C237.158 58.7358 237.806 64.032 238.969 69.2601C239.556 71.9082 241.498 73.3686 244.855 71.032C256.293 63.1071 264.925 53.5466 270.105 42.0584C270.596 40.9583 270.213 38.6022 269.325 38.2323C261.293 34.815 253.176 31.4659 244.807 28.6231C241.187 27.3964 239.064 29.1488 238.813 32.5855C238.321 39.5369 237.386 46.4492 236.499 54.6857ZM163.616 57.3825C146.472 69.3088 148.57 84.2823 159.444 95.9555C164.324 101.193 170.27 100.853 175.246 95.4882C181.216 89.0528 182.511 81.6439 181.804 73.8261C181.552 70.9638 180.617 69.5522 176.481 69.5327C169.779 69.5035 166.446 66.8846 164.839 61.5591C164.455 60.3227 164.108 59.0862 163.616 57.3825ZM238.597 91.3408C234.509 91.6523 231.128 91.1071 230.049 92.1391C225.96 96.0723 222.256 100.366 219.258 104.893C218.503 106.042 220.337 109.401 222.076 110.218C223.706 110.987 228.262 110.374 228.97 109.274C232.375 104.046 234.904 98.4381 238.597 91.3408ZM169.191 120.821C164.168 119.117 161.746 120.178 160.667 123.537C159.312 127.762 157.729 131.949 156.543 136.203C155.607 139.523 158.329 141.013 161.77 141.499C165.211 141.986 167.752 140.866 168.016 137.751C168.496 132.134 168.808 126.487 169.191 120.821Z" fill="#4F4F4F"/>
<path d="M169.191 120.821C168.808 126.487 168.496 132.134 168.016 137.771C167.753 140.886 165.199 142.006 161.77 141.519C158.329 141.022 155.607 139.542 156.543 136.223" fill="white"/>
</svg>
