<svg width="457" height="458" viewBox="0 0 457 458" fill="none" xmlns="http://www.w3.org/2000/svg">
<path d="M67.09 389.99C53.68 377.34 42.7399 362.72 33.1699 347.05C23.1499 330.64 15.29 313.24 9.78998 294.8C9.02998 292.26 8.55995 289.64 7.94995 287.06C10.86 286.38 13.7799 285.78 16.6699 285.02C38.1899 279.36 59.7099 273.68 81.2299 268C84.7899 278.7 88.24 289.44 93.7599 299.34C94.42 300.53 94.32 303.03 96.95 302.02C100.8 298.62 102.53 293.82 105.01 289.55C121.87 260.53 138.58 231.44 155.43 202.41C157.75 198.42 159.5 193.99 163.26 190.98C184.85 203.39 206.45 215.81 228.04 228.22C229.14 230.57 229 233.09 229 235.58C229 255.88 229 276.19 229.01 296.49C229.01 303.94 229.09 304.02 236.54 304.02C277.65 304.03 318.76 304.04 359.86 304.04C359.76 304.38 359.65 304.71 359.55 305.05C359.01 305.04 358.48 305.04 357.94 305.03C273.77 305.02 189.6 305.01 105.43 305.01C103.28 305.01 101.08 304.79 99.08 305.9C97.36 308 99.45 309.26 100.29 310.61C106.24 320.21 113.72 328.59 121.32 336.88C119.46 338.52 117.53 340.08 115.76 341.81C108.43 348.99 101.36 356.45 93.79 363.38C84.52 371.89 75.64 380.77 67.09 389.99Z" fill="white"/>
<path d="M99.0801 305.931C101.08 304.821 103.28 305.041 105.43 305.041C189.6 305.041 273.77 305.051 357.94 305.061C357.93 305.361 357.93 305.671 357.93 305.971C315.58 330.501 273.24 355.041 230.89 379.571C243.38 380.941 255.16 378.411 266.94 376.011C269.42 377.271 269.36 379.831 269.95 382.011C275.97 404.311 281.95 426.631 287.94 448.941C272.81 453.751 257.17 455.771 241.43 456.691C217.74 458.081 194.34 455.741 171.33 449.841C170.54 449.641 169.79 449.251 169.02 448.941C173.8 430.871 178.46 412.761 183.44 394.741C185.19 388.401 186.09 381.751 189.34 375.861C201.39 378.161 213.38 381.111 225.9 379.961C219.75 375.781 213.44 372.131 207.13 368.471C171.13 347.631 135.11 326.781 99.0801 305.931Z" fill="#E7E7E7"/>
<path d="M357.94 305.961C357.94 305.661 357.94 305.351 357.95 305.051C358.49 305.061 359.02 305.06 359.57 305.07C360.86 304.48 361.72 303.55 362 302.13C367.94 291.3 372.09 279.741 375.89 268.041C377.52 268.311 379.18 268.461 380.77 268.871C395.34 272.711 409.97 276.331 424.42 280.581C432.63 282.991 441.29 284.021 448.99 288.111C442.51 314.281 430.78 338.021 415.41 360.031C407.88 370.811 399.74 381.11 389.96 390C388.52 388.4 387.17 386.711 385.64 385.211C371.32 371.181 357.02 357.151 342.6 343.221C340.38 341.081 339.15 337.821 335.76 336.951C343.28 328.59 350.89 320.301 356.78 310.661C357.59 309.311 359.66 308.041 357.94 305.961Z" fill="#EDEDED"/>
<path d="M335.74 336.96C339.12 337.83 340.36 341.09 342.58 343.23C357 357.15 371.3 371.19 385.62 385.22C387.15 386.72 388.5 388.41 389.94 390.01C375.4 405.38 358.45 417.61 340.08 427.92C323.63 437.15 306.39 444.56 287.96 448.94C281.97 426.63 275.99 404.31 269.97 382.01C269.38 379.83 269.44 377.27 266.96 376.01C270.58 374.85 274.2 373.71 277.81 372.53C299.96 365.29 318.85 352.75 335.74 336.96Z" fill="white"/>
<path d="M448.97 288.121C441.27 284.021 432.61 283.001 424.4 280.591C409.95 276.341 395.31 272.721 380.75 268.881C379.16 268.461 377.5 268.321 375.87 268.051C378.25 256.161 380.62 244.281 380.95 232.081C381.34 217.501 378.91 203.281 375.94 189.111C385.89 186.461 395.85 183.861 405.78 181.131C420.18 177.171 434.56 173.111 448.95 169.101C452.92 180.461 454.36 192.331 455.83 204.181C456.36 208.461 456.62 212.781 457 217.071C457 224.751 456.99 232.431 456.99 240.111C455.54 256.311 453.96 272.501 448.97 288.121Z" fill="white"/>
<path d="M81.22 268.011C59.7 273.691 38.18 279.371 16.66 285.031C13.77 285.791 10.85 286.401 7.94 287.071C4.08 275.851 2.66002 264.161 1.21002 252.481C0.700022 248.371 0.40001 244.221 0.0100098 240.091C0.0100098 232.421 0.01 224.751 0 217.081C1.54 200.881 2.96 184.671 8.06 169.071C9.29 169.551 10.49 170.161 11.76 170.501C34.88 176.731 58.01 182.931 81.14 189.131C78.76 201.021 76.39 212.891 76.11 225.091C75.78 239.651 78.16 253.861 81.22 268.011Z" fill="#F1F1F1"/>
<path d="M189.36 375.86C186.11 381.75 185.21 388.39 183.46 394.74C178.48 412.76 173.82 430.87 169.04 448.94C145.05 443 123.04 432.59 102.47 419.06C89.6601 410.64 77.6001 401.25 67.0901 390C75.6401 380.78 84.5201 371.9 93.8 363.4C101.36 356.48 108.44 349.01 115.77 341.83C117.54 340.1 119.47 338.54 121.33 336.9C128.7 343.35 136.02 349.84 144.18 355.34C158.1 364.74 173.43 370.93 189.36 375.86Z" fill="#F2F2F2"/>
<path d="M448.95 169.09C434.56 173.11 420.19 177.16 405.78 181.12C395.85 183.85 385.89 186.44 375.94 189.1C371.8 177.67 368.76 165.76 361.72 155.33C360.47 156.74 360.77 157.95 360.77 159.07C360.75 205.03 360.75 250.99 360.77 296.95C360.77 298.75 360.51 300.66 361.99 302.13C361.71 303.54 360.85 304.48 359.56 305.07C359.66 304.73 359.76 304.4 359.86 304.06C359.52 303.3 359.26 302.5 358.84 301.78C338.23 266.05 317.61 230.33 296.98 194.61C296.06 193.02 295.07 191.44 293.01 191.11C294.05 188.11 291.96 186.01 290.69 183.8C271.04 149.69 251.32 115.62 231.63 81.5305C230.83 80.1405 229.42 78.9205 230.15 77.0205C272.86 101.66 315.57 126.29 358.28 150.92C353.05 139.26 345.04 130.16 336.83 121.2C337.49 120.07 337.95 118.73 338.84 117.84C355.86 100.86 372.93 83.9405 389.99 67.0105C406.69 82.6805 419.64 101.18 430.38 121.25C438.51 136.43 445.24 152.19 448.95 169.09Z" fill="#F4F4F4"/>
<path d="M81.1401 189.121C58.0101 182.921 34.8801 176.721 11.7601 170.491C10.4901 170.151 9.29006 169.541 8.06006 169.061C13.2501 147.121 22.6101 126.961 34.3901 107.891C43.6001 92.9805 54.1201 79.0605 67.0001 67.0505C84.0801 83.9905 101.17 100.921 118.21 117.901C119.11 118.791 119.55 120.141 120.2 121.281C111.87 130.211 103.95 139.451 98.7501 150.991C141.45 126.331 184.15 101.661 226.85 77.0005C227.47 79.4605 225.61 81.0505 224.59 82.8305C208.12 111.471 191.48 140.011 175.11 168.711C170.94 176.011 165.67 182.761 163.24 191.001C159.47 194.011 157.72 198.441 155.41 202.431C138.56 231.451 121.84 260.551 104.99 289.571C102.51 293.841 100.78 298.641 96.9301 302.041C96.8601 299.711 96.7201 297.391 96.7201 295.061C96.7101 250.141 96.7201 205.211 96.6801 160.291C96.6801 158.401 97.31 156.351 95.8 154.181C88.83 165.171 85.1901 177.241 81.1401 189.121Z" fill="#E7E7E7"/>
<path d="M163.26 191.001C165.69 182.761 170.96 176.011 175.13 168.711C191.5 140.011 208.14 111.471 224.61 82.8305C225.63 81.0505 227.49 79.4705 226.87 77.0005C223.52 75.5805 220.08 76.2505 216.64 76.5205C207.26 77.2505 198.11 79.3805 188.88 81.0205C182.88 58.5205 176.89 36.0205 170.86 13.5305C170.31 11.4905 170.23 9.15052 167.95 8.00052C194.5 0.650524 221.48 -1.45949 248.9 0.950505C262.51 2.15051 275.9 4.34052 289.03 8.12052C286.55 9.38052 286.6 11.9405 286.01 14.1205C279.99 36.4405 274.01 58.7705 268.01 81.1005C263.94 80.2705 259.9 79.1905 255.78 78.6605C247.28 77.5605 238.86 74.9105 230.15 77.0405C229.41 78.9405 230.83 80.1705 231.63 81.5605C251.32 115.651 271.04 149.721 290.69 183.831C291.96 186.041 294.05 188.131 293.01 191.131C285.38 195.541 277.77 199.991 270.11 204.361C256.1 212.351 242.07 220.29 228.04 228.25C206.45 215.83 184.86 203.411 163.26 191.001ZM227.3 220.621C229.98 220.851 231.83 219.521 233.66 218.481C250.12 209.081 266.5 199.541 282.96 190.151C285.66 188.611 285.75 187.121 284.36 184.531C278.47 173.551 272.42 162.611 266.02 151.971C257.53 137.861 249.34 123.591 241.06 109.361C237.64 103.481 234.16 97.6405 230.77 91.7505C229.18 88.9805 227.83 89.1305 226.21 91.7505C225.17 93.4305 223.47 94.7405 222.61 96.4805C214.9 112.261 205.51 127.111 197.04 142.471C189.35 156.411 181.19 170.091 173.09 183.791C171.32 186.791 171.15 188.511 174.6 190.501C188.06 198.281 201.2 206.63 214.78 214.201C218.93 216.501 222.87 219.501 227.3 220.621Z" fill="#DEDEDE"/>
<path d="M167.96 8.0105C170.24 9.1605 170.32 11.5005 170.87 13.5405C176.89 36.0305 182.89 58.5305 188.89 81.0305C188.15 81.3905 187.44 81.8705 186.66 82.0905C161.06 89.3205 139.06 102.63 120.23 121.3C119.58 120.16 119.13 118.82 118.24 117.92C101.2 100.94 84.11 84.0105 67.03 67.0705C82.34 50.7505 100.45 38.1205 119.91 27.3805C135.1 18.9605 151.17 12.5505 167.96 8.0105Z" fill="#C8C8C8"/>
<path d="M268.02 81.1106C274.01 58.7806 279.99 36.4506 286.02 14.1306C286.61 11.9506 286.56 9.39062 289.04 8.13062C310.17 13.5906 329.87 22.3906 348.37 33.8606C363.54 43.2606 377.92 53.7406 390.01 67.0406C372.95 83.9706 355.88 100.901 338.86 117.871C337.96 118.771 337.51 120.101 336.85 121.231C328.28 113.151 319.36 105.531 309.33 99.2306C296.44 91.1306 282.43 85.6806 268.02 81.1106Z" fill="#D2D2D2"/>
<path d="M228.05 228.241C242.07 220.281 256.11 212.341 270.12 204.351C277.78 199.981 285.39 195.531 293.02 191.121C295.08 191.441 296.07 193.031 296.99 194.621C317.62 230.331 338.24 266.061 358.85 301.791C359.26 302.511 359.53 303.311 359.87 304.071C318.76 304.061 277.65 304.061 236.55 304.051C229.11 304.051 229.03 303.971 229.02 296.521C229.01 276.221 229.02 255.911 229.01 235.611C229.01 233.111 229.15 230.591 228.05 228.241Z" fill="#EDEDED"/>
<path d="M226.22 223.5C221.79 222.38 218.5 222.471 215.5 218.471C202.71 215.28 189 204 176 194.5C172.89 196.01 168.22 187.521 170 184.521C173.9 170.74 182 158.5 192.5 144.5C197.45 129.04 210 112 220.5 96.0002C221.35 94.2502 224.5 83.2595 226.22 87C227.85 84.38 228.91 84.2302 230.5 87.0002C234.72 85.7598 238.58 99.6302 242 105.5C252.43 115.65 258.51 133.89 267 148C273.4 158.64 280.11 170.52 286 181.5C289.63 182.98 288.7 191.47 286 193C269.54 202.39 252.95 211.6 236.5 221C234.66 222.05 227.92 227.38 226.22 223.5Z" fill="#DEDEDE"/>
</svg>
