<svg width="132" height="157" viewBox="0 0 132 157" fill="none" xmlns="http://www.w3.org/2000/svg">
<g clip-path="url(#clip0_1020_1157)">
<path d="M124.99 0.789553C123.794 0.789553 115.297 2.47305 45.6374 15.5815C45.0932 15.5815 42.4888 16.2653 41.0577 17.4668C39.6535 18.6008 38.9055 20.1145 38.63 21.8965C37.4677 26.5607 41.1713 110.648 37.7245 114.59C36.2196 116.271 33.5668 116.757 31.5176 117.135C19.2626 119.295 11.1037 120.426 5.29871 125.981C-4.70551 135.789 0.478108 152.903 15.2325 155.684C20.762 156.71 31.1469 155.317 36.8847 152.124C41.9372 149.512 45.7679 144.815 47.199 138.571C48.4286 133.219 48.052 136.919 48.052 56.398C48.052 52.4492 49.1515 51.4191 52.6318 50.6631C52.6318 50.6631 113.238 39.2771 116.04 38.7979C119.964 38.1094 121.84 39.1759 121.84 43.0166C121.84 97.6039 122.528 96.5368 120.344 99.0073C118.839 100.688 117.053 101.161 115.003 101.539C102.742 103.699 95.3374 104.078 89.5324 109.633C82.1888 116.836 82.2877 128.258 90.451 135.157C96.5315 139.814 103.358 140.961 111.723 139.415C121.25 137.626 128.357 132.338 130.54 122.936C131.528 118.649 131.211 124.993 131.17 6.82764C131.17 2.84514 128.913 0.512803 124.99 0.789553Z" fill="white"/>
</g>
<defs>
<clipPath id="clip0_1020_1157">
<rect width="132" height="157" fill="white"/>
</clipPath>
</defs>
</svg>
