<svg width="81" height="34" viewBox="0 0 81 34" fill="none" xmlns="http://www.w3.org/2000/svg">
<rect width="81" height="33.5491" rx="10" fill="#F60000"/>
<path d="M22.9151 17.537H24.3734V18.9953H22.9151V17.537ZM22.9151 16.0788H24.3734V17.537H22.9151V16.0788ZM24.3734 16.0788H25.8316V17.537H24.3734V16.0788ZM24.3734 17.537H25.8316V18.9953H24.3734V17.537ZM24.3734 18.9953H25.8316V20.4535H24.3734V18.9953ZM22.9151 18.9953H24.3734V20.4535H22.9151V18.9953ZM22.9151 13.1624H24.3734V14.6206H22.9151V13.1624ZM22.9151 14.6206H24.3734V16.0788H22.9151V14.6206ZM21.4569 16.0788H22.9151V17.537H21.4569V16.0788ZM21.4569 14.6206H22.9151V16.0788H21.4569V14.6206ZM21.4569 13.1624H22.9151V14.6206H21.4569V13.1624ZM18.5405 10.2459H19.9987V11.7042H18.5405V10.2459ZM19.9987 10.2459H21.4569V11.7042H19.9987V10.2459ZM21.4569 10.2459H22.9151V11.7042H21.4569V10.2459ZM21.4569 11.7042H22.9151V13.1624H21.4569V11.7042ZM19.9987 11.7042H21.4569V13.1624H19.9987V11.7042ZM18.5405 11.7042H19.9987V13.1624H18.5405V11.7042ZM18.5405 13.1624H19.9987V14.6206H18.5405V13.1624ZM19.9987 13.1624H21.4569V14.6206H19.9987V13.1624ZM19.9987 14.6206H21.4569V16.0788H19.9987V14.6206ZM19.9987 16.0788H21.4569V17.537H19.9987V16.0788ZM18.5405 16.0788H19.9987V17.537H18.5405V16.0788ZM18.5405 14.6206H19.9987V16.0788H18.5405V14.6206ZM18.5405 17.537H19.9987V18.9953H18.5405V17.537ZM19.9987 17.537H21.4569V18.9953H19.9987V17.537ZM19.9987 18.9953H21.4569V20.4535H19.9987V18.9953ZM19.9987 20.4535H21.4569V21.9117H19.9987V20.4535ZM19.9987 21.9117H21.4569V23.3699H19.9987V21.9117ZM19.9987 23.3699H21.4569V24.8281H19.9987V23.3699ZM18.5405 23.3699H19.9987V24.8281H18.5405V23.3699ZM18.5405 21.9117H19.9987V23.3699H18.5405V21.9117ZM18.5405 20.4535H19.9987V21.9117H18.5405V20.4535ZM18.5405 18.9953H19.9987V20.4535H18.5405V18.9953ZM24.3734 20.4535H25.8316V21.9117H24.3734V20.4535ZM24.3734 21.9117H25.8316V23.3699H24.3734V21.9117ZM25.8316 20.4535H27.2898V21.9117H25.8316V20.4535ZM25.8316 18.9953H27.2898V20.4535H25.8316V18.9953ZM25.8316 21.9117H27.2898V23.3699H25.8316V21.9117ZM25.8316 23.3699H27.2898V24.8281H25.8316V23.3699ZM27.2898 23.3699H28.748V24.8281H27.2898V23.3699ZM28.748 23.3699H30.2062V24.8281H28.748V23.3699ZM28.748 21.9117H30.2062V23.3699H28.748V21.9117ZM28.748 20.4535H30.2062V21.9117H28.748V20.4535ZM27.2898 20.4535H28.748V21.9117H27.2898V20.4535ZM27.2898 21.9117H28.748V23.3699H27.2898V21.9117ZM27.2898 18.9953H28.748V20.4535H27.2898V18.9953ZM28.748 17.537H30.2062V18.9953H28.748V17.537ZM28.748 16.0788H30.2062V17.537H28.748V16.0788ZM28.748 18.9953H30.2062V20.4535H28.748V18.9953ZM27.2898 17.537H28.748V18.9953H27.2898V17.537ZM27.2898 16.0788H28.748V17.537H27.2898V16.0788ZM27.2898 14.6206H28.748V16.0788H27.2898V14.6206ZM28.748 14.6206H30.2062V16.0788H28.748V14.6206ZM28.748 13.1624H30.2062V14.6206H28.748V13.1624ZM27.2898 10.2459H28.748V11.7042H27.2898V10.2459ZM28.748 10.2459H30.2062V11.7042H28.748V10.2459ZM28.748 11.7042H30.2062V13.1624H28.748V11.7042ZM27.2898 11.7042H28.748V13.1624H27.2898V11.7042ZM27.2898 13.1624H28.748V14.6206H27.2898V13.1624ZM34.6663 10.2459H36.1245V11.7042H34.6663V10.2459ZM36.1245 10.2459H37.5827V11.7042H36.1245V10.2459ZM36.1245 11.7042H37.5827V13.1624H36.1245V11.7042ZM36.1245 13.1624H37.5827V14.6206H36.1245V13.1624ZM36.1245 14.6206H37.5827V16.0788H36.1245V14.6206ZM34.6663 14.6206H36.1245V16.0788H34.6663V14.6206ZM34.6663 13.1624H36.1245V14.6206H34.6663V13.1624ZM34.6663 11.7042H36.1245V13.1624H34.6663V11.7042ZM34.6663 16.0788H36.1245V17.537H34.6663V16.0788ZM34.6663 17.537H36.1245V18.9953H34.6663V17.537ZM34.6663 18.9953H36.1245V20.4535H34.6663V18.9953ZM36.1245 17.537H37.5827V18.9953H36.1245V17.537ZM36.1245 16.0788H37.5827V17.537H36.1245V16.0788ZM36.1245 18.9953H37.5827V20.4535H36.1245V18.9953ZM36.1245 20.4535H37.5827V21.9117H36.1245V20.4535ZM34.6663 21.9117H36.1245V23.3699H34.6663V21.9117ZM34.6663 20.4535H36.1245V21.9117H34.6663V20.4535ZM34.6663 23.3699H36.1245V24.8281H34.6663V23.3699ZM36.1245 23.3699H37.5827V24.8281H36.1245V23.3699ZM36.1245 21.9117H37.5827V23.3699H36.1245V21.9117ZM37.5827 23.3699H39.0409V24.8281H37.5827V23.3699ZM39.0409 23.3699H40.4991V24.8281H39.0409V23.3699ZM40.4991 23.3699H41.9574V24.8281H40.4991V23.3699ZM40.4991 21.9117H41.9574V23.3699H40.4991V21.9117ZM39.0409 21.9117H40.4991V23.3699H39.0409V21.9117ZM37.5827 21.9117H39.0409V23.3699H37.5827V21.9117ZM37.5827 10.2459H39.0409V11.7042H37.5827V10.2459ZM39.0409 10.2459H40.4991V11.7042H39.0409V10.2459ZM40.4991 10.2459H41.9574V11.7042H40.4991V10.2459ZM41.9574 10.2459H43.4156V11.7042H41.9574V10.2459ZM40.4991 11.7042H41.9574V13.1624H40.4991V11.7042ZM39.0409 11.7042H40.4991V13.1624H39.0409V11.7042ZM37.5827 11.7042H39.0409V13.1624H37.5827V11.7042ZM37.5827 17.537H39.0409V18.9953H37.5827V17.537ZM39.0409 16.0788H40.4991V17.537H39.0409V16.0788ZM37.5827 16.0788H39.0409V17.537H37.5827V16.0788ZM39.0409 17.537H40.4991V18.9953H39.0409V17.537ZM41.9574 11.7042H43.4156V13.1624H41.9574V11.7042ZM41.9574 21.9117H43.4156V23.3699H41.9574V21.9117ZM41.9574 23.3699H43.4156V24.8281H41.9574V23.3699ZM40.4991 16.0788H41.9574V17.537H40.4991V16.0788ZM40.4991 17.537H41.9574V18.9953H40.4991V17.537ZM50.7844 23.3699H52.2427V24.8281H50.7844V23.3699ZM50.7844 21.9117H52.2427V23.3699H50.7844V21.9117ZM50.7844 20.4535H52.2427V21.9117H50.7844V20.4535ZM49.3262 21.9117H50.7844V23.3699H49.3262V21.9117ZM49.3262 20.4535H50.7844V21.9117H49.3262V20.4535ZM47.868 20.4535H49.3262V21.9117H47.868V20.4535ZM49.3262 18.9953H50.7844V20.4535H49.3262V18.9953ZM52.2427 20.4535H53.7009V21.9117H52.2427V20.4535ZM52.2427 21.9117H53.7009V23.3699H52.2427V21.9117ZM53.7009 20.4535H55.1591V21.9117H53.7009V20.4535ZM47.868 18.9953H49.3262V20.4535H47.868V18.9953ZM49.3262 17.537H50.7844V18.9953H49.3262V17.537ZM47.868 17.537H49.3262V18.9953H47.868V17.537ZM47.868 16.0788H49.3262V17.537H47.868V16.0788ZM49.3262 16.0788H50.7844V17.537H49.3262V16.0788ZM49.3262 14.6206H50.7844V16.0788H49.3262V14.6206ZM47.868 14.6206H49.3262V16.0788H47.868V14.6206ZM47.868 13.1624H49.3262V14.6206H47.868V13.1624ZM49.3262 13.1624H50.7844V14.6206H49.3262V13.1624ZM47.868 10.2459H49.3262V11.7042H47.868V10.2459ZM49.3262 10.2459H50.7844V11.7042H49.3262V10.2459ZM49.3262 11.7042H50.7844V13.1624H49.3262V11.7042ZM47.868 11.7042H49.3262V13.1624H47.868V11.7042ZM58.0755 23.3699H59.5337V24.8281H58.0755V23.3699ZM58.0755 21.9117H59.5337V23.3699H58.0755V21.9117ZM58.0755 20.4535H59.5337V21.9117H58.0755V20.4535ZM56.6173 21.9117H58.0755V23.3699H56.6173V21.9117ZM56.6173 20.4535H58.0755V21.9117H56.6173V20.4535ZM55.1591 20.4535H56.6173V21.9117H55.1591V20.4535ZM55.1591 18.9953H56.6173V20.4535H55.1591V18.9953ZM59.5337 20.4535H60.992V21.9117H59.5337V20.4535ZM59.5337 21.9117H60.992V23.3699H59.5337V21.9117ZM59.5337 18.9953H60.992V20.4535H59.5337V18.9953ZM60.992 20.4535H62.4502V21.9117H60.992V20.4535ZM60.992 18.9953H62.4502V20.4535H60.992V18.9953ZM53.7009 18.9953H55.1591V20.4535H53.7009V18.9953ZM59.5337 10.2459H60.992V11.7042H59.5337V10.2459ZM60.992 10.2459H62.4502V11.7042H60.992V10.2459ZM60.992 11.7042H62.4502V13.1624H60.992V11.7042ZM60.992 13.1624H62.4502V14.6206H60.992V13.1624ZM60.992 14.6206H62.4502V16.0788H60.992V14.6206ZM60.992 16.0788H62.4502V17.537H60.992V16.0788ZM59.5337 16.0788H60.992V17.537H59.5337V16.0788ZM59.5337 17.537H60.992V18.9953H59.5337V17.537ZM59.5337 14.6206H60.992V16.0788H59.5337V14.6206ZM59.5337 13.1624H60.992V14.6206H59.5337V13.1624ZM59.5337 11.7042H60.992V13.1624H59.5337V11.7042ZM60.992 17.537H62.4502V18.9953H60.992V17.537ZM55.1591 17.537H56.6173V18.9953H55.1591V17.537ZM53.7009 17.537H55.1591V18.9953H53.7009V17.537ZM53.7009 16.0788H55.1591V17.537H53.7009V16.0788ZM55.1591 16.0788H56.6173V17.537H55.1591V16.0788ZM55.1591 14.6206H56.6173V16.0788H55.1591V14.6206ZM53.7009 14.6206H55.1591V16.0788H53.7009V14.6206ZM53.7009 13.1624H55.1591V14.6206H53.7009V13.1624ZM55.1591 13.1624H56.6173V14.6206H55.1591V13.1624ZM53.7009 10.2459H55.1591V11.7042H53.7009V10.2459ZM55.1591 10.2459H56.6173V11.7042H55.1591V10.2459ZM55.1591 11.7042H56.6173V13.1624H55.1591V11.7042ZM53.7009 11.7042H55.1591V13.1624H53.7009V11.7042Z" fill="white"/>
</svg>
