<svg width="74" height="34" viewBox="0 0 74 34" fill="none" xmlns="http://www.w3.org/2000/svg">
<rect width="74" height="33.5491" rx="8" fill="#4A4A4A"/>
<path d="M24.1947 10.0835L25.7533 10.1207L27.312 10.0835L27.3305 10.1207L27.312 10.1763V24H22.9515L18.7951 16.0769V24L17.2364 23.9629L15.6778 24L15.6592 23.9443L15.6778 23.9072V10.1763L15.6592 10.1207L15.6778 10.0835L17.2364 10.1207H19.1291L24.1947 19.7694V10.0835ZM41.5743 24L33.0945 23.9629L31.5359 24L31.5173 23.9443L31.5359 23.9072V10.1763L31.5173 10.1207L31.5359 10.0835L33.0945 10.1207L41.296 10.0835V11.3453L41.3331 12.6256L34.6532 12.6442V15.613H40.8692L40.9063 15.5945L40.962 15.613L40.9249 16.8191L40.962 18.0252L40.9063 18.0438L40.8692 18.0252H34.6532V21.4394L41.6114 21.4579L41.5743 22.7382V24ZM56.2448 10.0835L57.9148 10.1207L59.5848 10.0835L56.5974 24H53.61L51.6431 16.0398L49.602 24H46.5961L43.72 10.1207L43.7386 10.0835L45.4085 10.1207L47.0785 10.0835L48.4145 17.4314L50.1587 10.0835H53.1647L54.9831 17.4314L56.2448 10.0835Z" fill="#191919"/>
</svg>
