<svg width="142" height="176" viewBox="0 0 142 176" fill="none" xmlns="http://www.w3.org/2000/svg">
<path d="M71.1345 174.791C63.4987 174.791 55.8628 174.791 48.227 174.791C47.2893 174.791 46.3515 174.656 45.4138 174.253C23.8459 165.252 9.64586 149.398 3.61756 126.827C-6.29565 89.6122 16.344 51.1878 53.4515 41.5145C86.4062 32.916 120.701 49.4412 134.767 80.4763C140.661 93.6427 142.268 107.481 139.857 121.722C138.919 127.096 137.58 132.202 135.302 137.173C127.265 154.504 114.672 166.998 96.8553 174.253C96.0515 174.522 95.1138 174.791 94.176 174.791C86.4062 174.791 78.7704 174.791 71.1345 174.791ZM71.0006 164.177C77.4308 164.177 83.8609 164.177 90.4251 164.177C91.2289 164.177 92.1666 164.043 92.9704 163.774C102.75 159.744 111.189 153.698 117.619 144.965C121.638 139.456 125.121 133.545 127.265 126.827C130.614 116.214 131.016 105.466 128.336 94.5832C120.567 63.6824 90.2911 44.7389 59.2119 51.0534C28.4006 57.3679 7.63642 87.7313 13.2628 118.766C17.1477 140.128 29.4723 155.041 49.2987 163.64C50.1025 164.043 51.1742 164.177 52.1119 164.177C58.2742 164.177 64.5704 164.177 71.0006 164.177Z" fill="white"/>
<path d="M58.6761 1.47786C67.1157 1.47786 75.1534 1.47786 83.4591 1.47786C83.4591 2.95572 83.4591 4.43359 83.4591 5.91145C82.2534 5.91145 80.9138 5.91145 79.5742 5.91145C79.5742 9.27023 79.5742 12.4947 79.5742 15.8534C80.7798 15.8534 81.8515 15.8534 83.3251 15.8534C83.3251 21.4962 83.3251 26.8702 83.3251 32.3786C86.1383 32.3786 88.6836 32.3786 91.2289 32.3786C91.2289 34.1252 91.2289 35.6031 91.2289 37.2153C77.8327 37.2153 64.4364 37.2153 50.9062 37.2153C50.9062 35.6031 50.9062 34.1252 50.9062 32.3786C53.4515 32.3786 55.9968 32.3786 58.6761 32.3786C58.6761 22.0336 58.6761 11.8229 58.6761 1.47786Z" fill="white"/>
<path d="M22.9071 107.347C25.5863 108.824 28.2655 110.302 30.9448 111.511C38.9825 115.408 47.4221 117.826 56.5316 117.692C61.0863 117.557 65.641 116.751 69.9278 115.273C77.4297 112.721 85.0656 110.705 92.8354 109.631C101.543 108.556 110.116 108.69 118.288 112.721C119.36 113.258 119.762 113.93 119.628 115.139C118.958 120.379 117.752 125.35 115.475 130.186C110.116 141.472 101.141 148.324 90.0221 153.026C88.9505 153.429 87.6108 153.698 86.4052 153.698C76.7599 153.698 66.9806 153.698 57.3354 153.698C55.058 153.698 52.9146 153.295 50.7712 152.354C39.2505 147.249 30.5429 139.188 25.5863 127.365C23.041 121.319 22.2372 114.87 22.6391 108.421C22.6391 108.153 22.6391 107.884 22.7731 107.615C22.7731 107.481 22.7731 107.481 22.9071 107.347Z" fill="white"/>
</svg>
