<svg width="534" height="178" viewBox="0 0 534 178" fill="none" xmlns="http://www.w3.org/2000/svg">
<g clip-path="url(#clip0_588_12)">
<path d="M174.784 68.4163V34.4268H155.009L132.736 56.7447H152.105L141.676 67.3004H121.163C113.307 75.1569 106.189 82.2896 99.1458 89.3167L120.892 111.137H141.059L152.075 122.115H132.465L154.377 144.101H174.86V110.504L153.52 89.2564L174.784 68.4163ZM1.42971 177.397H32.9282L37.2173 172.752C37.8644 172.179 38.5417 171.651 39.1587 171.048L85.4358 124.678C86.098 124.03 86.7902 123.427 87.633 122.643C88.4607 123.427 89.138 124.03 89.8152 124.678L138.937 173.898C139.554 174.502 140.231 175.029 140.878 175.602L142.383 177.291H174.167L87.8587 90.8096L1.42971 177.397ZM65.8113 154.204V177.337H109.455V155.154L87.9039 134.661L65.8113 154.204ZM0.045158 144.176H20.8435L42.6953 122.236C35.9731 122.598 29.2362 122.598 22.514 122.236C26.457 118.209 29.8882 114.696 33.455 111.107H54.1179L76.0299 89.181L53.7717 66.9687H33.8763L23.0257 56.0812H43.2371L21.6261 34.457H0V68.1901L21.5508 89.7691L0.045158 111.107V144.176ZM174.002 1.23655H141.555L87.3772 55.5232L33.3346 1.23655H0.933071C29.8581 30.2045 58.8434 59.263 87.4374 87.9143C116.197 59.1424 145.227 30.0688 174.002 1.23655ZM109.44 22.348V1.23655H65.8113V22.1822L87.7233 44.108L109.44 22.348ZM237.766 37.1261C232.544 37.1261 229.775 29.2847 229.489 24.8211C235.509 23.9314 238.94 19.0908 238.94 13.255C238.94 6.84617 234.877 1.19131 227.608 1.19131H211.671V40.1571H215.945V25.0473H225.336C225.787 29.9482 228.511 40.8658 237.511 40.8658C239.777 40.9029 241.974 40.0847 243.666 38.5737C243.064 37.5182 242.612 36.6285 242.161 35.5578C240.934 36.6038 239.377 37.1808 237.766 37.1864V37.1261ZM215.945 21.4282V4.84058H226.841C231.732 4.84058 234.621 8.45969 234.621 13.255C234.621 18.0503 231.732 21.4885 226.841 21.4885L215.945 21.4282ZM264.103 40.8055C266.958 40.7936 269.745 39.9344 272.113 38.3365C274.481 36.7386 276.323 34.4735 277.408 31.8273C278.492 29.181 278.77 26.2722 278.205 23.4681C277.641 20.6639 276.26 18.0901 274.237 16.0715C272.215 14.053 269.64 12.6802 266.839 12.1265C264.038 11.5728 261.137 11.863 258.5 12.9604C255.864 14.0579 253.611 15.9134 252.026 18.2927C250.441 20.672 249.595 23.4685 249.595 26.3291C249.615 30.1728 251.152 33.8525 253.87 36.5648C256.588 39.277 260.267 40.8016 264.103 40.8055ZM264.103 15.5924C266.234 15.5174 268.339 16.0813 270.149 17.2118C271.958 18.3424 273.39 19.9882 274.26 21.9387C275.131 23.8892 275.401 26.0557 275.036 28.1609C274.671 30.266 273.687 32.2142 272.211 33.7559C270.734 35.2977 268.833 36.363 266.748 36.8156C264.664 37.2681 262.493 37.0873 260.512 36.2962C258.531 35.5052 256.831 34.1399 255.629 32.375C254.427 30.6102 253.777 28.5261 253.764 26.3894C253.716 23.5923 254.777 20.8903 256.716 18.8772C258.655 16.864 261.312 15.7042 264.103 15.6527V15.5924ZM334.429 40.8055C336.647 40.9086 338.85 40.3903 340.791 39.3089C342.731 38.2275 344.333 36.6257 345.415 34.6832V40.1872H349.584V12.5312H345.415V18.0353C344.333 16.0927 342.731 14.4909 340.791 13.4095C338.85 12.3281 336.647 11.8099 334.429 11.9129C326.032 11.9129 320.644 18.4273 320.644 26.3894C320.644 34.3514 326.032 40.8055 334.429 40.8055ZM334.805 15.5924C337.647 15.5924 340.373 16.7236 342.382 18.7371C344.392 20.7506 345.521 23.4815 345.521 26.3291C345.521 29.1766 344.392 31.9075 342.382 33.9211C340.373 35.9346 337.647 37.0658 334.805 37.0658C328.53 37.0658 324.813 32.18 324.813 26.3291C324.813 20.4782 328.53 15.6527 334.805 15.6527V15.5924ZM292.261 52.7184H296.489L313.54 12.5312H308.71L299.815 35.1506L290.425 12.5312H285.654L297.573 39.8555L292.261 52.7184ZM366.59 -0.0603027H362.421V40.1872H366.59V-0.0603027ZM427.299 68.7631C426.895 68.7629 426.495 68.8443 426.123 69.0024C425.75 69.1605 425.414 69.3922 425.133 69.6835C424.852 69.9748 424.633 70.3199 424.488 70.698C424.343 71.0762 424.275 71.4798 424.289 71.8846C424.289 72.6845 424.607 73.4516 425.171 74.0172C425.736 74.5828 426.501 74.9006 427.299 74.9006C428.098 74.9006 428.863 74.5828 429.428 74.0172C429.992 73.4516 430.309 72.6845 430.309 71.8846C430.315 71.4848 430.242 71.0877 430.093 70.7166C429.945 70.3454 429.724 70.0076 429.444 69.7227C429.164 69.4379 428.83 69.2117 428.462 69.0573C428.094 68.9029 427.698 68.8234 427.299 68.8235V68.7631ZM379.307 109.478C382.826 109.439 386.244 108.289 389.074 106.191L387.087 103.311C384.832 104.879 382.157 105.73 379.412 105.754C372.58 105.754 367.869 101.23 367.869 95.0168C367.869 88.804 372.58 84.265 379.412 84.265C382.16 84.2852 384.837 85.1424 387.087 86.723L389.074 83.8277C386.241 81.7364 382.825 80.5868 379.307 80.5404C370.804 80.7062 363.7 85.6674 363.7 95.0168C363.7 104.366 370.804 109.403 379.307 109.569V109.478ZM312.156 108.875H316.31V68.7179H312.156V108.875ZM265.156 109.478C267.358 109.562 269.553 109.173 271.593 108.339C273.633 107.504 275.471 106.242 276.985 104.638L274.608 102.134C272.051 104.541 268.663 105.86 265.156 105.814C258.219 105.814 253.764 101.411 253.764 95.3938V95.0922H278.385C278.204 85.1246 271.658 80.6761 264.494 80.6761C262.552 80.6194 260.617 80.9552 258.807 81.6635C256.996 82.3718 255.347 83.4382 253.956 84.799C252.566 86.1597 251.463 87.7871 250.714 89.584C249.965 91.3809 249.584 93.3106 249.595 95.2581C249.595 103.054 255.6 109.569 265.156 109.569V109.478ZM264.6 84.2198C266.826 84.0849 269.024 84.7806 270.769 86.1728C272.514 87.5649 273.683 89.5551 274.051 91.7596H254.216C254.88 89.5417 256.26 87.6073 258.139 86.2593C260.018 84.9113 262.29 84.2258 264.6 84.3103V84.2198ZM425.238 108.965H429.406V81.2491H425.238V108.965ZM351.977 102.225C349.424 104.628 346.043 105.946 342.541 105.904C335.588 105.904 331.148 101.501 331.148 95.4843V95.0922H355.754C355.589 85.1246 349.027 80.6761 341.864 80.6761C339.922 80.6214 337.989 80.9588 336.181 81.668C334.372 82.3773 332.724 83.4439 331.336 84.8045C329.947 86.1651 328.846 87.7917 328.097 89.5876C327.349 91.3835 326.969 93.3119 326.98 95.2581C326.98 103.099 332.999 109.614 342.541 109.614C344.742 109.695 346.936 109.305 348.976 108.47C351.015 107.636 352.854 106.375 354.37 104.773L351.977 102.225ZM341.984 84.3103C344.208 84.1792 346.402 84.8767 348.144 86.2685C349.886 87.6603 351.053 89.6483 351.42 91.8501H331.585C332.233 89.6128 333.608 87.6562 335.492 86.2905C337.376 84.9248 339.66 84.2279 341.984 84.3103ZM493.457 80.6308C491.354 80.5322 489.275 81.1117 487.525 82.2842C485.776 83.4567 484.447 85.1604 483.735 87.1452V81.2491H479.566V108.965H483.735V95.4843C483.9 86.527 490.116 84.3555 493.171 84.3555C496.738 84.3555 500.289 86.527 500.289 93.2072V108.965H504.458V93.2072C504.458 84.1293 499.507 80.6308 493.457 80.6308ZM527.393 93.9311L523.285 92.589C521.343 91.9858 519.447 90.8699 519.447 88.5929C519.447 86.3158 521.223 84.3103 524.504 84.3103C525.501 84.2556 526.487 84.5465 527.295 85.1342C528.104 85.7218 528.686 86.5704 528.943 87.5373L532.676 86.6476C531.667 82.4102 527.845 80.6157 524.233 80.6157C518.68 80.6157 515.279 84.2952 515.279 88.7437C515.279 92.6945 518.002 94.866 522.006 96.1478L525.888 97.4295C528.281 98.2589 529.831 99.3145 529.831 101.486C529.831 104.155 527.393 105.889 524.278 105.889C522.918 105.997 521.557 105.68 520.385 104.98C519.212 104.281 518.285 103.234 517.732 101.984L514.06 102.934C515.339 107.216 519.568 109.554 524.278 109.554C529.395 109.554 534 106.538 534 101.486C534 98.3795 532.345 95.5446 527.393 93.9311ZM454.569 80.6308C451.716 80.6547 448.934 81.5243 446.574 83.13C444.214 84.7358 442.381 87.0058 441.306 89.6539C440.231 92.3021 439.963 95.2097 440.535 98.0103C441.108 100.811 442.495 103.379 444.521 105.391C446.548 107.403 449.124 108.768 451.924 109.316C454.724 109.863 457.623 109.567 460.256 108.465C462.889 107.364 465.137 105.506 466.717 103.126C468.298 100.746 469.14 97.9508 469.137 95.0922C469.129 93.1839 468.746 91.2959 468.009 89.5361C467.273 87.7762 466.197 86.1791 464.844 84.8361C463.491 83.493 461.887 82.4303 460.124 81.7088C458.361 80.9872 456.473 80.6209 454.569 80.6308ZM454.569 105.844C452.431 105.913 450.321 105.34 448.51 104.199C446.699 103.058 445.27 101.4 444.406 99.4388C443.542 97.4777 443.283 95.3027 443.662 93.193C444.041 91.0833 445.041 89.1353 446.533 87.5991C448.025 86.0629 449.942 85.0086 452.036 84.5717C454.13 84.1348 456.307 84.3351 458.287 85.1471C460.267 85.959 461.96 87.3454 463.147 89.1282C464.335 90.911 464.964 93.0089 464.953 95.1525C464.989 97.9495 463.916 100.647 461.969 102.651C460.022 104.656 457.36 105.804 454.569 105.844ZM237.766 105.844C232.544 105.844 229.775 97.9875 229.489 93.539C235.509 92.6493 238.94 87.8087 238.94 81.9578C238.94 75.5641 234.877 69.8941 227.608 69.8941H211.671V108.965H215.945V93.7652H225.336C225.787 98.6661 228.511 109.569 237.511 109.569C239.776 109.619 241.976 108.805 243.666 107.292C243.064 106.236 242.612 105.346 242.161 104.276C240.93 105.315 239.376 105.891 237.766 105.904V105.844ZM215.945 90.1461V73.5585H226.841C231.732 73.5585 234.621 77.1776 234.621 81.9729C234.621 86.7682 231.732 90.2064 226.841 90.2064L215.945 90.1461ZM415.862 100.219H412.024C412.306 100.849 412.439 101.535 412.415 102.225C412.423 102.736 412.322 103.244 412.118 103.713C411.914 104.182 411.613 104.602 411.234 104.945C410.854 105.287 410.407 105.545 409.92 105.7C409.433 105.855 408.919 105.904 408.412 105.844C406.411 105.844 404.304 104.623 404.304 100.611V84.5364H413.333V81.2038H404.304V72.7894H401.128L400.135 81.2038H395.47V84.5364H400.135V100.295C400.135 107.578 404.183 109.523 408.352 109.523C413.469 109.523 416.298 106.507 416.298 102.677C416.327 102.381 416.327 102.083 416.298 101.788C416.228 101.247 416.081 100.718 415.862 100.219ZM298.867 68.16C294.653 68.16 290.154 70.1656 290.154 78.9118V81.2491H285.533V84.5364H290.154V108.965H294.322V84.5364H301.982V81.2038H294.322V78.3538C294.322 73.287 296.655 71.8394 298.837 71.8394C301.019 71.8394 303.006 72.91 303.006 75.2926C302.992 75.6696 302.936 76.0438 302.84 76.4085H306.603C306.745 76.0744 306.821 75.7161 306.828 75.353C306.859 75.2037 306.859 75.0498 306.828 74.9006C306.934 71.1156 304.044 68.16 298.867 68.16ZM294.277 163.162C294.112 172.209 287.881 174.29 284.826 174.29C281.274 174.29 277.723 172.285 277.723 165.439V149.68H273.494V165.424C273.494 174.471 278.55 178 284.495 178C286.596 178.102 288.675 177.526 290.425 176.356C292.175 175.186 293.504 173.484 294.217 171.501V177.397H298.386V149.68H294.217L294.277 163.162ZM333.707 155.2C332.623 153.255 331.019 151.651 329.076 150.57C327.132 149.488 324.926 148.971 322.706 149.077C314.323 149.077 308.935 155.592 308.935 163.554C308.935 171.516 314.323 178.015 322.706 178.015C324.926 178.121 327.132 177.604 329.076 176.523C331.019 175.441 332.623 173.838 333.707 171.893V177.412H337.875V137.149H333.692L333.707 155.2ZM323.157 174.275C316.881 174.275 313.164 169.374 313.164 163.539C313.164 157.703 316.881 152.787 323.157 152.787C325.931 152.891 328.557 154.069 330.484 156.072C332.41 158.076 333.486 160.749 333.486 163.531C333.486 166.313 332.41 168.987 330.484 170.99C328.557 172.994 325.931 174.171 323.157 174.275ZM380.089 149.062C377.237 149.086 374.456 149.955 372.096 151.56C369.736 153.165 367.903 155.435 366.828 158.082C365.753 160.729 365.484 163.636 366.055 166.436C366.626 169.236 368.011 171.804 370.036 173.817C372.061 175.829 374.636 177.196 377.435 177.745C380.234 178.294 383.133 178 385.766 176.901C388.399 175.802 390.648 173.947 392.23 171.569C393.813 169.191 394.657 166.397 394.657 163.539C394.651 161.624 394.268 159.729 393.528 157.964C392.789 156.198 391.708 154.597 390.349 153.251C388.989 151.906 387.377 150.843 385.606 150.124C383.835 149.405 381.94 149.044 380.029 149.062H380.089ZM380.089 174.275C377.952 174.341 375.843 173.766 374.034 172.623C372.225 171.479 370.798 169.821 369.937 167.859C369.075 165.898 368.819 163.723 369.199 161.614C369.58 159.506 370.581 157.559 372.074 156.024C373.567 154.49 375.483 153.437 377.577 153.001C379.671 152.566 381.847 152.767 383.826 153.58C385.805 154.392 387.497 155.778 388.684 157.561C389.871 159.344 390.499 161.441 390.488 163.584C390.506 164.975 390.249 166.356 389.733 167.648C389.216 168.939 388.45 170.115 387.478 171.109C386.506 172.103 385.347 172.894 384.069 173.437C382.79 173.981 381.418 174.266 380.029 174.275H380.089ZM264.886 168.651H261.003C261.284 169.281 261.418 169.967 261.394 170.656C261.402 171.168 261.301 171.675 261.097 172.144C260.893 172.613 260.591 173.033 260.212 173.376C259.833 173.719 259.385 173.976 258.899 174.131C258.412 174.287 257.898 174.336 257.391 174.275C255.389 174.275 253.282 173.054 253.282 169.043V153.013H262.312V149.68H253.282V141.266H250.107L249.114 149.68H244.448V153.013H249.114V168.771C249.114 176.055 253.162 178 257.331 178C262.448 178 265.277 174.984 265.277 171.154C265.306 170.858 265.306 170.56 265.277 170.264C265.213 169.706 265.061 169.161 264.825 168.651H264.886ZM228.06 156.693L221.784 154.461C216.787 152.681 216.065 150.118 216.065 148.233C216.065 144.101 219.737 141.718 224.011 141.718C228.285 141.718 231.175 143.769 232.123 147.75L236.006 146.589C234.847 141.462 230.723 137.843 224.056 137.843C217.389 137.843 211.671 141.854 211.671 148.399C211.671 151.731 213.07 155.938 220.46 158.366L226.735 160.477C230.001 161.533 233.056 163.765 233.056 167.324C233.056 171.169 229.67 174.17 223.951 174.17C218.669 174.17 214.921 171.154 214.003 167.942L209.955 168.997C211.46 173.883 216.456 178.045 224.011 178.045C232.063 178.045 237.45 173.521 237.45 167.022C237.375 162.528 233.718 158.427 227.999 156.693H228.06ZM350.773 177.397H354.926V149.68H350.773V177.397ZM352.759 137.315C352.355 137.315 351.955 137.396 351.583 137.554C351.21 137.713 350.874 137.944 350.593 138.236C350.312 138.527 350.093 138.872 349.948 139.25C349.803 139.628 349.735 140.032 349.75 140.437C349.75 141.237 350.067 142.004 350.631 142.569C351.196 143.135 351.961 143.453 352.759 143.453C353.558 143.453 354.323 143.135 354.888 142.569C355.452 142.004 355.769 141.237 355.769 140.437C355.783 140.032 355.716 139.628 355.571 139.25C355.426 138.872 355.207 138.527 354.926 138.236C354.645 137.944 354.308 137.713 353.936 137.554C353.564 137.396 353.164 137.315 352.759 137.315Z" fill="#2A3132"/>
</g>
<defs>
<clipPath id="clip0_588_12">
<rect width="534" height="178" fill="white"/>
</clipPath>
</defs>
</svg>
