<svg width="385" height="386" viewBox="0 0 385 386" fill="none" xmlns="http://www.w3.org/2000/svg">
<g clip-path="url(#clip0_268_303)">
<path d="M117.249 385.979C89.9535 385.975 62.6611 386.05 35.3687 385.946C21.3797 385.893 11.4147 379.256 5.66983 366.546C3.97744 362.808 3.21337 358.69 3.12054 354.537C3.03842 350.888 3.09911 347.236 3.12054 343.583C3.15981 336.882 5.49845 335.727 11.4254 334.994C14.2353 334.648 17.1381 334.848 19.9766 335.062C21.6475 335.187 22.126 334.569 22.1224 333.1C22.0688 290.472 22.0224 247.848 21.9831 205.22C21.9831 204.194 21.9403 203.133 22.1724 202.146C23.2257 197.664 25.2858 195.863 30.0095 195.845C48.815 195.766 67.6204 195.713 86.4224 195.888C90.1642 195.924 93.7667 198.365 93.8703 201.839C93.9845 205.77 91.5495 208.637 87.4185 208.69C80.5954 208.776 73.7723 208.726 66.9492 208.726C57.2698 208.729 47.5903 208.769 37.9109 208.69C35.7936 208.672 34.9867 209.276 34.9902 211.528C35.0438 251.697 35.0474 291.862 34.9795 332.031C34.976 334.401 35.815 335.002 38.0215 334.998C91.0211 334.959 144.024 334.959 197.024 335.005C199.145 335.009 199.502 334.108 199.498 332.275C199.452 312.824 199.484 293.378 199.434 273.928C199.427 271.744 199.816 269.961 201.626 268.481C205.339 265.45 209.981 266.737 211.509 271.301C212.17 273.281 212.452 275.264 212.444 277.362C212.391 294.589 212.409 311.817 212.405 329.04C212.405 329.358 212.412 329.676 212.412 329.994C212.366 334.926 212.366 334.862 217.422 334.955C220.335 335.009 223.263 334.569 226.162 335.459C229.486 336.478 230.864 338.844 230.975 342.039C231.189 348.386 231.325 354.805 230.1 361.021C227.919 372.093 221.231 379.717 210.752 383.92C206.885 385.471 202.811 385.979 198.655 385.975C171.52 385.971 144.385 385.979 117.249 385.979ZM116.9 348.011C115.232 348.011 113.568 348.011 111.901 348.011C80.9632 348.008 50.0218 348 19.084 347.997C16.0169 347.997 15.8313 348.286 15.6706 351.41C15.5135 354.484 15.9634 357.475 16.981 360.302C19.2303 366.55 23.2328 370.917 30.0952 372.397C34.9688 373.448 39.8817 373.105 44.7589 373.577C46.7584 373.77 47.3797 373.105 47.5867 371.157C47.8867 368.348 48.0152 365.471 49.4434 362.872C50.7751 360.442 53.0317 360.849 55.1132 360.967C56.9627 361.071 58.2945 361.961 58.9157 363.969C59.6048 366.189 60.0761 368.391 60.0047 370.707C59.944 372.626 60.8402 373.394 62.7754 373.305C65.1497 373.191 67.5348 373.28 69.9127 373.28C103.707 373.276 137.505 373.255 171.299 373.298C173.287 373.301 174.298 372.801 174.18 370.656C174.066 368.58 174.555 366.578 175.13 364.581C175.976 361.632 176.826 360.931 180.032 360.935C183.567 360.939 185.356 362.114 186.109 364.724C186.673 366.679 186.305 368.673 186.577 370.635C186.83 372.458 187.555 373.516 189.636 373.384C191.768 373.248 193.921 373.448 196.06 373.369C200.619 373.194 205.025 372.201 209.028 370.017C216.108 366.157 218.925 359.945 218.521 352.039C218.346 348.633 217.825 348.011 214.483 348.011C181.949 348.008 149.423 348.011 116.9 348.011ZM36.9111 335.824C36.9111 335.977 36.9111 336.131 36.9111 336.285C90.4891 336.285 144.067 336.285 197.645 336.285C197.645 336.131 197.645 335.977 197.645 335.824C144.067 335.824 90.4891 335.824 36.9111 335.824Z" fill="#4F4F4F"/>
<path d="M147.88 323.125C139.629 322.971 134.538 319.755 131.074 313.8C127.368 307.428 123.601 301.094 119.97 294.682C118.86 292.72 117.917 292.041 115.746 293.474C111.183 296.484 106.006 298.321 100.611 298.503C96.0483 298.657 91.2246 297.688 87.6399 294.693C83.7553 291.448 80.599 291.691 76.5894 294.293C71.755 297.431 66.0995 297.788 60.7581 296.108C54.5348 294.15 50.1503 289.718 48.3794 283.295C45.9122 274.342 49.5933 265.879 57.6197 261.122C58.5658 260.561 59.6977 260.529 60.5546 259.656C62.4148 257.755 63.1574 255.611 62.8682 252.966C62.1756 246.683 63.286 240.857 67.1884 235.657C69.7734 232.215 73.3831 230.317 77.0321 228.416C93.499 219.823 108.22 208.701 122.412 196.86C139.022 183.003 155.753 169.297 172.495 155.601C177.647 151.387 182.735 147.095 187.855 142.838C188.648 142.18 189.408 141.476 190.251 140.886C194.257 138.081 197.549 138.656 200.444 142.638C202.879 145.983 204.779 149.657 206.578 153.353C208.571 157.442 207.242 160.651 203.276 162.56C200.801 163.75 198.82 162.821 196.988 161.269C196.274 160.665 195.706 159.865 195.164 159.089C192.668 155.504 192.718 155.544 189.254 158.407C175.148 170.072 161.005 181.699 146.895 193.357C136.508 201.939 126.172 210.577 115.746 219.109C114.222 220.356 114.236 221.285 115.172 222.883C119.906 230.95 124.515 239.091 129.168 247.204C130.46 249.46 131.403 251.804 130.403 254.424C129.418 257.001 127.254 258.313 124.708 258.488C122.305 258.652 120.242 257.408 118.97 255.275C115.207 248.941 111.501 242.572 107.784 236.211C106.463 233.952 105.149 231.689 103.882 229.406C103.257 228.283 102.646 228.012 101.436 228.769C94.795 232.919 88.0255 236.85 81.3595 240.964C74.8363 244.988 73.3117 251.025 77.2749 258.091C81.2274 265.136 85.0728 272.259 89.3823 279.082C93.4276 285.486 100.411 287.388 107.538 282.752C118.399 275.686 129.939 270.021 141.9 265.093C153.379 260.364 165.093 256.297 176.744 252.04C188.847 247.623 200.83 242.876 212.876 238.309C219.821 235.678 226.776 233.083 233.756 230.549C235.352 229.97 235.445 229.28 234.653 227.912C225.862 212.768 217.107 197.603 208.356 182.439C205.896 178.175 207.207 174.175 211.638 172.303C214.244 171.198 217.032 172.217 219.071 175.383C221.299 178.843 223.309 182.446 225.366 186.013C233.489 200.087 241.604 214.166 249.702 228.255C252.915 233.845 251.619 237.508 245.621 239.777C238.009 242.658 230.375 245.475 222.759 248.345C211.366 252.637 199.991 256.979 188.594 261.254C180.671 264.224 172.713 267.112 164.779 270.053C161.519 271.262 158.281 272.527 155.025 273.753C152.99 274.521 153.222 275.783 154.118 277.337C157.406 283.035 160.659 288.757 163.912 294.475C169.842 304.911 165.411 316.245 156.656 320.884C153.525 322.539 150.13 323.2 147.88 323.125ZM153.804 304.218C153.686 303.768 153.625 303.114 153.35 302.567C149.616 295.129 145.235 288.06 141.096 280.847C140.472 279.757 139.683 279.489 138.54 280.182C136.173 281.616 133.773 282.995 131.363 284.36C129.921 285.179 129.568 286.08 130.507 287.634C133.366 292.384 136.041 297.249 138.901 302.002C140.361 304.429 141.382 307.177 143.685 309.039C145.649 310.63 147.723 311.02 150.051 309.815C152.279 308.664 153.518 306.899 153.804 304.218ZM66.8671 284.168C69.8984 283.992 72.4834 282.377 74.24 280.322C75.5575 278.778 72.9511 277.091 72.3513 275.361C72.2513 275.068 72.0692 274.796 71.905 274.525C68.406 268.742 68.406 268.742 62.8932 272.856C60.8866 274.353 59.7155 277.059 60.3332 278.774C61.49 281.994 64.1893 284.218 66.8671 284.168Z" fill="#4F4F4F"/>
<path d="M269 259.27C269 246.49 268.907 233.705 269.032 220.928C269.111 213.176 272.795 207.632 279.815 204.137C282.728 202.686 285.774 202.493 288.77 202.478C313.606 202.368 338.441 202.375 363.277 202.453C372.946 202.486 379.355 207.482 382.179 216.743C382.629 218.222 382.593 219.72 382.593 221.224C382.597 233.687 382.593 246.154 382.593 258.616C382.593 263.055 380.519 265.597 376.731 265.797C373.085 265.99 369.726 262.923 369.722 258.895C369.711 246.836 369.304 234.774 369.929 222.718C370.115 219.13 368.294 216.546 364.781 215.567C363.081 215.091 361.382 214.898 359.618 214.902C337.163 214.923 314.705 214.923 292.251 214.898C290.491 214.895 288.766 215.066 287.059 215.438C283.385 216.235 281.218 219.159 281.704 222.897C281.918 224.566 281.946 226.214 281.95 227.876C281.961 249.867 281.964 271.858 281.968 293.846C281.968 294.243 281.989 294.643 281.964 295.036C281.539 301.312 283.739 303.778 290.116 303.789C313.92 303.836 337.724 303.832 361.528 303.8C366.851 303.793 370.225 300.958 369.836 296.827C369.522 293.492 369.783 290.165 369.651 286.841C369.583 285.132 369.993 283.56 370.708 282.012C372.061 279.089 374.539 277.931 378.227 278.599C380.601 279.028 382.558 281.555 382.583 284.403C382.629 289.403 382.697 294.407 382.579 299.407C382.408 306.609 375.924 313.932 369.065 315.702C365.284 316.677 361.564 316.752 357.775 316.756C335.003 316.774 312.227 316.906 289.459 316.717C282.689 316.659 276.469 314.515 272.356 308.535C270.257 305.483 269.011 302.088 269.011 298.324C268.997 285.311 269 272.291 269 259.27Z" fill="#4F4F4F"/>
<path d="M382.597 63.3469C382.597 76.0491 382.529 88.7514 382.618 101.454C382.69 111.447 374.867 120.096 364.473 120.107C338.763 120.132 313.052 120.053 287.345 120.164C277.401 120.207 268.604 111.454 268.904 101.207C269.271 88.5942 269.025 75.9634 268.968 63.3397C268.954 60.0587 270.807 58.1502 273.456 56.96C275.887 55.8699 278.065 57.1852 279.683 58.8007C281.322 60.4376 281.921 62.8501 281.904 65.1196C281.814 76.7818 282.261 88.4476 281.682 100.11C281.493 103.884 282.878 107.179 289.18 107.59C290.051 107.648 290.926 107.623 291.797 107.623C314.334 107.63 336.87 107.615 359.407 107.665C361.571 107.669 363.674 107.337 365.777 107.001C368.015 106.64 370.093 103.344 369.911 100.471C369.354 91.6678 369.722 82.8577 369.676 74.0548C369.601 59.6048 369.679 45.1548 369.626 30.7084C369.618 28.7284 370.183 26.802 369.815 24.7862C369.161 21.1943 367.241 19.2928 363.599 19.1463C361.142 19.0462 358.679 19.1284 356.219 19.1284C334 19.1106 311.781 19.0855 289.562 19.0748C283.635 19.0713 281.265 22.0985 281.714 27.9743C282.029 32.0737 282.807 36.2911 280.911 40.3513C279.611 43.1355 277.466 44.6402 274.409 44.3507C271.931 44.1184 269.207 41.8667 269.118 39.2862C268.914 33.4212 268.268 27.4024 269.261 21.7018C270.835 12.6629 277.166 6.50838 287.231 6.36899C313.095 6.01516 338.97 6.04375 364.834 6.37614C374.685 6.50123 382.454 14.3928 382.551 24.293C382.676 37.3133 382.583 50.3337 382.583 63.354C382.59 63.3469 382.593 63.3469 382.597 63.3469Z" fill="#4F4F4F"/>
<path d="M91.6423 120.235C91.6423 136.347 91.5816 152.463 91.6708 168.575C91.7101 175.594 89.7 177.456 82.4948 177.531C59.1727 177.771 35.8471 177.639 12.5214 177.564C9.36875 177.553 5.99826 177.253 4.28445 174.043C3.17047 171.956 3.05622 169.475 3.18118 167.07C3.25616 165.648 3.39184 164.225 3.39184 162.799C3.40255 133.191 3.39898 103.584 3.40612 73.9798C3.40612 71.7924 3.02408 69.6337 3.81672 67.4213C4.5915 65.2662 5.63407 63.9652 8.05126 63.6578C10.1114 63.3969 12.1537 63.3362 14.2103 63.3326C36.5041 63.304 58.7978 63.279 81.0881 63.2969C83.3767 63.2969 85.6904 63.4112 87.9433 63.7829C89.5857 64.051 90.6497 65.3877 91.1567 66.9496C91.5709 68.2255 91.6815 69.5729 91.678 70.9418C91.653 87.3718 91.6601 103.802 91.6601 120.235C91.6566 120.235 91.6494 120.235 91.6423 120.235ZM79.0815 120.293C79.0743 120.293 79.0672 120.293 79.0601 120.293C79.0601 106.722 79.0493 93.1475 79.0672 79.5768C79.0708 76.2815 78.7601 75.9169 75.4218 75.9133C56.6984 75.9062 37.9786 75.9026 19.2553 75.899C16.5846 75.899 16.024 76.4316 16.024 79.0835C16.024 106.547 16.024 134.006 16.0383 161.47C16.0383 164.268 16.4346 164.625 19.2089 164.625C38.0108 164.622 56.8127 164.615 75.611 164.611C78.7423 164.611 79.0815 164.257 79.0815 161.008C79.0815 147.434 79.0815 133.863 79.0815 120.293Z" fill="#4F4F4F"/>
<path d="M160.816 113.949C129.703 113.949 104.671 88.3761 104.442 57.4175C104.207 25.526 129.721 -0.346691 162.033 0.00356825C193.189 0.339531 218.536 25.3116 218.296 57.7999C218.068 88.8658 192.843 113.888 160.816 113.949ZM205.686 57.1065C205.582 31.2338 184.034 12.159 160.844 12.5521C136.54 12.9632 115.039 33.9787 117.299 61.2203C118.967 81.303 138.104 103.527 165.457 101.103C187.655 99.1377 205.636 79.9949 205.686 57.1065Z" fill="#4F4F4F"/>
<path d="M325.388 284.539C310.389 284.718 300.266 272.852 300.288 259.321C300.309 246.004 310.489 233.491 327.002 234.202C341.141 234.81 351.338 245.5 351.256 259.61C351.181 273.495 340.555 285.168 325.388 284.539ZM325.806 246.929C318.983 246.329 313.016 253.416 313.07 259.514C313.127 265.904 318.758 271.887 325.752 272.176C332.307 272.448 338.381 265.99 338.52 259.342C338.638 253.598 332.518 246.339 325.806 246.929Z" fill="#4F4F4F"/>
<path d="M325.763 80.4524C325.416 83.4117 326.348 87.0001 325.202 90.5063C324.013 94.1411 322.142 95.2777 317.886 94.7701C315.426 94.4771 313.666 92.2469 313.338 89.1731C312.806 84.1873 313.131 79.1908 313.077 74.2014C313.027 69.6087 313.059 69.6122 308.535 69.5872C306.568 69.5765 304.576 69.7874 302.851 68.4256C301.541 67.3927 299.745 63.304 300.245 61.8208C301.002 59.5798 302.426 57.9894 304.972 57.7606C307.179 57.564 309.217 56.5133 311.499 56.5704C313.048 56.6098 313.07 55.3445 313.081 54.1722C313.106 50.616 313.052 47.0813 314.398 43.6537C316.573 38.1139 320.511 34.5434 326.041 32.5956C332.3 30.3868 338.763 31.5662 345.122 31.6341C348.731 31.6734 351.656 35.2046 351.424 38.189C351.17 41.4843 348.099 44.2292 344.379 44.3292C340.734 44.4257 337.085 44.3364 333.436 44.3971C328.269 44.4829 326.281 46.4201 325.991 51.5524C325.699 56.7134 325.699 56.7134 331.047 56.6526C336.403 56.5919 339.327 60.1731 338.149 65.3484C337.602 67.7537 335.671 69.3907 333.054 69.5515C331.55 69.6408 330.033 69.6837 328.537 69.5622C326.291 69.3799 325.599 70.3699 325.727 72.5072C325.873 74.9519 325.763 77.418 325.763 80.4524Z" fill="#4F4F4F"/>
<path d="M264.562 189.701C257.56 189.848 254.554 186.745 255.722 181.77C256.346 179.111 259.11 177.349 262.802 176.663C270.096 175.305 277.337 173.671 284.617 172.235C287.245 171.716 289.869 170.966 292.476 170.641C297.524 170.008 299.824 172.431 300.955 176.956C301.52 179.211 298.642 182.703 295.689 183.486C289.669 185.08 283.514 186.038 277.408 187.231C272.76 188.143 268.182 189.408 264.562 189.701Z" fill="#4F4F4F"/>
<path d="M243.664 164.49C240.701 164.479 238.637 163.096 237.705 160.672C236.67 157.974 237.163 155.301 239.219 153.578C247.049 147.016 255.35 141.076 263.659 135.143C265.587 133.767 267.733 133.106 270.143 133.395C272.331 133.66 275.613 136.619 275.948 138.742C276.055 139.407 275.73 139.929 275.43 140.511C273.659 143.964 270.6 146.08 267.604 148.299C261.184 153.056 254.811 157.878 248.402 162.656C246.935 163.75 245.385 164.729 243.664 164.49Z" fill="#4F4F4F"/>
<path d="M117.278 336.385C180.047 336.385 230.932 336.237 230.932 336.056C230.932 335.874 180.047 335.727 117.278 335.727C54.5086 335.727 3.62392 335.874 3.62392 336.056C3.62392 336.237 54.5086 336.385 117.278 336.385Z" fill="#4F4F4F"/>
<path d="M153.804 304.218C153.518 306.895 152.279 308.664 150.051 309.819C147.723 311.023 145.649 310.633 143.685 309.043C141.382 307.181 140.361 304.432 138.901 302.006C136.041 297.252 133.37 292.388 130.507 287.638C129.568 286.083 129.921 285.179 131.363 284.364C133.77 282.999 136.173 281.619 138.54 280.186C139.686 279.493 140.472 279.761 141.096 280.851C145.231 288.063 149.612 295.133 153.35 302.57C153.625 303.114 153.686 303.771 153.804 304.218Z" fill="#FDF8F5"/>
<path d="M66.8671 284.168C64.1892 284.218 61.49 281.994 60.3332 278.781C59.7155 277.066 60.8866 274.36 62.8932 272.863C68.4059 268.749 68.4059 268.749 71.905 274.532C72.0692 274.803 72.2513 275.071 72.3513 275.368C72.9475 277.098 75.5575 278.785 74.24 280.329C72.4834 282.377 69.8984 283.992 66.8671 284.168Z" fill="#FCF3EC"/>
<path d="M230.104 135.529C226.79 139.871 221.949 140.011 219.392 135.893C218.785 134.918 218.91 133.931 218.811 132.555C218.561 131.401 219.146 130.146 220.035 128.967C226.212 120.757 232.364 112.526 238.562 104.334C240.701 101.507 244.664 101.039 247.353 103.187C249.98 105.289 250.223 108.391 248.092 111.39" fill="#4F4F4F"/>
<path d="M47.2726 139.342C51.55 139.342 55.8273 139.278 60.1012 139.36C64.0786 139.435 66.4101 141.741 66.5137 145.486C66.6065 148.903 64.1393 151.609 60.4046 151.652C51.8534 151.748 43.2987 151.709 34.7475 151.569C31.3342 151.512 29.7525 150.168 28.942 147.356C28.1243 144.518 28.892 142.155 31.1057 140.368C32.0411 139.614 33.0837 139.41 34.2084 139.407C38.5643 139.396 42.9202 139.403 47.2762 139.403C47.2726 139.382 47.2726 139.36 47.2726 139.342Z" fill="#4F4F4F"/>
<path d="M29.2062 117.319C29.5739 116.833 29.9417 116.347 30.3094 115.864C32.5588 114.145 35.1938 114.485 37.7574 114.481C44.8911 114.474 52.0212 114.488 59.155 114.485C64.4428 114.481 65.9745 116.047 65.7496 121.279C65.6496 123.652 64.0536 125.475 61.6864 125.639C52.1212 126.29 42.5453 126.293 32.9873 125.586C30.9735 125.436 29.5846 123.97 29.3597 121.822C29.2062 120.332 29.2526 118.82 29.2062 117.319Z" fill="#4F4F4F"/>
<path d="M54.2527 101.168C51.6391 101.189 49.0398 101.203 46.4298 100.839C43.5914 100.442 41.442 98.3049 41.2956 95.3241C41.1349 92.0145 43.1093 89.2303 46.0799 88.9658C51.3392 88.4941 56.6163 88.5155 61.872 88.998C64.4784 89.2375 66.5028 91.9824 66.4279 94.8202C66.3386 98.1798 64.5784 100.474 61.8398 100.814C60.8973 100.932 59.9547 101.121 59.0085 101.157C57.4268 101.211 55.8379 101.168 54.2527 101.168Z" fill="#4F4F4F"/>
<path d="M142.714 56.935C142.714 50.5052 142.589 44.0719 142.753 37.6457C142.878 32.7957 146.741 30.4511 151.172 32.3311C153.429 33.2889 155.664 34.3111 157.86 35.4012C166.422 39.6651 174.969 43.9647 183.517 48.2643C185.281 49.1507 187.109 49.9512 188.751 51.0306C190.95 52.471 192.557 54.3509 192.35 57.2924C192.143 60.2589 190.443 62.0852 187.98 63.329C177.119 68.8224 166.25 74.3014 155.364 79.7412C153.604 80.6204 151.872 81.5854 149.876 81.9392C145.674 82.6862 142.782 80.4989 142.721 76.2243C142.632 69.7945 142.696 63.3647 142.696 56.935C142.703 56.935 142.71 56.935 142.714 56.935ZM155.128 56.9457C155.135 56.9457 155.139 56.9457 155.146 56.9457C155.146 58.8435 155.121 60.745 155.153 62.6428C155.196 65.184 155.717 65.4949 157.92 64.3655C161.919 62.3175 165.922 60.2803 169.921 58.2324C171.674 57.3353 171.791 56.6026 170.106 55.7091C165.925 53.4932 161.691 51.3845 157.438 49.3079C156.06 48.636 155.118 49.0506 155.125 50.7769C155.135 52.832 155.128 54.887 155.128 56.9457Z" fill="#4F4F4F"/>
</g>
<defs>
<clipPath id="clip0_268_303">
<rect width="385" height="386" fill="white"/>
</clipPath>
</defs>
</svg>
