<svg width="174" height="174" viewBox="0 0 174 174" fill="none" xmlns="http://www.w3.org/2000/svg">
<g clip-path="url(#clip0_1058_1231)">
<path d="M135.904 40.7405C126.284 28.9744 114.594 24.7586 100.682 26.2533C80.4842 28.4379 66.4569 47.6009 72.9723 65.1925C75.1186 70.9797 79.6411 75.8855 82.6305 80.4846C68.8331 79.833 53.1961 59.5203 53.6177 40.9321C54.116 18.5498 72.1292 0.536561 94.2816 0.268279C116.702 -2.8355e-06 134.984 17.3233 135.904 40.7405Z" fill="white"/>
<path d="M93.1699 84.5471C97.3475 65.1159 117.469 51.2802 137.092 53.848C159.436 56.7991 174.919 74.9656 173.884 97.0797C172.888 118.044 155.641 134.984 133.987 135.827C134.907 134.793 135.558 133.988 136.325 133.298C149.854 120.957 152.269 99.6093 141.806 84.5471C130.423 68.1819 109.343 66.8022 95.8911 81.5577C95.1245 82.4392 94.2814 83.3207 93.1699 84.5471Z" fill="white"/>
<path d="M38.5937 133.719C44.4192 140.81 51.2796 145.677 59.9413 147.287C74.4285 149.97 87.191 146.75 96.7725 134.984C105.549 124.215 104.859 109.114 95.5844 98.7661C93.8598 96.8498 92.1734 94.9335 90.8703 93.4771C107.504 95.7383 122.566 116.741 120.535 135.866C118.082 159.053 99.1104 175.38 76.4214 173.808C55.5721 172.39 37.9421 153.994 38.5937 133.719Z" fill="white"/>
<path d="M40.8164 38.2877C29.0504 47.9075 24.8345 59.5969 26.3292 73.5476C28.5138 93.7837 47.6385 107.504 65.3451 101.334C68.4878 100.261 71.4389 98.4211 74.1217 96.4665C76.6512 94.6652 78.7592 92.2507 80.9438 90.181C76.7662 109.229 56.7217 122.873 36.6389 120.152C14.6781 117.201 -0.690608 98.9577 0.344194 76.9969C1.34067 56.0326 18.7023 39.0159 40.8164 38.2877Z" fill="white"/>
</g>
<defs>
<clipPath id="clip0_1058_1231">
<rect width="174" height="174" fill="white"/>
</clipPath>
</defs>
</svg>
