<svg width="147" height="169" viewBox="0 0 147 169" fill="none" xmlns="http://www.w3.org/2000/svg">
<g clip-path="url(#clip0_1055_1225)">
<path d="M83.7041 28.2721V21.9482L99.2565 21.9537V20.6239C99.2594 9.23691 90.0306 3.8147e-06 78.6355 3.8147e-06H63.628C52.2436 3.8147e-06 43.0067 9.23691 43.0067 20.6239V21.9454L58.9035 21.9509V28.2199C25.5573 34.0236 0.178711 63.0309 0.178711 98.04C0.178711 137.24 31.9447 169 71.1303 169C110.316 169 142.082 137.24 142.082 98.04C142.085 63.1521 116.882 34.2136 83.7041 28.2721ZM71.1303 152.759C40.9611 152.759 16.4169 128.215 16.4169 98.0403C16.4169 67.8737 40.9614 43.335 71.1303 43.335C101.297 43.335 125.844 67.874 125.844 98.0403C125.844 128.215 101.299 152.759 71.1303 152.759Z" fill="white"/>
<path d="M145.226 36.7408L133.72 25.2326C132.696 24.2056 131.308 23.6301 129.863 23.6301C128.417 23.6301 127.03 24.2054 126.006 25.2271L116.678 34.5575L135.906 53.7746L145.225 44.4495C147.354 42.3188 147.354 38.872 145.226 36.7408Z" fill="white"/>
<path d="M70.8823 46.7816C42.6763 46.911 19.8525 69.8146 19.8525 98.04C19.8525 126.37 42.8112 149.323 71.1329 149.323C99.4518 149.323 122.408 126.375 122.41 98.0453H70.8823V46.7816Z" fill="white"/>
</g>
<defs>
<clipPath id="clip0_1055_1225">
<rect width="147" height="169" fill="white"/>
</clipPath>
</defs>
</svg>
