<svg width="178" height="176" viewBox="0 0 178 176" fill="none" xmlns="http://www.w3.org/2000/svg">
<g clip-path="url(#clip0_972_750)">
<path d="M133.5 36.2087C118.115 51.2344 102.964 66.4912 87.5798 81.5169C87.3467 81.2857 87.1136 81.0546 86.8805 80.8234C80.1207 74.1196 73.361 67.4159 66.6012 60.7121C60.0746 54.0084 49.5853 54.0084 42.8255 60.7121C38.6298 65.1042 34.201 69.2652 29.7722 73.6573C23.0124 80.3611 22.7793 90.3011 29.7722 97.0049C38.3967 105.558 47.2543 114.111 55.8788 122.895C62.6386 129.599 69.3984 136.303 76.1581 143.238C78.7222 145.781 81.7524 147.63 85.0157 148.092C90.1438 148.786 95.2719 147.63 99.2346 143.7C112.288 130.755 125.574 117.579 138.628 104.633C148.884 94.4621 159.373 84.0597 169.629 73.8885C169.862 73.6573 170.096 73.4262 170.562 73.195C173.126 75.7378 174.991 78.5118 175.923 81.9792C178.254 90.3011 176.156 97.4672 170.096 103.477C147.951 125.438 125.807 147.399 103.663 169.359C99.9338 173.058 95.7381 175.138 90.61 175.601C84.3165 176.294 78.7222 174.445 74.2934 170.053C51.45 147.63 28.8398 124.976 6.22956 102.553C-1.69567 94.6932 -1.69568 81.5169 6.46266 73.4261C29.0729 51.0032 51.6831 28.5803 74.2934 6.15737C82.2186 -1.70221 95.2719 -1.70221 103.43 6.15737C113.686 16.0974 123.71 26.0375 133.733 35.9776C133.266 35.9776 133.5 36.2087 133.5 36.2087Z" fill="white"/>
<path d="M87.3463 96.5426C100.633 83.3662 113.686 70.421 126.739 57.4758C135.364 48.9227 144.222 40.1385 152.846 31.5854C156.109 28.3491 159.14 28.3491 162.403 31.5854C166.599 35.7464 170.794 39.9073 175.223 44.2995C178.253 47.3046 178.253 50.5409 175.223 53.3149C147.485 80.3611 119.98 107.87 92.4744 135.147C88.978 138.614 85.2485 138.152 82.4513 135.378C67.3001 120.121 51.9159 105.096 36.7647 89.8388C33.9675 87.0648 33.9675 83.8285 36.5316 81.2857C41.1935 76.6625 45.8554 72.0392 50.5173 67.647C52.8482 65.3354 56.3447 65.5666 58.6756 67.8782C67.9994 77.1248 77.0901 86.1402 86.4139 95.3867C86.647 95.6179 86.8801 96.0802 87.3463 96.5426Z" fill="white"/>
</g>
<defs>
<clipPath id="clip0_972_750">
<rect width="178" height="176" fill="white"/>
</clipPath>
</defs>
</svg>
