<svg width="325" height="65" viewBox="0 0 325 65" fill="none" xmlns="http://www.w3.org/2000/svg">
<path d="M46.8765 19.7415C50.0666 19.7415 53.0055 19.7415 56.1704 19.7415C56.1704 20.3443 56.1704 20.8969 56.1704 21.4244C56.1704 29.9899 56.1704 38.5302 56.1704 47.0957C56.1704 49.909 57.2003 52.1194 59.888 53.2246C62.651 54.3801 65.3136 54.1038 67.6496 52.0943C69.1568 50.8132 69.634 49.0549 69.634 47.1208C69.6089 38.5553 69.634 30.015 69.634 21.4495C69.634 20.8969 69.634 20.3443 69.634 19.7163C72.7487 19.7163 75.6876 19.7163 78.8777 19.7163C78.8777 20.2438 78.8777 20.7713 78.8777 21.3239C78.8777 30.1908 78.8023 39.0577 78.9028 47.8995C78.9782 54.2545 75.1852 59.6048 69.5587 61.9408C63.4548 64.5029 56.723 63.2218 52.2268 58.6754C51.9756 58.4242 51.6993 58.2232 51.4481 57.9972C44.5405 65.4323 34.1414 64.2266 28.5399 58.801C25.2996 55.6611 23.9683 51.7426 23.9683 47.3218C23.9683 37.0231 23.9432 26.7245 23.9683 16.4258C23.9683 13.5372 22.9133 11.3016 20.1754 10.1964C17.3872 9.09116 14.7498 9.3926 12.4389 11.4272C11.0573 12.658 10.5801 14.2907 10.5801 16.1244C10.6052 24.6396 10.5801 33.1297 10.5801 41.6449C10.5801 42.1975 10.5801 42.7501 10.5801 43.4284C7.44025 43.4284 4.40089 43.4284 1.11035 43.4284C1.11035 43.0013 1.11035 42.5241 1.11035 42.0217C1.11035 33.4563 1.11035 24.9159 1.11035 16.3505C1.13547 9.16653 4.85303 3.69066 11.3336 1.27927C17.8896 -1.15724 25.2996 0.601073 29.7456 5.70016C32.1821 8.51345 33.2873 11.8793 33.2873 15.5718C33.2873 26.1719 33.2873 36.7719 33.2873 47.372C33.2873 50.8886 35.7238 53.4256 39.2656 53.727C43.0585 54.0535 46.0727 52.0189 46.7258 48.6279C46.8514 47.9748 46.8514 47.2966 46.8514 46.6435C46.8514 38.2539 46.8514 29.8392 46.8514 21.4495C46.8765 20.9974 46.8765 20.4448 46.8765 19.7415Z" fill="white"/>
<path d="M105.754 19.2642C105.704 19.9676 105.603 20.6458 105.628 21.3491C105.754 34.4108 105.88 47.4725 106.005 60.5091C106.03 63.0963 105.955 63.046 103.443 62.8953C101.207 62.7697 98.9468 62.8702 96.7112 62.9707C95.3297 63.046 94.7771 62.619 94.8273 61.1621C95.0785 55.0332 95.4804 48.8791 95.4553 42.7502C95.4051 29.6885 95.1539 16.6519 94.9027 3.59021C94.8776 2.18356 95.1288 1.70631 96.5856 1.68119C98.8212 1.63096 101.107 1.48025 103.292 1.05323C104.875 0.751805 105.729 1.2793 106.608 2.48499C112.486 10.4225 118.389 18.36 124.292 26.2723C128.461 31.8487 132.681 37.3748 136.901 42.926C137.504 43.7298 138.182 44.4583 139.086 45.5384C139.187 43.8554 139.363 42.5995 139.338 41.3435C139.086 29.2615 138.81 17.1794 138.559 5.09732C138.458 0.450373 138.484 1.12859 142.352 1.37977C144.236 1.50537 146.145 1.32953 148.029 1.22906C150.013 1.12858 150.189 1.22906 150.139 3.21343C149.938 11.2012 149.611 19.1889 149.536 27.1766C149.46 38.2791 149.561 49.4066 149.586 60.5091C149.586 62.9958 149.41 63.0963 146.923 62.8953C145.291 62.7697 143.633 62.6693 142.025 62.9204C140.192 63.1968 139.061 62.5437 138.006 61.137C131.727 52.7223 125.422 44.3326 119.092 35.9681C115.224 30.8691 111.33 25.7951 107.437 20.7211C107.035 20.1936 106.608 19.7164 106.181 19.214C106.055 19.214 105.905 19.2391 105.754 19.2642Z" fill="white"/>
<path d="M229.84 47.9999C228.484 50.2104 227.253 52.3204 225.922 54.355C224.314 56.8417 222.606 59.2782 220.923 61.7147C220.27 62.6692 219.391 63.046 218.185 63.046C213.011 63.046 212.91 63.1465 210.197 58.7758C207.158 53.8777 204.169 48.9042 201.456 43.8051C200.426 41.8961 199.874 39.5601 199.723 37.3748C199.447 33.1548 199.597 28.8847 199.673 24.6396C199.723 21.8766 199.999 21.7259 202.762 21.8263C204.445 21.8766 206.153 22.0775 207.836 21.977C209.369 21.9017 209.745 22.5296 209.745 23.9363C209.72 28.6335 209.695 33.3558 209.871 38.053C209.921 39.5852 210.348 41.243 211.102 42.5492C213.086 45.9905 215.347 49.2559 217.758 52.9483C221.174 47.1962 225.796 42.6748 225.57 35.8174C225.419 31.5221 225.47 27.2268 225.344 22.9316C225.294 21.5751 225.595 20.9723 227.102 21.0728C229.187 21.1984 231.297 21.1732 233.407 21.0728C234.764 20.9974 235.165 21.4747 235.14 22.806C235.04 27.8799 235.015 32.9539 235.04 38.0027C235.04 38.9824 235.291 40.0876 235.793 40.9165C238.029 44.408 240.39 47.799 242.701 51.2403C242.952 51.617 243.203 51.9938 243.605 52.5967C246.243 48.427 249.332 44.9355 250.211 40.5648C251.04 36.571 250.689 32.3259 250.789 28.2065C250.814 26.5738 250.639 24.941 250.463 23.3083C250.337 22.2031 250.814 21.8514 251.844 21.8514C253.954 21.8514 256.039 21.7761 258.149 21.7258C260.158 21.7007 260.435 21.9017 260.51 23.9865C260.611 26.3979 260.636 28.8093 260.636 31.1956C260.636 33.2553 260.585 35.2899 260.51 37.3496C260.41 39.6606 259.958 41.9212 258.727 43.9307C255.285 49.5071 251.869 55.0834 248.453 60.6597C247.398 62.3929 245.992 62.9455 243.932 63.0711C240.943 63.247 239.059 62.2171 237.552 59.7303C235.366 56.0881 232.955 52.5967 230.619 49.0298C230.393 48.7786 230.167 48.4521 229.84 47.9999Z" fill="white"/>
<path d="M298.44 26.8249C298.842 25.142 299.168 23.8107 299.469 22.4543C299.696 21.3993 300.298 21.0225 301.378 21.2737C303.112 21.6756 304.87 22.0524 306.628 22.3789C308.135 22.6552 308.361 23.4841 308.161 24.9159C307.558 29.2614 306.754 33.6572 306.729 38.0278C306.653 44.6089 307.181 51.2151 307.432 57.8213C307.482 59.1024 307.558 60.3834 307.633 61.6645C307.683 62.5185 307.332 62.9958 306.427 63.046C304.393 63.1967 302.333 63.3474 300.324 63.5986C299.068 63.7493 298.515 63.247 298.314 62.0915C298.038 60.5844 297.736 59.1024 297.36 57.2185C296.305 58.0474 295.451 58.6502 294.647 59.3033C291.959 61.4635 289.07 63.3474 285.604 63.9503C280.656 64.8043 276.084 63.6991 272.14 60.6597C265.66 55.6611 262.796 48.9293 263.148 40.7909C263.424 34.461 265.484 28.8846 270.231 24.4889C277.114 18.0836 288.292 17.6315 295.149 23.459C296.179 24.3884 297.159 25.5187 298.44 26.8249ZM297.133 41.6952C297.108 40.9667 297.083 40.2634 297.033 39.5601C296.983 39.0577 296.857 38.5553 296.757 38.053C295.601 32.9539 291.482 28.9098 286.86 28.332C281.66 27.6789 276.988 30.3415 274.502 35.3401C271.939 40.5397 272.844 46.945 276.737 51.2402C281.409 56.3896 289.07 56.3393 293.667 51.1398C296.028 48.427 297.184 45.2871 297.133 41.6952Z" fill="white"/>
<path d="M154.535 41.5193C154.761 30.643 161.769 21.7007 171.842 19.7163C183.748 17.3803 195.378 25.7448 196.961 37.8018C197.84 44.4331 196.609 50.5369 192.339 55.837C186.787 62.7195 179.553 65.2565 171.013 63.2721C162.699 61.3128 157.725 55.636 155.414 47.5729C154.887 45.6388 154.811 43.5539 154.535 41.5193ZM163.829 41.444C164.005 42.6999 164.08 43.981 164.382 45.2118C165.562 50.1853 170.058 54.2545 174.705 54.6564C180.081 55.1085 184.502 52.4208 186.838 47.3469C187.868 45.1113 188.119 42.7502 187.968 40.3136C187.541 32.4766 180.382 27.051 172.922 28.9098C167.722 30.2159 164.005 35.3904 163.829 41.444Z" fill="white"/>
<path d="M323.835 7.98594C324.362 12.0049 320.218 15.4713 316.55 15.3708C312.33 15.2704 309.065 12.0803 309.09 7.86036C309.115 3.71579 312.556 0.224281 316.6 0.349874C320.645 0.475468 324.387 3.86649 323.835 7.98594ZM316.651 1.50534C313.059 1.4551 310.12 4.26839 310.07 7.81011C309.994 11.2765 312.958 14.2656 316.5 14.3159C320.017 14.341 322.88 11.5528 322.93 8.0613C322.955 4.39398 320.243 1.53046 316.651 1.50534Z" fill="white"/>
<path d="M314.29 4.41909C315.345 4.41909 316.199 4.39397 317.053 4.41909C318.284 4.46933 319.464 4.74563 319.766 6.17739C320.042 7.50868 319.289 8.28737 318.008 8.7395C318.51 9.56842 318.987 10.3471 319.464 11.1258C319.364 11.2514 319.238 11.3518 319.138 11.4774C318.711 11.0504 318.209 10.6485 317.857 10.1713C317.254 9.36747 316.852 8.26224 315.295 8.99068C315.295 9.49306 315.345 10.0708 315.27 10.6736C315.245 10.8997 315.018 11.1258 314.868 11.3518C314.692 11.1258 314.34 10.8746 314.34 10.6485C314.29 8.63901 314.29 6.62953 314.29 4.41909ZM315.295 8.21201C316.551 7.83523 317.555 7.58404 318.51 7.18214C318.661 7.10678 318.61 5.95133 318.409 5.87598C317.455 5.52432 316.425 5.34847 315.295 5.09729C315.295 6.22763 315.295 6.93096 315.295 8.21201Z" fill="white"/>
</svg>
