<svg width="479" height="652" viewBox="0 0 479 652" fill="none" xmlns="http://www.w3.org/2000/svg">
<g clip-path="url(#clip0_749_21)">
<path d="M381.875 72.7954C381.078 75.0348 379.605 77.2741 379.59 79.5285C379.425 108.129 379.485 136.729 379.485 165.33C379.485 307.521 379.47 449.712 379.59 591.902C379.59 594.532 381.078 597.178 381.86 599.808L381.71 599.913C381.74 596.712 381.8 593.526 381.8 590.324C381.8 429.167 381.8 268.009 381.8 106.836C381.8 95.4443 381.74 84.0523 381.71 72.6602C381.71 72.6902 381.875 72.7954 381.875 72.7954Z" fill="#121212"/>
<path d="M439.335 599.823C440.116 597.583 441.59 595.344 441.59 593.105C441.74 557.305 441.695 521.521 441.695 485.721C441.695 350.745 441.71 215.753 441.59 80.7759C441.59 78.1157 440.101 75.4706 439.32 72.8105L439.485 72.6902C439.44 75.8914 439.35 79.0776 439.35 82.2788C439.35 251.838 439.35 421.397 439.35 590.956C439.35 593.946 439.44 596.952 439.485 599.943L439.335 599.823Z" fill="#121212"/>
<path d="M459.284 649.825C459.284 647.45 459.284 645.331 459.284 642.701C426.871 642.701 394.488 642.701 361.835 642.701C361.835 645.03 361.835 647.165 361.835 649.825C394.218 649.825 426.601 649.825 459.284 649.825Z" fill="#121212"/>
<path d="M343.223 1.66244C346.094 2.69946 348.966 4.62319 351.852 4.63822C391.03 4.83359 430.193 4.83359 469.371 4.63822C472.243 4.62319 475.099 2.69946 477.971 1.66244C477.775 0.941044 477.58 0.219644 477.369 -0.516785C432.854 -0.516785 388.339 -0.516785 343.809 -0.516785C343.614 0.204615 343.418 0.941044 343.223 1.66244Z" fill="#121212"/>
<path d="M409.913 6.90761C392.143 6.90761 374.358 6.83246 356.588 7.02784C354.648 7.04287 352.739 8.63596 350.8 9.49262C352.679 10.4695 354.543 12.273 356.422 12.288C392.564 12.4534 428.72 12.4534 464.861 12.288C466.68 12.273 468.499 10.3793 470.318 9.35736C468.559 8.54579 466.8 7.04287 465.026 7.02784C446.655 6.84749 428.284 6.90761 409.913 6.90761Z" fill="#121212"/>
<path d="M471.912 16.3309C466.215 15.6546 460.532 14.7378 454.819 14.3771C448.926 14.0014 446.039 17.3228 445.784 23.064C445.708 24.8524 445.453 26.7461 445.874 28.4444C448.369 38.3636 444.686 44.6458 435.651 49.365C430.885 51.8598 427.773 51.0332 424.36 48.2077C418.843 43.6539 418.377 37.2815 418.302 30.7288C418.287 29.0606 417.159 27.4074 416.543 25.7391C415.851 27.3473 414.498 29.0155 414.603 30.5635C414.994 36.3046 415.581 42.0608 416.663 47.7118C417.415 51.6194 420.061 53.7685 424.481 53.528C429.261 53.2575 434.087 53.6182 438.883 53.3477C448.054 52.8517 453.12 46.7349 451.782 37.6573C451.181 33.5844 449.903 29.6016 448.881 25.3634C450.88 26.3854 452.834 27.3924 455.886 28.9554C455.27 25.168 454.894 22.7934 454.503 20.4339C457.314 23.5299 458.382 29.4513 464.035 26.205C465.523 25.3484 464.831 20.7044 465.177 17.3529C466.26 18.9309 467.763 21.1252 469.477 23.62C473.25 22.5379 472.454 19.3668 471.837 16.2557C471.822 16.2407 471.912 16.3309 471.912 16.3309Z" fill="#121212"/>
<path d="M355.896 17.5182C356.257 20.8697 355.611 24.4015 357.084 26.2201C359.309 28.9704 362.782 26.5657 366.826 20.4338C366.39 22.583 365.954 24.7322 365.187 28.5346C368.149 27.2721 370.254 26.3704 372.298 25.4987C371.381 29.0756 370.163 32.8179 369.517 36.6653C367.818 46.6597 373.035 53.0321 383.092 53.3928C387.287 53.5431 391.511 53.1072 395.676 53.528C401.238 54.0991 404.185 51.2436 405.012 46.4643C406.019 40.603 406.29 34.6063 406.605 28.6548C406.65 27.708 405.297 26.686 404.591 25.694C404.005 26.7912 403.042 27.8432 402.922 29.0005C402.561 32.1716 402.877 35.4329 402.336 38.544C401.118 45.5325 394.954 51.5742 389.828 51.2436C383.138 50.8078 374.508 41.67 374.674 35.0121C374.764 30.834 375.41 26.6559 375.32 22.4778C375.2 17.3228 372.373 14.2118 367.036 14.3621C362.271 14.4973 357.4 14.5875 352.814 15.6997C347.853 16.902 347.673 19.6373 351.672 23.5749C353.235 21.3356 354.829 19.0361 355.896 17.5182Z" fill="#121212"/>
<path d="M443.92 597.373C443.92 423.531 443.92 249.689 443.92 75.8463C443.755 75.8463 443.604 75.8463 443.439 75.8463C443.439 249.779 443.439 423.696 443.439 597.628C443.604 597.538 443.77 597.448 443.92 597.373Z" fill="#121212"/>
<path d="M377.56 705.793C377.411 705.793 377.29 540.575 377.29 336.767C377.29 132.96 377.411 -32.2584 377.56 -32.2584C377.71 -32.2584 377.831 132.96 377.831 336.767C377.831 540.575 377.71 705.793 377.56 705.793Z" fill="#121212"/>
<path d="M360.212 638.147C361.805 638.898 363.384 640.281 364.977 640.296C395.346 640.432 425.714 640.431 456.082 640.281C457.736 640.266 459.375 638.643 461.028 637.771C460.773 637.2 460.517 636.614 460.262 636.043C427.187 636.043 394.113 636.043 361.038 636.043C360.753 636.749 360.482 637.441 360.212 638.147Z" fill="#121212"/>
<path d="M361.264 633.157C394.143 633.157 427.021 633.157 459.915 633.157C460.126 632.631 460.336 632.09 460.547 631.564C458.322 630.693 456.097 629.069 453.872 629.054C425.067 628.874 396.247 628.889 367.427 629.024C365.172 629.039 362.932 630.362 360.692 631.068C360.873 631.76 361.068 632.451 361.264 633.157Z" fill="#121212"/>
<path d="M365.443 626.681C395.525 626.681 425.608 626.681 455.706 626.681C455.856 626.14 455.991 625.613 456.142 625.072C453.947 624.366 451.767 623.043 449.572 623.028C423.608 622.892 397.645 622.892 371.682 623.028C369.472 623.043 367.262 624.336 365.067 625.042C365.187 625.598 365.307 626.14 365.443 626.681Z" fill="#121212"/>
<path d="M367.909 615.393C369.893 615.723 371.862 616.31 373.847 616.325C398.442 616.385 423.038 616.37 447.633 616.37C448.836 616.37 450.098 616.535 451.196 616.189C451.963 615.949 452.985 614.972 453 614.311C453.015 613.664 451.993 612.658 451.241 612.417C450.143 612.071 448.866 612.237 447.678 612.237C422.887 612.237 398.081 612.222 373.291 612.282C371.502 612.282 369.698 612.823 367.909 613.123C367.894 613.86 367.909 614.626 367.909 615.393Z" fill="#121212"/>
<path d="M400.863 19.0512C409.267 26.716 412.243 26.701 420.542 18.5853C419.835 21.005 419.399 22.5229 418.482 25.6189C421.098 24.0108 423.579 23.3194 423.819 22.1622C424.165 20.4038 422.977 18.3298 421.895 14.4372C424.391 17.5783 425.879 19.4419 428.149 22.2975C429.036 20.4038 430.584 18.5402 430.434 16.8269C430.344 15.85 427.503 14.4072 425.879 14.3771C415.716 14.1517 405.553 14.1517 395.39 14.3771C393.752 14.4072 391.091 15.6245 390.79 16.7968C390.384 18.2997 391.872 20.3286 392.835 22.9287C395.09 19.7275 396.563 17.6535 398.021 15.5644C397.014 19.6373 394.443 23.5449 402.035 24.7322C401.629 22.7333 401.299 21.1402 400.863 19.0512Z" fill="#121212"/>
<path d="M368.089 58.6838C396.488 59.3904 424.857 59.661 453.195 58.5936C449.392 54.4145 371.862 54.4145 368.089 58.6838Z" fill="#121212"/>
<path d="M452.053 618.85C424.075 618.85 397.239 618.85 370.013 618.85C373.561 621.826 446.385 622.112 452.053 618.85Z" fill="#121212"/>
<path d="M439.319 72.8104C441.199 72.2093 443.078 71.6231 444.957 71.022C444.927 70.6462 444.897 70.2705 444.852 69.8948C422.046 69.8948 399.224 69.8948 376.418 69.8948C376.313 70.2104 376.222 70.541 376.117 70.8567C378.042 71.5029 379.951 72.1492 381.875 72.7954L381.71 72.6752C386.265 72.7353 390.82 72.8105 395.376 72.8706C395.631 73.0209 395.887 73.1862 396.127 73.3515C396.969 73.8324 397.811 74.3284 398.653 74.8093C400.472 74.4937 402.291 74.1631 404.11 73.8475C406.38 73.2313 408.635 72.6151 410.905 71.9989L411.387 71.9538C413.627 72.1792 415.867 72.4047 418.122 72.6451C419.43 73.1411 420.738 73.637 422.045 74.133C423.098 73.8925 424.165 73.6521 425.218 73.4266C425.398 73.2313 425.593 73.0509 425.804 72.8856C430.374 72.8105 434.929 72.7353 439.5 72.6602L439.319 72.8104Z" fill="#121212"/>
<path d="M392.323 48.2678C397.029 46.3892 400.005 39.8064 398.397 33.0132C396.833 26.3854 390.474 20.3587 385.152 21.4859C382.506 22.042 379.635 24.4767 378.131 26.8513C375.921 30.3681 377.244 33.4791 382.01 38.0931C379.424 33.1635 378.432 28.7901 383.739 27.2721C388.835 25.8293 391.797 29.8571 392.489 34.0953C393.225 38.7093 392.443 43.5787 392.323 48.2678Z" fill="#121212"/>
<path d="M432.163 29.5265C434.433 29.0005 438.312 27.5126 438.687 28.1288C440.131 30.5334 440.461 33.5994 441.078 35.9289C443.664 34.2607 445.362 31.1647 443.182 27.4374C441.619 24.7773 438.342 22.042 435.425 21.5009C430.088 20.509 423.954 26.9715 422.676 33.5843C421.353 40.3775 424.165 46.299 430.314 48.8991C427.728 41.9255 424.977 35.0572 432.223 29.4363L432.163 29.5265Z" fill="#121212"/>
<path d="M381.86 599.823C380.161 600.454 378.447 601.086 375.004 602.348C399.239 602.348 421.729 602.348 445.964 602.348C442.747 601.116 441.048 600.469 439.349 599.823L439.499 599.943C434.929 599.658 430.359 599.372 425.789 599.086L425.638 598.966C420.136 599.402 414.618 599.823 409.116 600.259C404.651 599.763 400.186 599.252 395.736 598.756L395.345 599.176C390.805 599.432 386.265 599.688 381.739 599.928L381.86 599.823Z" fill="#121212"/>
<path d="M446.445 609.111C422.526 609.111 398.622 609.111 374.703 609.111C374.703 609.411 374.703 609.697 374.703 609.998C398.637 609.998 422.571 609.998 446.505 609.998C446.475 609.697 446.46 609.396 446.445 609.111Z" fill="#121212"/>
<path d="M445.407 65.0855C422.18 65.0855 398.968 65.0855 375.741 65.0855C375.741 65.4763 375.741 65.8672 375.726 66.258C398.968 66.258 422.195 66.258 445.438 66.258C445.422 65.8672 445.422 65.4763 445.407 65.0855Z" fill="#121212"/>
<path d="M375.651 606.631C398.908 606.631 422.165 606.631 445.422 606.631C445.422 606.315 445.438 605.985 445.438 605.669C422.195 605.669 398.953 605.669 375.711 605.669C375.696 605.985 375.666 606.315 375.651 606.631Z" fill="#121212"/>
<path d="M405.974 53.1673C408.89 53.1673 412.604 53.1673 415.189 53.1673C414.333 45.758 413.581 38.529 412.604 31.33C412.408 29.8571 411.326 28.5195 410.664 27.1218C409.958 28.4895 408.8 29.782 408.605 31.2098C407.597 38.4087 406.846 45.6377 405.974 53.1673Z" fill="#121212"/>
<path d="M375.005 62.7561C398.743 62.7561 422.481 62.7561 446.205 62.7561C446.205 62.5006 446.205 62.23 446.22 61.9744C422.421 61.9744 398.623 61.9744 374.809 61.9744C374.869 62.23 374.944 62.5006 375.005 62.7561Z" fill="#121212"/>
<path d="M375.245 14.6176C376.072 17.3529 376.794 19.7726 377.846 23.2443C379.77 17.6234 388.144 22.4177 388.655 14.6176C384.07 14.6176 379.86 14.6176 375.245 14.6176Z" fill="#121212"/>
<path d="M443.348 23.109C444.386 19.7575 445.137 17.3679 445.994 14.5574C441.439 14.5574 437.365 14.5574 432.629 14.5574C432.719 22.4628 441.439 17.7587 443.348 23.109Z" fill="#121212"/>
<path d="M432.253 29.4513C431.426 32.1115 430.615 34.7717 429.788 37.4318C430.344 37.8827 430.9 38.3336 431.456 38.7844C434.012 36.2746 436.568 33.7647 439.139 31.2398C436.823 30.6687 434.493 30.0976 432.178 29.5115C432.163 29.5265 432.253 29.4513 432.253 29.4513Z" fill="#121212"/>
<path d="M392.309 36.1393C389.963 33.7046 387.663 31.2248 385.137 29.0005C384.972 28.8502 383.033 30.7138 381.92 31.6456C384.551 34.0202 387.182 36.3798 389.828 38.7544C390.655 37.8827 391.482 37.011 392.309 36.1393Z" fill="#121212"/>
<path d="M428.796 42.9625C431.291 44.6308 432.885 46.5245 434.238 46.3742C435.591 46.2239 436.718 44.0296 437.951 42.7371C436.658 41.5197 435.41 39.4157 434.057 39.3405C432.674 39.2503 431.201 41.1891 428.796 42.9625Z" fill="#121212"/>
<path d="M381.649 42.4215C384.024 44.3602 385.423 46.3892 386.731 46.3291C388.159 46.2539 389.497 44.255 390.88 43.0978C389.677 41.7752 388.625 39.6261 387.227 39.3555C385.949 39.1 384.265 40.8735 381.649 42.4215Z" fill="#121212"/>
<path d="M371.787 52.9269C369.953 48.4031 367.969 43.4585 366.405 39.6111C364.27 44.4805 366.104 49.7257 371.787 52.9269Z" fill="#121212"/>
<path d="M404.125 73.8775C402.306 74.1931 400.487 74.5238 398.668 74.8394C398.818 77.8302 399.089 80.821 399.089 83.7967C399.104 253.04 399.104 422.298 399.179 591.542C399.179 594.352 397.48 598.53 402.291 599.071C402.847 599.131 404.681 594.307 404.681 591.752C404.801 421.697 404.801 251.657 404.771 81.6025C404.756 79.0175 404.335 76.4475 404.125 73.8775Z" fill="#121212"/>
<path d="M395.375 72.8856C391.572 73.1712 390.444 75.3353 390.519 78.9574C390.7 87.554 390.579 96.1507 390.579 104.747C390.579 266.927 390.564 429.107 390.654 591.271C390.654 594.487 388.58 599.642 395.33 599.161L395.721 598.741C395.871 596.952 396.172 595.164 396.172 593.39C396.172 420.044 396.157 246.698 396.142 73.3515C395.886 73.1862 395.631 73.0359 395.375 72.8856Z" fill="#121212"/>
<path d="M425.217 73.4417C425.142 78.6418 425.007 83.8419 425.007 89.0269C424.992 256.031 424.992 423.035 425.022 590.024C425.022 593 425.413 595.975 425.623 598.951C425.623 598.951 425.789 599.071 425.774 599.071C427.367 597.899 429.201 596.937 430.464 595.464C431.065 594.773 430.584 593.15 430.584 591.947C430.584 421.742 430.584 251.537 430.569 81.347C430.569 77.6949 431.682 73.2764 425.789 72.8856C425.593 73.066 425.398 73.2463 425.217 73.4417Z" fill="#121212"/>
<path d="M418.121 72.6752C417.55 75.14 416.467 77.5897 416.467 80.0545C416.392 251.071 416.407 422.088 416.407 593.105C416.407 594.502 416.242 596.005 416.693 597.253C417.024 598.155 418.256 599.297 419.083 599.312C419.94 599.312 421.353 598.215 421.579 597.358C422.06 595.464 422.045 593.405 422.045 591.421C422.045 419.007 422.045 246.593 422.03 74.1631C420.737 73.6671 419.429 73.1712 418.121 72.6752Z" fill="#121212"/>
<path d="M410.905 72.0289C409.793 75.666 407.718 79.288 407.718 82.9251C407.568 211.53 407.613 340.149 407.643 468.753C407.643 509.558 407.613 550.362 407.733 591.166C407.748 594.006 408.921 596.847 409.567 599.687C410.815 598.395 412.454 597.298 413.16 595.75C413.777 594.427 413.341 592.609 413.341 591.016C413.341 421.472 413.356 251.913 413.25 82.369C413.25 78.9123 412.048 75.4556 411.401 71.9839C411.386 71.9839 410.905 72.0289 410.905 72.0289Z" fill="#121212"/>
<path d="M387.272 73.3365C382.957 78.0105 382.987 594.713 386.159 599.687C386.956 598.365 387.933 597.373 388.129 596.261C388.459 594.307 388.324 592.278 388.324 590.279C388.324 420.375 388.324 250.47 388.264 80.5655C388.264 78.1458 387.618 75.7411 387.272 73.3365Z" fill="#121212"/>
<path d="M436.312 599.222C436.598 597.042 437.139 594.863 437.139 592.684C437.184 421.607 437.169 250.515 437.169 79.4383C437.169 78.236 437.335 76.9886 437.049 75.8614C436.838 75.0498 435.997 74.4035 435.425 73.6671C434.628 74.3735 433.411 74.9596 433.125 75.8313C432.704 77.1088 432.93 78.5967 432.93 79.9944C432.93 250.485 432.93 420.961 432.975 591.452C432.975 594.082 433.576 596.712 433.907 599.342C434.704 599.282 435.515 599.252 436.312 599.222Z" fill="#121212"/>
</g>
<g clip-path="url(#clip1_749_21)">
<path d="M256.317 133.175C255.682 134.957 254.507 136.74 254.495 138.534C254.363 161.3 254.411 184.066 254.411 206.832C254.411 320.016 254.399 433.2 254.495 546.384C254.495 548.477 255.682 550.583 256.305 552.677L256.186 552.76C256.209 550.212 256.257 547.676 256.257 545.128C256.257 416.846 256.257 288.565 256.257 160.271C256.257 151.203 256.209 142.135 256.186 133.067C256.186 133.091 256.317 133.175 256.317 133.175Z" fill="#121212"/>
<path d="M302.139 552.689C302.762 550.906 303.937 549.123 303.937 547.341C304.057 518.845 304.021 490.36 304.021 461.864C304.021 354.422 304.033 246.969 303.937 139.527C303.937 137.41 302.75 135.304 302.127 133.187L302.259 133.091C302.223 135.639 302.151 138.175 302.151 140.724C302.151 275.692 302.151 410.661 302.151 545.63C302.151 548.011 302.223 550.404 302.259 552.784L302.139 552.689Z" fill="#121212"/>
<path d="M318.049 592.49C318.049 590.6 318.049 588.913 318.049 586.82C292.201 586.82 266.376 586.82 240.336 586.82C240.336 588.674 240.336 590.373 240.336 592.49C266.161 592.49 291.985 592.49 318.049 592.49Z" fill="#121212"/>
<path d="M225.494 76.553C227.784 77.3784 230.074 78.9097 232.376 78.9217C263.619 79.0772 294.85 79.0772 326.093 78.9217C328.383 78.9097 330.661 77.3784 332.951 76.553C332.795 75.9787 332.639 75.4045 332.472 74.8183C296.972 74.8183 261.473 74.8183 225.961 74.8183C225.806 75.3925 225.65 75.9787 225.494 76.553Z" fill="#121212"/>
<path d="M278.677 80.7281C264.506 80.7281 250.323 80.6683 236.152 80.8238C234.605 80.8358 233.083 82.1039 231.536 82.7858C233.035 83.5634 234.521 84.999 236.02 85.0109C264.842 85.1425 293.675 85.1425 322.497 85.0109C323.947 84.999 325.398 83.4916 326.849 82.6781C325.446 82.0321 324.043 80.8358 322.628 80.8238C307.978 80.6803 293.327 80.7281 278.677 80.7281Z" fill="#121212"/>
<path d="M328.119 88.229C323.575 87.6907 319.043 86.9609 314.488 86.6738C309.788 86.3747 307.486 89.0186 307.282 93.5886C307.222 95.0122 307.018 96.5195 307.354 97.8714C309.344 105.767 306.407 110.768 299.202 114.524C295.401 116.51 292.919 115.852 290.198 113.603C285.798 109.978 285.426 104.906 285.366 99.6898C285.354 98.3619 284.455 97.0459 283.964 95.718C283.412 96.9981 282.333 98.326 282.417 99.5582C282.729 104.128 283.196 108.71 284.06 113.208C284.659 116.319 286.769 118.029 290.294 117.838C294.106 117.623 297.955 117.91 301.779 117.694C309.093 117.3 313.133 112.431 312.066 105.205C311.586 101.963 310.567 98.7926 309.752 95.4189C311.346 96.2324 312.905 97.034 315.339 98.2781C314.847 95.2634 314.548 93.3732 314.236 91.495C316.478 93.9594 317.329 98.6729 321.837 96.0889C323.024 95.407 322.472 91.7103 322.748 89.0425C323.611 90.2987 324.81 92.0453 326.177 94.0312C329.186 93.1698 328.551 90.6456 328.059 88.1692C328.047 88.1573 328.119 88.229 328.119 88.229Z" fill="#121212"/>
<path d="M235.6 89.1741C235.888 91.8419 235.373 94.6533 236.547 96.1008C238.322 98.2901 241.091 96.376 244.316 91.495C243.969 93.2057 243.621 94.9165 243.01 97.9432C245.371 96.9383 247.05 96.2205 248.68 95.5266C247.949 98.3738 246.978 101.353 246.462 104.415C245.108 112.371 249.268 117.443 257.288 117.73C260.633 117.85 264.002 117.503 267.323 117.838C271.759 118.293 274.109 116.02 274.768 112.215C275.572 107.55 275.787 102.776 276.039 98.0389C276.075 97.2852 274.996 96.4717 274.433 95.6821C273.965 96.5554 273.198 97.3929 273.102 98.314C272.814 100.838 273.066 103.434 272.634 105.911C271.663 111.474 266.748 116.283 262.659 116.02C257.324 115.673 250.443 108.399 250.575 103.099C250.647 99.7735 251.162 96.4478 251.09 93.122C250.994 89.0186 248.74 86.5422 244.484 86.6619C240.684 86.7695 236.799 86.8413 233.143 87.7266C229.186 88.6836 229.042 90.8609 232.231 93.9953C233.478 92.2128 234.749 90.3824 235.6 89.1741Z" fill="#121212"/>
<path d="M305.796 550.739C305.796 412.36 305.796 273.982 305.796 135.603C305.664 135.603 305.544 135.603 305.412 135.603C305.412 274.054 305.412 412.492 305.412 550.942C305.544 550.87 305.676 550.798 305.796 550.739Z" fill="#121212"/>
<path d="M252.877 637.041C252.758 637.041 252.661 505.527 252.661 343.297C252.661 181.066 252.758 49.552 252.877 49.552C252.996 49.552 253.093 181.066 253.093 343.297C253.093 505.527 252.996 637.041 252.877 637.041Z" fill="#121212"/>
<path d="M239.041 583.195C240.312 583.793 241.571 584.894 242.842 584.906C267.06 585.014 291.277 585.014 315.495 584.894C316.814 584.882 318.121 583.59 319.439 582.896C319.236 582.441 319.032 581.975 318.828 581.52C292.452 581.52 266.076 581.52 239.701 581.52C239.473 582.082 239.257 582.633 239.041 583.195Z" fill="#121212"/>
<path d="M239.88 579.224C266.1 579.224 292.32 579.224 318.552 579.224C318.72 578.805 318.888 578.374 319.056 577.955C317.281 577.261 315.507 575.969 313.733 575.957C290.762 575.813 267.779 575.825 244.796 575.933C242.998 575.945 241.211 576.998 239.425 577.56C239.569 578.111 239.725 578.661 239.88 579.224Z" fill="#121212"/>
<path d="M243.213 574.068C267.203 574.068 291.193 574.068 315.195 574.068C315.315 573.637 315.423 573.218 315.543 572.787C313.793 572.225 312.054 571.172 310.304 571.16C289.599 571.052 268.894 571.052 248.189 571.16C246.426 571.172 244.664 572.201 242.914 572.763C243.01 573.206 243.106 573.637 243.213 574.068Z" fill="#121212"/>
<path d="M245.179 565.083C246.762 565.346 248.332 565.813 249.915 565.825C269.529 565.873 289.143 565.861 308.757 565.861C309.716 565.861 310.723 565.992 311.598 565.717C312.21 565.526 313.025 564.748 313.037 564.221C313.049 563.707 312.234 562.905 311.634 562.714C310.759 562.438 309.74 562.57 308.793 562.57C289.023 562.57 269.241 562.558 249.471 562.606C248.045 562.606 246.606 563.037 245.179 563.276C245.167 563.862 245.179 564.473 245.179 565.083Z" fill="#121212"/>
<path d="M271.459 90.3944C278.161 96.4956 280.535 96.4837 287.153 90.0235C286.589 91.9496 286.242 93.1579 285.51 95.6223C287.597 94.3422 289.575 93.7919 289.767 92.8708C290.042 91.4711 289.095 89.8202 288.232 86.7217C290.222 89.222 291.409 90.7054 293.219 92.9784C293.927 91.4711 295.162 89.9876 295.042 88.6238C294.97 87.8462 292.704 86.6978 291.409 86.6738C283.304 86.4944 275.2 86.4944 267.095 86.6738C265.789 86.6978 263.667 87.6668 263.427 88.5999C263.103 89.7962 264.29 91.4113 265.057 93.4809C266.856 90.9327 268.03 89.2818 269.193 87.6189C268.39 90.861 266.34 93.9714 272.394 94.9165C272.071 93.3254 271.807 92.0573 271.459 90.3944Z" fill="#121212"/>
<path d="M245.324 121.942C267.971 122.504 290.594 122.72 313.193 121.87C310.16 118.544 248.333 118.544 245.324 121.942Z" fill="#121212"/>
<path d="M312.282 567.834C289.971 567.834 268.57 567.834 246.858 567.834C249.688 570.203 307.762 570.431 312.282 567.834Z" fill="#121212"/>
<path d="M302.127 133.187C303.626 132.709 305.124 132.242 306.623 131.763C306.599 131.464 306.575 131.165 306.539 130.866C288.352 130.866 270.153 130.866 251.965 130.866C251.881 131.117 251.809 131.38 251.725 131.632C253.26 132.146 254.783 132.661 256.317 133.175L256.185 133.08C259.818 133.128 263.451 133.187 267.083 133.235C267.287 133.355 267.491 133.487 267.683 133.618C268.354 134.001 269.026 134.396 269.697 134.779C271.148 134.528 272.598 134.264 274.049 134.013C275.859 133.522 277.658 133.032 279.468 132.541L279.852 132.505C281.638 132.685 283.424 132.864 285.223 133.056C286.266 133.451 287.309 133.845 288.352 134.24C289.191 134.049 290.042 133.857 290.882 133.678C291.025 133.522 291.181 133.379 291.349 133.247C294.994 133.187 298.626 133.128 302.271 133.068L302.127 133.187Z" fill="#121212"/>
<path d="M264.65 113.651C268.403 112.155 270.777 106.916 269.494 101.508C268.247 96.2324 263.176 91.4352 258.931 92.3324C256.821 92.7751 254.532 94.7131 253.333 96.6033C251.57 99.4027 252.625 101.879 256.426 105.552C254.364 101.628 253.572 98.1465 257.805 96.9383C261.869 95.7898 264.231 98.9959 264.782 102.37C265.37 106.042 264.746 109.918 264.65 113.651Z" fill="#121212"/>
<path d="M296.42 98.7327C298.23 98.314 301.324 97.1297 301.623 97.6202C302.774 99.5343 303.038 101.975 303.53 103.829C305.592 102.501 306.946 100.037 305.208 97.0699C303.961 94.9524 301.348 92.7751 299.022 92.3444C294.766 91.5548 289.874 96.699 288.855 101.963C287.8 107.37 290.042 112.084 294.945 114.153C292.883 108.602 290.689 103.135 296.468 98.661L296.42 98.7327Z" fill="#121212"/>
<path d="M256.306 552.689C254.951 553.191 253.584 553.694 250.839 554.699C270.165 554.699 288.101 554.699 307.427 554.699C304.861 553.718 303.506 553.203 302.152 552.689L302.272 552.784C298.627 552.557 294.982 552.33 291.338 552.102L291.218 552.007C286.83 552.354 282.43 552.689 278.042 553.036C274.481 552.641 270.92 552.234 267.372 551.839L267.06 552.174C263.439 552.378 259.819 552.581 256.21 552.772L256.306 552.689Z" fill="#121212"/>
<path d="M307.81 560.082C288.736 560.082 269.673 560.082 250.599 560.082C250.599 560.321 250.599 560.548 250.599 560.788C269.685 560.788 288.772 560.788 307.858 560.788C307.834 560.548 307.822 560.309 307.81 560.082Z" fill="#121212"/>
<path d="M306.983 127.038C288.46 127.038 269.949 127.038 251.426 127.038C251.426 127.349 251.426 127.66 251.414 127.971C269.949 127.971 288.472 127.971 307.007 127.971C306.995 127.66 306.995 127.349 306.983 127.038Z" fill="#121212"/>
<path d="M251.354 558.108C269.901 558.108 288.448 558.108 306.995 558.108C306.995 557.857 307.007 557.594 307.007 557.342C288.472 557.342 269.937 557.342 251.402 557.342C251.39 557.594 251.366 557.857 251.354 558.108Z" fill="#121212"/>
<path d="M275.536 117.551C277.861 117.551 280.823 117.551 282.885 117.551C282.201 111.653 281.602 105.899 280.823 100.168C280.667 98.9959 279.804 97.9312 279.276 96.8186C278.713 97.9073 277.789 98.9361 277.634 100.073C276.83 105.803 276.231 111.557 275.536 117.551Z" fill="#121212"/>
<path d="M250.838 125.184C269.769 125.184 288.699 125.184 307.618 125.184C307.618 124.98 307.618 124.765 307.63 124.561C288.651 124.561 269.673 124.561 250.682 124.561C250.73 124.765 250.79 124.98 250.838 125.184Z" fill="#121212"/>
<path d="M251.03 86.8652C251.69 89.0425 252.265 90.9686 253.105 93.7321C254.639 89.2579 261.317 93.0741 261.725 86.8652C258.068 86.8652 254.711 86.8652 251.03 86.8652Z" fill="#121212"/>
<path d="M305.34 93.6245C306.167 90.9567 306.767 89.0545 307.45 86.8174C303.818 86.8174 300.569 86.8174 296.792 86.8174C296.864 93.11 303.818 89.3655 305.34 93.6245Z" fill="#121212"/>
<path d="M296.492 98.6729C295.833 100.79 295.186 102.908 294.526 105.025C294.97 105.384 295.413 105.743 295.857 106.102C297.895 104.104 299.933 102.106 301.983 100.097C300.137 99.642 298.279 99.1873 296.433 98.7208C296.421 98.7327 296.492 98.6729 296.492 98.6729Z" fill="#121212"/>
<path d="M264.638 103.997C262.767 102.059 260.933 100.085 258.919 98.314C258.787 98.1944 257.24 99.6778 256.353 100.42C258.451 102.31 260.549 104.188 262.66 106.078C263.319 105.384 263.978 104.69 264.638 103.997Z" fill="#121212"/>
<path d="M293.735 109.428C295.725 110.756 296.996 112.263 298.075 112.143C299.154 112.024 300.053 110.277 301.036 109.248C300.005 108.279 299.01 106.605 297.931 106.545C296.828 106.473 295.653 108.016 293.735 109.428Z" fill="#121212"/>
<path d="M256.138 108.997C258.032 110.54 259.147 112.155 260.19 112.108C261.329 112.048 262.396 110.457 263.499 109.536C262.54 108.483 261.701 106.772 260.586 106.557C259.567 106.353 258.224 107.765 256.138 108.997Z" fill="#121212"/>
<path d="M248.272 117.359C246.81 113.759 245.227 109.823 243.98 106.76C242.278 110.636 243.741 114.811 248.272 117.359Z" fill="#121212"/>
<path d="M274.061 134.036C272.61 134.287 271.16 134.551 269.709 134.802C269.829 137.182 270.045 139.563 270.045 141.932C270.057 276.65 270.057 411.379 270.117 546.097C270.117 548.334 268.762 551.66 272.598 552.09C273.042 552.138 274.505 548.298 274.505 546.264C274.601 410.901 274.6 275.549 274.577 140.185C274.565 138.128 274.229 136.082 274.061 134.036Z" fill="#121212"/>
<path d="M267.083 133.247C264.05 133.474 263.151 135.197 263.211 138.08C263.355 144.923 263.259 151.766 263.259 158.609C263.259 287.704 263.247 416.798 263.319 545.881C263.319 548.442 261.664 552.545 267.047 552.162L267.359 551.827C267.479 550.404 267.719 548.98 267.719 547.568C267.719 409.585 267.707 271.601 267.695 133.617C267.491 133.486 267.287 133.366 267.083 133.247Z" fill="#121212"/>
<path d="M290.881 133.689C290.821 137.829 290.713 141.968 290.713 146.095C290.701 279.03 290.701 411.965 290.725 544.889C290.725 547.257 291.037 549.626 291.205 551.995C291.205 551.995 291.337 552.09 291.325 552.09C292.596 551.157 294.058 550.392 295.065 549.219C295.545 548.669 295.161 547.377 295.161 546.42C295.161 410.937 295.161 275.453 295.149 139.982C295.149 137.075 296.037 133.558 291.337 133.247C291.181 133.39 291.025 133.534 290.881 133.689Z" fill="#121212"/>
<path d="M285.222 133.079C284.767 135.041 283.904 136.991 283.904 138.953C283.844 275.082 283.856 411.212 283.856 547.341C283.856 548.454 283.724 549.65 284.083 550.643C284.347 551.361 285.33 552.27 285.99 552.282C286.673 552.282 287.8 551.408 287.98 550.727C288.364 549.219 288.352 547.58 288.352 546.001C288.352 408.759 288.352 271.517 288.34 134.263C287.309 133.869 286.265 133.474 285.222 133.079Z" fill="#121212"/>
<path d="M279.468 132.565C278.581 135.46 276.926 138.343 276.926 141.238C276.806 243.607 276.842 345.988 276.866 448.357C276.866 480.838 276.842 513.318 276.938 545.798C276.95 548.059 277.885 550.32 278.401 552.581C279.396 551.552 280.703 550.679 281.266 549.446C281.758 548.394 281.41 546.946 281.41 545.678C281.41 410.721 281.422 275.752 281.338 140.795C281.338 138.044 280.379 135.292 279.863 132.529C279.851 132.529 279.468 132.565 279.468 132.565Z" fill="#121212"/>
<path d="M260.621 133.605C257.18 137.326 257.204 548.621 259.734 552.581C260.37 551.528 261.149 550.739 261.305 549.853C261.568 548.298 261.461 546.683 261.461 545.092C261.461 409.848 261.461 274.604 261.413 139.36C261.413 137.434 260.897 135.52 260.621 133.605Z" fill="#121212"/>
<path d="M299.73 552.21C299.958 550.475 300.389 548.741 300.389 547.006C300.425 410.829 300.413 274.64 300.413 138.463C300.413 137.505 300.545 136.513 300.317 135.615C300.149 134.969 299.478 134.455 299.022 133.869C298.387 134.431 297.416 134.898 297.188 135.591C296.852 136.608 297.032 137.793 297.032 138.905C297.032 274.616 297.032 410.314 297.068 546.025C297.068 548.119 297.548 550.212 297.812 552.306C298.447 552.258 299.094 552.234 299.73 552.21Z" fill="#121212"/>
</g>
<g clip-path="url(#clip2_749_21)">
<path d="M155.046 183.842C154.542 185.246 153.609 186.649 153.6 188.062C153.495 205.985 153.533 223.908 153.533 241.831C153.533 330.937 153.523 420.043 153.6 509.149C153.6 510.798 154.542 512.455 155.036 514.103L154.941 514.169C154.96 512.163 154.998 510.167 154.998 508.16C154.998 407.168 154.998 306.176 154.998 205.175C154.998 198.036 154.96 190.897 154.941 183.758C154.941 183.777 155.046 183.842 155.046 183.842Z" fill="#121212"/>
<path d="M191.412 514.113C191.907 512.71 192.84 511.306 192.84 509.903C192.935 487.469 192.906 465.044 192.906 442.609C192.906 358.024 192.916 273.429 192.84 188.844C192.84 187.177 191.898 185.519 191.403 183.852L191.507 183.777C191.479 185.783 191.422 187.779 191.422 189.785C191.422 296.042 191.422 402.299 191.422 508.556C191.422 510.43 191.479 512.314 191.507 514.188L191.412 514.113Z" fill="#121212"/>
<path d="M204.039 545.447C204.039 543.959 204.039 542.631 204.039 540.983C183.525 540.983 163.029 540.983 142.362 540.983C142.362 542.443 142.362 543.78 142.362 545.447C162.858 545.447 183.353 545.447 204.039 545.447Z" fill="#121212"/>
<path d="M130.583 139.266C132.4 139.916 134.217 141.122 136.044 141.131C160.841 141.254 185.627 141.254 210.424 141.131C212.241 141.122 214.049 139.916 215.866 139.266C215.743 138.814 215.619 138.362 215.486 137.9C187.312 137.9 159.137 137.9 130.954 137.9C130.83 138.352 130.706 138.814 130.583 139.266Z" fill="#121212"/>
<path d="M172.792 142.553C161.545 142.553 150.289 142.506 139.042 142.628C137.815 142.638 136.606 143.636 135.379 144.173C136.568 144.785 137.748 145.916 138.937 145.925C161.812 146.029 184.695 146.029 207.569 145.925C208.721 145.916 209.872 144.729 211.023 144.088C209.91 143.58 208.797 142.638 207.674 142.628C196.047 142.515 184.419 142.553 172.792 142.553Z" fill="#121212"/>
<path d="M212.032 148.458C208.425 148.034 204.829 147.46 201.213 147.234C197.483 146.998 195.656 149.08 195.494 152.677C195.447 153.798 195.285 154.985 195.551 156.049C197.131 162.265 194.8 166.202 189.081 169.159C186.065 170.723 184.095 170.205 181.935 168.434C178.443 165.58 178.148 161.587 178.101 157.481C178.091 156.435 177.378 155.399 176.988 154.354C176.55 155.362 175.693 156.407 175.76 157.377C176.007 160.975 176.379 164.582 177.064 168.123C177.539 170.572 179.214 171.919 182.011 171.768C185.037 171.599 188.092 171.825 191.127 171.655C196.931 171.344 200.138 167.511 199.291 161.823C198.91 159.27 198.101 156.774 197.454 154.118C198.72 154.759 199.957 155.39 201.888 156.369C201.498 153.996 201.26 152.508 201.013 151.029C202.792 152.969 203.468 156.68 207.046 154.646C207.988 154.109 207.55 151.199 207.769 149.098C208.454 150.087 209.405 151.462 210.49 153.026C212.878 152.348 212.374 150.361 211.984 148.411C211.974 148.402 212.032 148.458 212.032 148.458Z" fill="#121212"/>
<path d="M138.604 149.202C138.833 151.302 138.423 153.516 139.356 154.655C140.764 156.379 142.962 154.872 145.522 151.029C145.246 152.376 144.97 153.723 144.485 156.106C146.359 155.315 147.691 154.749 148.985 154.203C148.405 156.445 147.634 158.79 147.225 161.201C146.15 167.464 149.451 171.457 155.817 171.683C158.472 171.778 161.145 171.505 163.781 171.768C167.302 172.126 169.167 170.337 169.69 167.342C170.327 163.669 170.499 159.911 170.699 156.181C170.727 155.588 169.871 154.947 169.424 154.326C169.052 155.013 168.443 155.672 168.367 156.398C168.139 158.385 168.339 160.429 167.996 162.378C167.226 166.758 163.324 170.544 160.08 170.337C155.846 170.064 150.384 164.337 150.489 160.165C150.546 157.547 150.955 154.928 150.898 152.31C150.822 149.08 149.033 147.13 145.655 147.224C142.639 147.309 139.556 147.366 136.654 148.062C133.514 148.816 133.399 150.53 135.93 152.998C136.92 151.594 137.929 150.153 138.604 149.202Z" fill="#121212"/>
<path d="M194.314 512.578C194.314 403.637 194.314 294.695 194.314 185.754C194.21 185.754 194.115 185.754 194.01 185.754C194.01 294.752 194.01 403.74 194.01 512.738C194.115 512.681 194.219 512.625 194.314 512.578Z" fill="#121212"/>
<path d="M152.315 580.521C152.22 580.521 152.144 476.984 152.144 349.265C152.144 221.546 152.22 118.009 152.315 118.009C152.41 118.009 152.486 221.546 152.486 349.265C152.486 476.984 152.41 580.521 152.315 580.521Z" fill="#121212"/>
<path d="M141.335 538.13C142.343 538.601 143.342 539.468 144.351 539.477C163.571 539.562 182.792 539.562 202.012 539.468C203.059 539.458 204.096 538.441 205.143 537.894C204.981 537.536 204.819 537.169 204.657 536.811C183.724 536.811 162.791 536.811 141.858 536.811C141.677 537.254 141.506 537.687 141.335 538.13Z" fill="#121212"/>
<path d="M142.001 535.003C162.811 535.003 183.62 535.003 204.439 535.003C204.572 534.673 204.706 534.334 204.839 534.005C203.431 533.458 202.022 532.441 200.614 532.431C182.383 532.318 164.143 532.328 145.903 532.413C144.475 532.422 143.058 533.251 141.64 533.694C141.754 534.127 141.878 534.56 142.001 535.003Z" fill="#121212"/>
<path d="M144.646 530.944C163.686 530.944 182.726 530.944 201.775 530.944C201.87 530.605 201.956 530.275 202.051 529.936C200.662 529.493 199.282 528.664 197.893 528.655C181.46 528.57 165.028 528.57 148.595 528.655C147.196 528.664 145.798 529.474 144.409 529.917C144.485 530.266 144.561 530.605 144.646 530.944Z" fill="#121212"/>
<path d="M146.206 523.871C147.462 524.078 148.709 524.445 149.965 524.455C165.531 524.492 181.098 524.483 196.665 524.483C197.426 524.483 198.225 524.587 198.92 524.37C199.405 524.219 200.052 523.607 200.061 523.192C200.071 522.787 199.424 522.156 198.948 522.005C198.254 521.789 197.445 521.892 196.693 521.892C181.003 521.892 165.303 521.883 149.613 521.921C148.48 521.921 147.338 522.26 146.206 522.448C146.197 522.91 146.206 523.39 146.206 523.871Z" fill="#121212"/>
<path d="M167.064 150.163C172.382 154.966 174.266 154.957 179.519 149.871C179.072 151.387 178.796 152.338 178.215 154.279C179.871 153.271 181.441 152.838 181.593 152.112C181.812 151.01 181.06 149.711 180.375 147.271C181.955 149.24 182.897 150.408 184.333 152.197C184.895 151.01 185.875 149.843 185.78 148.769C185.723 148.157 183.924 147.252 182.897 147.234C176.464 147.092 170.032 147.092 163.6 147.234C162.563 147.252 160.879 148.015 160.688 148.75C160.432 149.692 161.374 150.963 161.982 152.593C163.41 150.587 164.342 149.287 165.265 147.978C164.628 150.53 163.001 152.979 167.806 153.723C167.549 152.47 167.339 151.472 167.064 150.163Z" fill="#121212"/>
<path d="M146.321 174.999C164.295 175.442 182.25 175.612 200.186 174.943C197.778 172.324 148.709 172.324 146.321 174.999Z" fill="#121212"/>
<path d="M199.462 526.036C181.754 526.036 164.77 526.036 147.538 526.036C149.784 527.902 195.875 528.081 199.462 526.036Z" fill="#121212"/>
<path d="M191.404 183.852C192.593 183.476 193.782 183.108 194.972 182.731C194.953 182.496 194.934 182.26 194.905 182.025C180.471 182.025 166.027 182.025 151.592 182.025C151.526 182.223 151.469 182.43 151.402 182.628C152.62 183.033 153.829 183.438 155.046 183.843L154.942 183.768C157.825 183.805 160.708 183.852 163.591 183.89C163.753 183.984 163.914 184.088 164.067 184.191C164.6 184.493 165.132 184.804 165.665 185.105C166.817 184.907 167.968 184.7 169.119 184.502C170.556 184.116 171.983 183.73 173.42 183.344L173.725 183.315C175.142 183.457 176.56 183.598 177.987 183.749C178.815 184.06 179.643 184.37 180.471 184.681C181.137 184.531 181.812 184.38 182.478 184.239C182.593 184.116 182.716 184.003 182.849 183.899C185.742 183.852 188.625 183.805 191.518 183.758L191.404 183.852Z" fill="#121212"/>
<path d="M161.659 168.472C164.637 167.295 166.521 163.169 165.503 158.912C164.513 154.759 160.488 150.982 157.12 151.688C155.445 152.037 153.628 153.563 152.676 155.051C151.278 157.255 152.115 159.204 155.131 162.096C153.495 159.006 152.867 156.266 156.226 155.315C159.451 154.41 161.326 156.934 161.763 159.59C162.23 162.482 161.735 165.533 161.659 168.472Z" fill="#121212"/>
<path d="M186.874 156.727C188.31 156.398 190.765 155.465 191.003 155.851C191.917 157.358 192.126 159.28 192.516 160.739C194.153 159.694 195.228 157.754 193.848 155.418C192.858 153.751 190.784 152.037 188.938 151.698C185.56 151.076 181.678 155.126 180.87 159.27C180.032 163.527 181.812 167.238 185.703 168.867C184.067 164.497 182.325 160.193 186.912 156.671L186.874 156.727Z" fill="#121212"/>
<path d="M155.036 514.113C153.961 514.509 152.876 514.904 150.697 515.696C166.036 515.696 180.27 515.696 195.608 515.696C193.572 514.923 192.497 514.518 191.422 514.113L191.517 514.188C188.624 514.009 185.732 513.83 182.839 513.651L182.744 513.576C179.262 513.849 175.769 514.113 172.287 514.386C169.461 514.075 166.635 513.755 163.819 513.444L163.571 513.708C160.698 513.868 157.824 514.028 154.96 514.179L155.036 514.113Z" fill="#121212"/>
<path d="M195.913 519.933C180.775 519.933 165.646 519.933 150.507 519.933C150.507 520.122 150.507 520.301 150.507 520.489C165.655 520.489 180.803 520.489 195.951 520.489C195.932 520.301 195.923 520.112 195.913 519.933Z" fill="#121212"/>
<path d="M195.256 179.011C180.556 179.011 165.864 179.011 151.164 179.011C151.164 179.256 151.164 179.501 151.154 179.746C165.864 179.746 180.565 179.746 195.275 179.746C195.266 179.501 195.266 179.256 195.256 179.011Z" fill="#121212"/>
<path d="M151.106 518.38C165.826 518.38 180.546 518.38 195.266 518.38C195.266 518.182 195.275 517.974 195.275 517.777C180.565 517.777 165.855 517.777 151.145 517.777C151.135 517.974 151.116 518.182 151.106 518.38Z" fill="#121212"/>
<path d="M170.299 171.542C172.145 171.542 174.495 171.542 176.132 171.542C175.589 166.899 175.114 162.369 174.495 157.857C174.372 156.934 173.686 156.096 173.268 155.22C172.821 156.077 172.088 156.887 171.964 157.782C171.327 162.293 170.851 166.824 170.299 171.542Z" fill="#121212"/>
<path d="M150.698 177.551C165.722 177.551 180.746 177.551 195.761 177.551C195.761 177.391 195.761 177.221 195.771 177.061C180.708 177.061 165.646 177.061 150.574 177.061C150.612 177.221 150.66 177.391 150.698 177.551Z" fill="#121212"/>
<path d="M150.849 147.384C151.373 149.098 151.83 150.615 152.496 152.79C153.714 149.268 159.013 152.272 159.337 147.384C156.435 147.384 153.771 147.384 150.849 147.384Z" fill="#121212"/>
<path d="M193.953 152.706C194.61 150.605 195.086 149.108 195.628 147.347C192.745 147.347 190.166 147.347 187.169 147.347C187.226 152.301 192.745 149.353 193.953 152.706Z" fill="#121212"/>
<path d="M186.931 156.68C186.408 158.347 185.894 160.014 185.371 161.681C185.723 161.964 186.075 162.246 186.427 162.529C188.044 160.956 189.662 159.383 191.289 157.801C189.824 157.443 188.349 157.085 186.884 156.718C186.874 156.727 186.931 156.68 186.931 156.68Z" fill="#121212"/>
<path d="M161.649 160.871C160.165 159.346 158.709 157.792 157.111 156.398C157.006 156.303 155.779 157.471 155.075 158.055C156.74 159.543 158.405 161.022 160.079 162.51C160.603 161.964 161.126 161.418 161.649 160.871Z" fill="#121212"/>
<path d="M184.742 165.147C186.322 166.193 187.331 167.379 188.187 167.285C189.043 167.191 189.757 165.816 190.537 165.006C189.719 164.243 188.929 162.924 188.073 162.877C187.197 162.821 186.265 164.036 184.742 165.147Z" fill="#121212"/>
<path d="M154.903 164.808C156.406 166.023 157.291 167.295 158.119 167.257C159.023 167.21 159.87 165.957 160.745 165.232C159.984 164.403 159.318 163.056 158.433 162.887C157.624 162.727 156.558 163.838 154.903 164.808Z" fill="#121212"/>
<path d="M148.661 171.391C147.5 168.557 146.244 165.458 145.255 163.047C143.904 166.098 145.064 169.385 148.661 171.391Z" fill="#121212"/>
<path d="M169.128 184.521C167.977 184.718 166.825 184.926 165.674 185.123C165.769 186.998 165.941 188.872 165.941 190.737C165.95 296.796 165.95 402.864 165.998 508.923C165.998 510.685 164.922 513.303 167.967 513.642C168.319 513.68 169.48 510.656 169.48 509.055C169.556 402.488 169.556 295.929 169.537 189.362C169.528 187.742 169.261 186.131 169.128 184.521Z" fill="#121212"/>
<path d="M163.59 183.899C161.183 184.078 160.469 185.434 160.517 187.704C160.631 193.091 160.555 198.478 160.555 203.866C160.555 305.498 160.546 407.131 160.603 508.754C160.603 510.769 159.29 514 163.562 513.698L163.809 513.435C163.904 512.314 164.095 511.193 164.095 510.082C164.095 401.452 164.085 292.821 164.076 184.191C163.914 184.087 163.752 183.993 163.59 183.899Z" fill="#121212"/>
<path d="M182.478 184.247C182.43 187.506 182.345 190.765 182.345 194.014C182.335 298.67 182.335 403.326 182.354 507.972C182.354 509.837 182.602 511.702 182.735 513.567C182.735 513.567 182.84 513.642 182.83 513.642C183.839 512.907 185 512.305 185.799 511.382C186.179 510.948 185.875 509.931 185.875 509.178C185.875 402.516 185.875 295.854 185.865 189.201C185.865 186.913 186.57 184.144 182.84 183.899C182.716 184.012 182.592 184.125 182.478 184.247Z" fill="#121212"/>
<path d="M177.987 183.767C177.626 185.312 176.941 186.847 176.941 188.391C176.893 295.562 176.903 402.732 176.903 509.903C176.903 510.779 176.798 511.721 177.083 512.502C177.293 513.067 178.073 513.783 178.596 513.793C179.139 513.793 180.033 513.105 180.176 512.568C180.48 511.382 180.471 510.091 180.471 508.848C180.471 400.802 180.471 292.755 180.461 184.7C179.643 184.389 178.815 184.078 177.987 183.767Z" fill="#121212"/>
<path d="M173.42 183.362C172.715 185.641 171.402 187.911 171.402 190.19C171.307 270.782 171.336 351.384 171.355 431.976C171.355 457.547 171.336 483.117 171.412 508.688C171.421 510.468 172.164 512.248 172.573 514.028C173.362 513.218 174.4 512.531 174.847 511.56C175.237 510.732 174.961 509.592 174.961 508.594C174.961 402.346 174.97 296.089 174.904 189.842C174.904 187.676 174.143 185.509 173.734 183.334C173.724 183.334 173.42 183.362 173.42 183.362Z" fill="#121212"/>
<path d="M158.462 184.182C155.731 187.111 155.75 510.911 157.758 514.028C158.262 513.199 158.881 512.578 159.004 511.881C159.214 510.656 159.128 509.385 159.128 508.132C159.128 401.659 159.128 295.185 159.09 188.712C159.09 187.195 158.681 185.688 158.462 184.182Z" fill="#121212"/>
<path d="M189.5 513.736C189.681 512.37 190.023 511.005 190.023 509.639C190.052 402.431 190.042 295.213 190.042 188.005C190.042 187.252 190.147 186.47 189.966 185.764C189.833 185.255 189.3 184.85 188.938 184.389C188.434 184.831 187.663 185.199 187.483 185.745C187.216 186.546 187.359 187.478 187.359 188.354C187.359 295.195 187.359 402.026 187.387 508.867C187.387 510.515 187.768 512.163 187.977 513.811C188.482 513.774 188.995 513.755 189.5 513.736Z" fill="#121212"/>
</g>
<g clip-path="url(#clip3_749_21)">
<path d="M75.6328 229.959C75.2546 231.016 74.5552 232.073 74.5481 233.137C74.4696 246.637 74.4981 260.136 74.4981 273.636C74.4981 340.75 74.491 407.864 74.5481 474.978C74.5481 476.219 75.2546 477.468 75.6257 478.709L75.5543 478.759C75.5686 477.248 75.5971 475.744 75.5971 474.233C75.5971 398.167 75.5971 322.1 75.5971 246.027C75.5971 240.65 75.5686 235.273 75.5543 229.896C75.5543 229.91 75.6328 229.959 75.6328 229.959Z" fill="#121212"/>
<path d="M102.908 478.716C103.279 477.659 103.978 476.602 103.978 475.545C104.05 458.648 104.028 441.758 104.028 424.861C104.028 361.151 104.035 297.435 103.978 233.726C103.978 232.471 103.272 231.222 102.901 229.967L102.979 229.91C102.958 231.421 102.915 232.925 102.915 234.436C102.915 314.467 102.915 394.499 102.915 474.531C102.915 475.943 102.958 477.361 102.979 478.773L102.908 478.716Z" fill="#121212"/>
<path d="M112.378 502.318C112.378 501.197 112.378 500.196 112.378 498.955C96.9921 498.955 81.6205 498.955 66.1204 498.955C66.1204 500.055 66.1204 501.062 66.1204 502.318C81.492 502.318 96.8636 502.318 112.378 502.318Z" fill="#121212"/>
<path d="M57.2854 196.385C58.6484 196.875 60.0115 197.783 61.3816 197.79C79.9788 197.882 98.5689 197.882 117.166 197.79C118.529 197.783 119.885 196.875 121.248 196.385C121.155 196.044 121.063 195.704 120.963 195.356C99.832 195.356 78.7014 195.356 57.5637 195.356C57.4709 195.697 57.3782 196.044 57.2854 196.385Z" fill="#121212"/>
<path d="M88.9416 198.86C80.5065 198.86 72.0642 198.825 63.6291 198.917C62.7086 198.924 61.8022 199.676 60.8817 200.081C61.7737 200.542 62.6586 201.393 63.5506 201.401C80.7063 201.479 97.8691 201.479 115.025 201.401C115.888 201.393 116.752 200.499 117.615 200.017C116.78 199.634 115.945 198.924 115.103 198.917C106.383 198.832 97.6621 198.86 88.9416 198.86Z" fill="#121212"/>
<path d="M118.372 203.308C115.667 202.989 112.97 202.556 110.258 202.386C107.46 202.209 106.09 203.776 105.969 206.486C105.933 207.33 105.812 208.224 106.012 209.026C107.196 213.708 105.448 216.673 101.159 218.9C98.8968 220.078 97.4196 219.688 95.7997 218.354C93.1806 216.205 92.9594 213.197 92.9237 210.104C92.9166 209.317 92.3814 208.536 92.0888 207.749C91.7605 208.508 91.1183 209.295 91.1682 210.026C91.3538 212.736 91.6321 215.453 92.1459 218.12C92.5027 219.964 93.7587 220.979 95.8568 220.865C98.1261 220.738 100.417 220.908 102.693 220.78C107.046 220.546 109.451 217.659 108.816 213.374C108.531 211.452 107.924 209.572 107.439 207.572C108.388 208.054 109.316 208.529 110.764 209.267C110.472 207.479 110.293 206.358 110.108 205.245C111.442 206.706 111.949 209.501 114.632 207.969C115.339 207.564 115.011 205.372 115.175 203.791C115.689 204.535 116.402 205.571 117.216 206.749C119.007 206.238 118.629 204.741 118.336 203.273C118.329 203.266 118.372 203.308 118.372 203.308Z" fill="#121212"/>
<path d="M63.3008 203.869C63.4721 205.45 63.1652 207.118 63.8646 207.976C64.9208 209.274 66.5692 208.139 68.4889 205.245C68.282 206.259 68.075 207.274 67.7111 209.068C69.1169 208.472 70.116 208.047 71.0865 207.635C70.6512 209.324 70.0732 211.09 69.7663 212.906C68.9599 217.623 71.4362 220.631 76.2104 220.801C78.2014 220.872 80.2067 220.667 82.1835 220.865C84.8239 221.135 86.2226 219.787 86.6151 217.531C87.0932 214.765 87.2217 211.934 87.3715 209.125C87.393 208.678 86.7507 208.196 86.4153 207.728C86.137 208.245 85.6802 208.742 85.6231 209.288C85.4519 210.785 85.6017 212.324 85.3448 213.793C84.7668 217.091 81.8409 219.943 79.4074 219.787C76.2318 219.581 72.1356 215.268 72.2141 212.126C72.2569 210.154 72.5637 208.182 72.5209 206.21C72.4638 203.776 71.1222 202.308 68.5888 202.379C66.3266 202.443 64.0144 202.485 61.8379 203.01C59.4829 203.578 59.3973 204.869 61.2955 206.727C62.0377 205.67 62.7941 204.585 63.3008 203.869Z" fill="#121212"/>
<path d="M105.084 477.56C105.084 395.507 105.084 313.453 105.084 231.399C105.005 231.399 104.934 231.399 104.856 231.399C104.856 313.496 104.856 395.585 104.856 477.681C104.934 477.638 105.013 477.595 105.084 477.56Z" fill="#121212"/>
<path d="M73.5844 528.734C73.5135 528.734 73.456 450.751 73.456 354.554C73.456 258.357 73.5135 180.374 73.5844 180.374C73.6554 180.374 73.7129 258.357 73.7129 354.554C73.7129 450.751 73.6554 528.734 73.5844 528.734Z" fill="#121212"/>
<path d="M65.349 496.806C66.1055 497.16 66.8548 497.813 67.6112 497.82C82.0266 497.884 96.4419 497.884 110.857 497.813C111.642 497.806 112.42 497.04 113.205 496.628C113.084 496.359 112.962 496.082 112.841 495.812C97.1413 495.812 81.4414 495.812 65.7415 495.812C65.6059 496.146 65.4775 496.472 65.349 496.806Z" fill="#121212"/>
<path d="M65.8484 494.451C81.4555 494.451 97.0626 494.451 112.677 494.451C112.777 494.202 112.877 493.947 112.977 493.699C111.92 493.287 110.864 492.521 109.808 492.514C96.1349 492.429 82.4546 492.436 68.7743 492.499C67.7039 492.507 66.6406 493.131 65.5772 493.464C65.6629 493.791 65.7557 494.117 65.8484 494.451Z" fill="#121212"/>
<path d="M67.8324 491.393C82.1122 491.393 96.3919 491.393 110.679 491.393C110.75 491.138 110.814 490.89 110.886 490.634C109.844 490.301 108.809 489.676 107.767 489.669C95.4428 489.605 83.1184 489.605 70.794 489.669C69.745 489.676 68.6959 490.286 67.654 490.62C67.7111 490.882 67.7682 491.138 67.8324 491.393Z" fill="#121212"/>
<path d="M69.003 486.066C69.945 486.222 70.8798 486.499 71.8218 486.506C83.4968 486.534 95.1718 486.527 106.847 486.527C107.418 486.527 108.017 486.605 108.538 486.442C108.902 486.328 109.387 485.867 109.394 485.555C109.402 485.25 108.916 484.774 108.56 484.661C108.039 484.498 107.432 484.576 106.868 484.576C95.1005 484.576 83.3256 484.569 71.5578 484.597C70.7086 484.597 69.8522 484.852 69.003 484.994C68.9959 485.342 69.003 485.704 69.003 486.066Z" fill="#121212"/>
<path d="M84.6455 204.592C88.6347 208.21 90.0477 208.203 93.987 204.372C93.6516 205.514 93.4446 206.231 93.0093 207.692C94.251 206.933 95.4285 206.607 95.5427 206.061C95.7068 205.231 95.143 204.252 94.6292 202.414C95.8139 203.897 96.5203 204.777 97.5979 206.124C98.019 205.231 98.754 204.351 98.6827 203.542C98.6398 203.081 97.2911 202.4 96.5204 202.386C91.6962 202.28 86.8721 202.28 82.0479 202.386C81.2701 202.4 80.007 202.975 79.8642 203.528C79.6716 204.237 80.378 205.195 80.8348 206.422C81.9052 204.911 82.6046 203.932 83.2968 202.946C82.8187 204.869 81.5983 206.713 85.2022 207.274C85.0095 206.33 84.8525 205.578 84.6455 204.592Z" fill="#121212"/>
<path d="M69.0887 223.299C82.5692 223.632 96.0354 223.76 109.487 223.256C107.682 221.284 70.8799 221.284 69.0887 223.299Z" fill="#121212"/>
<path d="M108.945 487.697C95.6647 487.697 82.9264 487.697 70.0025 487.697C71.6867 489.102 106.255 489.237 108.945 487.697Z" fill="#121212"/>
<path d="M102.9 229.967C103.792 229.683 104.684 229.406 105.576 229.123C105.562 228.945 105.548 228.768 105.526 228.59C94.7004 228.59 83.8675 228.59 73.0418 228.59C72.9918 228.739 72.949 228.895 72.8991 229.044C73.8125 229.35 74.7188 229.655 75.6322 229.96L75.5538 229.903C77.7161 229.931 79.8784 229.967 82.0407 229.995C82.162 230.066 82.2833 230.144 82.3975 230.222C82.7971 230.449 83.1967 230.684 83.5964 230.911C84.4599 230.762 85.3233 230.605 86.1868 230.456C87.2644 230.166 88.3349 229.875 89.4124 229.584L89.6408 229.562C90.7041 229.669 91.7674 229.775 92.8379 229.889C93.4587 230.123 94.0796 230.357 94.7004 230.591C95.2 230.478 95.7067 230.364 96.2062 230.258C96.2918 230.166 96.3846 230.08 96.4845 230.002C98.6539 229.967 100.816 229.931 102.986 229.896L102.9 229.967Z" fill="#121212"/>
<path d="M80.5926 218.382C82.8263 217.496 84.2393 214.389 83.4757 211.182C82.7335 208.054 79.7148 205.209 77.1886 205.741C75.9326 206.004 74.5696 207.153 73.8559 208.274C72.8069 209.934 73.4349 211.402 75.6971 213.58C74.4696 211.253 73.9987 209.189 76.5178 208.472C78.937 207.791 80.3428 209.693 80.6711 211.693C81.0208 213.871 80.6497 216.169 80.5926 218.382Z" fill="#121212"/>
<path d="M99.5038 209.536C100.581 209.288 102.423 208.586 102.601 208.877C103.286 210.012 103.443 211.459 103.736 212.558C104.963 211.771 105.769 210.31 104.735 208.55C103.993 207.295 102.437 206.004 101.052 205.748C98.519 205.28 95.6074 208.331 95.0008 211.452C94.3728 214.658 95.7073 217.453 98.626 218.68C97.3986 215.389 96.0926 212.147 99.5323 209.494L99.5038 209.536Z" fill="#121212"/>
<path d="M75.6255 478.716C74.8191 479.014 74.0056 479.312 72.3714 479.908C83.8751 479.908 94.551 479.908 106.055 479.908C104.528 479.327 103.721 479.021 102.915 478.716L102.986 478.773C100.817 478.638 98.6472 478.504 96.4778 478.369L96.4064 478.312C93.7945 478.518 91.1755 478.716 88.5636 478.922C86.4441 478.688 84.3247 478.447 82.2123 478.213L82.0268 478.411C79.8716 478.532 77.7164 478.653 75.5684 478.766L75.6255 478.716Z" fill="#121212"/>
<path d="M106.283 483.1C94.9291 483.1 83.5824 483.1 72.2286 483.1C72.2286 483.242 72.2286 483.377 72.2286 483.519C83.5895 483.519 94.9505 483.519 106.312 483.519C106.297 483.377 106.29 483.235 106.283 483.1Z" fill="#121212"/>
<path d="M105.79 226.32C94.7648 226.32 83.7464 226.32 72.7208 226.32C72.7208 226.505 72.7208 226.689 72.7137 226.874C83.7464 226.874 94.772 226.874 105.805 226.874C105.798 226.689 105.798 226.505 105.79 226.32Z" fill="#121212"/>
<path d="M72.678 481.93C83.7179 481.93 94.7577 481.93 105.798 481.93C105.798 481.781 105.805 481.625 105.805 481.476C94.772 481.476 83.7393 481.476 72.7066 481.476C72.6994 481.625 72.6851 481.781 72.678 481.93Z" fill="#121212"/>
<path d="M87.0717 220.695C88.4562 220.695 90.2188 220.695 91.4463 220.695C91.0395 217.198 90.6827 213.786 90.2188 210.388C90.1261 209.693 89.6123 209.061 89.2983 208.401C88.9629 209.047 88.4134 209.657 88.3206 210.331C87.8425 213.729 87.4856 217.141 87.0717 220.695Z" fill="#121212"/>
<path d="M72.3711 225.221C83.6394 225.221 94.9076 225.221 106.169 225.221C106.169 225.1 106.169 224.973 106.176 224.852C94.879 224.852 83.5823 224.852 72.2784 224.852C72.3069 224.973 72.3426 225.1 72.3711 225.221Z" fill="#121212"/>
<path d="M72.486 202.499C72.8785 203.791 73.221 204.933 73.7206 206.571C74.634 203.918 78.6089 206.181 78.8516 202.499C76.675 202.499 74.6768 202.499 72.486 202.499Z" fill="#121212"/>
<path d="M104.813 206.507C105.306 204.926 105.663 203.798 106.069 202.471C103.907 202.471 101.973 202.471 99.7252 202.471C99.768 206.202 103.907 203.982 104.813 206.507Z" fill="#121212"/>
<path d="M99.546 209.501C99.1535 210.757 98.7682 212.012 98.3757 213.268C98.6397 213.481 98.9038 213.693 99.1678 213.906C100.381 212.722 101.594 211.537 102.814 210.345C101.715 210.076 100.609 209.806 99.5104 209.529C99.5032 209.537 99.546 209.501 99.546 209.501Z" fill="#121212"/>
<path d="M80.585 212.658C79.4717 211.509 78.3799 210.338 77.181 209.288C77.1025 209.217 76.1819 210.097 75.6538 210.537C76.9026 211.658 78.1515 212.771 79.4075 213.892C79.8 213.481 80.1925 213.069 80.585 212.658Z" fill="#121212"/>
<path d="M97.905 215.879C99.0896 216.666 99.846 217.56 100.488 217.489C101.131 217.418 101.666 216.383 102.251 215.772C101.637 215.198 101.045 214.204 100.403 214.169C99.7461 214.126 99.0468 215.041 97.905 215.879Z" fill="#121212"/>
<path d="M75.5255 215.623C76.6531 216.539 77.3167 217.497 77.9376 217.468C78.6155 217.433 79.2507 216.489 79.9072 215.943C79.3363 215.318 78.8368 214.304 78.1731 214.176C77.5665 214.055 76.7672 214.892 75.5255 215.623Z" fill="#121212"/>
<path d="M70.8438 220.581C69.9731 218.446 69.0311 216.112 68.289 214.296C67.2756 216.595 68.1462 219.071 70.8438 220.581Z" fill="#121212"/>
<path d="M86.194 230.47C85.3305 230.619 84.467 230.775 83.6035 230.924C83.6749 232.336 83.8033 233.748 83.8033 235.152C83.8105 315.035 83.8105 394.925 83.8462 474.808C83.8462 476.134 83.0398 478.106 85.3234 478.362C85.5874 478.39 86.458 476.113 86.458 474.907C86.5151 394.641 86.5151 314.382 86.5009 234.116C86.4937 232.896 86.2939 231.683 86.194 230.47Z" fill="#121212"/>
<path d="M82.0407 230.002C80.2352 230.137 79.7 231.158 79.7357 232.868C79.8213 236.926 79.7642 240.983 79.7642 245.041C79.7642 321.59 79.7571 398.138 79.7999 474.68C79.7999 476.198 78.8151 478.631 82.0193 478.404L82.2049 478.206C82.2762 477.361 82.4189 476.517 82.4189 475.68C82.4189 393.861 82.4118 312.041 82.4047 230.222C82.2834 230.144 82.162 230.073 82.0407 230.002Z" fill="#121212"/>
<path d="M96.2067 230.264C96.171 232.719 96.1068 235.173 96.1068 237.621C96.0996 316.447 96.0996 395.272 96.1139 474.091C96.1139 475.496 96.2994 476.9 96.3994 478.305C96.3994 478.305 96.4779 478.362 96.4707 478.362C97.2272 477.808 98.0978 477.354 98.6972 476.659C98.9827 476.333 98.7543 475.567 98.7543 474.999C98.7543 394.662 98.7543 314.326 98.7472 233.996C98.7472 232.272 99.2753 230.186 96.4779 230.002C96.3851 230.087 96.2923 230.172 96.2067 230.264Z" fill="#121212"/>
<path d="M92.8386 229.903C92.5674 231.066 92.0536 232.222 92.0536 233.386C92.0179 314.106 92.025 394.826 92.025 475.545C92.025 476.205 91.9465 476.915 92.1606 477.503C92.3176 477.929 92.9028 478.468 93.2953 478.475C93.7021 478.475 94.3729 477.957 94.4799 477.553C94.7083 476.659 94.7011 475.687 94.7011 474.751C94.7011 393.371 94.7012 311.992 94.694 230.605C94.0803 230.371 93.4594 230.137 92.8386 229.903Z" fill="#121212"/>
<path d="M89.4125 229.598C88.8844 231.314 87.8996 233.024 87.8996 234.741C87.8283 295.442 87.8497 356.15 87.864 416.852C87.864 436.111 87.8497 455.371 87.9068 474.63C87.9139 475.971 88.4705 477.312 88.7774 478.652C89.3697 478.042 90.1476 477.525 90.483 476.794C90.7756 476.17 90.5686 475.311 90.5686 474.559C90.5686 394.535 90.5757 314.503 90.5258 234.478C90.5258 232.847 89.9549 231.215 89.648 229.576C89.6409 229.576 89.4125 229.598 89.4125 229.598Z" fill="#121212"/>
<path d="M78.1945 230.215C76.1464 232.421 76.1606 476.304 77.6664 478.652C78.0446 478.028 78.5085 477.56 78.6013 477.035C78.7583 476.113 78.694 475.155 78.694 474.212C78.694 394.017 78.694 313.822 78.6655 233.627C78.6655 232.485 78.3586 231.35 78.1945 230.215Z" fill="#121212"/>
<path d="M101.473 478.433C101.609 477.404 101.865 476.375 101.865 475.347C101.887 394.598 101.88 313.843 101.88 233.095C101.88 232.527 101.958 231.939 101.823 231.407C101.723 231.024 101.323 230.718 101.052 230.371C100.674 230.704 100.096 230.981 99.9601 231.392C99.7603 231.995 99.8673 232.698 99.8673 233.357C99.8673 313.829 99.8673 394.293 99.8887 474.765C99.8887 476.006 100.174 477.248 100.331 478.489C100.709 478.461 101.095 478.447 101.473 478.433Z" fill="#121212"/>
</g>
<g clip-path="url(#clip4_749_21)">
<path d="M14.2705 259.475C13.9881 260.263 13.4659 261.051 13.4606 261.845C13.402 271.912 13.4233 281.979 13.4233 292.047C13.4233 342.098 13.418 392.149 13.4606 442.2C13.4606 443.126 13.9881 444.057 14.2652 444.983L14.2119 445.02C14.2226 443.893 14.2439 442.772 14.2439 441.645C14.2439 384.917 14.2439 328.19 14.2439 271.457C14.2439 267.447 14.2226 263.437 14.2119 259.427C14.2119 259.438 14.2705 259.475 14.2705 259.475Z" fill="#121212"/>
<path d="M34.6358 444.988C34.9129 444.2 35.4351 443.412 35.4351 442.624C35.4883 430.022 35.4724 417.426 35.4724 404.825C35.4724 357.313 35.4777 309.796 35.4351 262.284C35.4351 261.347 34.9076 260.416 34.6305 259.48L34.6891 259.438C34.6731 260.564 34.6411 261.686 34.6411 262.813C34.6411 322.498 34.6411 382.182 34.6411 441.867C34.6411 442.92 34.6731 443.978 34.6891 445.031L34.6358 444.988Z" fill="#121212"/>
<path d="M41.707 462.59C41.707 461.754 41.707 461.007 41.707 460.081C30.2189 460.081 18.7415 460.081 7.1681 460.081C7.1681 460.902 7.1681 461.653 7.1681 462.59C18.6456 462.59 30.123 462.59 41.707 462.59Z" fill="#121212"/>
<path d="M0.571299 234.436C1.58903 234.801 2.60676 235.478 3.62982 235.484C17.5157 235.553 31.3963 235.553 45.2822 235.484C46.2999 235.478 47.3123 234.801 48.3301 234.436C48.2608 234.182 48.1915 233.928 48.1169 233.669C32.3394 233.669 16.5619 233.669 0.779116 233.669C0.709846 233.923 0.640569 234.182 0.571299 234.436Z" fill="#121212"/>
<path d="M24.2085 236.282C17.9103 236.282 11.6068 236.256 5.30855 236.324C4.62118 236.33 3.94446 236.891 3.25709 237.192C3.92315 237.536 4.58387 238.171 5.24992 238.177C18.0595 238.235 30.8744 238.235 43.6839 238.177C44.3287 238.171 44.9734 237.505 45.6182 237.145C44.9947 236.859 44.3713 236.33 43.7425 236.324C37.2312 236.261 30.7199 236.282 24.2085 236.282Z" fill="#121212"/>
<path d="M46.1834 239.599C44.1639 239.361 42.1497 239.038 40.1249 238.911C38.0362 238.779 37.0131 239.948 36.9225 241.969C36.8959 242.599 36.8053 243.265 36.9545 243.863C37.839 247.355 36.5336 249.566 33.3312 251.227C31.6421 252.105 30.5391 251.814 29.3295 250.82C27.374 249.217 27.2088 246.974 27.1821 244.667C27.1768 244.08 26.7772 243.498 26.5587 242.911C26.3136 243.477 25.8341 244.064 25.8714 244.609C26.0099 246.63 26.2177 248.656 26.6014 250.645C26.8678 252.021 27.8056 252.777 29.3721 252.693C31.0666 252.597 32.777 252.724 34.4768 252.629C37.7271 252.454 39.5228 250.301 39.0486 247.106C38.8354 245.672 38.3825 244.27 38.0202 242.779C38.7289 243.138 39.4216 243.493 40.5032 244.043C40.2848 242.71 40.1516 241.874 40.013 241.043C41.0094 242.133 41.3878 244.218 43.3913 243.075C43.9188 242.773 43.6737 241.139 43.7962 239.959C44.1799 240.514 44.7127 241.287 45.3202 242.165C46.6576 241.784 46.3752 240.668 46.1567 239.573C46.1514 239.567 46.1834 239.599 46.1834 239.599Z" fill="#121212"/>
<path d="M5.0639 240.017C5.19178 241.197 4.96266 242.44 5.48485 243.08C6.27346 244.048 7.50433 243.202 8.93768 241.043C8.78316 241.8 8.62863 242.556 8.35688 243.895C9.40659 243.45 10.1526 243.133 10.8772 242.826C10.5522 244.085 10.1206 245.403 9.89146 246.757C9.28935 250.275 11.1383 252.518 14.703 252.645C16.1897 252.698 17.687 252.544 19.163 252.693C21.1345 252.894 22.1788 251.888 22.4719 250.206C22.8289 248.143 22.9248 246.032 23.0367 243.937C23.0527 243.604 22.5731 243.244 22.3227 242.895C22.1149 243.281 21.7739 243.651 21.7312 244.059C21.6034 245.175 21.7153 246.323 21.5234 247.418C21.0918 249.878 18.9072 252.005 17.0902 251.888C14.719 251.735 11.6605 248.519 11.7191 246.175C11.7511 244.704 11.9802 243.234 11.9482 241.763C11.9056 239.948 10.9039 238.853 9.01227 238.906C7.32316 238.954 5.59675 238.985 3.97158 239.377C2.21319 239.8 2.14925 240.763 3.56661 242.149C4.12077 241.361 4.68558 240.551 5.0639 240.017Z" fill="#121212"/>
<path d="M36.2617 444.126C36.2617 382.933 36.2617 321.741 36.2617 260.549C36.2031 260.549 36.1498 260.549 36.0912 260.549C36.0912 321.773 36.0912 382.992 36.0912 444.216C36.1498 444.184 36.2084 444.152 36.2617 444.126Z" fill="#121212"/>
<path d="M12.742 482.29C12.689 482.29 12.6461 424.133 12.6461 352.393C12.6461 280.653 12.689 222.496 12.742 222.496C12.795 222.496 12.8379 280.653 12.8379 352.393C12.8379 424.133 12.795 482.29 12.742 482.29Z" fill="#121212"/>
<path d="M6.59268 458.479C7.15749 458.743 7.71698 459.23 8.2818 459.235C19.0452 459.283 29.8087 459.283 40.5721 459.23C41.1583 459.225 41.7391 458.653 42.3252 458.346C42.2346 458.145 42.144 457.939 42.0534 457.738C30.3309 457.738 18.6083 457.738 6.88575 457.738C6.78451 457.986 6.68859 458.23 6.59268 458.479Z" fill="#121212"/>
<path d="M6.96529 456.722C18.6186 456.722 30.2719 456.722 41.9305 456.722C42.0051 456.537 42.0797 456.347 42.1543 456.162C41.3657 455.855 40.5771 455.283 39.7885 455.278C29.5792 455.214 19.3646 455.22 9.14996 455.267C8.35069 455.273 7.55675 455.738 6.76281 455.987C6.82675 456.23 6.89602 456.474 6.96529 456.722Z" fill="#121212"/>
<path d="M8.44729 454.442C19.1095 454.442 29.7717 454.442 40.4392 454.442C40.4925 454.252 40.5405 454.067 40.5938 453.876C39.8158 453.627 39.0432 453.162 38.2652 453.156C29.063 453.109 19.8608 453.109 10.6586 453.156C9.8753 453.162 9.09203 453.617 8.31408 453.865C8.3567 454.061 8.39933 454.252 8.44729 454.442Z" fill="#121212"/>
<path d="M9.3205 450.469C10.0238 450.586 10.7219 450.792 11.4252 450.797C20.1425 450.818 28.8599 450.813 37.5772 450.813C38.0035 450.813 38.4511 450.871 38.84 450.75C39.1118 450.665 39.4741 450.321 39.4794 450.088C39.4848 449.861 39.1224 449.506 38.856 449.421C38.467 449.3 38.0141 449.358 37.5932 449.358C28.8066 449.358 20.0147 449.353 11.2281 449.374C10.594 449.374 9.95458 449.564 9.3205 449.67C9.31517 449.929 9.3205 450.199 9.3205 450.469Z" fill="#121212"/>
<path d="M21.0007 240.557C23.9793 243.256 25.0343 243.251 27.9756 240.393C27.7252 241.245 27.5707 241.779 27.2456 242.87C28.1728 242.303 29.052 242.06 29.1372 241.652C29.2598 241.033 28.8388 240.303 28.4552 238.933C29.3397 240.039 29.8672 240.695 30.6718 241.7C30.9862 241.033 31.535 240.377 31.4817 239.774C31.4498 239.43 30.4427 238.922 29.8672 238.911C26.2652 238.832 22.6632 238.832 19.0612 238.911C18.4804 238.922 17.5372 239.351 17.4307 239.763C17.2868 240.293 17.8143 241.007 18.1553 241.922C18.9546 240.795 19.4768 240.065 19.9936 239.329C19.6366 240.763 18.7255 242.139 21.4163 242.557C21.2724 241.854 21.1552 241.293 21.0007 240.557Z" fill="#121212"/>
<path d="M9.38455 254.507C19.45 254.756 29.5047 254.851 39.5488 254.476C38.2007 253.005 10.722 253.005 9.38455 254.507Z" fill="#121212"/>
<path d="M39.1445 451.686C29.2283 451.686 19.717 451.686 10.0672 451.686C11.3248 452.733 37.1357 452.834 39.1445 451.686Z" fill="#121212"/>
<path d="M34.6307 259.48C35.2968 259.269 35.9629 259.062 36.6289 258.851C36.6182 258.718 36.6076 258.586 36.5916 258.454C28.5084 258.454 20.4198 258.454 12.3365 258.454C12.2993 258.565 12.2673 258.681 12.23 258.792C12.912 259.02 13.5887 259.247 14.2708 259.475L14.2122 259.433C15.8267 259.454 17.4412 259.48 19.0557 259.501C19.1463 259.554 19.2369 259.612 19.3221 259.671C19.6205 259.84 19.9189 260.015 20.2173 260.184C20.8621 260.073 21.5068 259.956 22.1515 259.845C22.9561 259.628 23.7554 259.411 24.56 259.194L24.7305 259.179C25.5244 259.258 26.3184 259.337 27.1176 259.422C27.5812 259.597 28.0448 259.771 28.5084 259.946C28.8813 259.861 29.2597 259.777 29.6327 259.697C29.6966 259.628 29.7659 259.565 29.8405 259.507C31.4603 259.48 33.0748 259.454 34.6947 259.427L34.6307 259.48Z" fill="#121212"/>
<path d="M17.9745 250.841C19.6423 250.18 20.6974 247.863 20.1272 245.471C19.5731 243.138 17.3191 241.017 15.4329 241.414C14.4951 241.609 13.4773 242.466 12.9445 243.302C12.1612 244.54 12.6301 245.635 14.3192 247.259C13.4027 245.524 13.0511 243.985 14.932 243.45C16.7383 242.943 17.788 244.36 18.0331 245.852C18.2942 247.476 18.0172 249.19 17.9745 250.841Z" fill="#121212"/>
<path d="M32.0946 244.244C32.8992 244.059 34.2739 243.535 34.4071 243.752C34.9187 244.598 35.0359 245.678 35.2544 246.498C36.1709 245.91 36.773 244.821 36.0003 243.509C35.4462 242.572 34.2846 241.609 33.2509 241.419C31.3593 241.07 29.1853 243.345 28.7324 245.672C28.2635 248.064 29.2599 250.148 31.4392 251.063C30.5227 248.608 29.5476 246.191 32.1159 244.212L32.0946 244.244Z" fill="#121212"/>
<path d="M14.2659 444.988C13.6638 445.211 13.0563 445.433 11.8361 445.877C20.4256 445.877 28.3969 445.877 36.9863 445.877C35.846 445.443 35.2439 445.216 34.6418 444.988L34.6951 445.031C33.0753 444.93 31.4554 444.83 29.8356 444.729L29.7823 444.687C27.8321 444.84 25.8765 444.988 23.9263 445.142C22.3438 444.967 20.7612 444.787 19.184 444.613L19.0455 444.761C17.4363 444.851 15.8271 444.941 14.2232 445.025L14.2659 444.988Z" fill="#121212"/>
<path d="M37.1564 448.258C28.6789 448.258 20.2067 448.258 11.7291 448.258C11.7291 448.363 11.7291 448.464 11.7291 448.57C20.212 448.57 28.6949 448.57 37.1777 448.57C37.1671 448.464 37.1617 448.358 37.1564 448.258Z" fill="#121212"/>
<path d="M36.7892 256.761C28.5567 256.761 20.3296 256.761 12.0972 256.761C12.0972 256.898 12.0972 257.036 12.0918 257.173C20.3296 257.173 28.562 257.173 36.7998 257.173C36.7945 257.036 36.7945 256.898 36.7892 256.761Z" fill="#121212"/>
<path d="M12.0652 447.385C20.3083 447.385 28.5514 447.385 36.7945 447.385C36.7945 447.274 36.7998 447.157 36.7998 447.046C28.562 447.046 20.3243 447.046 12.0865 447.046C12.0812 447.157 12.0705 447.274 12.0652 447.385Z" fill="#121212"/>
<path d="M22.8128 252.566C23.8465 252.566 25.1626 252.566 26.0791 252.566C25.7754 249.957 25.509 247.413 25.1626 244.879C25.0933 244.36 24.7097 243.89 24.4753 243.398C24.2248 243.879 23.8145 244.334 23.7452 244.837C23.3882 247.371 23.1218 249.915 22.8128 252.566Z" fill="#121212"/>
<path d="M11.8363 255.941C20.2499 255.941 28.6635 255.941 37.0718 255.941C37.0718 255.851 37.0718 255.756 37.0771 255.666C28.6422 255.666 20.2073 255.666 11.7671 255.666C11.7884 255.756 11.815 255.851 11.8363 255.941Z" fill="#121212"/>
<path d="M11.9209 238.996C12.2139 239.959 12.4697 240.811 12.8427 242.033C13.5247 240.054 16.4927 241.742 16.6738 238.996C15.0487 238.996 13.5567 238.996 11.9209 238.996Z" fill="#121212"/>
<path d="M36.0593 241.986C36.4269 240.806 36.6933 239.964 36.9971 238.975C35.3826 238.975 33.9385 238.975 32.2601 238.975C32.2921 241.758 35.3825 240.102 36.0593 241.986Z" fill="#121212"/>
<path d="M32.127 244.218C31.8339 245.154 31.5462 246.091 31.2531 247.027C31.4502 247.186 31.6474 247.345 31.8446 247.504C32.7504 246.62 33.6562 245.736 34.5674 244.847C33.7468 244.646 32.9209 244.445 32.1003 244.239C32.095 244.244 32.127 244.218 32.127 244.218Z" fill="#121212"/>
<path d="M17.9688 246.572C17.1375 245.715 16.3223 244.842 15.4271 244.059C15.3685 244.006 14.6811 244.662 14.2868 244.99C15.2193 245.826 16.1518 246.657 17.0896 247.493C17.3826 247.186 17.6757 246.879 17.9688 246.572Z" fill="#121212"/>
<path d="M30.9015 248.974C31.786 249.561 32.3508 250.228 32.8304 250.175C33.3099 250.122 33.7096 249.35 34.1465 248.894C33.6882 248.466 33.246 247.725 32.7664 247.699C32.2762 247.667 31.754 248.349 30.9015 248.974Z" fill="#121212"/>
<path d="M14.1912 248.783C15.0331 249.466 15.5287 250.18 15.9922 250.159C16.4984 250.133 16.9727 249.429 17.4629 249.021C17.0366 248.556 16.6636 247.799 16.1681 247.704C15.7152 247.614 15.1184 248.238 14.1912 248.783Z" fill="#121212"/>
<path d="M10.6953 252.481C10.0452 250.889 9.3419 249.148 8.78774 247.794C8.0311 249.508 8.68116 251.354 10.6953 252.481Z" fill="#121212"/>
<path d="M22.1575 259.856C21.5128 259.967 20.8681 260.083 20.2233 260.194C20.2766 261.247 20.3725 262.3 20.3725 263.347C20.3778 322.921 20.3778 382.5 20.4045 442.073C20.4045 443.063 19.8024 444.533 21.5075 444.724C21.7046 444.745 22.3547 443.047 22.3547 442.147C22.3973 382.288 22.3973 322.434 22.3867 262.575C22.3813 261.665 22.2321 260.76 22.1575 259.856Z" fill="#121212"/>
<path d="M19.0555 259.506C17.7074 259.607 17.3078 260.369 17.3344 261.644C17.3983 264.67 17.3557 267.696 17.3557 270.722C17.3557 327.809 17.3504 384.896 17.3823 441.978C17.3823 443.11 16.647 444.925 19.0395 444.755L19.178 444.607C19.2313 443.978 19.3379 443.348 19.3379 442.724C19.3379 381.706 19.3326 320.688 19.3272 259.67C19.2367 259.612 19.1461 259.559 19.0555 259.506Z" fill="#121212"/>
<path d="M29.6328 259.702C29.6061 261.533 29.5582 263.363 29.5582 265.188C29.5529 323.974 29.5529 382.759 29.5635 441.539C29.5635 442.587 29.7021 443.634 29.7767 444.681C29.7767 444.681 29.8353 444.724 29.8299 444.724C30.3948 444.311 31.0448 443.973 31.4924 443.454C31.7055 443.211 31.535 442.639 31.535 442.216C31.535 382.304 31.535 322.392 31.5297 262.485C31.5297 261.199 31.924 259.644 29.8353 259.506C29.766 259.57 29.6967 259.633 29.6328 259.702Z" fill="#121212"/>
<path d="M27.1181 259.432C26.9156 260.3 26.5319 261.162 26.5319 262.03C26.5053 322.228 26.5106 382.426 26.5106 442.624C26.5106 443.116 26.452 443.645 26.6118 444.084C26.7291 444.401 27.166 444.803 27.4591 444.808C27.7628 444.808 28.2637 444.422 28.3436 444.121C28.5141 443.454 28.5088 442.729 28.5088 442.031C28.5088 381.341 28.5088 320.651 28.5035 259.956C28.0452 259.782 27.5816 259.607 27.1181 259.432Z" fill="#121212"/>
<path d="M24.5603 259.205C24.166 260.485 23.4307 261.76 23.4307 263.04C23.3774 308.309 23.3934 353.583 23.4041 398.852C23.4041 413.215 23.3934 427.578 23.436 441.941C23.4413 442.941 23.857 443.941 24.0861 444.941C24.5284 444.486 25.1091 444.1 25.3596 443.555C25.578 443.089 25.4235 442.449 25.4235 441.888C25.4235 382.209 25.4288 322.524 25.3915 262.845C25.3915 261.628 24.9653 260.411 24.7362 259.189C24.7308 259.189 24.5603 259.205 24.5603 259.205Z" fill="#121212"/>
<path d="M16.1837 259.665C14.6544 261.31 14.6651 443.19 15.7894 444.941C16.0718 444.475 16.4182 444.126 16.4874 443.734C16.6046 443.047 16.5567 442.333 16.5567 441.629C16.5567 381.823 16.5567 322.016 16.5354 262.21C16.5354 261.358 16.3063 260.512 16.1837 259.665Z" fill="#121212"/>
<path d="M33.5652 444.777C33.6664 444.01 33.8582 443.242 33.8582 442.475C33.8742 382.256 33.8689 322.032 33.8689 261.813C33.8689 261.39 33.9275 260.951 33.8262 260.554C33.7516 260.268 33.4532 260.041 33.2508 259.781C32.9684 260.03 32.5368 260.236 32.4355 260.543C32.2863 260.993 32.3663 261.517 32.3663 262.009C32.3663 322.021 32.3663 382.029 32.3822 442.042C32.3822 442.967 32.5954 443.893 32.7126 444.819C32.995 444.798 33.2827 444.787 33.5652 444.777Z" fill="#121212"/>
</g>
<defs>
<clipPath id="clip0_749_21">
<rect width="137.389" height="652" fill="white" transform="matrix(-1 0 0 1 479 0)"/>
</clipPath>
<clipPath id="clip1_749_21">
<rect width="109.563" height="518.992" fill="white" transform="matrix(-1 0 0 1 333.906 75.632)"/>
</clipPath>
<clipPath id="clip2_749_21">
<rect width="86.9549" height="408.587" fill="white" transform="matrix(-1 0 0 1 216.518 138.224)"/>
</clipPath>
<clipPath id="clip3_749_21">
<rect width="65.2162" height="307.744" fill="white" transform="matrix(-1 0 0 1 121.736 195.6)"/>
</clipPath>
<clipPath id="clip4_749_21">
<rect width="48.6947" height="229.504" fill="white" transform="matrix(-1 0 0 1 48.6953 233.851)"/>
</clipPath>
</defs>
</svg>
