<svg width="479" height="652" viewBox="0 0 479 652" fill="none" xmlns="http://www.w3.org/2000/svg">
<g clip-path="url(#clip0_749_258)">
<path d="M97.125 72.7954C97.9218 75.0347 99.3951 77.2741 99.4101 79.5284C99.5755 108.129 99.5154 136.729 99.5154 165.33C99.5154 307.521 99.5304 449.711 99.4101 591.902C99.4101 594.532 97.9218 597.178 97.14 599.808L97.2903 599.913C97.2603 596.712 97.2002 593.525 97.2002 590.324C97.2002 429.167 97.2002 268.009 97.2002 106.836C97.2002 95.4443 97.2603 84.0522 97.2903 72.6601C97.2903 72.6902 97.125 72.7954 97.125 72.7954Z" fill="#121212"/>
<path d="M39.6655 599.823C38.8837 597.583 37.4104 595.344 37.4104 593.105C37.2601 557.305 37.3052 521.521 37.3052 485.721C37.3052 350.745 37.2901 215.753 37.4104 80.7759C37.4104 78.1157 38.8987 75.4706 39.6805 72.8104L39.5151 72.6902C39.5602 75.8914 39.6504 79.0776 39.6504 82.2788C39.6504 251.838 39.6504 421.397 39.6504 590.955C39.6504 593.946 39.5602 596.952 39.5151 599.943L39.6655 599.823Z" fill="#121212"/>
<path d="M19.7158 649.825C19.7158 647.45 19.7158 645.331 19.7158 642.701C52.1287 642.701 84.5115 642.701 117.165 642.701C117.165 645.03 117.165 647.165 117.165 649.825C84.7821 649.825 52.3993 649.825 19.7158 649.825Z" fill="#121212"/>
<path d="M135.776 1.66241C132.905 2.69942 130.033 4.62316 127.147 4.63818C87.9688 4.83356 48.8057 4.83356 9.62766 4.63818C6.7562 4.62316 3.89978 2.69942 1.02832 1.66241C1.22376 0.941014 1.41919 0.219613 1.62966 -0.516815C46.1447 -0.516815 90.6598 -0.516815 135.19 -0.516815C135.385 0.204584 135.581 0.941014 135.776 1.66241Z" fill="#121212"/>
<path d="M69.0865 6.90755C86.8564 6.90755 104.641 6.8324 122.411 7.02778C124.351 7.04281 126.26 8.6359 128.199 9.49256C126.32 10.4695 124.456 12.273 122.577 12.288C86.4355 12.4533 50.2792 12.4533 14.1379 12.288C12.3189 12.273 10.4998 10.3793 8.68066 9.3573C10.4396 8.54572 12.1986 7.04281 13.9726 7.02778C32.3439 6.84743 50.7152 6.90755 69.0865 6.90755Z" fill="#121212"/>
<path d="M7.08766 16.3309C12.7855 15.6546 18.4682 14.7378 24.1811 14.3771C30.0743 14.0013 32.9608 17.3228 33.2164 23.0639C33.2916 24.8524 33.5472 26.7461 33.1262 28.4444C30.6306 38.3636 34.3139 44.6458 43.3492 49.3649C48.1149 51.8598 51.2269 51.0332 54.6396 48.2077C60.157 43.6539 60.623 37.2815 60.6982 30.7288C60.7132 29.0606 61.8408 27.4074 62.4572 25.7391C63.1487 27.3472 64.5017 29.0155 64.3965 30.5635C64.0056 36.3046 63.4193 42.0608 62.3369 47.7117C61.5852 51.6193 58.9393 53.7685 54.5193 53.528C49.7386 53.2575 44.9127 53.6182 40.1169 53.3477C30.9463 52.8517 25.8799 46.7348 27.2179 37.6572C27.8193 33.5843 29.0972 29.6016 30.1194 25.3634C28.12 26.3854 26.1656 27.3923 23.1137 28.9554C23.7301 25.168 24.1059 22.7934 24.4968 20.4338C21.6855 23.5298 20.6181 29.4513 14.9654 26.205C13.477 25.3484 14.1686 20.7043 13.8228 17.3528C12.7404 18.9309 11.237 21.1252 9.52312 23.62C5.74964 22.5379 6.54647 19.3668 7.16285 16.2557C7.17789 16.2407 7.08766 16.3309 7.08766 16.3309Z" fill="#121212"/>
<path d="M123.104 17.5182C122.743 20.8697 123.389 24.4015 121.916 26.22C119.691 28.9704 116.218 26.5657 112.174 20.4338C112.61 22.583 113.046 24.7322 113.813 28.5345C110.851 27.2721 108.746 26.3703 106.702 25.4986C107.619 29.0756 108.837 32.8178 109.483 36.6653C111.182 46.6597 105.965 53.0321 95.9075 53.3928C91.7131 53.543 87.4886 53.1072 83.3242 53.528C77.7617 54.0991 74.8151 51.2436 73.9882 46.4643C72.981 40.6029 72.7104 34.6063 72.3947 28.6548C72.3496 27.7079 73.7026 26.6859 74.4092 25.694C74.9955 26.7911 75.9577 27.8432 76.078 29.0004C76.4388 32.1716 76.123 35.4329 76.6642 38.5439C77.882 45.5325 84.0459 51.5742 89.1724 51.2436C95.8624 50.8077 104.492 41.67 104.326 35.0121C104.236 30.834 103.59 26.6559 103.68 22.4778C103.8 17.3228 106.627 14.2117 111.964 14.362C116.729 14.4973 121.6 14.5875 126.186 15.6996C131.147 16.902 131.327 19.6373 127.328 23.5749C125.765 21.3356 124.171 19.0361 123.104 17.5182Z" fill="#121212"/>
<path d="M35.0801 597.373C35.0801 423.531 35.0801 249.689 35.0801 75.8463C35.2454 75.8463 35.3958 75.8463 35.5612 75.8463C35.5612 249.779 35.5612 423.696 35.5612 597.628C35.3958 597.538 35.2304 597.448 35.0801 597.373Z" fill="#121212"/>
<path d="M101.44 705.793C101.589 705.793 101.71 540.575 101.71 336.767C101.71 132.96 101.589 -32.2584 101.44 -32.2584C101.29 -32.2584 101.169 132.96 101.169 336.767C101.169 540.575 101.29 705.793 101.44 705.793Z" fill="#121212"/>
<path d="M118.788 638.147C117.195 638.898 115.616 640.281 114.023 640.296C83.6544 640.431 53.2861 640.431 22.9178 640.281C21.2641 640.266 19.6254 638.643 17.9717 637.771C18.2273 637.2 18.4828 636.614 18.7384 636.043C51.8128 636.043 84.8871 636.043 117.962 636.043C118.247 636.749 118.518 637.441 118.788 638.147Z" fill="#121212"/>
<path d="M117.736 633.157C84.8574 633.157 51.9785 633.157 19.0846 633.157C18.8741 632.631 18.6636 632.09 18.4531 631.564C20.6781 630.693 22.9031 629.069 25.1281 629.054C53.9329 628.874 82.7527 628.889 111.572 629.024C113.828 629.039 116.068 630.362 118.308 631.068C118.127 631.76 117.932 632.451 117.736 633.157Z" fill="#121212"/>
<path d="M113.556 626.68C83.4737 626.68 53.3911 626.68 23.2934 626.68C23.1431 626.139 23.0078 625.613 22.8574 625.072C25.0524 624.365 27.2323 623.043 29.4272 623.028C55.3906 622.892 81.354 622.892 107.317 623.028C109.527 623.043 111.737 624.335 113.932 625.042C113.812 625.598 113.692 626.139 113.556 626.68Z" fill="#121212"/>
<path d="M111.091 615.393C109.107 615.723 107.138 616.31 105.153 616.325C80.5578 616.385 55.9625 616.37 31.3672 616.37C30.1645 616.37 28.9017 616.535 27.8042 616.189C27.0375 615.949 26.0152 614.972 26.0002 614.311C25.9851 613.664 27.0074 612.657 27.7591 612.417C28.8566 612.071 30.1344 612.237 31.3221 612.237C56.1128 612.237 80.9186 612.222 105.709 612.282C107.498 612.282 109.302 612.823 111.091 613.123C111.106 613.86 111.091 614.626 111.091 615.393Z" fill="#121212"/>
<path d="M78.1374 19.0511C69.7335 26.716 66.7568 26.701 58.4581 18.5852C59.1647 21.0049 59.6007 22.5229 60.5177 25.6189C57.9019 24.0108 55.4213 23.3194 55.1807 22.1622C54.8349 20.4038 56.0227 18.3297 57.1051 14.4372C54.6095 17.5783 53.1211 19.4419 50.851 22.2974C49.964 20.4038 48.4155 18.5401 48.5659 16.8268C48.6561 15.8499 51.4974 14.4071 53.1211 14.3771C63.2839 14.1516 73.4468 14.1516 83.6096 14.3771C85.2483 14.4071 87.9093 15.6245 88.21 16.7968C88.6159 18.2997 87.1276 20.3286 86.1654 22.9287C83.9103 19.7274 82.437 17.6534 80.9787 15.5644C81.986 19.6373 84.5568 23.5449 76.9647 24.7322C77.3706 22.7333 77.7014 21.1402 78.1374 19.0511Z" fill="#121212"/>
<path d="M110.911 58.683C82.5122 59.3894 54.1434 59.6599 25.8047 58.5928C29.6082 54.4147 107.138 54.4147 110.911 58.683Z" fill="#121212"/>
<path d="M26.9473 618.85C54.9252 618.85 81.7605 618.85 108.987 618.85C105.439 621.825 32.615 622.111 26.9473 618.85Z" fill="#121212"/>
<path d="M39.6806 72.8104C37.8014 72.2092 35.9222 71.6231 34.043 71.0219C34.073 70.6462 34.1031 70.2705 34.1482 69.8947C56.9545 69.8947 79.7758 69.8947 102.582 69.8947C102.687 70.2104 102.778 70.541 102.883 70.8566C100.958 71.5029 99.0492 72.1491 97.1248 72.7954L97.2902 72.6751C92.7349 72.7353 88.1797 72.8104 83.6245 72.8705C83.3689 73.0208 83.1133 73.1861 82.8728 73.3515C82.0309 73.8324 81.189 74.3284 80.3471 74.8093C78.528 74.4937 76.7089 74.163 74.8898 73.8474C72.6197 73.2312 70.3647 72.615 68.0946 71.9988L67.6135 71.9537C65.3734 72.1792 63.1334 72.4046 60.8783 72.6451C59.5704 73.141 58.2625 73.637 56.9545 74.133C55.9021 73.8925 54.8347 73.652 53.7824 73.4266C53.602 73.2312 53.4065 73.0509 53.1961 72.8856C48.6258 72.8104 44.0705 72.7353 39.5002 72.6601L39.6806 72.8104Z" fill="#121212"/>
<path d="M86.6759 48.2678C81.9703 46.3891 78.9936 39.8064 80.6022 33.0132C82.1657 26.3853 88.525 20.3587 93.847 21.4858C96.4929 22.0419 99.3644 24.4766 100.868 26.8512C103.078 30.3681 101.755 33.4791 96.9891 38.093C99.5749 33.1635 100.567 28.79 95.2602 27.2721C90.1637 25.8293 87.2021 29.8571 86.5105 34.0953C85.7739 38.7092 86.5556 43.5787 86.6759 48.2678Z" fill="#121212"/>
<path d="M46.8363 29.5265C44.5662 29.0004 40.6875 27.5125 40.3117 28.1287C38.8684 30.5334 38.5377 33.5994 37.9213 35.9289C35.3355 34.2606 33.6367 31.1646 35.8166 27.4374C37.3801 24.7772 40.6575 22.0419 43.574 21.5009C48.911 20.509 55.0448 26.9715 56.3227 33.5843C57.6456 40.3775 54.8343 46.299 48.6855 48.899C51.2713 41.9255 54.0225 35.0572 46.7762 29.4363L46.8363 29.5265Z" fill="#121212"/>
<path d="M97.1402 599.823C98.8391 600.454 100.553 601.085 103.996 602.348C79.7612 602.348 57.2706 602.348 33.0361 602.348C36.2534 601.115 37.9522 600.469 39.651 599.823L39.5006 599.943C44.0709 599.657 48.6412 599.372 53.2115 599.086L53.3618 598.966C58.8642 599.402 64.3816 599.823 69.884 600.258C74.349 599.762 78.8141 599.251 83.2641 598.756L83.6549 599.176C88.1951 599.432 92.7354 599.687 97.2605 599.928L97.1402 599.823Z" fill="#121212"/>
<path d="M32.5543 609.111C56.4731 609.111 80.3768 609.111 104.296 609.111C104.296 609.411 104.296 609.697 104.296 609.997C80.3618 609.997 56.428 609.997 32.4941 609.997C32.5242 609.697 32.5393 609.396 32.5543 609.111Z" fill="#121212"/>
<path d="M33.5916 65.0854C56.8188 65.0854 80.031 65.0854 103.258 65.0854C103.258 65.4762 103.258 65.8669 103.273 66.2577C80.031 66.2577 56.8038 66.2577 33.5615 66.2577C33.5766 65.8669 33.5765 65.4762 33.5916 65.0854Z" fill="#121212"/>
<path d="M103.348 606.631C80.0911 606.631 56.8338 606.631 33.5765 606.631C33.5765 606.315 33.5615 605.985 33.5615 605.669C56.8038 605.669 80.046 605.669 103.288 605.669C103.303 605.985 103.333 606.315 103.348 606.631Z" fill="#121212"/>
<path d="M73.0253 53.1673C70.1087 53.1673 66.3954 53.1673 63.8096 53.1673C64.6665 45.7579 65.4182 38.5289 66.3954 31.3299C66.5908 29.8571 67.6732 28.5195 68.3347 27.1218C69.0413 28.4894 70.1989 29.7819 70.3944 31.2097C71.4016 38.4087 72.1533 45.6377 73.0253 53.1673Z" fill="#121212"/>
<path d="M103.995 62.7559C80.257 62.7559 56.5187 62.7559 32.7953 62.7559C32.7953 62.5004 32.7953 62.2299 32.7803 61.9744C56.5788 61.9744 80.3773 61.9744 104.191 61.9744C104.131 62.2299 104.056 62.5004 103.995 62.7559Z" fill="#121212"/>
<path d="M103.755 14.6175C102.928 17.3528 102.206 19.7725 101.154 23.2443C99.2297 17.6234 90.8559 22.4177 90.3447 14.6175C94.93 14.6175 99.1395 14.6175 103.755 14.6175Z" fill="#121212"/>
<path d="M35.6518 23.109C34.6145 19.7575 33.8628 17.3679 33.0059 14.5574C37.5611 14.5574 41.6353 14.5574 46.3709 14.5574C46.2807 22.4627 37.5611 17.7586 35.6518 23.109Z" fill="#121212"/>
<path d="M46.7468 29.4513C47.5736 32.1115 48.3855 34.7716 49.2124 37.4318C48.6561 37.8827 48.0998 38.3335 47.5436 38.7844C44.9878 36.2745 42.4321 33.7647 39.8613 31.2398C42.1765 30.6687 44.5067 30.0975 46.8219 29.5114C46.837 29.5264 46.7468 29.4513 46.7468 29.4513Z" fill="#121212"/>
<path d="M86.6914 36.1393C89.0367 33.7045 91.3368 31.2247 93.8625 29.0004C94.0279 28.8501 95.9673 30.7137 97.0798 31.6455C94.4489 34.0201 91.8179 36.3797 89.172 38.7543C88.3451 37.8826 87.5183 37.0109 86.6914 36.1393Z" fill="#121212"/>
<path d="M50.2044 42.9625C47.7088 44.6307 46.1152 46.5244 44.7622 46.3741C43.4091 46.2238 42.2816 44.0296 41.0488 42.7371C42.3417 41.5197 43.5895 39.4156 44.9426 39.3405C46.3257 39.2503 47.799 41.1891 50.2044 42.9625Z" fill="#121212"/>
<path d="M97.3499 42.4215C94.9746 44.3602 93.5764 46.3891 92.2685 46.329C90.8403 46.2539 89.5023 44.255 88.1191 43.0978C89.3218 41.7752 90.3742 39.626 91.7724 39.3555C93.0503 39.1 94.734 40.8735 97.3499 42.4215Z" fill="#121212"/>
<path d="M107.213 52.9268C109.047 48.403 111.031 43.4585 112.595 39.611C114.73 44.4804 112.896 49.7256 107.213 52.9268Z" fill="#121212"/>
<path d="M74.8751 73.8775C76.6942 74.1931 78.5132 74.5237 80.3323 74.8393C80.182 77.8301 79.9114 80.8209 79.9114 83.7967C79.8964 253.04 79.8964 422.298 79.8212 591.542C79.8212 594.352 81.52 598.53 76.7092 599.071C76.1529 599.131 74.3188 594.307 74.3188 591.752C74.1985 421.697 74.1986 251.657 74.2286 81.6025C74.2437 79.0174 74.6646 76.4475 74.8751 73.8775Z" fill="#121212"/>
<path d="M83.6249 72.8856C87.4285 73.1711 88.556 75.3353 88.4808 78.9573C88.3004 87.554 88.4207 96.1507 88.4207 104.747C88.4207 266.927 88.4358 429.106 88.3456 591.271C88.3456 594.487 90.4202 599.642 83.67 599.161L83.2791 598.741C83.1288 596.952 82.8281 595.164 82.8281 593.39C82.8281 420.044 82.8431 246.698 82.8582 73.3515C83.1138 73.1861 83.3693 73.0359 83.6249 72.8856Z" fill="#121212"/>
<path d="M53.7826 73.4416C53.8578 78.6417 53.9931 83.8418 53.9931 89.0269C54.0082 256.031 54.0082 423.035 53.9781 590.024C53.9781 592.999 53.5872 595.975 53.3767 598.951C53.3767 598.951 53.2114 599.071 53.2264 599.071C51.6328 597.899 49.7987 596.937 48.5359 595.464C47.9345 594.773 48.4156 593.15 48.4156 591.947C48.4156 421.742 48.4156 251.537 48.4306 81.347C48.4306 77.6949 47.3181 73.2763 53.2114 72.8856C53.4068 73.0659 53.6022 73.2463 53.7826 73.4416Z" fill="#121212"/>
<path d="M60.878 72.6752C61.4492 75.1399 62.5317 77.5897 62.5317 80.0545C62.6069 251.071 62.5918 422.088 62.5918 593.105C62.5918 594.502 62.7572 596.005 62.3062 597.253C61.9754 598.155 60.7427 599.297 59.9158 599.312C59.0589 599.312 57.6457 598.215 57.4202 597.358C56.9391 595.464 56.9542 593.405 56.9542 591.421C56.9542 419.007 56.9541 246.593 56.9692 74.1631C58.2621 73.6671 59.57 73.1711 60.878 72.6752Z" fill="#121212"/>
<path d="M68.0949 72.0289C69.2074 75.666 71.2821 79.288 71.2821 82.925C71.4324 211.529 71.3873 340.149 71.3572 468.753C71.3572 509.558 71.3873 550.362 71.267 591.166C71.252 594.006 70.0793 596.847 69.4329 599.687C68.1851 598.395 66.5464 597.298 65.8398 595.75C65.2234 594.427 65.6594 592.609 65.6594 591.016C65.6594 421.472 65.6444 251.913 65.7496 82.369C65.7496 78.9123 66.9523 75.4555 67.5988 71.9838C67.6138 71.9838 68.0949 72.0289 68.0949 72.0289Z" fill="#121212"/>
<path d="M91.7272 73.3364C96.0419 78.0105 96.0119 594.713 92.8397 599.687C92.0429 598.365 91.0657 597.373 90.8703 596.261C90.5396 594.307 90.6749 592.278 90.6749 590.279C90.6749 420.375 90.6749 250.47 90.735 80.5654C90.735 78.1458 91.3815 75.7411 91.7272 73.3364Z" fill="#121212"/>
<path d="M42.6877 599.221C42.4021 597.042 41.8609 594.863 41.8609 592.684C41.8158 421.607 41.8308 250.515 41.8308 79.4383C41.8308 78.2359 41.6654 76.9885 41.9511 75.8613C42.1616 75.0497 43.0035 74.4035 43.5748 73.6671C44.3715 74.3734 45.5893 74.9596 45.8749 75.8313C46.2959 77.1087 46.0703 78.5966 46.0703 79.9943C46.0703 250.485 46.0703 420.961 46.0252 591.451C46.0252 594.081 45.4239 596.712 45.0931 599.342C44.2963 599.282 43.4845 599.251 42.6877 599.221Z" fill="#121212"/>
</g>
<g clip-path="url(#clip1_749_258)">
<path d="M222.682 133.175C223.317 134.957 224.492 136.74 224.504 138.534C224.636 161.3 224.588 184.066 224.588 206.832C224.588 320.016 224.6 433.2 224.504 546.384C224.504 548.477 223.317 550.583 222.694 552.677L222.814 552.76C222.79 550.212 222.742 547.676 222.742 545.128C222.742 416.846 222.742 288.565 222.742 160.271C222.742 151.203 222.79 142.135 222.814 133.067C222.814 133.091 222.682 133.175 222.682 133.175Z" fill="#121212"/>
<path d="M176.86 552.689C176.237 550.906 175.062 549.123 175.062 547.341C174.942 518.845 174.978 490.36 174.978 461.864C174.978 354.422 174.966 246.969 175.062 139.527C175.062 137.41 176.249 135.304 176.872 133.187L176.74 133.091C176.776 135.639 176.848 138.175 176.848 140.724C176.848 275.692 176.848 410.661 176.848 545.63C176.848 548.011 176.776 550.404 176.74 552.784L176.86 552.689Z" fill="#121212"/>
<path d="M160.95 592.49C160.95 590.6 160.95 588.913 160.95 586.82C186.798 586.82 212.623 586.82 238.663 586.82C238.663 588.674 238.663 590.373 238.663 592.49C212.839 592.49 187.014 592.49 160.95 592.49Z" fill="#121212"/>
<path d="M253.505 76.553C251.215 77.3784 248.925 78.9097 246.623 78.9217C215.38 79.0772 184.149 79.0772 152.906 78.9217C150.616 78.9097 148.338 77.3784 146.048 76.553C146.204 75.9787 146.36 75.4045 146.527 74.8183C182.027 74.8183 217.526 74.8183 253.038 74.8183C253.193 75.3925 253.349 75.9787 253.505 76.553Z" fill="#121212"/>
<path d="M200.322 80.7281C214.493 80.7281 228.676 80.6683 242.847 80.8238C244.394 80.8358 245.916 82.1039 247.463 82.7858C245.964 83.5634 244.478 84.999 242.979 85.0109C214.157 85.1425 185.324 85.1425 156.502 85.0109C155.052 84.999 153.601 83.4916 152.15 82.6781C153.553 82.0321 154.956 80.8358 156.371 80.8238C171.021 80.6803 185.672 80.7281 200.322 80.7281Z" fill="#121212"/>
<path d="M150.88 88.229C155.424 87.6907 159.956 86.9609 164.511 86.6738C169.211 86.3747 171.513 89.0186 171.717 93.5886C171.777 95.0122 171.981 96.5195 171.645 97.8714C169.655 105.767 172.592 110.768 179.797 114.524C183.598 116.51 186.08 115.852 188.801 113.603C193.201 109.978 193.573 104.906 193.633 99.6898C193.645 98.3619 194.544 97.0459 195.035 95.718C195.587 96.9981 196.666 98.326 196.582 99.5582C196.27 104.128 195.803 108.71 194.939 113.208C194.34 116.319 192.23 118.029 188.705 117.838C184.893 117.623 181.044 117.91 177.22 117.694C169.906 117.3 165.866 112.431 166.933 105.205C167.413 101.963 168.432 98.7926 169.247 95.4189C167.653 96.2324 166.094 97.034 163.66 98.2781C164.152 95.2634 164.451 93.3732 164.763 91.495C162.521 93.9594 161.67 98.6729 157.162 96.0889C155.975 95.407 156.527 91.7103 156.251 89.0425C155.388 90.2987 154.189 92.0453 152.822 94.0312C149.813 93.1698 150.448 90.6456 150.94 88.1692C150.952 88.1573 150.88 88.229 150.88 88.229Z" fill="#121212"/>
<path d="M243.399 89.1741C243.111 91.8419 243.626 94.6533 242.452 96.1008C240.677 98.2901 237.908 96.376 234.683 91.495C235.03 93.2057 235.378 94.9165 235.989 97.9432C233.628 96.9383 231.949 96.2205 230.319 95.5266C231.05 98.3739 232.021 101.353 232.537 104.415C233.891 112.371 229.731 117.443 221.711 117.73C218.366 117.85 214.997 117.503 211.676 117.838C207.24 118.293 204.89 116.02 204.231 112.215C203.427 107.55 203.212 102.776 202.96 98.0389C202.924 97.2852 204.003 96.4717 204.566 95.6821C205.034 96.5554 205.801 97.3929 205.897 98.314C206.185 100.838 205.933 103.434 206.365 105.911C207.336 111.474 212.251 116.283 216.34 116.02C221.675 115.673 228.556 108.399 228.424 103.099C228.353 99.7735 227.837 96.4478 227.909 93.122C228.005 89.0186 230.259 86.5422 234.515 86.6619C238.315 86.7695 242.2 86.8413 245.856 87.7266C249.813 88.6837 249.957 90.861 246.768 93.9953C245.521 92.2128 244.25 90.3824 243.399 89.1741Z" fill="#121212"/>
<path d="M173.203 550.739C173.203 412.36 173.203 273.982 173.203 135.603C173.335 135.603 173.455 135.603 173.587 135.603C173.587 274.054 173.587 412.492 173.587 550.942C173.455 550.87 173.323 550.798 173.203 550.739Z" fill="#121212"/>
<path d="M226.123 637.041C226.242 637.041 226.339 505.527 226.339 343.297C226.339 181.066 226.242 49.552 226.123 49.552C226.004 49.552 225.907 181.066 225.907 343.297C225.907 505.527 226.004 637.041 226.123 637.041Z" fill="#121212"/>
<path d="M239.958 583.195C238.687 583.793 237.428 584.894 236.157 584.906C211.939 585.013 187.722 585.013 163.504 584.894C162.185 584.882 160.878 583.59 159.56 582.896C159.763 582.441 159.967 581.974 160.171 581.52C186.547 581.52 212.923 581.52 239.298 581.52C239.526 582.082 239.742 582.632 239.958 583.195Z" fill="#121212"/>
<path d="M239.119 579.223C212.899 579.223 186.679 579.223 160.447 579.223C160.279 578.804 160.111 578.374 159.943 577.955C161.718 577.261 163.492 575.969 165.266 575.957C188.237 575.813 211.22 575.825 234.203 575.933C236.001 575.945 237.788 576.998 239.574 577.56C239.43 578.11 239.274 578.661 239.119 579.223Z" fill="#121212"/>
<path d="M235.786 574.067C211.796 574.067 187.806 574.067 163.804 574.067C163.684 573.636 163.576 573.217 163.456 572.787C165.206 572.224 166.945 571.172 168.695 571.16C189.4 571.052 210.105 571.052 230.81 571.16C232.573 571.172 234.335 572.2 236.085 572.763C235.989 573.205 235.893 573.636 235.786 574.067Z" fill="#121212"/>
<path d="M233.82 565.082C232.237 565.346 230.667 565.812 229.084 565.824C209.47 565.872 189.856 565.86 170.242 565.86C169.283 565.86 168.276 565.992 167.401 565.716C166.789 565.525 165.974 564.747 165.962 564.221C165.95 563.707 166.765 562.905 167.365 562.714C168.24 562.438 169.259 562.57 170.206 562.57C189.976 562.57 209.758 562.558 229.528 562.606C230.954 562.606 232.393 563.037 233.82 563.276C233.832 563.862 233.82 564.472 233.82 565.082Z" fill="#121212"/>
<path d="M207.54 90.3944C200.838 96.4956 198.464 96.4837 191.846 90.0235C192.41 91.9496 192.757 93.1579 193.489 95.6223C191.403 94.3423 189.424 93.792 189.232 92.8708C188.957 91.4711 189.904 89.8202 190.767 86.7217C188.777 89.222 187.59 90.7054 185.78 92.9785C185.072 91.4711 183.837 89.9877 183.957 88.6239C184.029 87.8462 186.295 86.6978 187.59 86.6738C195.695 86.4944 203.799 86.4944 211.904 86.6738C213.21 86.6978 215.333 87.6668 215.572 88.5999C215.896 89.7962 214.709 91.4113 213.942 93.4809C212.143 90.9327 210.969 89.2818 209.806 87.6189C210.609 90.861 212.659 93.9714 206.605 94.9165C206.928 93.3254 207.192 92.0573 207.54 90.3944Z" fill="#121212"/>
<path d="M233.675 121.941C211.028 122.504 188.405 122.719 165.806 121.87C168.839 118.544 230.666 118.544 233.675 121.941Z" fill="#121212"/>
<path d="M166.717 567.834C189.028 567.834 210.429 567.834 232.141 567.834C229.311 570.203 171.237 570.43 166.717 567.834Z" fill="#121212"/>
<path d="M176.872 133.187C175.373 132.708 173.875 132.242 172.376 131.763C172.4 131.464 172.424 131.165 172.46 130.866C190.647 130.866 208.846 130.866 227.034 130.866C227.118 131.117 227.19 131.38 227.274 131.632C225.739 132.146 224.216 132.66 222.682 133.175L222.814 133.079C219.181 133.127 215.548 133.187 211.916 133.235C211.712 133.354 211.508 133.486 211.316 133.617C210.645 134 209.973 134.395 209.302 134.778C207.851 134.527 206.401 134.263 204.95 134.012C203.14 133.522 201.341 133.031 199.531 132.541L199.147 132.505C197.361 132.684 195.575 132.864 193.776 133.055C192.733 133.45 191.69 133.845 190.647 134.24C189.808 134.048 188.957 133.857 188.118 133.677C187.974 133.522 187.818 133.378 187.65 133.247C184.005 133.187 180.373 133.127 176.728 133.067L176.872 133.187Z" fill="#121212"/>
<path d="M214.35 113.651C210.597 112.155 208.223 106.916 209.506 101.508C210.753 96.2324 215.824 91.4352 220.069 92.3324C222.179 92.7751 224.468 94.7131 225.667 96.6033C227.43 99.4027 226.375 101.879 222.574 105.552C224.636 101.628 225.428 98.1465 221.195 96.9383C217.131 95.7898 214.769 98.9959 214.218 102.37C213.63 106.042 214.254 109.918 214.35 113.651Z" fill="#121212"/>
<path d="M182.579 98.7327C180.769 98.314 177.675 97.1297 177.376 97.6202C176.225 99.5343 175.961 101.975 175.469 103.829C173.407 102.501 172.053 100.037 173.791 97.0699C175.038 94.9524 177.651 92.7751 179.977 92.3444C184.233 91.5548 189.125 96.699 190.144 101.963C191.199 107.37 188.957 112.084 184.054 114.153C186.116 108.602 188.31 103.135 182.531 98.661L182.579 98.7327Z" fill="#121212"/>
<path d="M222.694 552.688C224.049 553.191 225.416 553.693 228.161 554.698C208.835 554.698 190.899 554.698 171.573 554.698C174.139 553.717 175.494 553.203 176.848 552.688L176.728 552.784C180.373 552.557 184.018 552.33 187.662 552.102L187.782 552.007C192.17 552.354 196.57 552.688 200.958 553.035C204.519 552.641 208.08 552.234 211.628 551.839L211.94 552.174C215.561 552.377 219.181 552.581 222.79 552.772L222.694 552.688Z" fill="#121212"/>
<path d="M171.19 560.082C190.264 560.082 209.327 560.082 228.401 560.082C228.401 560.321 228.401 560.548 228.401 560.788C209.315 560.788 190.228 560.788 171.142 560.788C171.166 560.548 171.178 560.309 171.19 560.082Z" fill="#121212"/>
<path d="M172.016 127.038C190.539 127.038 209.05 127.038 227.573 127.038C227.573 127.349 227.573 127.66 227.585 127.971C209.05 127.971 190.527 127.971 171.992 127.971C172.004 127.66 172.004 127.349 172.016 127.038Z" fill="#121212"/>
<path d="M227.645 558.108C209.098 558.108 190.551 558.108 172.004 558.108C172.004 557.857 171.992 557.593 171.992 557.342C190.527 557.342 209.062 557.342 227.597 557.342C227.609 557.593 227.633 557.857 227.645 558.108Z" fill="#121212"/>
<path d="M203.464 117.551C201.138 117.551 198.176 117.551 196.114 117.551C196.798 111.653 197.397 105.899 198.176 100.168C198.332 98.9959 199.195 97.9312 199.723 96.8186C200.286 97.9073 201.21 98.9361 201.365 100.073C202.169 105.803 202.768 111.557 203.464 117.551Z" fill="#121212"/>
<path d="M228.161 125.183C209.23 125.183 190.3 125.183 171.381 125.183C171.381 124.98 171.381 124.765 171.369 124.561C190.348 124.561 209.326 124.561 228.317 124.561C228.269 124.765 228.209 124.98 228.161 125.183Z" fill="#121212"/>
<path d="M227.969 86.8652C227.309 89.0426 226.734 90.9686 225.894 93.7321C224.36 89.2579 217.682 93.0742 217.274 86.8652C220.931 86.8652 224.288 86.8652 227.969 86.8652Z" fill="#121212"/>
<path d="M173.659 93.6245C172.832 90.9567 172.232 89.0545 171.549 86.8174C175.181 86.8174 178.431 86.8174 182.207 86.8174C182.135 93.11 175.182 89.3655 173.659 93.6245Z" fill="#121212"/>
<path d="M182.507 98.6729C183.166 100.79 183.813 102.908 184.473 105.025C184.029 105.384 183.586 105.743 183.142 106.102C181.104 104.104 179.066 102.106 177.016 100.097C178.862 99.642 180.72 99.1874 182.566 98.7208C182.578 98.7328 182.507 98.6729 182.507 98.6729Z" fill="#121212"/>
<path d="M214.361 103.997C216.232 102.059 218.066 100.085 220.08 98.314C220.212 98.1944 221.759 99.6779 222.646 100.42C220.548 102.31 218.45 104.188 216.34 106.078C215.68 105.384 215.021 104.69 214.361 103.997Z" fill="#121212"/>
<path d="M185.264 109.428C183.274 110.756 182.003 112.263 180.924 112.143C179.845 112.024 178.946 110.277 177.963 109.248C178.994 108.279 179.989 106.605 181.068 106.545C182.171 106.473 183.346 108.016 185.264 109.428Z" fill="#121212"/>
<path d="M222.861 108.997C220.967 110.54 219.852 112.155 218.809 112.108C217.67 112.048 216.603 110.457 215.5 109.536C216.459 108.483 217.298 106.772 218.413 106.557C219.432 106.353 220.775 107.765 222.861 108.997Z" fill="#121212"/>
<path d="M230.727 117.359C232.189 113.759 233.772 109.823 235.019 106.76C236.721 110.636 235.258 114.811 230.727 117.359Z" fill="#121212"/>
<path d="M204.938 134.036C206.389 134.287 207.839 134.551 209.29 134.802C209.17 137.182 208.954 139.563 208.954 141.932C208.942 276.65 208.942 411.379 208.882 546.097C208.882 548.334 210.237 551.66 206.401 552.09C205.957 552.138 204.494 548.298 204.494 546.264C204.399 410.901 204.399 275.549 204.423 140.185C204.434 138.128 204.77 136.082 204.938 134.036Z" fill="#121212"/>
<path d="M211.916 133.247C214.949 133.474 215.848 135.197 215.788 138.08C215.644 144.923 215.74 151.766 215.74 158.609C215.74 287.704 215.752 416.798 215.68 545.881C215.68 548.442 217.335 552.545 211.952 552.162L211.64 551.827C211.52 550.404 211.28 548.98 211.28 547.568C211.28 409.585 211.292 271.601 211.304 133.617C211.508 133.486 211.712 133.366 211.916 133.247Z" fill="#121212"/>
<path d="M188.118 133.689C188.178 137.829 188.286 141.968 188.286 146.095C188.298 279.03 188.298 411.965 188.274 544.889C188.274 547.257 187.962 549.626 187.794 551.995C187.794 551.995 187.662 552.09 187.674 552.09C186.403 551.157 184.941 550.392 183.934 549.219C183.454 548.669 183.838 547.377 183.838 546.42C183.838 410.937 183.838 275.453 183.85 139.982C183.85 137.075 182.962 133.558 187.662 133.247C187.818 133.39 187.974 133.534 188.118 133.689Z" fill="#121212"/>
<path d="M193.777 133.079C194.232 135.041 195.095 136.991 195.095 138.953C195.155 275.082 195.143 411.212 195.143 547.341C195.143 548.454 195.275 549.65 194.916 550.643C194.652 551.361 193.669 552.27 193.009 552.282C192.326 552.282 191.199 551.409 191.019 550.727C190.636 549.219 190.648 547.58 190.648 546.001C190.648 408.759 190.647 271.517 190.659 134.263C191.691 133.869 192.734 133.474 193.777 133.079Z" fill="#121212"/>
<path d="M199.531 132.565C200.418 135.46 202.073 138.343 202.073 141.238C202.193 243.607 202.157 345.988 202.133 448.357C202.133 480.838 202.157 513.318 202.061 545.798C202.049 548.059 201.114 550.32 200.598 552.581C199.603 551.552 198.296 550.679 197.733 549.446C197.241 548.394 197.589 546.946 197.589 545.678C197.589 410.721 197.577 275.752 197.661 140.795C197.661 138.044 198.62 135.292 199.136 132.529C199.148 132.529 199.531 132.565 199.531 132.565Z" fill="#121212"/>
<path d="M218.378 133.605C221.819 137.326 221.795 548.621 219.265 552.581C218.629 551.528 217.85 550.739 217.694 549.853C217.431 548.298 217.538 546.683 217.538 545.092C217.538 409.848 217.538 274.604 217.586 139.36C217.586 137.434 218.102 135.52 218.378 133.605Z" fill="#121212"/>
<path d="M179.27 552.21C179.042 550.475 178.611 548.741 178.611 547.006C178.575 410.829 178.587 274.64 178.587 138.463C178.587 137.505 178.455 136.513 178.683 135.615C178.851 134.969 179.522 134.455 179.978 133.869C180.613 134.431 181.584 134.898 181.812 135.591C182.148 136.608 181.968 137.793 181.968 138.905C181.968 274.616 181.968 410.314 181.932 546.025C181.932 548.119 181.452 550.212 181.188 552.306C180.553 552.258 179.906 552.234 179.27 552.21Z" fill="#121212"/>
</g>
<g clip-path="url(#clip2_749_258)">
<path d="M323.954 183.842C324.458 185.246 325.391 186.649 325.4 188.062C325.505 205.985 325.467 223.908 325.467 241.831C325.467 330.937 325.477 420.043 325.4 509.149C325.4 510.798 324.458 512.455 323.964 514.103L324.059 514.169C324.04 512.163 324.002 510.167 324.002 508.16C324.002 407.168 324.002 306.176 324.002 205.175C324.002 198.036 324.04 190.897 324.059 183.758C324.059 183.777 323.954 183.842 323.954 183.842Z" fill="#121212"/>
<path d="M287.587 514.113C287.092 512.71 286.159 511.306 286.159 509.903C286.064 487.469 286.093 465.044 286.093 442.609C286.093 358.024 286.083 273.429 286.159 188.844C286.159 187.177 287.101 185.519 287.596 183.852L287.492 183.777C287.52 185.783 287.577 187.779 287.577 189.785C287.577 296.042 287.577 402.299 287.577 508.556C287.577 510.43 287.52 512.314 287.492 514.188L287.587 514.113Z" fill="#121212"/>
<path d="M274.961 545.447C274.961 543.959 274.961 542.631 274.961 540.983C295.475 540.983 315.971 540.983 336.638 540.983C336.638 542.443 336.638 543.78 336.638 545.447C316.142 545.447 295.647 545.447 274.961 545.447Z" fill="#121212"/>
<path d="M348.417 139.266C346.6 139.916 344.783 141.121 342.956 141.131C318.159 141.253 293.373 141.253 268.576 141.131C266.759 141.121 264.951 139.916 263.134 139.266C263.257 138.814 263.381 138.362 263.514 137.9C291.688 137.9 319.863 137.9 348.046 137.9C348.17 138.352 348.294 138.814 348.417 139.266Z" fill="#121212"/>
<path d="M306.208 142.553C317.455 142.553 328.711 142.506 339.958 142.628C341.185 142.638 342.394 143.636 343.621 144.173C342.432 144.785 341.252 145.915 340.063 145.924C317.188 146.028 294.305 146.028 271.431 145.924C270.279 145.915 269.128 144.728 267.977 144.088C269.09 143.579 270.203 142.638 271.326 142.628C282.953 142.515 294.581 142.553 306.208 142.553Z" fill="#121212"/>
<path d="M266.968 148.458C270.574 148.034 274.17 147.46 277.786 147.234C281.516 146.998 283.343 149.08 283.505 152.677C283.552 153.798 283.714 154.985 283.448 156.049C281.868 162.265 284.199 166.202 289.918 169.159C292.934 170.723 294.904 170.205 297.064 168.434C300.556 165.58 300.851 161.587 300.898 157.481C300.908 156.435 301.621 155.399 302.012 154.354C302.449 155.362 303.306 156.407 303.239 157.377C302.992 160.975 302.62 164.582 301.935 168.123C301.46 170.572 299.785 171.919 296.988 171.768C293.962 171.599 290.907 171.825 287.872 171.655C282.068 171.344 278.861 167.511 279.708 161.823C280.089 159.27 280.898 156.774 281.545 154.118C280.279 154.759 279.042 155.39 277.111 156.369C277.501 153.996 277.739 152.508 277.986 151.029C276.207 152.969 275.531 156.68 271.953 154.646C271.011 154.109 271.449 151.199 271.23 149.098C270.545 150.087 269.594 151.462 268.509 153.026C266.121 152.348 266.625 150.36 267.015 148.411C267.025 148.401 266.968 148.458 266.968 148.458Z" fill="#121212"/>
<path d="M340.396 149.202C340.167 151.302 340.577 153.516 339.644 154.655C338.236 156.379 336.038 154.872 333.478 151.029C333.754 152.376 334.03 153.723 334.515 156.106C332.641 155.314 331.309 154.749 330.015 154.203C330.595 156.445 331.366 158.79 331.775 161.201C332.85 167.464 329.549 171.457 323.183 171.683C320.528 171.778 317.855 171.504 315.219 171.768C311.698 172.126 309.833 170.337 309.31 167.342C308.673 163.669 308.501 159.911 308.301 156.181C308.273 155.588 309.129 154.947 309.576 154.326C309.948 155.013 310.557 155.672 310.633 156.398C310.861 158.385 310.661 160.429 311.004 162.378C311.774 166.758 315.676 170.544 318.92 170.337C323.154 170.064 328.616 164.337 328.511 160.165C328.454 157.547 328.045 154.928 328.102 152.31C328.178 149.08 329.967 147.13 333.345 147.224C336.361 147.309 339.444 147.365 342.346 148.062C345.486 148.816 345.601 150.53 343.07 152.998C342.08 151.594 341.071 150.153 340.396 149.202Z" fill="#121212"/>
<path d="M284.685 512.578C284.685 403.637 284.685 294.695 284.685 185.754C284.789 185.754 284.884 185.754 284.989 185.754C284.989 294.752 284.989 403.74 284.989 512.738C284.884 512.681 284.78 512.625 284.685 512.578Z" fill="#121212"/>
<path d="M326.685 580.521C326.78 580.521 326.856 476.984 326.856 349.265C326.856 221.546 326.78 118.009 326.685 118.009C326.59 118.009 326.514 221.546 326.514 349.265C326.514 476.984 326.59 580.521 326.685 580.521Z" fill="#121212"/>
<path d="M337.665 538.129C336.656 538.6 335.657 539.467 334.648 539.476C315.428 539.561 296.207 539.561 276.987 539.467C275.94 539.457 274.903 538.44 273.856 537.894C274.018 537.536 274.18 537.169 274.342 536.811C295.275 536.811 316.208 536.811 337.141 536.811C337.322 537.254 337.493 537.687 337.665 538.129Z" fill="#121212"/>
<path d="M336.999 535.003C316.189 535.003 295.38 535.003 274.561 535.003C274.428 534.673 274.294 534.334 274.161 534.004C275.569 533.458 276.978 532.441 278.386 532.431C296.617 532.318 314.857 532.328 333.097 532.413C334.525 532.422 335.942 533.251 337.36 533.693C337.246 534.127 337.122 534.56 336.999 535.003Z" fill="#121212"/>
<path d="M334.354 530.943C315.314 530.943 296.274 530.943 277.225 530.943C277.13 530.604 277.044 530.275 276.949 529.936C278.338 529.493 279.718 528.664 281.107 528.655C297.54 528.57 313.972 528.57 330.405 528.655C331.804 528.664 333.202 529.474 334.591 529.917C334.515 530.265 334.439 530.604 334.354 530.943Z" fill="#121212"/>
<path d="M332.793 523.87C331.537 524.077 330.29 524.445 329.034 524.454C313.468 524.492 297.901 524.482 282.334 524.482C281.573 524.482 280.774 524.586 280.079 524.369C279.594 524.219 278.947 523.606 278.938 523.192C278.928 522.787 279.575 522.156 280.051 522.005C280.745 521.789 281.554 521.892 282.306 521.892C297.996 521.892 313.696 521.883 329.386 521.921C330.519 521.921 331.661 522.26 332.793 522.448C332.802 522.909 332.793 523.39 332.793 523.87Z" fill="#121212"/>
<path d="M311.936 150.163C306.618 154.966 304.734 154.957 299.481 149.871C299.928 151.387 300.204 152.338 300.785 154.278C299.129 153.271 297.559 152.837 297.407 152.112C297.188 151.01 297.94 149.711 298.625 147.271C297.045 149.24 296.103 150.408 294.667 152.197C294.105 151.01 293.125 149.842 293.22 148.769C293.277 148.157 295.076 147.252 296.103 147.234C302.536 147.092 308.968 147.092 315.4 147.234C316.437 147.252 318.121 148.015 318.312 148.75C318.568 149.692 317.626 150.963 317.018 152.593C315.59 150.587 314.658 149.287 313.735 147.978C314.372 150.53 315.999 152.979 311.194 153.723C311.451 152.47 311.661 151.472 311.936 150.163Z" fill="#121212"/>
<path d="M332.679 174.999C314.705 175.441 296.75 175.611 278.814 174.942C281.222 172.324 330.291 172.324 332.679 174.999Z" fill="#121212"/>
<path d="M279.537 526.036C297.245 526.036 314.229 526.036 331.461 526.036C329.215 527.901 283.124 528.08 279.537 526.036Z" fill="#121212"/>
<path d="M287.596 183.852C286.407 183.475 285.218 183.108 284.028 182.731C284.047 182.496 284.066 182.26 284.095 182.025C298.529 182.025 312.973 182.025 327.408 182.025C327.474 182.222 327.531 182.43 327.598 182.627C326.38 183.032 325.171 183.437 323.954 183.842L324.058 183.767C321.175 183.805 318.292 183.852 315.409 183.89C315.247 183.984 315.085 184.087 314.933 184.191C314.4 184.492 313.868 184.803 313.335 185.104C312.183 184.907 311.032 184.7 309.881 184.502C308.444 184.116 307.017 183.729 305.58 183.343L305.275 183.315C303.858 183.456 302.44 183.598 301.013 183.748C300.185 184.059 299.357 184.37 298.529 184.681C297.863 184.53 297.188 184.379 296.522 184.238C296.407 184.116 296.284 184.003 296.151 183.899C293.258 183.852 290.375 183.805 287.482 183.758L287.596 183.852Z" fill="#121212"/>
<path d="M317.34 168.472C314.362 167.295 312.478 163.169 313.496 158.912C314.486 154.759 318.511 150.982 321.879 151.688C323.554 152.037 325.371 153.563 326.323 155.051C327.721 157.255 326.884 159.204 323.868 162.096C325.504 159.006 326.132 156.266 322.773 155.315C319.548 154.41 317.673 156.934 317.236 159.59C316.77 162.482 317.264 165.533 317.34 168.472Z" fill="#121212"/>
<path d="M292.125 156.727C290.689 156.398 288.234 155.465 287.996 155.851C287.083 157.358 286.873 159.28 286.483 160.739C284.846 159.694 283.771 157.754 285.151 155.418C286.141 153.751 288.215 152.037 290.061 151.698C293.439 151.076 297.321 155.126 298.129 159.27C298.967 163.527 297.188 167.238 293.296 168.867C294.932 164.497 296.674 160.193 292.087 156.671L292.125 156.727Z" fill="#121212"/>
<path d="M323.963 514.113C325.038 514.508 326.123 514.904 328.302 515.695C312.963 515.695 298.729 515.695 283.391 515.695C285.427 514.923 286.502 514.518 287.577 514.113L287.482 514.188C290.375 514.009 293.267 513.83 296.16 513.651L296.255 513.576C299.737 513.849 303.23 514.113 306.712 514.386C309.538 514.075 312.364 513.755 315.18 513.444L315.428 513.708C318.301 513.868 321.175 514.028 324.039 514.179L323.963 514.113Z" fill="#121212"/>
<path d="M283.087 519.933C298.225 519.933 313.354 519.933 328.493 519.933C328.493 520.122 328.493 520.301 328.493 520.489C313.345 520.489 298.197 520.489 283.049 520.489C283.068 520.301 283.077 520.112 283.087 519.933Z" fill="#121212"/>
<path d="M283.743 179.011C298.443 179.011 313.135 179.011 327.835 179.011C327.835 179.256 327.835 179.501 327.845 179.745C313.135 179.745 298.434 179.745 283.724 179.745C283.733 179.501 283.733 179.256 283.743 179.011Z" fill="#121212"/>
<path d="M327.893 518.379C313.173 518.379 298.453 518.379 283.733 518.379C283.733 518.182 283.724 517.974 283.724 517.777C298.434 517.777 313.144 517.777 327.854 517.777C327.864 517.974 327.883 518.182 327.893 518.379Z" fill="#121212"/>
<path d="M308.701 171.542C306.855 171.542 304.505 171.542 302.868 171.542C303.411 166.899 303.886 162.369 304.505 157.857C304.628 156.934 305.314 156.096 305.732 155.22C306.179 156.077 306.912 156.887 307.036 157.782C307.673 162.293 308.149 166.824 308.701 171.542Z" fill="#121212"/>
<path d="M328.302 177.551C313.278 177.551 298.254 177.551 283.239 177.551C283.239 177.391 283.239 177.221 283.229 177.061C298.292 177.061 313.354 177.061 328.426 177.061C328.388 177.221 328.34 177.391 328.302 177.551Z" fill="#121212"/>
<path d="M328.15 147.384C327.626 149.098 327.169 150.615 326.503 152.79C325.286 149.268 319.986 152.272 319.662 147.384C322.564 147.384 325.228 147.384 328.15 147.384Z" fill="#121212"/>
<path d="M285.047 152.706C284.39 150.605 283.914 149.108 283.372 147.347C286.255 147.347 288.834 147.347 291.831 147.347C291.774 152.301 286.255 149.353 285.047 152.706Z" fill="#121212"/>
<path d="M292.069 156.68C292.592 158.347 293.106 160.014 293.629 161.681C293.277 161.964 292.925 162.246 292.573 162.529C290.956 160.956 289.338 159.383 287.711 157.801C289.176 157.443 290.651 157.085 292.116 156.718C292.126 156.727 292.069 156.68 292.069 156.68Z" fill="#121212"/>
<path d="M317.351 160.871C318.835 159.346 320.291 157.792 321.889 156.398C321.994 156.303 323.221 157.471 323.925 158.055C322.26 159.543 320.595 161.022 318.921 162.51C318.397 161.964 317.874 161.418 317.351 160.871Z" fill="#121212"/>
<path d="M294.258 165.147C292.678 166.193 291.669 167.379 290.813 167.285C289.957 167.191 289.243 165.816 288.463 165.006C289.281 164.243 290.071 162.924 290.927 162.877C291.803 162.821 292.735 164.036 294.258 165.147Z" fill="#121212"/>
<path d="M324.096 164.808C322.593 166.023 321.708 167.295 320.88 167.257C319.976 167.21 319.129 165.957 318.254 165.232C319.015 164.403 319.681 163.056 320.566 162.887C321.375 162.727 322.441 163.838 324.096 164.808Z" fill="#121212"/>
<path d="M330.338 171.391C331.499 168.557 332.755 165.458 333.744 163.047C335.095 166.098 333.935 169.385 330.338 171.391Z" fill="#121212"/>
<path d="M309.872 184.521C311.023 184.718 312.175 184.926 313.326 185.123C313.231 186.998 313.059 188.872 313.059 190.737C313.05 296.796 313.05 402.864 313.002 508.923C313.002 510.685 314.078 513.303 311.033 513.642C310.681 513.68 309.52 510.656 309.52 509.055C309.444 402.488 309.444 295.929 309.463 189.362C309.472 187.742 309.739 186.131 309.872 184.521Z" fill="#121212"/>
<path d="M315.41 183.899C317.817 184.078 318.531 185.434 318.483 187.704C318.369 193.091 318.445 198.478 318.445 203.866C318.445 305.498 318.454 407.131 318.397 508.754C318.397 510.769 319.71 514 315.438 513.698L315.191 513.435C315.096 512.314 314.905 511.193 314.905 510.082C314.905 401.452 314.915 292.821 314.924 184.191C315.086 184.087 315.248 183.993 315.41 183.899Z" fill="#121212"/>
<path d="M296.522 184.247C296.57 187.506 296.655 190.765 296.655 194.014C296.665 298.67 296.665 403.326 296.646 507.972C296.646 509.837 296.398 511.702 296.265 513.567C296.265 513.567 296.16 513.642 296.17 513.642C295.161 512.907 294 512.305 293.201 511.382C292.821 510.948 293.125 509.931 293.125 509.178C293.125 402.516 293.125 295.854 293.135 189.201C293.135 186.913 292.43 184.144 296.16 183.899C296.284 184.012 296.408 184.125 296.522 184.247Z" fill="#121212"/>
<path d="M301.013 183.767C301.374 185.312 302.059 186.847 302.059 188.391C302.107 295.562 302.097 402.732 302.097 509.903C302.097 510.779 302.202 511.721 301.917 512.502C301.707 513.067 300.927 513.783 300.404 513.793C299.861 513.793 298.967 513.105 298.824 512.568C298.52 511.382 298.529 510.091 298.529 508.848C298.529 400.802 298.529 292.755 298.539 184.7C299.357 184.389 300.185 184.078 301.013 183.767Z" fill="#121212"/>
<path d="M305.58 183.362C306.285 185.641 307.598 187.911 307.598 190.19C307.693 270.782 307.664 351.384 307.645 431.976C307.645 457.547 307.664 483.117 307.588 508.688C307.579 510.468 306.836 512.248 306.427 514.028C305.638 513.218 304.6 512.531 304.153 511.561C303.763 510.732 304.039 509.592 304.039 508.594C304.039 402.346 304.03 296.089 304.096 189.842C304.096 187.676 304.857 185.509 305.266 183.334C305.276 183.334 305.58 183.362 305.58 183.362Z" fill="#121212"/>
<path d="M320.538 184.181C323.269 187.111 323.25 510.911 321.242 514.028C320.738 513.199 320.119 512.578 319.996 511.881C319.786 510.656 319.872 509.385 319.872 508.132C319.872 401.659 319.872 295.185 319.91 188.712C319.91 187.195 320.319 185.688 320.538 184.181Z" fill="#121212"/>
<path d="M289.499 513.736C289.318 512.37 288.976 511.005 288.976 509.639C288.947 402.431 288.957 295.213 288.957 188.005C288.957 187.252 288.852 186.47 289.033 185.764C289.166 185.255 289.699 184.85 290.061 184.389C290.565 184.831 291.336 185.199 291.516 185.745C291.783 186.545 291.64 187.478 291.64 188.354C291.64 295.195 291.64 402.026 291.612 508.867C291.612 510.515 291.231 512.163 291.022 513.811C290.517 513.774 290.004 513.755 289.499 513.736Z" fill="#121212"/>
</g>
<g clip-path="url(#clip3_749_258)">
<path d="M403.366 229.959C403.744 231.016 404.444 232.073 404.451 233.137C404.529 246.637 404.501 260.136 404.501 273.636C404.501 340.75 404.508 407.864 404.451 474.978C404.451 476.219 403.744 477.468 403.373 478.709L403.445 478.759C403.43 477.248 403.402 475.744 403.402 474.233C403.402 398.167 403.402 322.1 403.402 246.027C403.402 240.65 403.43 235.273 403.445 229.896C403.445 229.91 403.366 229.959 403.366 229.959Z" fill="#121212"/>
<path d="M376.091 478.716C375.72 477.659 375.021 476.602 375.021 475.545C374.949 458.648 374.971 441.758 374.971 424.861C374.971 361.151 374.964 297.435 375.021 233.726C375.021 232.471 375.727 231.222 376.098 229.967L376.02 229.91C376.041 231.421 376.084 232.925 376.084 234.436C376.084 314.467 376.084 394.499 376.084 474.531C376.084 475.943 376.041 477.361 376.02 478.773L376.091 478.716Z" fill="#121212"/>
<path d="M366.621 502.317C366.621 501.196 366.621 500.196 366.621 498.955C382.007 498.955 397.379 498.955 412.879 498.955C412.879 500.054 412.879 501.062 412.879 502.317C397.507 502.317 382.135 502.317 366.621 502.317Z" fill="#121212"/>
<path d="M421.714 196.385C420.351 196.874 418.988 197.782 417.617 197.789C399.02 197.881 380.43 197.881 361.833 197.789C360.47 197.782 359.114 196.874 357.751 196.385C357.844 196.044 357.937 195.704 358.036 195.356C379.167 195.356 400.298 195.356 421.435 195.356C421.528 195.697 421.621 196.044 421.714 196.385Z" fill="#121212"/>
<path d="M390.056 198.86C398.492 198.86 406.934 198.825 415.369 198.917C416.289 198.924 417.196 199.676 418.116 200.081C417.224 200.542 416.339 201.393 415.447 201.4C398.292 201.478 381.129 201.478 363.973 201.4C363.11 201.393 362.246 200.499 361.383 200.017C362.218 199.634 363.053 198.924 363.895 198.917C372.615 198.832 381.336 198.86 390.056 198.86Z" fill="#121212"/>
<path d="M360.627 203.308C363.332 202.989 366.029 202.556 368.741 202.386C371.539 202.209 372.909 203.776 373.03 206.486C373.066 207.33 373.187 208.224 372.987 209.026C371.803 213.708 373.551 216.673 377.84 218.9C380.102 220.078 381.579 219.688 383.199 218.354C385.818 216.205 386.04 213.197 386.075 210.104C386.082 209.317 386.618 208.536 386.91 207.749C387.239 208.508 387.881 209.295 387.831 210.026C387.645 212.736 387.367 215.453 386.853 218.12C386.496 219.964 385.24 220.979 383.142 220.865C380.873 220.738 378.582 220.908 376.306 220.78C371.953 220.546 369.548 217.659 370.183 213.374C370.468 211.452 371.075 209.572 371.56 207.572C370.611 208.054 369.683 208.529 368.235 209.267C368.527 207.479 368.706 206.358 368.891 205.245C367.557 206.706 367.05 209.501 364.367 207.969C363.66 207.564 363.988 205.372 363.824 203.791C363.31 204.535 362.597 205.571 361.783 206.749C359.992 206.238 360.37 204.741 360.663 203.273C360.67 203.266 360.627 203.308 360.627 203.308Z" fill="#121212"/>
<path d="M415.697 203.869C415.526 205.45 415.833 207.118 415.133 207.976C414.077 209.274 412.429 208.139 410.509 205.245C410.716 206.259 410.923 207.274 411.287 209.068C409.881 208.472 408.882 208.047 407.912 207.635C408.347 209.324 408.925 211.09 409.232 212.906C410.038 217.623 407.562 220.631 402.788 220.801C400.797 220.872 398.791 220.667 396.815 220.865C394.174 221.135 392.775 219.787 392.383 217.531C391.905 214.765 391.776 211.934 391.626 209.125C391.605 208.678 392.247 208.196 392.583 207.728C392.861 208.245 393.318 208.742 393.375 209.288C393.546 210.785 393.396 212.324 393.653 213.793C394.231 217.091 397.157 219.943 399.591 219.787C402.766 219.581 406.862 215.268 406.784 212.126C406.741 210.154 406.434 208.182 406.477 206.21C406.534 203.776 407.876 202.308 410.409 202.379C412.671 202.443 414.984 202.485 417.16 203.01C419.515 203.578 419.601 204.869 417.703 206.727C416.96 205.67 416.204 204.585 415.697 203.869Z" fill="#121212"/>
<path d="M373.915 477.56C373.915 395.507 373.915 313.453 373.915 231.399C373.993 231.399 374.064 231.399 374.142 231.399C374.142 313.496 374.142 395.585 374.142 477.681C374.064 477.638 373.986 477.596 373.915 477.56Z" fill="#121212"/>
<path d="M405.415 528.734C405.486 528.734 405.543 450.751 405.543 354.554C405.543 258.357 405.486 180.374 405.415 180.374C405.344 180.374 405.286 258.357 405.286 354.554C405.286 450.751 405.344 528.734 405.415 528.734Z" fill="#121212"/>
<path d="M413.65 496.805C412.894 497.16 412.144 497.813 411.388 497.82C396.972 497.884 382.557 497.884 368.142 497.813C367.357 497.806 366.579 497.04 365.794 496.628C365.915 496.359 366.037 496.082 366.158 495.812C381.858 495.812 397.558 495.812 413.257 495.812C413.393 496.146 413.522 496.472 413.65 496.805Z" fill="#121212"/>
<path d="M413.15 494.45C397.543 494.45 381.935 494.45 366.321 494.45C366.221 494.202 366.121 493.947 366.021 493.698C367.078 493.287 368.134 492.521 369.19 492.514C382.863 492.429 396.543 492.436 410.224 492.499C411.294 492.507 412.357 493.131 413.421 493.464C413.335 493.791 413.242 494.117 413.15 494.45Z" fill="#121212"/>
<path d="M411.166 491.393C396.886 491.393 382.606 491.393 368.319 491.393C368.248 491.138 368.184 490.889 368.112 490.634C369.154 490.3 370.189 489.676 371.231 489.669C383.555 489.605 395.88 489.605 408.204 489.669C409.253 489.676 410.302 490.286 411.344 490.62C411.287 490.882 411.23 491.138 411.166 491.393Z" fill="#121212"/>
<path d="M409.996 486.065C409.054 486.222 408.119 486.498 407.177 486.505C395.502 486.534 383.827 486.527 372.152 486.527C371.581 486.527 370.982 486.605 370.461 486.441C370.097 486.328 369.612 485.867 369.605 485.555C369.597 485.25 370.083 484.774 370.44 484.661C370.96 484.498 371.567 484.576 372.131 484.576C383.899 484.576 395.673 484.569 407.441 484.597C408.29 484.597 409.147 484.852 409.996 484.994C410.003 485.342 409.996 485.704 409.996 486.065Z" fill="#121212"/>
<path d="M394.352 204.592C390.363 208.21 388.95 208.203 385.011 204.372C385.346 205.514 385.553 206.231 385.989 207.692C384.747 206.933 383.57 206.607 383.455 206.061C383.291 205.231 383.855 204.252 384.369 202.414C383.184 203.897 382.478 204.777 381.4 206.124C380.979 205.231 380.244 204.351 380.315 203.542C380.358 203.081 381.707 202.4 382.478 202.386C387.302 202.28 392.126 202.28 396.95 202.386C397.728 202.4 398.991 202.975 399.134 203.528C399.326 204.237 398.62 205.195 398.163 206.422C397.093 204.911 396.393 203.932 395.701 202.946C396.179 204.869 397.4 206.713 393.796 207.274C393.989 206.33 394.146 205.578 394.352 204.592Z" fill="#121212"/>
<path d="M409.91 223.298C396.43 223.632 382.964 223.759 369.512 223.256C371.317 221.284 408.119 221.284 409.91 223.298Z" fill="#121212"/>
<path d="M370.054 487.697C383.334 487.697 396.073 487.697 408.996 487.697C407.312 489.102 372.744 489.236 370.054 487.697Z" fill="#121212"/>
<path d="M376.098 229.967C375.206 229.683 374.314 229.406 373.422 229.122C373.436 228.945 373.45 228.768 373.472 228.59C384.298 228.59 395.131 228.59 405.956 228.59C406.006 228.739 406.049 228.895 406.099 229.044C405.186 229.349 404.279 229.654 403.366 229.959L403.444 229.903C401.282 229.931 399.12 229.967 396.957 229.995C396.836 230.066 396.715 230.144 396.601 230.222C396.201 230.449 395.801 230.683 395.402 230.91C394.538 230.761 393.675 230.605 392.811 230.456C391.734 230.165 390.663 229.874 389.586 229.583L389.357 229.562C388.294 229.669 387.231 229.775 386.16 229.888C385.539 230.123 384.918 230.357 384.298 230.591C383.798 230.477 383.291 230.364 382.792 230.257C382.706 230.165 382.613 230.08 382.514 230.002C380.344 229.967 378.182 229.931 376.012 229.896L376.098 229.967Z" fill="#121212"/>
<path d="M398.406 218.382C396.173 217.496 394.76 214.389 395.523 211.182C396.266 208.054 399.284 205.209 401.81 205.741C403.066 206.004 404.429 207.153 405.143 208.274C406.192 209.934 405.564 211.402 403.302 213.58C404.529 211.253 405 209.189 402.481 208.472C400.062 207.791 398.656 209.693 398.328 211.693C397.978 213.871 398.349 216.169 398.406 218.382Z" fill="#121212"/>
<path d="M379.495 209.536C378.418 209.288 376.576 208.586 376.398 208.877C375.713 210.012 375.556 211.459 375.263 212.558C374.036 211.771 373.23 210.31 374.264 208.55C375.007 207.295 376.562 206.004 377.947 205.748C380.48 205.28 383.392 208.331 383.998 211.452C384.626 214.658 383.292 217.453 380.373 218.68C381.6 215.389 382.906 212.147 379.467 209.494L379.495 209.536Z" fill="#121212"/>
<path d="M403.373 478.716C404.18 479.014 404.993 479.312 406.628 479.908C395.124 479.908 384.448 479.908 372.944 479.908C374.472 479.326 375.278 479.021 376.084 478.716L376.013 478.773C378.182 478.638 380.352 478.503 382.521 478.369L382.593 478.312C385.204 478.518 387.824 478.716 390.435 478.922C392.555 478.688 394.674 478.447 396.787 478.213L396.972 478.411C399.127 478.532 401.283 478.652 403.431 478.766L403.373 478.716Z" fill="#121212"/>
<path d="M372.716 483.1C384.07 483.1 395.417 483.1 406.77 483.1C406.77 483.242 406.77 483.377 406.77 483.519C395.409 483.519 384.048 483.519 372.688 483.519C372.702 483.377 372.709 483.235 372.716 483.1Z" fill="#121212"/>
<path d="M373.208 226.32C384.233 226.32 395.252 226.32 406.277 226.32C406.277 226.505 406.277 226.689 406.284 226.874C395.252 226.874 384.226 226.874 373.193 226.874C373.2 226.689 373.2 226.505 373.208 226.32Z" fill="#121212"/>
<path d="M406.32 481.93C395.28 481.93 384.24 481.93 373.2 481.93C373.2 481.781 373.193 481.625 373.193 481.476C384.226 481.476 395.259 481.476 406.291 481.476C406.299 481.625 406.313 481.781 406.32 481.93Z" fill="#121212"/>
<path d="M391.926 220.695C390.542 220.695 388.779 220.695 387.552 220.695C387.959 217.198 388.315 213.786 388.779 210.388C388.872 209.693 389.386 209.061 389.7 208.401C390.035 209.047 390.585 209.657 390.677 210.331C391.156 213.729 391.512 217.141 391.926 220.695Z" fill="#121212"/>
<path d="M406.627 225.221C395.359 225.221 384.09 225.221 372.829 225.221C372.829 225.1 372.829 224.973 372.822 224.852C384.119 224.852 395.416 224.852 406.72 224.852C406.691 224.973 406.655 225.1 406.627 225.221Z" fill="#121212"/>
<path d="M406.513 202.499C406.121 203.791 405.778 204.933 405.278 206.571C404.365 203.918 400.39 206.181 400.147 202.499C402.324 202.499 404.322 202.499 406.513 202.499Z" fill="#121212"/>
<path d="M374.186 206.507C373.693 204.926 373.336 203.798 372.93 202.471C375.092 202.471 377.026 202.471 379.274 202.471C379.231 206.202 375.092 203.982 374.186 206.507Z" fill="#121212"/>
<path d="M379.452 209.501C379.845 210.757 380.23 212.012 380.622 213.268C380.358 213.481 380.094 213.693 379.83 213.906C378.617 212.722 377.404 211.537 376.184 210.345C377.283 210.076 378.389 209.806 379.488 209.529C379.495 209.536 379.452 209.501 379.452 209.501Z" fill="#121212"/>
<path d="M398.413 212.658C399.526 211.509 400.618 210.338 401.817 209.288C401.896 209.217 402.816 210.097 403.344 210.537C402.095 211.658 400.847 212.771 399.591 213.892C399.198 213.481 398.806 213.069 398.413 212.658Z" fill="#121212"/>
<path d="M381.094 215.878C379.909 216.666 379.153 217.56 378.511 217.489C377.868 217.418 377.333 216.382 376.748 215.772C377.362 215.197 377.954 214.204 378.596 214.169C379.253 214.126 379.952 215.041 381.094 215.878Z" fill="#121212"/>
<path d="M403.473 215.623C402.346 216.538 401.682 217.496 401.061 217.467C400.383 217.432 399.748 216.488 399.092 215.942C399.663 215.318 400.162 214.304 400.826 214.176C401.433 214.055 402.232 214.892 403.473 215.623Z" fill="#121212"/>
<path d="M408.154 220.581C409.025 218.446 409.967 216.112 410.709 214.296C411.722 216.595 410.852 219.071 408.154 220.581Z" fill="#121212"/>
<path d="M392.804 230.47C393.668 230.619 394.531 230.775 395.395 230.924C395.323 232.336 395.195 233.748 395.195 235.152C395.188 315.035 395.188 394.925 395.152 474.808C395.152 476.134 395.958 478.106 393.675 478.362C393.411 478.39 392.54 476.113 392.54 474.907C392.483 394.641 392.483 314.382 392.497 234.116C392.504 232.896 392.704 231.683 392.804 230.47Z" fill="#121212"/>
<path d="M396.957 230.002C398.763 230.137 399.298 231.158 399.262 232.868C399.177 236.926 399.234 240.983 399.234 245.041C399.234 321.59 399.241 398.138 399.198 474.68C399.198 476.198 400.183 478.631 396.979 478.404L396.793 478.206C396.722 477.361 396.579 476.517 396.579 475.68C396.579 393.861 396.586 312.041 396.593 230.222C396.715 230.144 396.836 230.073 396.957 230.002Z" fill="#121212"/>
<path d="M382.792 230.264C382.828 232.719 382.892 235.173 382.892 237.621C382.899 316.447 382.899 395.272 382.885 474.091C382.885 475.496 382.7 476.9 382.6 478.305C382.6 478.305 382.521 478.362 382.528 478.362C381.772 477.808 380.901 477.354 380.302 476.659C380.016 476.333 380.245 475.567 380.245 474.999C380.245 394.662 380.245 314.326 380.252 233.996C380.252 232.272 379.724 230.186 382.521 230.002C382.614 230.087 382.707 230.172 382.792 230.264Z" fill="#121212"/>
<path d="M386.16 229.903C386.432 231.066 386.945 232.222 386.945 233.386C386.981 314.106 386.974 394.826 386.974 475.545C386.974 476.205 387.052 476.915 386.838 477.503C386.681 477.929 386.096 478.468 385.704 478.475C385.297 478.475 384.626 477.957 384.519 477.553C384.291 476.659 384.298 475.687 384.298 474.751C384.298 393.371 384.298 311.992 384.305 230.605C384.919 230.371 385.54 230.137 386.16 229.903Z" fill="#121212"/>
<path d="M389.586 229.598C390.114 231.314 391.098 233.024 391.098 234.741C391.17 295.442 391.148 356.15 391.134 416.852C391.134 436.111 391.148 455.371 391.091 474.63C391.084 475.971 390.527 477.312 390.221 478.653C389.628 478.042 388.85 477.525 388.515 476.794C388.222 476.17 388.429 475.311 388.429 474.559C388.429 394.535 388.422 314.503 388.472 234.478C388.472 232.847 389.043 231.215 389.35 229.576C389.357 229.576 389.586 229.598 389.586 229.598Z" fill="#121212"/>
<path d="M400.805 230.215C402.853 232.421 402.838 476.304 401.333 478.652C400.954 478.028 400.491 477.56 400.398 477.035C400.241 476.113 400.305 475.155 400.305 474.212C400.305 394.017 400.305 313.822 400.334 233.627C400.334 232.485 400.64 231.35 400.805 230.215Z" fill="#121212"/>
<path d="M377.526 478.433C377.39 477.404 377.134 476.375 377.134 475.347C377.112 394.598 377.119 313.843 377.119 233.095C377.119 232.527 377.041 231.939 377.176 231.407C377.276 231.024 377.676 230.718 377.947 230.371C378.325 230.704 378.903 230.981 379.039 231.392C379.239 231.995 379.132 232.698 379.132 233.357C379.132 313.829 379.132 394.293 379.11 474.765C379.11 476.006 378.825 477.248 378.668 478.489C378.29 478.461 377.904 478.447 377.526 478.433Z" fill="#121212"/>
</g>
<g clip-path="url(#clip4_749_258)">
<path d="M464.729 259.475C465.011 260.263 465.533 261.051 465.538 261.845C465.597 271.912 465.576 281.979 465.576 292.047C465.576 342.098 465.581 392.149 465.538 442.2C465.538 443.126 465.011 444.057 464.734 444.983L464.787 445.02C464.776 443.893 464.755 442.772 464.755 441.645C464.755 384.917 464.755 328.19 464.755 271.457C464.755 267.447 464.776 263.437 464.787 259.427C464.787 259.438 464.729 259.475 464.729 259.475Z" fill="#121212"/>
<path d="M444.363 444.988C444.086 444.2 443.564 443.412 443.564 442.624C443.511 430.022 443.527 417.426 443.527 404.825C443.527 357.313 443.521 309.796 443.564 262.284C443.564 261.347 444.091 260.416 444.369 259.48L444.31 259.438C444.326 260.564 444.358 261.686 444.358 262.813C444.358 322.498 444.358 382.182 444.358 441.867C444.358 442.92 444.326 443.978 444.31 445.031L444.363 444.988Z" fill="#121212"/>
<path d="M437.293 462.589C437.293 461.753 437.293 461.007 437.293 460.081C448.781 460.081 460.259 460.081 471.832 460.081C471.832 460.901 471.832 461.653 471.832 462.589C460.354 462.589 448.877 462.589 437.293 462.589Z" fill="#121212"/>
<path d="M478.428 234.436C477.41 234.801 476.392 235.478 475.369 235.483C461.483 235.552 447.603 235.552 433.717 235.483C432.699 235.478 431.687 234.801 430.669 234.436C430.738 234.182 430.807 233.928 430.882 233.669C446.66 233.669 462.437 233.669 478.22 233.669C478.289 233.923 478.358 234.182 478.428 234.436Z" fill="#121212"/>
<path d="M454.791 236.282C461.09 236.282 467.393 236.256 473.691 236.324C474.379 236.33 475.056 236.891 475.743 237.192C475.077 237.536 474.416 238.171 473.75 238.176C460.941 238.234 448.126 238.234 435.316 238.176C434.671 238.171 434.027 237.504 433.382 237.144C434.005 236.859 434.629 236.33 435.257 236.324C441.769 236.261 448.28 236.282 454.791 236.282Z" fill="#121212"/>
<path d="M432.817 239.599C434.836 239.361 436.85 239.038 438.875 238.911C440.964 238.779 441.987 239.948 442.077 241.969C442.104 242.599 442.195 243.265 442.045 243.863C441.161 247.355 442.466 249.566 445.669 251.227C447.358 252.105 448.461 251.814 449.67 250.82C451.626 249.217 451.791 246.974 451.818 244.667C451.823 244.08 452.223 243.498 452.441 242.911C452.686 243.477 453.166 244.064 453.129 244.609C452.99 246.63 452.782 248.656 452.399 250.645C452.132 252.021 451.194 252.777 449.628 252.693C447.933 252.597 446.223 252.724 444.523 252.629C441.273 252.454 439.477 250.301 439.951 247.106C440.165 245.672 440.617 244.27 440.98 242.779C440.271 243.138 439.578 243.493 438.497 244.043C438.715 242.71 438.848 241.874 438.987 241.043C437.991 242.133 437.612 244.218 435.609 243.075C435.081 242.773 435.326 241.139 435.204 239.959C434.82 240.514 434.287 241.287 433.68 242.165C432.342 241.784 432.625 240.668 432.843 239.573C432.849 239.567 432.817 239.599 432.817 239.599Z" fill="#121212"/>
<path d="M473.936 240.017C473.808 241.197 474.037 242.44 473.515 243.08C472.727 244.048 471.496 243.202 470.062 241.043C470.217 241.8 470.371 242.556 470.643 243.895C469.593 243.45 468.847 243.133 468.123 242.826C468.448 244.085 468.879 245.403 469.109 246.757C469.711 250.275 467.862 252.518 464.297 252.645C462.81 252.698 461.313 252.544 459.837 252.693C457.866 252.894 456.821 251.888 456.528 250.206C456.171 248.143 456.075 246.032 455.963 243.937C455.947 243.604 456.427 243.244 456.677 242.895C456.885 243.281 457.226 243.651 457.269 244.059C457.397 245.175 457.285 246.323 457.477 247.418C457.908 249.878 460.093 252.005 461.91 251.888C464.281 251.735 467.339 248.519 467.281 246.175C467.249 244.704 467.02 243.234 467.052 241.763C467.094 239.948 468.096 238.853 469.988 238.906C471.677 238.954 473.403 238.985 475.028 239.377C476.787 239.8 476.851 240.763 475.433 242.149C474.879 241.361 474.314 240.551 473.936 240.017Z" fill="#121212"/>
<path d="M442.738 444.126C442.738 382.933 442.738 321.741 442.738 260.549C442.797 260.549 442.85 260.549 442.908 260.549C442.908 321.773 442.908 382.992 442.908 444.216C442.85 444.184 442.791 444.152 442.738 444.126Z" fill="#121212"/>
<path d="M466.258 482.29C466.31 482.29 466.353 424.133 466.353 352.393C466.353 280.653 466.31 222.496 466.258 222.496C466.205 222.496 466.162 280.653 466.162 352.393C466.162 424.133 466.205 482.29 466.258 482.29Z" fill="#121212"/>
<path d="M472.407 458.478C471.843 458.743 471.283 459.23 470.718 459.235C459.955 459.283 449.191 459.283 438.428 459.23C437.842 459.224 437.261 458.653 436.675 458.346C436.765 458.145 436.856 457.939 436.947 457.738C448.669 457.738 460.392 457.738 472.114 457.738C472.215 457.986 472.311 458.23 472.407 458.478Z" fill="#121212"/>
<path d="M472.034 456.722C460.38 456.722 448.727 456.722 437.069 456.722C436.994 456.537 436.919 456.346 436.845 456.161C437.633 455.854 438.422 455.283 439.211 455.278C449.42 455.214 459.634 455.22 469.849 455.267C470.648 455.273 471.442 455.738 472.236 455.987C472.172 456.23 472.103 456.473 472.034 456.722Z" fill="#121212"/>
<path d="M470.553 454.442C459.891 454.442 449.228 454.442 438.561 454.442C438.507 454.252 438.46 454.066 438.406 453.876C439.184 453.627 439.957 453.162 440.735 453.156C449.937 453.109 459.139 453.109 468.341 453.156C469.125 453.162 469.908 453.617 470.686 453.865C470.643 454.061 470.601 454.252 470.553 454.442Z" fill="#121212"/>
<path d="M469.679 450.469C468.975 450.585 468.277 450.792 467.574 450.797C458.856 450.818 450.139 450.813 441.422 450.813C440.996 450.813 440.548 450.871 440.159 450.749C439.887 450.665 439.525 450.321 439.52 450.088C439.514 449.861 439.877 449.506 440.143 449.421C440.532 449.3 440.985 449.358 441.406 449.358C450.192 449.358 458.984 449.353 467.771 449.374C468.405 449.374 469.044 449.564 469.679 449.67C469.684 449.929 469.679 450.199 469.679 450.469Z" fill="#121212"/>
<path d="M457.999 240.557C455.021 243.255 453.966 243.249 451.024 240.393C451.275 241.244 451.429 241.779 451.754 242.869C450.827 242.302 449.948 242.059 449.863 241.652C449.74 241.033 450.161 240.303 450.545 238.933C449.66 240.038 449.133 240.694 448.328 241.699C448.014 241.033 447.465 240.377 447.518 239.774C447.55 239.43 448.557 238.922 449.133 238.911C452.735 238.832 456.337 238.832 459.939 238.911C460.52 238.922 461.463 239.351 461.569 239.763C461.713 240.292 461.186 241.006 460.845 241.922C460.045 240.795 459.523 240.065 459.006 239.329C459.363 240.763 460.275 242.138 457.584 242.556C457.728 241.853 457.845 241.292 457.999 240.557Z" fill="#121212"/>
<path d="M469.614 254.507C459.549 254.756 449.494 254.851 439.45 254.475C440.798 253.005 468.277 253.005 469.614 254.507Z" fill="#121212"/>
<path d="M439.855 451.686C449.772 451.686 459.283 451.686 468.933 451.686C467.675 452.733 441.864 452.834 439.855 451.686Z" fill="#121212"/>
<path d="M444.369 259.48C443.703 259.268 443.037 259.062 442.371 258.85C442.382 258.718 442.392 258.586 442.408 258.454C450.492 258.454 458.58 258.454 466.663 258.454C466.701 258.565 466.733 258.681 466.77 258.792C466.088 259.02 465.411 259.247 464.729 259.475L464.788 259.432C463.173 259.453 461.559 259.48 459.944 259.501C459.854 259.554 459.763 259.612 459.678 259.67C459.379 259.84 459.081 260.014 458.783 260.184C458.138 260.072 457.493 259.956 456.848 259.845C456.044 259.628 455.245 259.411 454.44 259.194L454.269 259.178C453.476 259.258 452.682 259.337 451.882 259.422C451.419 259.596 450.955 259.771 450.492 259.945C450.119 259.861 449.74 259.776 449.367 259.697C449.303 259.628 449.234 259.565 449.16 259.506C447.54 259.48 445.925 259.453 444.305 259.427L444.369 259.48Z" fill="#121212"/>
<path d="M461.025 250.841C459.358 250.18 458.303 247.863 458.873 245.471C459.427 243.138 461.681 241.017 463.567 241.414C464.505 241.609 465.523 242.466 466.056 243.302C466.839 244.54 466.37 245.635 464.681 247.259C465.597 245.524 465.949 243.985 464.068 243.45C462.262 242.943 461.212 244.36 460.967 245.852C460.706 247.476 460.983 249.19 461.025 250.841Z" fill="#121212"/>
<path d="M446.905 244.244C446.101 244.059 444.726 243.535 444.593 243.752C444.081 244.598 443.964 245.678 443.746 246.498C442.829 245.91 442.227 244.821 443 243.509C443.554 242.572 444.715 241.609 445.749 241.419C447.641 241.07 449.815 243.345 450.268 245.672C450.737 248.064 449.74 250.148 447.561 251.063C448.477 248.608 449.452 246.191 446.884 244.212L446.905 244.244Z" fill="#121212"/>
<path d="M464.734 444.988C465.336 445.21 465.944 445.433 467.164 445.877C458.574 445.877 450.603 445.877 442.014 445.877C443.154 445.443 443.756 445.216 444.358 444.988L444.305 445.031C445.925 444.93 447.545 444.83 449.164 444.729L449.218 444.687C451.168 444.84 453.123 444.988 455.074 445.142C456.656 444.967 458.239 444.787 459.816 444.613L459.955 444.761C461.564 444.851 463.173 444.941 464.777 445.025L464.734 444.988Z" fill="#121212"/>
<path d="M441.844 448.258C450.321 448.258 458.793 448.258 467.271 448.258C467.271 448.363 467.271 448.464 467.271 448.57C458.788 448.57 450.305 448.57 441.822 448.57C441.833 448.464 441.838 448.358 441.844 448.258Z" fill="#121212"/>
<path d="M442.211 256.761C450.443 256.761 458.67 256.761 466.903 256.761C466.903 256.898 466.903 257.036 466.908 257.173C458.67 257.173 450.438 257.173 442.2 257.173C442.206 257.036 442.206 256.898 442.211 256.761Z" fill="#121212"/>
<path d="M466.935 447.385C458.692 447.385 450.449 447.385 442.206 447.385C442.206 447.274 442.2 447.157 442.2 447.046C450.438 447.046 458.676 447.046 466.913 447.046C466.919 447.157 466.929 447.274 466.935 447.385Z" fill="#121212"/>
<path d="M456.187 252.566C455.154 252.566 453.837 252.566 452.921 252.566C453.225 249.957 453.491 247.413 453.837 244.879C453.907 244.36 454.29 243.89 454.525 243.398C454.775 243.879 455.185 244.334 455.255 244.837C455.612 247.371 455.878 249.915 456.187 252.566Z" fill="#121212"/>
<path d="M467.164 255.941C458.75 255.941 450.336 255.941 441.928 255.941C441.928 255.851 441.928 255.756 441.923 255.666C450.358 255.666 458.793 255.666 467.233 255.666C467.212 255.756 467.185 255.851 467.164 255.941Z" fill="#121212"/>
<path d="M467.078 238.996C466.785 239.959 466.529 240.811 466.156 242.033C465.474 240.054 462.506 241.742 462.325 238.996C463.95 238.996 465.442 238.996 467.078 238.996Z" fill="#121212"/>
<path d="M442.941 241.985C442.573 240.805 442.307 239.964 442.003 238.975C443.617 238.975 445.061 238.975 446.74 238.975C446.708 241.758 443.617 240.102 442.941 241.985Z" fill="#121212"/>
<path d="M446.873 244.218C447.166 245.154 447.454 246.09 447.747 247.027C447.55 247.185 447.353 247.344 447.155 247.503C446.25 246.619 445.344 245.736 444.433 244.847C445.253 244.646 446.079 244.445 446.9 244.239C446.905 244.244 446.873 244.218 446.873 244.218Z" fill="#121212"/>
<path d="M461.031 246.572C461.862 245.715 462.678 244.842 463.573 244.059C463.632 244.006 464.319 244.662 464.713 244.99C463.781 245.826 462.848 246.656 461.91 247.492C461.617 247.185 461.324 246.879 461.031 246.572Z" fill="#121212"/>
<path d="M448.099 248.973C447.214 249.561 446.649 250.227 446.17 250.174C445.69 250.121 445.29 249.349 444.854 248.894C445.312 248.466 445.754 247.725 446.234 247.699C446.724 247.667 447.246 248.349 448.099 248.973Z" fill="#121212"/>
<path d="M464.809 248.783C463.967 249.465 463.471 250.18 463.008 250.159C462.502 250.132 462.027 249.428 461.537 249.021C461.963 248.556 462.336 247.799 462.832 247.704C463.285 247.614 463.882 248.238 464.809 248.783Z" fill="#121212"/>
<path d="M468.304 252.481C468.954 250.889 469.657 249.148 470.211 247.794C470.968 249.508 470.318 251.354 468.304 252.481Z" fill="#121212"/>
<path d="M456.842 259.856C457.487 259.967 458.132 260.083 458.777 260.194C458.723 261.247 458.627 262.3 458.627 263.347C458.622 322.921 458.622 382.5 458.596 442.073C458.596 443.063 459.198 444.533 457.493 444.724C457.295 444.745 456.645 443.047 456.645 442.147C456.603 382.288 456.603 322.434 456.613 262.575C456.619 261.665 456.768 260.76 456.842 259.856Z" fill="#121212"/>
<path d="M459.944 259.506C461.292 259.607 461.691 260.369 461.665 261.644C461.601 264.67 461.643 267.696 461.643 270.722C461.643 327.809 461.649 384.896 461.617 441.978C461.617 443.11 462.352 444.925 459.96 444.755L459.821 444.607C459.768 443.978 459.661 443.348 459.661 442.724C459.661 381.706 459.666 320.688 459.672 259.67C459.762 259.612 459.853 259.559 459.944 259.506Z" fill="#121212"/>
<path d="M449.367 259.702C449.394 261.533 449.442 263.363 449.442 265.188C449.447 323.974 449.447 382.759 449.436 441.539C449.436 442.587 449.298 443.634 449.223 444.681C449.223 444.681 449.165 444.724 449.17 444.724C448.605 444.311 447.955 443.973 447.508 443.454C447.294 443.211 447.465 442.639 447.465 442.216C447.465 382.304 447.465 322.392 447.47 262.485C447.47 261.199 447.076 259.644 449.165 259.506C449.234 259.57 449.303 259.633 449.367 259.702Z" fill="#121212"/>
<path d="M451.882 259.432C452.084 260.3 452.468 261.162 452.468 262.03C452.495 322.228 452.489 382.426 452.489 442.624C452.489 443.116 452.548 443.645 452.388 444.084C452.271 444.401 451.834 444.803 451.541 444.808C451.237 444.808 450.736 444.422 450.656 444.121C450.486 443.454 450.491 442.729 450.491 442.031C450.491 381.341 450.491 320.651 450.497 259.956C450.955 259.781 451.418 259.607 451.882 259.432Z" fill="#121212"/>
<path d="M454.44 259.205C454.834 260.485 455.569 261.76 455.569 263.04C455.623 308.309 455.607 353.583 455.596 398.852C455.596 413.215 455.607 427.578 455.564 441.941C455.559 442.941 455.143 443.941 454.914 444.941C454.472 444.486 453.891 444.1 453.64 443.555C453.422 443.089 453.576 442.449 453.576 441.888C453.576 382.209 453.571 322.524 453.608 262.845C453.608 261.628 454.035 260.411 454.264 259.189C454.269 259.189 454.44 259.205 454.44 259.205Z" fill="#121212"/>
<path d="M462.816 259.665C464.346 261.31 464.335 443.19 463.211 444.941C462.928 444.475 462.582 444.126 462.513 443.734C462.395 443.047 462.443 442.333 462.443 441.629C462.443 381.823 462.443 322.016 462.465 262.21C462.465 261.358 462.694 260.512 462.816 259.665Z" fill="#121212"/>
<path d="M445.435 444.777C445.334 444.01 445.142 443.242 445.142 442.475C445.126 382.256 445.131 322.032 445.131 261.813C445.131 261.39 445.073 260.951 445.174 260.554C445.248 260.268 445.547 260.041 445.749 259.781C446.032 260.03 446.463 260.236 446.564 260.543C446.714 260.993 446.634 261.517 446.634 262.009C446.634 322.021 446.634 382.029 446.618 442.042C446.618 442.967 446.405 443.893 446.287 444.819C446.005 444.798 445.717 444.787 445.435 444.777Z" fill="#121212"/>
</g>
<defs>
<clipPath id="clip0_749_258">
<rect width="137.389" height="652" fill="white"/>
</clipPath>
<clipPath id="clip1_749_258">
<rect width="109.563" height="518.992" fill="white" transform="translate(145.093 75.632)"/>
</clipPath>
<clipPath id="clip2_749_258">
<rect width="86.9549" height="408.587" fill="white" transform="translate(262.482 138.224)"/>
</clipPath>
<clipPath id="clip3_749_258">
<rect width="65.2162" height="307.744" fill="white" transform="translate(357.263 195.6)"/>
</clipPath>
<clipPath id="clip4_749_258">
<rect width="48.6947" height="229.504" fill="white" transform="translate(430.305 233.851)"/>
</clipPath>
</defs>
</svg>
