<svg width="457" height="457" viewBox="0 0 457 457" fill="none" xmlns="http://www.w3.org/2000/svg">
<g opacity="0.35" clip-path="url(#clip0_264_198)">
<path d="M333.006 101.644L333.448 105.037L328.363 106.09L327.687 113.317H333.777L341.878 112.537L346.061 107.565L341.615 105.836L339.181 103.035L335.525 97.1143L333.777 88.7402L326.907 90.1406L324.98 93.0917V96.4188L328.288 98.6838L333.006 101.644Z" fill="black"/>
<path d="M327.151 104.426L327.517 99.8962L323.485 98.1575L317.846 99.4639L313.664 106.174V110.526H318.542L327.151 104.426Z" fill="black"/>
<path d="M211.08 123.665L209.839 126.86H203.834V129.962H205.262C205.262 129.962 205.347 130.62 205.469 131.484L209.153 131.174L211.456 129.746L212.057 126.86L215.037 126.607L216.212 124.182L213.477 123.618L211.08 123.665Z" fill="black"/>
<path d="M195.601 129.295L195.366 132.33L199.717 131.964L200.168 128.919L197.556 126.86L195.601 129.295Z" fill="black"/>
<path d="M456.944 226.136C456.878 219.454 456.539 212.819 455.91 206.287C453.795 184.511 448.588 163.637 440.788 144.069C440.205 142.612 439.669 141.137 439.049 139.699C428.654 115.141 414.058 92.7816 396.192 73.4865C395.017 72.2271 393.824 70.9865 392.63 69.7647C389.256 66.2591 385.788 62.8381 382.198 59.558C341.578 22.5751 287.63 0 228.495 0C168.862 0 114.53 22.9792 73.7967 60.5261C64.3042 69.276 55.5825 78.8249 47.669 89.0504C17.8195 127.659 0 176.024 0 228.495C0 354.5 102.509 457 228.505 457C317.132 457 394.077 406.248 431.953 332.301C440.055 316.493 446.361 299.642 450.609 281.982C451.69 277.499 452.62 272.997 453.429 268.439C455.731 255.459 456.991 242.114 456.991 228.495C457 227.706 456.953 226.926 456.944 226.136ZM413.936 134.811L415.261 133.327C417 136.701 418.626 140.131 420.177 143.608L418.015 143.524L413.936 144.088V134.811ZM380.919 94.9432L380.957 84.7365C384.547 88.5429 388.006 92.462 391.314 96.5222L387.198 102.65L372.809 102.518L371.906 99.5203L380.919 94.9432ZM105.282 69.5768V69.1914H109.859L110.253 67.6219H117.744V70.8926L115.592 73.7685H105.272L105.282 69.5768ZM112.594 79.7741C112.594 79.7741 117.171 78.994 117.565 78.994C117.96 78.994 117.565 83.5617 117.565 83.5617L107.246 84.2102L105.282 81.8606L112.594 79.7741ZM428.494 170.479H411.775L401.587 162.894L390.863 163.937V170.479H387.47L383.805 167.866L365.233 163.157V151.127L341.7 152.96L334.407 156.879H325.064L320.487 156.419L309.143 162.715V174.567L285.957 191.296L287.884 198.439H292.583L291.352 205.244L288.044 206.456L287.865 224.238L307.903 247.057H316.625L317.151 245.666H332.828L337.348 241.484H346.239L351.117 246.371L364.369 247.743L362.611 265.365L377.32 291.333L369.576 306.136L370.102 313.11L376.201 319.19V335.957L384.209 346.728V360.656H391.126C352.63 407.921 294.04 438.194 228.486 438.194C112.866 438.203 18.7969 344.125 18.7969 228.495C18.7969 199.388 24.7743 171.644 35.5356 146.428V139.887L43.0355 130.78C45.6389 125.864 48.4302 121.071 51.4096 116.4L51.7479 120.206L43.0355 130.78C40.3382 135.874 37.8288 141.08 35.545 146.428V158.364L44.2573 162.556V179.144L52.6126 193.401L59.4077 194.445L60.2817 189.557L52.2648 177.189L50.6953 165.168H55.3945L57.3776 177.537L68.9659 194.445L65.9772 199.905L73.3456 211.174L91.6444 215.704V212.743L98.9658 213.787L98.2703 219.012L104.022 220.065L112.904 222.49L125.451 236.785L141.475 237.997L143.045 251.07L132.077 258.74L131.56 270.412L129.99 277.555L145.855 297.414L147.067 304.219C147.067 304.219 152.819 305.779 153.524 305.779C154.219 305.779 166.418 315.018 166.418 315.018V350.91L170.77 352.132L167.809 368.692L175.131 378.457L173.777 394.867L183.448 411.869L195.864 422.714L208.345 422.94L209.567 418.927L200.394 411.201L200.92 407.367L202.565 402.668L202.913 397.874L196.71 397.686L193.58 393.758L198.73 388.805L199.426 385.064L193.674 383.419L194.012 379.942L202.208 378.701L214.67 372.715L218.852 365.045L231.926 348.316L228.956 335.234L232.969 328.269L244.99 328.636L253.082 322.226L255.694 296.982L264.67 285.582L266.239 278.26L258.053 275.638L252.649 266.775L234.181 266.587L219.539 261.005L218.843 250.563L213.956 242.02L200.713 241.822L193.063 229.811L186.268 226.493L185.92 230.159L173.552 230.892L169.022 224.586L156.118 221.963L145.488 234.247L128.759 231.409L127.546 212.556L115.338 210.469L120.234 201.221L118.834 195.911L102.791 206.634L92.697 205.403L89.0974 197.518L91.2966 189.388L96.8605 179.135L109.671 172.65L134.407 172.64L134.342 180.187L143.232 184.323L142.528 171.428L148.937 164.981L161.87 156.484L162.753 150.507L175.648 137.086L189.36 129.492L188.148 128.496L197.433 119.755L200.836 120.657L202.396 122.612L205.92 118.703L206.785 118.317L202.922 117.772L199.003 116.466V112.706L201.08 111.005H205.657L207.753 111.926L209.567 115.592L211.785 115.253V114.934L212.424 115.15L218.852 114.163L219.764 111.024L223.43 111.945V115.347L220.027 117.687H220.037L220.535 121.419L232.179 125.009C232.179 125.009 232.189 125.056 232.208 125.15L234.886 124.924L235.065 119.877L225.836 115.676L225.309 113.251L232.969 110.639L233.307 103.308L225.3 98.43L224.774 86.0711L213.796 91.4658H209.792L210.845 82.0579L195.901 78.5335L189.717 83.2045V97.4526L178.599 100.977L174.144 110.263L169.313 111.043V99.1631L158.862 97.7158L153.637 94.3135L151.531 86.6162L170.225 75.6764L179.37 72.8944L180.291 79.041L185.385 78.7779L185.779 75.6858L191.108 74.9245L191.202 73.8437L188.909 72.8944L188.383 69.6238L194.933 69.0693L198.89 64.9527L199.106 64.652L199.153 64.6708L200.356 63.4302L214.125 61.6915L220.215 66.8606L204.247 75.3662L224.567 80.1594L227.198 73.3644H236.08L239.219 67.4433L232.941 65.8738V58.3832L213.251 49.6614L199.661 51.231L191.992 55.2441L192.518 64.9997L184.501 63.7779L183.27 58.3832L190.948 51.4096L177.011 50.7141L173.007 51.9265L171.268 56.6257L176.494 57.5092L175.45 62.7347L166.569 63.261L165.178 66.7384L152.293 67.0956C152.293 67.0956 151.935 59.7836 151.419 59.7836C150.902 59.7836 161.522 59.605 161.522 59.605L169.2 52.105L165.009 50.0092L159.435 55.4227L150.187 54.8964L144.614 47.2272H132.763L120.394 56.4659H131.729L132.763 59.7836L129.821 62.5185L142.368 62.8663L144.285 67.3963L130.159 66.87L129.473 63.3832L120.592 61.4659L115.883 58.8531L105.31 58.9377C139.924 33.7217 182.49 18.7969 228.495 18.7969C281.521 18.7969 329.97 38.6183 366.935 71.1839L364.444 75.6388L354.773 79.4264L350.694 83.853L351.634 89.0128L356.624 89.7083L359.632 97.227L368.241 93.759L369.66 103.815H367.066L359.999 102.772L352.16 104.088L344.576 114.802L333.73 116.503L332.16 125.789L336.737 126.87L335.412 132.838L324.642 130.676L314.764 132.838L312.668 138.336L314.378 149.877L320.177 152.593L329.905 152.537L336.474 151.945L338.476 146.719L348.739 133.383L355.497 134.764L362.151 128.749L363.391 133.449L379.763 144.492L377.762 147.18L370.384 146.785L373.222 150.808L377.762 151.804L383.081 149.586L382.968 143.176L385.327 141.992L383.429 139.981L372.508 133.89L369.632 125.798H378.711L381.615 128.674L389.434 135.413L389.763 143.561L397.865 152.189L400.882 140.366L406.493 137.302L407.545 146.973L413.025 152.988L423.955 152.8C426.07 158.242 427.968 163.778 429.632 169.426L428.494 170.479ZM124.633 103.815L130.122 101.203L135.084 102.387L133.374 109.05L128.016 110.751L124.633 103.815ZM153.759 119.501V123.815H141.221L136.522 122.509L137.697 119.501L143.721 117.011H151.954V119.501H153.759ZM159.529 125.516V129.699L156.39 131.719L152.481 132.443C152.481 132.443 152.481 126.174 152.481 125.516H159.529ZM155.996 123.815V118.843L160.309 122.772L155.996 123.815ZM157.96 133.872V137.941L154.962 140.949H148.298L149.341 136.381L152.49 136.108L153.138 134.539L157.96 133.872ZM141.362 125.516H148.289L139.407 137.932L135.742 135.967L136.531 130.742L141.362 125.516ZM169.727 132.443V136.503H163.063L161.24 133.872V130.093H161.766L169.727 132.443ZM163.571 126.86L165.469 124.868L168.674 126.86L166.108 128.975L163.571 126.86ZM431.897 181.061L432.555 180.291C432.827 181.475 433.119 182.659 433.382 183.862L431.897 181.061Z" fill="black"/>
<path d="M35.5449 139.887V146.428C37.8287 141.09 40.3475 135.883 43.0449 130.78L35.5449 139.887Z" fill="black"/>
</g>
<defs>
<clipPath id="clip0_264_198">
<rect width="457" height="457" fill="white"/>
</clipPath>
</defs>
</svg>
