<svg width="61" height="61" viewBox="0 0 61 61" fill="none" xmlns="http://www.w3.org/2000/svg">
<g clip-path="url(#clip0_755_1114)">
<path d="M10.25 0.125V5.1875H50.75V0.125H10.25ZM50.75 5.1875V10.25H55.8125V5.1875H50.75ZM55.8125 10.25V50.75H60.875V10.25H55.8125ZM55.8125 50.75H50.75V55.8125H55.8125V50.75ZM50.75 55.8125H10.25V60.875H50.75V55.8125ZM10.25 55.8125V50.75H5.1875V55.8125H10.25ZM5.1875 50.75V10.25H0.125V50.75H5.1875ZM5.1875 10.25H10.25V5.1875H5.1875V10.25ZM43.1562 12.7812V17.8438H48.2188V12.7812H43.1562ZM22.9062 17.8438V22.9062H38.0938V17.8438H22.9062ZM38.0938 22.9062V38.0938H43.1562V22.9062H38.0938ZM38.0938 38.0938H22.9062V43.1562H38.0938V38.0938ZM22.9062 38.0938V22.9062H17.8438V38.0938H22.9062Z" fill="white"/>
</g>
<defs>
<clipPath id="clip0_755_1114">
<rect width="61" height="61" fill="white"/>
</clipPath>
</defs>
</svg>
