<svg width="47" height="47" viewBox="0 0 47 47" fill="none" xmlns="http://www.w3.org/2000/svg">
<g clip-path="url(#clip0_257_74)">
<path d="M23.3769 14.1443C17.6318 14.1443 12.8716 18.7218 12.8716 24.4236C12.8716 30.1255 17.5497 34.703 23.3769 34.703C29.204 34.703 33.8821 30.0452 33.8821 24.4236C33.8821 18.8021 29.1219 14.1443 23.3769 14.1443ZM23.3769 31.0089C19.6836 31.0089 16.6469 28.0375 16.6469 24.4236C16.6469 20.8098 19.6836 17.8384 23.3769 17.8384C27.0701 17.8384 30.1068 20.8098 30.1068 24.4236C30.1068 28.0375 27.0701 31.0089 23.3769 31.0089Z" fill="black"/>
<path d="M34.2834 16.2399C35.5979 16.2399 36.6635 15.1972 36.6635 13.9109C36.6635 12.6247 35.5979 11.582 34.2834 11.582C32.9689 11.582 31.9033 12.6247 31.9033 13.9109C31.9033 15.1972 32.9689 16.2399 34.2834 16.2399Z" fill="black"/>
<path d="M40.4478 7.87952C38.3139 5.71122 35.2772 4.58691 31.8302 4.58691H14.9232C7.78291 4.58691 3.02271 9.24475 3.02271 16.2315V32.6945C3.02271 36.1478 4.17172 39.1191 6.46975 41.2874C8.68571 43.3754 11.6403 44.4194 15.0053 44.4194H31.7481C35.2772 44.4194 38.2318 43.2951 40.3657 41.2874C42.5817 39.1994 43.7307 36.2281 43.7307 32.7748V16.2315C43.7307 12.8586 42.5817 9.96752 40.4478 7.87952ZM40.1195 32.7748C40.1195 35.2644 39.2167 37.2721 37.7394 38.6373C36.2621 40.0025 34.2103 40.7253 31.7481 40.7253H15.0053C12.5431 40.7253 10.4913 40.0025 9.014 38.6373C7.53669 37.1918 6.79804 35.1841 6.79804 32.6945V16.2315C6.79804 13.8223 7.53669 11.8146 9.014 10.3691C10.4092 9.00383 12.5431 8.28106 15.0053 8.28106H31.9122C34.3744 8.28106 36.4262 9.00383 37.9035 10.4494C39.2988 11.8949 40.1195 13.9026 40.1195 16.2315V32.7748Z" fill="black"/>
</g>
<defs>
<clipPath id="clip0_257_74">
<rect width="47" height="47" fill="white"/>
</clipPath>
</defs>
</svg>
