<svg width="108" height="58" viewBox="0 0 108 58" fill="none" xmlns="http://www.w3.org/2000/svg">
<g clip-path="url(#clip0_748_3)">
<path d="M65.0322 56.9629H42.8609C42.3936 56.9629 42.398 56.9629 42.5303 56.5211C42.8265 55.5297 43.1995 54.5639 43.5142 53.5796C44.0009 52.0563 44.5203 50.5453 45.0272 49.029C45.3517 48.0571 45.67 47.0851 46.0121 46.1185C46.14 45.7553 46.2369 45.3789 46.3727 45.0148C46.4318 44.8558 46.505 44.816 46.6505 44.8293C46.7148 44.8355 46.7801 44.8293 46.8453 44.8293C60.2992 44.8293 73.7522 44.8523 87.2061 44.8098C89.7127 44.8019 91.8791 43.8476 93.2245 41.5882C94.9439 38.6927 93.8268 35.0787 90.7787 33.4494C89.413 32.7195 87.9343 32.4721 86.4099 32.4721C74.6215 32.4668 62.8335 32.4668 51.0457 32.4721C50.5767 32.4721 50.5643 32.4721 50.708 32.04C51.066 30.9797 51.4681 29.9282 51.7925 28.8591C52.1549 27.6636 52.5958 26.4963 52.9767 25.3079C53.3849 24.0364 53.8125 22.7719 54.2304 21.504C54.3186 21.2389 54.5073 21.2 54.7648 21.2C65.5374 21.2065 76.3106 21.2065 87.0844 21.2C88.184 21.2047 89.2621 20.8951 90.1924 20.3076C92.7326 18.7171 92.6188 15.3895 89.9746 13.9041C89.0992 13.4059 88.1096 13.1447 87.1029 13.146C77.2278 13.146 67.3528 13.146 57.4777 13.146C57.193 13.146 56.9893 13.2114 57.1612 12.7519C57.6285 11.5025 58.0129 10.2222 58.4362 8.95243C58.8823 7.61642 59.3317 6.28071 59.7843 4.9453C60.174 3.78689 60.5963 2.63733 60.9384 1.46479C61.0663 1.02299 61.2911 1.00708 61.6561 1.00708C69.9053 1.01592 78.1545 1.03359 86.4028 0.999132C88.2994 0.992063 90.1474 1.25537 91.9769 1.67155C94.3575 2.21231 96.5785 3.17368 98.5156 4.6864C102.645 7.90536 104.762 12.1219 104.457 17.3926C104.259 20.8386 102.761 23.7139 100.11 25.9556C99.6486 26.3461 99.6486 26.3399 100.11 26.673C103.293 28.9704 105.532 31.964 106.463 35.7998C107.914 41.7729 106.426 46.995 102.093 51.3405C99.0949 54.3448 95.3433 55.8469 91.2213 56.5352C90.143 56.712 89.0515 56.7614 87.967 56.8772C86.9803 56.9823 86.0008 56.9549 85.0186 56.9567C78.3553 56.9673 71.6931 56.9694 65.0322 56.9629Z" fill="white"/>
<path d="M19.3178 10.1576C20.4828 13.9606 21.6478 17.7648 22.8128 21.5702C24.1283 25.8551 25.4462 30.1405 26.7664 34.4266C27.1931 35.8129 27.6225 37.1984 28.1277 38.5936C28.2715 38.1457 28.4196 37.6994 28.558 37.2506C30.593 30.6259 32.6273 24.0033 34.6611 17.3828C35.169 15.7334 35.678 14.082 36.1882 12.4284C36.2525 12.2743 36.3003 12.1137 36.3311 11.9495C37.4197 8.40805 38.5036 4.8657 39.5828 1.32246C39.6586 1.0724 39.7706 1.00789 40.0166 1.00789C44.6332 1.01496 49.2495 1.01496 53.8655 1.00789C54.2252 1.00789 54.2181 1.10067 54.1212 1.39756C53.0484 4.57146 51.983 7.74889 50.925 10.9299C50.8527 11.1428 50.783 11.3566 50.7081 11.5687L46.8692 23.0484C46.803 23.2022 46.781 23.3701 46.7158 23.5238C46.0104 25.6056 45.3077 27.6871 44.6076 29.7682C42.7549 35.2907 40.9033 40.8138 39.0529 46.3375C37.9061 49.7653 36.7625 53.194 35.6222 56.6235C35.534 56.9027 35.4 56.9991 35.1002 56.9991C30.4413 56.9885 25.783 56.9885 21.1253 56.9991C20.7893 56.9991 20.6544 56.8886 20.5522 56.5811C18.6559 50.8819 16.7526 45.1847 14.8423 39.4896C13.0789 34.2251 11.3125 28.9618 9.54324 23.6997C7.97616 19.0278 6.4132 14.3547 4.85436 9.68044C3.92152 6.89356 2.9828 4.10875 2.0382 1.32599C1.93857 1.03264 2.0382 1.00966 2.28596 1.00966C6.91842 1.01378 11.5509 1.01113 16.1833 1.00171C16.5245 1.00171 16.5598 1.18726 16.6242 1.40728C17.4712 4.16706 18.3182 6.92655 19.1652 9.68574C19.2349 9.83772 19.2587 10.003 19.3178 10.1576Z" fill="white"/>
<path d="M50.71 11.5687C50.7246 11.3403 50.7995 11.1199 50.9269 10.9299C50.9336 11.1621 50.8566 11.3889 50.71 11.5687Z" fill="#A1A1A1"/>
<path d="M19.3172 10.1576C19.2153 10.022 19.1624 9.85556 19.1673 9.68579C19.3101 9.81833 19.3322 9.98003 19.3172 10.1576Z" fill="#A2A2A2"/>
<path d="M36.3308 11.9496C36.3506 12.035 36.3479 12.1241 36.3228 12.2081C36.2978 12.292 36.2513 12.368 36.1879 12.4285C36.1822 12.2575 36.2323 12.0893 36.3308 11.9496Z" fill="#535353"/>
<path d="M46.7132 23.5239C46.7061 23.4384 46.716 23.3524 46.7423 23.2708C46.7686 23.1892 46.8109 23.1136 46.8666 23.0485C46.877 23.1341 46.8686 23.221 46.8421 23.3031C46.8156 23.3852 46.7716 23.4605 46.7132 23.5239Z" fill="#A1A1A1"/>
</g>
<defs>
<clipPath id="clip0_748_3">
<rect width="105" height="56" fill="white" transform="translate(2 1)"/>
</clipPath>
</defs>
</svg>
