<svg width="108" height="58" viewBox="0 0 108 58" fill="none" xmlns="http://www.w3.org/2000/svg">
<g clip-path="url(#clip0_260_9)">
<path d="M65.0319 56.9629H42.8607C42.3934 56.9629 42.3978 56.9629 42.53 56.5211C42.8263 55.5297 43.1992 54.5639 43.514 53.5796C44.0007 52.0563 44.52 50.5453 45.027 49.029C45.3515 48.0571 45.6698 47.0851 46.0119 46.1185C46.1397 45.7553 46.2367 45.3789 46.3725 45.0148C46.4316 44.8558 46.5047 44.816 46.6502 44.8293C46.7146 44.8355 46.7798 44.8293 46.8451 44.8293C60.2989 44.8293 73.7519 44.8523 87.2058 44.8098C89.7125 44.8019 91.8788 43.8476 93.2243 41.5882C94.9436 38.6927 93.8265 35.0787 90.7785 33.4494C89.4127 32.7195 87.9341 32.4721 86.4096 32.4721C74.6213 32.4668 62.8332 32.4668 51.0455 32.4721C50.5764 32.4721 50.5641 32.4721 50.7078 32.04C51.0658 30.9797 51.4678 29.9282 51.7923 28.8591C52.1547 27.6636 52.5955 26.4963 52.9764 25.3079C53.3846 24.0364 53.8123 22.7719 54.2302 21.504C54.3184 21.2389 54.507 21.2 54.7645 21.2C65.5371 21.2065 76.3103 21.2065 87.0841 21.2C88.1837 21.2047 89.2619 20.8951 90.1921 20.3076C92.7323 18.7171 92.6186 15.3895 89.9744 13.9041C89.099 13.4059 88.1093 13.1447 87.1027 13.146C77.2276 13.146 67.3526 13.146 57.4775 13.146C57.1927 13.146 56.989 13.2114 57.161 12.7519C57.6283 11.5025 58.0127 10.2222 58.4359 8.95243C58.8821 7.61642 59.3314 6.28071 59.784 4.9453C60.1737 3.78689 60.5961 2.63733 60.9382 1.46479C61.066 1.02299 61.2909 1.00708 61.6559 1.00708C69.9051 1.01592 78.1543 1.03359 86.4026 0.999132C88.2991 0.992063 90.1472 1.25537 91.9767 1.67155C94.3573 2.21231 96.5783 3.17368 98.5154 4.6864C102.644 7.90536 104.761 12.1219 104.457 17.3926C104.259 20.8386 102.761 23.7139 100.11 25.9556C99.6484 26.3461 99.6484 26.3399 100.11 26.673C103.292 28.9704 105.532 31.964 106.463 35.7998C107.913 41.7729 106.426 46.995 102.092 51.3405C99.0947 54.3448 95.343 55.8469 91.2211 56.5352C90.1428 56.712 89.0512 56.7614 87.9667 56.8772C86.9801 56.9823 86.0005 56.9549 85.0183 56.9567C78.355 56.9673 71.6929 56.9694 65.0319 56.9629Z" fill="black"/>
<path d="M19.3175 10.1576C20.4826 13.9606 21.6476 17.7648 22.8126 21.5702C24.1281 25.8551 25.4459 30.1405 26.7661 34.4266C27.1929 35.8129 27.6223 37.1984 28.1275 38.5936C28.2712 38.1457 28.4193 37.6994 28.5578 37.2506C30.5927 30.6259 32.6271 24.0033 34.6609 17.3828C35.1688 15.7334 35.6778 14.082 36.188 12.4284C36.2522 12.2743 36.3001 12.1137 36.3308 11.9495C37.4194 8.40805 38.5033 4.8657 39.5825 1.32246C39.6584 1.0724 39.7704 1.00789 40.0163 1.00789C44.6329 1.01496 49.2492 1.01496 53.8652 1.00789C54.225 1.00789 54.2179 1.10067 54.1209 1.39756C53.0482 4.57146 51.9828 7.74889 50.9247 10.9299C50.8524 11.1428 50.7828 11.3566 50.7078 11.5687L46.8689 23.0484C46.8028 23.2022 46.7808 23.3701 46.7155 23.5238C46.0101 25.6056 45.3074 27.6871 44.6074 29.7682C42.7546 35.2907 40.903 40.8138 39.0526 46.3375C37.9058 49.7653 36.7623 53.194 35.6219 56.6235C35.5338 56.9027 35.3998 56.9991 35.1 56.9991C30.4411 56.9885 25.7828 56.9885 21.125 56.9991C20.7891 56.9991 20.6542 56.8886 20.5519 56.5811C18.6557 50.8819 16.7524 45.1847 14.842 39.4896C13.0786 34.2251 11.3123 28.9618 9.543 23.6997C7.97592 19.0278 6.41296 14.3547 4.85411 9.68044C3.92127 6.89356 2.98255 4.10875 2.03796 1.32599C1.93833 1.03264 2.03796 1.00966 2.28572 1.00966C6.91817 1.01378 11.5506 1.01113 16.1831 1.00171C16.5243 1.00171 16.5596 1.18726 16.6239 1.40728C17.471 4.16706 18.318 6.92655 19.165 9.68574C19.2347 9.83772 19.2585 10.003 19.3175 10.1576Z" fill="black"/>
<path d="M50.7095 11.5687C50.7241 11.3403 50.799 11.1199 50.9264 10.9299C50.9331 11.1621 50.8561 11.3889 50.7095 11.5687Z" fill="#A1A1A1"/>
<path d="M19.3174 10.1576C19.2155 10.022 19.1626 9.85556 19.1675 9.68579C19.3104 9.81833 19.3324 9.98003 19.3174 10.1576Z" fill="#A2A2A2"/>
<path d="M36.3308 11.9496C36.3506 12.035 36.3479 12.1241 36.3228 12.2081C36.2978 12.292 36.2513 12.368 36.1879 12.4285C36.1822 12.2575 36.2323 12.0893 36.3308 11.9496Z" fill="#535353"/>
<path d="M46.7129 23.5239C46.7058 23.4384 46.7157 23.3524 46.7421 23.2708C46.7684 23.1892 46.8106 23.1136 46.8663 23.0485C46.8767 23.1341 46.8684 23.221 46.8419 23.3031C46.8154 23.3852 46.7714 23.4605 46.7129 23.5239Z" fill="#A1A1A1"/>
</g>
<defs>
<clipPath id="clip0_260_9">
<rect width="105" height="56" fill="white" transform="translate(2 1)"/>
</clipPath>
</defs>
</svg>
