<svg width="458" height="457" viewBox="0 0 458 457" fill="none" xmlns="http://www.w3.org/2000/svg">
<g opacity="0.35">
<path d="M252.928 410.755C304.227 402.77 345.913 378.405 376.815 336.583C400.914 303.964 412.678 266.964 412.162 226.444C410.956 130.737 338.196 56.8667 252.832 46.0509C252.832 30.9302 252.832 15.7664 252.832 0.581177C353.071 7.99623 456.399 97.3859 457.982 225.691C459.564 353.943 358.13 447.831 252.939 456.494C252.928 441.32 252.928 426.188 252.928 410.755Z" fill="black"/>
<path d="M182.73 125.281C228.98 159.978 274.369 194.018 320.318 228.478C274.359 262.949 228.905 297.033 182.73 331.665C182.73 262.519 182.73 194.503 182.73 125.281Z" fill="black"/>
<path d="M50.6309 83.4598C61.7495 94.8676 72.2438 105.63 82.8027 116.467C56.0342 159.558 55.4637 160.936 46.0457 205.254C30.977 205.254 15.8221 205.254 0.0107422 205.254C4.91884 159.461 21.7959 119.19 50.6309 83.4598Z" fill="black"/>
<path d="M115.512 81.9208C105.61 72.2026 94.879 61.6773 83.5559 50.5709C119.226 21.7932 159.481 4.9075 205.311 0C205.311 15.7341 205.311 30.7364 205.311 44.6625C189.349 49.4732 173.344 52.9493 158.458 59.1483C143.54 65.3364 129.731 74.2367 115.512 81.9208Z" fill="black"/>
<path d="M46.304 251.767C50.7062 284.592 62.998 314.177 82.8457 339.909C71.8886 350.875 61.1898 361.594 50.0497 372.754C21.8066 337.756 4.98344 297.549 0 251.767C15.6392 251.767 30.7617 251.767 46.304 251.767Z" fill="black"/>
<path d="M205.344 457C159.556 451.931 119.398 435.164 84.2449 406.989C95.2666 396.216 106.095 385.626 117.396 374.584C142.529 393.773 172.214 406.268 205.344 410.68C205.344 426.091 205.344 441.094 205.344 457Z" fill="black"/>
</g>
</svg>
