<svg width="216" height="200" viewBox="0 0 216 200" fill="none" xmlns="http://www.w3.org/2000/svg">
<g clip-path="url(#clip0_934_7)">
<path d="M107.929 0C132.103 0 156.241 0 180.415 0C182.157 0 182.761 0.320808 182.69 2.20995C182.69 6.52291 182.69 10.8359 182.69 15.1132C182.69 16.3964 183.045 16.7172 184.29 16.7172C188.485 16.7172 192.715 16.7172 196.945 16.7172C199.043 16.7172 199.434 17.3944 199.363 19.2836C199.363 23.4183 199.363 27.5887 199.363 31.7234C199.363 33.0779 199.647 33.47 201.034 33.4343C205.406 33.4343 209.779 33.4343 214.116 33.4343C215.716 33.4343 216 33.9333 216 35.3948C216 78.453 216 121.499 216 164.534C216 166.102 215.751 166.673 214.009 166.601C209.672 166.601 205.3 166.601 200.927 166.601C199.683 166.601 199.327 166.958 199.363 168.205C199.363 172.411 199.363 176.653 199.363 180.895C199.363 182.998 198.723 183.354 196.839 183.318C192.679 183.318 188.556 183.318 184.396 183.318C183.081 183.318 182.654 183.604 182.69 184.994C182.69 189.307 182.69 193.62 182.69 197.897C182.69 199.679 182.157 200 180.521 200H51.5115C46.1435 200 40.8466 200 35.372 200C33.8078 200 33.239 199.75 33.3101 198.004C33.3101 193.655 33.3101 189.271 33.3101 184.887C33.3101 183.639 32.9546 183.283 31.7103 183.318C27.5155 183.318 23.2851 183.318 19.0546 183.318C16.9572 183.318 16.5662 182.677 16.6373 180.788C16.6373 176.617 16.6373 172.483 16.6373 168.312C16.6373 166.993 16.3529 166.566 14.9664 166.601C10.5938 166.601 6.2212 166.601 1.88414 166.601C0.2844 166.601 0 166.138 0 164.641C0 121.63 0 78.5956 0 35.5373C0 33.969 0.248849 33.3987 1.99078 33.4343C6.32785 33.4343 10.7005 33.4343 15.0731 33.4343C16.3173 33.4343 16.6728 33.0779 16.6373 31.866C16.6373 27.6956 16.6373 23.5252 16.6373 19.3905C16.6373 17.038 17.3483 16.6459 19.4101 16.7172C23.4984 16.8954 27.551 16.7172 31.6392 16.7172C32.9546 16.7172 33.3812 16.3964 33.3456 15.0062C33.3456 10.7289 33.3456 6.41598 33.3456 2.10303C33.3456 0.320812 33.8789 0 35.5142 0C59.6169 0.0356443 83.7907 0 107.929 0Z" fill="#272727"/>
<path d="M48.8804 163.517C48.8804 145.965 48.8804 128.824 48.8804 111.113C44.4758 111.113 40.5887 111.113 36.1709 111.113C36.1709 106.536 36.1709 102.53 36.1709 97.9262C40.1244 97.9262 44.0115 97.9262 48.6946 97.9262C48.6946 93.336 48.6946 89.2764 48.6946 84.6861C53.3645 84.6861 57.2516 84.6861 61.9348 84.6861C61.9348 80.0958 61.9348 76.0362 61.9348 71.446C66.6046 71.446 70.4918 71.446 75.1749 71.446C75.1749 66.8557 75.1749 62.8094 75.1749 58.2058C79.8448 58.2058 83.7319 58.2058 88.415 58.2058C88.415 53.6156 88.415 49.5692 88.415 44.9657C93.0849 44.9657 96.972 44.9657 101.655 44.9657C101.655 40.3754 101.655 36.3291 101.655 31.8848C106.325 31.8848 110.199 31.8848 114.723 31.8848C114.922 35.8382 115.134 39.9111 115.36 44.5014C119.539 44.5014 123.439 44.5014 127.963 44.5014C128.188 49.0784 128.388 53.1512 128.613 57.5956C132.792 57.5956 136.679 57.5956 141.389 57.5956C141.389 53.7084 141.389 49.6621 141.389 45.178C146.059 45.178 149.933 45.178 154.616 45.178C154.616 57.8874 154.616 70.7694 154.616 84.2218C159.272 84.2218 163.159 84.2218 167.843 84.2218C167.843 88.812 167.843 92.8584 167.843 97.7007C172.672 97.7007 176.718 97.7007 181.069 97.7007C181.069 102.357 181.069 106.231 181.069 110.636C176.904 110.636 173.003 110.636 168.333 110.636C168.333 128.466 168.333 145.792 168.333 163.517C128.348 163.517 89.1447 163.517 48.8804 163.517ZM128.387 150.356C137.687 150.356 146.152 150.356 154.536 150.356C154.536 132.526 154.536 115.213 154.536 97.3558C150.145 97.3558 146.231 97.3558 142.052 97.3558C141.827 92.7655 141.641 88.7059 141.415 84.1289C136.905 84.1289 133.018 84.1289 128.812 84.1289C128.586 79.5386 128.374 75.479 128.149 70.902C123.678 70.902 119.777 70.902 115.559 70.902C115.32 66.3118 115.108 62.2522 114.895 58.2987C110.252 58.2987 106.192 58.2987 101.589 58.2987C101.589 62.6767 101.589 66.5638 101.589 71.2337C96.9986 71.2337 92.939 71.2337 88.362 71.2337C88.362 75.9168 88.362 79.804 88.362 84.4606C83.7584 84.4606 79.7121 84.4606 75.1351 84.4606C75.1351 89.1437 75.1351 93.0176 75.1351 97.2894C70.5448 97.515 66.4985 97.7007 62.492 97.8864C62.492 115.796 62.492 133.096 62.492 150.303C71.4602 150.303 79.9244 150.303 88.9324 150.303C88.9324 137.036 88.9324 124.314 88.9324 111.617C102.358 111.617 115.214 111.617 128.387 111.617C128.387 124.738 128.387 137.288 128.387 150.356ZM114.922 124.672C110.159 124.672 106.139 124.672 102.305 124.672C102.305 133.64 102.305 142.064 102.305 150.303C106.856 150.303 110.875 150.303 114.922 150.303C114.922 141.481 114.922 133.216 114.922 124.672Z" fill="white"/>
</g>
<defs>
<clipPath id="clip0_934_7">
<rect width="216" height="200" fill="white"/>
</clipPath>
</defs>
</svg>
