<svg width="216" height="200" viewBox="0 0 216 200" fill="none" xmlns="http://www.w3.org/2000/svg">
<path d="M107.766 0.0356451C131.895 0.0356451 155.989 0.0356451 180.083 0.0356451C181.716 0.0356451 182.354 0.356441 182.283 2.13865C182.283 6.45161 182.283 10.7646 182.283 15.0419C182.283 16.3964 182.638 16.7885 183.987 16.7528C188.351 16.7528 192.716 16.7528 197.045 16.7528C198.642 16.7528 198.961 17.2162 198.926 18.7132C198.926 22.9549 198.926 27.1609 198.926 31.4026C198.926 32.971 199.209 33.5413 200.913 33.47C205.135 33.47 209.322 33.47 213.545 33.47C215.177 33.47 215.568 33.8621 215.568 35.5017C215.568 51.399 215.568 67.2964 215.568 83.1937C215.568 110.248 215.568 137.302 215.568 164.391C215.568 166.245 215.106 166.673 213.297 166.601C209.322 166.601 205.313 166.601 201.338 166.601C199.209 166.601 198.855 167.243 198.926 169.132C198.926 173.267 198.926 177.437 198.926 181.608C198.926 182.926 198.642 183.354 197.258 183.318C192.822 183.318 188.387 183.318 183.951 183.318C182.567 183.318 182.283 183.711 182.319 185.029C182.319 189.414 182.319 193.798 182.319 198.147C182.319 199.501 182.106 200 180.58 200C132.061 200 83.5657 200 35.0941 200C33.4618 200 33.2489 199.43 33.2489 198.004C33.2489 193.62 33.2489 189.235 33.2489 184.851C33.2489 183.604 32.9295 183.247 31.6876 183.283C27.323 183.283 22.9584 183.283 18.6293 183.283C16.8906 183.283 16.6067 182.784 16.6422 181.215C16.6422 176.974 16.6422 172.732 16.6422 168.526C16.6422 167.029 16.3583 166.53 14.7615 166.566C10.3969 166.566 6.03236 166.566 1.70326 166.566C0.319371 166.566 0 166.209 0 164.855C0 121.606 0 78.358 0 35.1096C0 33.7195 0.39034 33.3987 1.70326 33.4343C5.85494 33.4343 10.0066 33.4343 14.1228 33.4343C16.3228 33.4343 16.7132 32.8284 16.6422 30.7967C16.6422 26.7332 16.6422 22.6341 16.6422 18.535C16.6422 17.1449 16.9615 16.6815 18.4164 16.7172C22.781 16.7172 27.1456 16.7172 31.4747 16.7172C32.965 16.7172 33.2844 16.2894 33.2489 14.8993C33.2489 10.8002 33.2489 6.70112 33.2489 2.63768C33.2489 0.605952 33.6037 0 35.7683 0C59.7557 0.0712885 83.7787 0.0356451 107.766 0.0356451Z" fill="#970006"/>
<path d="M107.767 166.388H51.9144C50.2821 166.388 49.6789 166.103 49.7499 164.285C49.7499 160.007 49.7499 155.694 49.7499 151.381C49.7499 150.027 49.395 149.671 48.0466 149.706C43.7175 149.706 39.3529 149.706 34.9883 149.706C33.3915 149.706 33.0722 149.207 33.1077 147.746C33.1077 143.504 33.1077 139.262 33.1077 135.056C33.1077 133.488 32.8593 132.918 31.156 132.953C26.7915 132.953 22.4269 132.953 18.0623 132.953C16.8203 132.953 16.501 132.597 16.501 131.349C16.501 110.2 16.501 89.0515 16.501 67.9026C16.501 66.6194 16.8913 66.3342 18.0978 66.3342C22.3204 66.3342 26.5076 66.3342 30.7302 66.3342C32.5399 66.3342 33.2496 66.0847 33.1432 64.0173C32.9657 59.8113 33.1432 55.5697 33.1432 51.328C33.1432 50.0092 33.4625 49.6171 34.8464 49.6171C39.2465 49.6171 43.682 49.6171 48.1176 49.6171C49.5015 49.6171 49.8208 49.225 49.7854 47.9061C49.7854 43.5219 49.7854 39.1733 49.7854 34.789C49.7854 33.4346 50.0337 32.9355 51.5241 32.9355C88.9956 32.9355 126.467 32.9355 163.939 32.9355C165.571 32.9355 165.784 33.4702 165.784 34.9316C165.784 39.2802 165.784 43.6645 165.784 48.0487C165.784 49.2963 166.103 49.6527 167.345 49.6171C171.71 49.6171 176.074 49.6171 180.439 49.6171C182.142 49.6171 182.461 50.1161 182.391 51.6844C182.391 55.9261 182.391 60.1678 182.391 64.3738C182.391 65.8708 182.674 66.3699 184.271 66.3342C188.636 66.3342 193 66.3342 197.329 66.3342C198.713 66.3342 199.033 66.6907 199.033 68.0452C199.033 89.099 199.033 110.177 199.033 131.278C199.033 132.668 198.642 132.953 197.329 132.953C193.107 132.953 188.884 132.953 184.697 132.953C182.958 132.953 182.32 133.239 182.391 135.128C182.391 139.441 182.391 143.754 182.391 148.067C182.391 149.278 182.071 149.671 180.829 149.635C176.394 149.635 171.994 149.635 167.558 149.635C166.068 149.635 165.748 150.098 165.784 151.488C165.784 155.552 165.784 159.651 165.784 163.75C165.784 165.782 165.429 166.388 163.264 166.388C144.706 166.352 126.183 166.388 107.767 166.388Z" fill="#FEFEFE"/>
<path d="M83.1738 99.9105C83.1738 84.0132 83.1738 68.1159 83.1738 52.2185C83.1738 50.4719 83.4932 49.866 85.4093 49.9016C94.8718 49.9016 104.453 49.9016 114.152 49.9016C115.819 49.9016 116.174 50.4006 116.139 51.969C116.139 56.1394 116.139 60.2741 116.139 64.4445C116.139 66.0485 116.387 66.6901 118.197 66.6188C122.491 66.6188 126.784 66.6188 131.042 66.6188C132.391 66.6188 132.781 66.9039 132.746 68.2941C132.746 72.7496 132.746 77.2051 132.746 81.6607C132.746 83.0152 133.136 83.336 134.449 83.336C138.671 83.336 142.894 83.336 147.081 83.336C148.82 83.336 149.423 83.5855 149.423 85.5103C149.423 95.2055 149.423 104.901 149.423 114.596C149.423 116.164 149.175 116.735 147.436 116.663C143.107 116.663 138.742 116.663 134.378 116.663C133.171 116.663 132.781 116.984 132.816 118.232C132.816 122.687 132.816 127.143 132.816 131.598C132.816 133.06 132.391 133.381 131.007 133.381C126.962 133.381 122.881 133.381 118.8 133.381C116.813 133.381 116.068 133.701 116.174 135.947C116.387 140.082 116.174 144.252 116.174 148.387C116.174 149.706 115.89 150.133 114.507 150.098C104.713 150.098 94.8837 150.098 85.09 150.098C83.4932 150.098 83.2448 149.563 83.2448 148.102C83.1975 131.943 83.1738 115.879 83.1738 99.9105Z" fill="#E01820"/>
</svg>
