<svg width="284" height="266" viewBox="0 0 284 266" fill="none" xmlns="http://www.w3.org/2000/svg">
<g clip-path="url(#clip0_751_593)">
<path d="M224.704 156.114C237.978 156.114 251.253 156.114 264.546 156.114C265.683 156.114 265.938 156.428 265.899 157.507C265.899 159.783 265.899 162.079 265.899 164.374C265.899 165.1 266.076 165.335 266.821 165.316C269.154 165.316 271.487 165.316 273.801 165.316C274.781 165.316 275.114 165.492 275.075 166.532C275.075 168.867 275.075 171.182 275.075 173.517C275.075 174.322 275.33 174.518 276.095 174.498C278.389 174.498 280.663 174.498 282.957 174.498C283.997 174.498 284.271 174.734 284.271 175.813C284.271 191.175 284.271 206.557 284.271 221.94C284.271 230.121 284.271 238.322 284.271 246.504C284.271 247.603 283.957 247.838 282.938 247.799C280.624 247.799 278.291 247.799 275.958 247.799C275.291 247.799 275.075 247.995 275.075 248.682C275.075 251.036 275.075 253.41 275.075 255.784C275.075 256.687 274.918 257.04 273.918 257.001C271.585 257.001 269.272 257.001 266.938 257.001C266.076 257.001 265.86 257.256 265.88 258.08C265.88 260.336 265.88 262.593 265.88 264.829C265.88 265.928 265.625 266.222 264.507 266.222C238.822 266.222 213.143 266.222 187.47 266.222C186.431 266.222 185.392 266.222 184.353 266.222C183.627 266.222 183.471 265.987 183.49 265.32C183.49 262.867 183.49 260.434 183.49 257.982C183.49 257.236 183.314 257.02 182.549 257.04C180.235 257.04 177.902 257.04 175.569 257.04C174.608 257.04 174.255 256.864 174.294 255.804C174.294 253.489 174.294 251.154 174.294 248.819C174.294 248.015 174.04 247.819 173.275 247.838C170.981 247.838 168.687 247.838 166.412 247.838C165.373 247.838 165.099 247.622 165.099 246.543C165.099 231.161 165.099 215.779 165.099 200.397C165.099 192.215 165.099 184.033 165.099 175.832C165.099 174.734 165.393 174.518 166.432 174.537C168.746 174.537 171.079 174.537 173.412 174.537C174.079 174.537 174.294 174.361 174.275 173.674C174.275 171.3 174.275 168.926 174.275 166.552C174.275 165.669 174.432 165.316 175.432 165.335C177.745 165.434 180.079 165.335 182.412 165.335C183.274 165.335 183.471 165.08 183.451 164.256C183.451 161.961 183.451 159.665 183.451 157.389C183.451 156.389 183.686 156.134 184.686 156.134C198.058 156.134 211.372 156.114 224.704 156.114Z" fill="#FE7E27"/>
<path d="M59.5274 156.114C72.8603 156.114 86.1735 156.114 99.5064 156.114C100.467 156.114 100.8 156.291 100.761 157.33C100.761 159.705 100.761 162.079 100.761 164.433C100.761 165.139 100.957 165.316 101.644 165.316C103.957 165.316 106.29 165.316 108.624 165.316C109.781 165.316 109.996 165.689 109.957 166.729C109.957 169.004 109.957 171.3 109.957 173.576C109.957 174.322 110.114 174.537 110.879 174.518C113.29 174.518 115.702 174.518 118.094 174.518C118.976 174.518 119.133 174.792 119.133 175.597C119.133 199.298 119.133 222.993 119.133 246.681C119.133 247.544 118.996 247.858 118.035 247.819C115.643 247.819 113.231 247.819 110.82 247.819C110.134 247.819 109.937 248.015 109.957 248.702C109.957 251.017 109.957 253.351 109.957 255.686C109.957 256.844 109.604 257.04 108.565 257.02C106.271 257.02 103.996 257.02 101.702 257.02C100.977 257.02 100.742 257.177 100.761 257.943C100.761 260.317 100.761 262.691 100.761 265.045C100.761 266.026 100.467 266.203 99.5652 266.203H28.4108C25.4501 266.203 22.5286 266.203 19.5091 266.203C18.6464 266.203 18.3327 266.065 18.3719 265.104C18.3719 262.71 18.3719 260.297 18.3719 257.884C18.3719 257.197 18.1759 257.001 17.4896 257.02C15.176 257.02 12.8427 257.02 10.5094 257.02C9.35262 257.02 9.13694 256.667 9.17616 255.627C9.17616 253.332 9.17616 251.056 9.17616 248.76C9.17616 248.034 9.0193 247.799 8.25462 247.819C5.84294 247.819 3.43126 247.819 1.03918 247.819C0.156859 247.819 0 247.564 0 246.74C0 223.065 0 199.376 0 175.675C0 174.812 0.137251 174.498 1.098 174.518C3.49008 174.518 5.90176 174.518 8.31344 174.518C8.99969 174.518 9.19576 174.322 9.17616 173.654C9.17616 171.359 9.17616 169.063 9.17616 166.787C9.17616 165.492 9.5683 165.277 10.7055 165.316C12.9603 165.414 15.1956 165.316 17.4504 165.316C18.1759 165.316 18.4111 165.139 18.3915 164.374C18.3915 162.02 18.3915 159.646 18.3915 157.272C18.3915 156.291 18.6856 156.114 19.5876 156.114C32.8812 156.134 46.2141 156.114 59.5274 156.114Z" fill="#720898"/>
<path d="M59.5862 110.089C46.2925 110.089 33.0119 110.089 19.7444 110.089C18.6072 110.089 18.3523 109.736 18.3915 108.676C18.3915 106.4 18.3915 104.105 18.3915 101.829C18.3915 101.063 18.1562 100.867 17.4308 100.887C15.0191 100.887 12.6074 100.887 10.2153 100.887C9.41144 100.887 9.19576 100.651 9.19576 99.8666C9.19576 97.4533 9.19576 95.0596 9.19576 92.6464C9.19576 91.9008 8.99969 91.6654 8.25462 91.685C5.98019 91.685 3.68615 91.685 1.39211 91.685C0.313713 91.685 0 91.4495 0 90.3312C0 68.8013 0 47.278 0 25.7613C0 23.6815 0 21.6018 0 19.5024C0 18.5607 0.294106 18.3841 1.15682 18.4037C3.49008 18.4037 5.82333 18.4037 8.13698 18.4037C9.0193 18.4037 9.21537 18.1486 9.19576 17.3246C9.19576 14.9506 9.19576 12.5765 9.19576 10.2025C9.19576 9.41767 9.43105 9.18223 10.2153 9.20185C12.627 9.20185 15.0387 9.20185 17.4308 9.20185C18.1758 9.20185 18.4111 9.00565 18.3915 8.26008C18.3915 5.96453 18.3915 3.66897 18.3915 1.39303C18.3915 0.313923 18.6268 0 19.7444 0C38.3712 0 56.9915 0 75.6053 0C83.5462 0 91.4871 0 99.428 0C100.585 0 100.82 0.333543 100.781 1.39303C100.781 3.64935 100.781 5.90567 100.781 8.14236C100.781 9.00565 101.036 9.22147 101.859 9.20185C104.232 9.20185 106.604 9.20185 108.957 9.20185C109.761 9.20185 109.977 9.43729 109.977 10.2221C109.977 12.6354 109.977 15.029 109.977 17.4423C109.977 18.1879 110.173 18.4037 110.918 18.4037C113.192 18.4037 115.486 18.4037 117.78 18.4037C118.859 18.4037 119.172 18.6391 119.172 19.7575C119.172 41.2089 119.172 62.6472 119.172 84.0724C119.172 86.2502 119.172 88.4084 119.172 90.5863C119.172 91.528 118.878 91.7046 118.016 91.685C115.682 91.685 113.349 91.685 111.035 91.685C110.153 91.685 109.957 91.94 109.977 92.7641C109.977 95.1381 109.977 97.5122 109.977 99.8862C109.977 100.671 109.741 100.887 108.957 100.887C106.545 100.887 104.134 100.887 101.742 100.887C100.997 100.887 100.761 101.083 100.781 101.829C100.781 104.163 100.781 106.479 100.781 108.813C100.781 109.794 100.565 110.089 99.5456 110.089C86.2389 110.076 72.9191 110.076 59.5862 110.089Z" fill="#656EEC"/>
<path d="M224.646 0.0196206C237.979 0.0196206 251.292 0.0196206 264.605 0.0196206C265.507 0.0196206 265.86 0.1962 265.821 1.17721C265.821 3.55125 265.821 5.92529 265.821 8.27971C265.821 9.02527 266.017 9.24109 266.762 9.22147C269.174 9.22147 271.585 9.22147 273.977 9.22147C274.86 9.22147 275.036 9.47653 275.016 10.3006C275.016 12.6354 275.016 14.9506 275.016 17.2854C275.016 18.1486 275.173 18.4626 276.114 18.4233C278.448 18.4233 280.761 18.4233 283.095 18.4233C283.997 18.4233 284.212 18.6391 284.212 19.5417C284.212 28.2923 284.212 37.0429 284.212 45.7934C284.212 60.6851 284.212 75.5768 284.212 90.4882C284.212 91.5084 283.957 91.7438 282.957 91.7046C280.761 91.7046 278.546 91.7046 276.35 91.7046C275.173 91.7046 274.977 92.0578 275.016 93.0976C275.016 95.3736 275.016 97.6691 275.016 99.9647C275.016 100.691 274.86 100.926 274.095 100.906C271.644 100.906 269.193 100.906 266.742 100.906C265.978 100.906 265.821 101.122 265.84 101.848C265.84 104.262 265.84 106.675 265.84 109.068C265.84 109.814 265.723 110.089 264.88 110.089C238.07 110.089 211.274 110.089 184.49 110.089C183.588 110.089 183.471 109.775 183.471 108.99C183.471 106.577 183.471 104.163 183.471 101.75C183.471 101.063 183.294 100.867 182.608 100.887C180.196 100.887 177.784 100.887 175.392 100.887C174.432 100.887 174.275 100.612 174.294 99.7489C174.294 97.4141 174.294 95.0793 174.294 92.7641C174.294 91.94 174.138 91.6654 173.255 91.685C170.844 91.685 168.432 91.685 166.04 91.685C165.275 91.685 165.099 91.4888 165.099 90.7432C165.099 66.9374 165.099 43.1316 165.099 19.3259C165.099 18.5607 165.314 18.3841 166.04 18.4037C168.334 18.4037 170.628 18.4037 172.902 18.4037C174.118 18.4037 174.334 18.0702 174.294 16.9518C174.294 14.7151 174.294 12.4588 174.294 10.2025C174.294 9.43729 174.471 9.18223 175.275 9.20185C177.686 9.20185 180.098 9.20185 182.49 9.20185C183.314 9.20185 183.49 8.96641 183.471 8.20122C183.471 5.94491 183.471 3.68859 183.471 1.45189C183.471 0.333542 183.667 0 184.863 0C198.117 0.0392403 211.391 0.0196206 224.646 0.0196206Z" fill="#EC1C24"/>
<path d="M247.567 201.888C250.292 201.888 253.018 201.888 255.743 201.888C256.547 201.888 256.743 201.652 256.743 200.887C256.743 198.474 256.743 196.061 256.743 193.667C256.743 192.941 256.9 192.706 257.664 192.706C263.154 192.706 268.664 192.706 274.154 192.706C274.938 192.706 275.076 192.961 275.076 193.667C275.076 199.121 275.076 204.595 275.076 210.05C275.076 210.835 274.86 211.07 274.076 211.05C271.782 211.05 269.507 211.05 267.213 211.05C266.213 211.05 265.86 211.227 265.88 212.326C265.88 217.643 265.88 222.94 265.88 228.238C265.88 229.199 265.586 229.434 264.664 229.415C262.351 229.415 260.017 229.415 257.684 229.415C256.919 229.415 256.664 229.591 256.684 230.396C256.684 232.652 256.684 234.908 256.684 237.145C256.684 238.44 256.292 238.656 255.155 238.617C252.9 238.617 250.645 238.617 248.41 238.617C247.645 238.617 247.469 238.833 247.469 239.578C247.469 241.893 247.469 244.228 247.469 246.563C247.469 247.544 247.273 247.819 246.233 247.819C234.646 247.819 223.058 247.819 211.45 247.819C208.568 247.819 205.686 247.819 202.784 247.819C201.862 247.819 201.647 247.563 201.686 246.681C201.686 244.307 201.686 241.932 201.686 239.578C201.686 238.833 201.51 238.597 200.745 238.617C198.49 238.617 196.255 238.617 194 238.617C192.863 238.617 192.392 238.44 192.471 237.145C192.608 234.908 192.471 232.652 192.471 230.396C192.471 229.591 192.235 229.395 191.451 229.415C189.137 229.415 186.804 229.415 184.471 229.415C183.549 229.415 183.275 229.199 183.275 228.238C183.275 222.94 183.275 217.643 183.275 212.326C183.275 211.227 182.942 211.011 181.942 211.05C179.608 211.05 177.275 211.05 174.961 211.05C174.275 211.05 174.079 210.854 174.079 210.167C174.079 204.635 174.079 199.082 174.079 193.549C174.079 192.823 174.354 192.706 175.001 192.706C180.491 192.706 185.981 192.706 191.49 192.706C192.255 192.706 192.412 192.941 192.412 193.667C192.412 196.061 192.412 198.474 192.412 200.887C192.412 201.652 192.608 201.907 193.412 201.888C196.137 201.888 198.863 201.888 201.588 201.888C201.915 202.356 202.048 202.932 201.961 203.497C201.961 205.459 201.961 207.421 201.961 209.265C201.961 210.54 202.098 210.658 203.333 210.658H209.098C210.019 210.658 210.372 210.305 210.352 209.383C210.352 207.421 210.352 205.459 210.352 203.497C210.352 202.555 209.941 202.241 209.058 202.261H203.529C202.928 202.346 202.316 202.214 201.804 201.888C201.804 199.161 201.804 196.433 201.804 193.706C201.804 192.921 202.019 192.686 202.804 192.706C204.96 192.706 207.137 192.706 209.294 192.706C210.96 192.706 210.96 192.706 210.96 191.077C210.96 188.88 210.96 186.682 210.96 184.465C210.96 183.72 211.156 183.504 211.882 183.523C214.097 183.523 216.293 183.523 218.509 183.523C220.117 183.523 220.117 183.523 220.117 181.973C220.117 176.754 220.117 171.535 220.117 166.277C220.117 165.375 220.313 165.12 221.234 165.139C229.652 165.139 238.07 165.139 246.488 165.139C247.39 165.139 247.626 165.355 247.606 166.258C247.606 168.946 247.606 171.633 247.606 174.321C241.861 174.321 236.136 174.321 230.391 174.321C229.509 174.321 229.234 174.537 229.273 175.44C229.273 177.775 229.273 180.109 229.273 182.425C229.273 183.366 229.567 183.543 230.43 183.523C232.803 183.523 235.175 183.523 237.528 183.523C238.273 183.523 238.489 183.72 238.469 184.465C238.469 186.8 238.469 189.115 238.469 191.45C238.469 192.568 238.802 192.764 239.802 192.725C242.096 192.725 244.371 192.725 246.665 192.725C247.449 192.725 247.684 192.941 247.665 193.726C247.665 196.453 247.665 199.18 247.665 201.907C247.188 202.214 246.62 202.346 246.057 202.28C244.096 202.28 242.136 202.28 240.293 202.28C239.018 202.28 238.9 202.417 238.881 203.634C238.881 205.596 238.881 207.558 238.881 209.402C238.881 210.324 239.234 210.697 240.155 210.678C242.116 210.678 244.077 210.678 246.037 210.678C246.998 210.678 247.312 210.266 247.292 209.383C247.292 207.46 247.292 205.537 247.292 203.614C247.167 203.025 247.265 202.409 247.567 201.888Z" fill="#FEFEFE"/>
<path d="M247.566 174.439C250.311 174.439 253.076 174.439 255.841 174.439C256.507 174.439 256.743 174.596 256.743 175.303C256.743 177.775 256.743 180.267 256.743 182.739C256.743 183.425 256.566 183.622 255.88 183.622C253.39 183.622 250.919 183.622 248.429 183.622C247.723 183.622 247.566 183.386 247.566 182.719C247.566 179.972 247.566 177.206 247.566 174.439Z" fill="#FEFEFE"/>
<path d="M36.7049 247.662C33.9403 247.662 31.1561 247.662 28.3915 247.662C27.7052 247.662 27.5092 247.465 27.5288 246.779C27.5288 244.405 27.5288 242.05 27.5288 239.676C27.5288 238.617 27.2151 238.44 26.2543 238.46C23.9407 238.46 21.6074 238.46 19.2742 238.46C18.5487 238.46 18.333 238.283 18.333 237.538C18.333 216.779 18.333 196.015 18.333 175.244C18.333 174.184 18.9016 174.341 19.529 174.341H88.4286C92.1932 174.341 95.9774 174.341 99.742 174.341C100.487 174.341 100.762 174.478 100.762 175.302C100.762 189.926 100.762 204.543 100.762 219.154C100.762 219.938 100.565 220.174 99.7616 220.154C97.0362 220.154 94.3108 220.154 91.5854 220.154L91.4285 219.978C91.1907 219.291 91.1169 218.559 91.2129 217.839C91.2129 207.244 91.2129 196.649 91.2129 186.054C91.2129 183.935 91.2129 183.935 89.0757 183.935H30.0777C27.9405 183.935 27.9405 183.935 27.9405 186.035V226.864C27.9405 227.139 27.9405 227.433 27.9405 227.708C27.9405 228.571 28.2738 228.944 29.1366 228.944C31.0973 228.944 33.058 228.944 34.9207 228.944C36.7834 228.944 37.0775 229.199 37.0775 231.102C37.0775 236.046 37.0775 240.912 37.0775 245.915C37.1333 246.436 37.0592 246.961 36.8618 247.446L36.7049 247.662Z" fill="#FEFEFE"/>
<path d="M82.4283 229.356C82.4283 232.044 82.4283 234.732 82.4283 237.42C82.4283 238.303 82.2322 238.558 81.3106 238.538C72.9384 238.538 64.5661 238.538 56.1742 238.538C55.1939 238.538 54.8802 238.754 54.9194 239.774C54.9194 242.129 54.9194 244.503 54.9194 246.877C54.9194 247.564 54.7233 247.74 54.0567 247.74C51.2921 247.74 48.5275 247.74 45.7432 247.74L45.5864 247.564C45.3985 247.077 45.3247 246.553 45.3707 246.033V231.142C45.3707 229.18 45.606 228.983 47.5275 228.983C58.5598 228.983 69.5986 228.983 80.644 228.983C81.1638 228.927 81.6893 229.002 82.1734 229.199L82.4283 229.356Z" fill="#FEFEFE"/>
<path d="M91.6047 220.193C91.6047 222.96 91.6047 225.746 91.6047 228.512C91.6047 229.199 91.4283 229.395 90.742 229.376C87.9774 229.376 85.1932 229.376 82.4286 229.376C82.1348 228.989 81.9951 228.506 82.0364 228.022C82.0364 225.864 82.0364 223.705 82.0364 221.547C82.0364 220.154 82.3698 219.86 83.7619 219.821C85.9186 219.821 88.0754 219.821 90.2322 219.821C90.7162 219.779 91.1983 219.919 91.5851 220.213L91.6047 220.193Z" fill="#FEFEFE"/>
<path d="M45.8221 247.662C45.8221 250.428 45.8221 253.195 45.8221 255.961C45.8221 256.648 45.6457 256.864 44.9594 256.844C42.4693 256.844 39.9792 256.844 37.5087 256.844C36.8028 256.844 36.6264 256.648 36.646 255.961C36.646 253.195 36.646 250.428 36.646 247.662C36.989 247.387 37.4237 247.254 37.8616 247.289C40.1164 247.289 42.3517 247.289 44.5869 247.289C45.0311 247.251 45.4731 247.384 45.8221 247.662Z" fill="#FEFEFE"/>
<path d="M9.27374 64.354C9.27374 58.6053 9.27374 52.8566 9.27374 47.1275C9.27374 46.225 9.48942 45.9503 10.411 45.9896C12.6854 45.9896 14.9794 45.9896 17.2735 45.9896C18.195 45.9896 18.4891 45.7737 18.4695 44.8123C18.4695 39.5149 18.4695 34.2175 18.4695 28.9004C18.4695 27.939 18.646 27.5859 19.7048 27.6251C21.9008 27.6251 24.1164 27.6251 26.3124 27.6251C27.4888 27.6251 27.7045 27.2523 27.6653 26.2124C27.6653 23.9757 27.6653 21.7194 27.6653 19.4631C27.6653 18.7372 27.7829 18.4036 28.626 18.4232C34.0768 18.4232 39.5472 18.4232 44.998 18.4232C45.8019 18.4232 46.0176 18.6587 45.998 19.4435C45.998 21.8371 45.998 24.2504 45.998 26.6637C45.998 27.4093 46.2137 27.6055 46.9391 27.6055H72.4284C73.1931 27.6055 73.4676 27.4289 73.448 26.6245C73.448 24.2112 73.448 21.7979 73.448 19.3846C73.448 18.6783 73.6049 18.4232 74.3696 18.4232C79.8857 18.4232 85.3822 18.4232 90.8592 18.4232C91.6435 18.4232 91.8003 18.6979 91.7807 19.4042C91.7807 21.7587 91.7807 24.1327 91.7807 26.5067C91.7807 27.4485 92.0748 27.6447 92.9375 27.6055C95.2708 27.6055 97.5844 27.6055 99.9177 27.6055C100.78 27.6055 100.976 27.8605 100.976 28.7042C100.976 34.0409 100.976 39.3776 100.976 44.7142C100.976 45.7149 101.231 46.0092 102.231 45.9699C104.545 45.9699 106.878 45.9699 109.211 45.9699C109.937 45.9699 110.172 46.1465 110.172 46.9117C110.172 58.5007 110.172 70.1027 110.172 81.7179C110.172 82.5223 109.859 82.64 109.172 82.6204C106.898 82.6204 104.604 82.6204 102.31 82.6204C101.153 82.6204 100.937 82.9932 100.976 84.033C100.976 86.2697 100.976 88.5261 100.976 90.7824C100.976 91.5083 100.859 91.8222 100.016 91.8222C91.5062 91.8222 82.9967 91.8222 74.5264 91.8222C73.7225 91.8222 73.5068 91.5868 73.5264 90.802C73.5264 88.3887 73.5264 85.9951 73.5264 83.5818C73.5264 82.8362 73.3108 82.64 72.5853 82.64H47.096C46.3313 82.64 46.0568 82.8166 46.0764 83.621C46.0764 86.0343 46.0764 88.4476 46.0764 90.8609C46.0764 91.5672 45.9195 91.8222 45.1549 91.8222H19.3126C18.5283 91.8222 18.3911 91.5476 18.3911 90.8412C18.3911 88.4868 18.3911 86.1128 18.3911 83.7387C18.3911 82.797 18.1166 82.6008 17.2343 82.6204C14.9206 82.6204 12.5874 82.6204 10.2541 82.6204C9.39138 82.6204 9.19531 82.3849 9.19531 81.5413C9.27374 75.8318 9.27374 70.0831 9.27374 64.354Z" fill="#FEFEFE"/>
<path d="M224.645 91.587H193.784C192.882 91.587 192.549 91.43 192.588 90.4294C192.588 88.0749 192.588 85.7009 192.588 83.3269C192.588 82.5813 192.392 82.3851 191.647 82.4047C189.255 82.4047 186.843 82.4047 184.431 82.4047C183.549 82.4047 183.372 82.13 183.392 81.3256C183.392 78.9908 183.392 76.656 183.392 74.3408C183.392 73.4775 183.255 73.1636 182.314 73.1832C179.902 73.1832 177.49 73.1832 175.079 73.1832C174.392 73.1832 174.216 72.987 174.216 72.3003C174.216 60.659 174.216 49.0178 174.216 37.3765C174.216 36.6701 174.432 36.5132 175.098 36.5132C177.431 36.5132 179.745 36.5132 182.078 36.5132C183.078 36.5132 183.47 36.3758 183.412 35.2379C183.314 32.9227 183.412 30.5879 183.412 28.2531C183.412 27.5271 183.588 27.3113 184.353 27.3113C186.784 27.3113 189.235 27.3113 191.686 27.3113C192.45 27.3113 192.627 27.0955 192.607 26.3696C192.607 23.9563 192.607 21.5626 192.607 19.1493C192.607 18.4038 192.745 18.1291 193.568 18.1291C214.273 18.1291 234.978 18.1291 255.684 18.1291C256.586 18.1291 256.703 18.4234 256.703 19.2278C256.703 21.6215 256.703 24.0348 256.703 26.448C256.703 27.1347 256.88 27.3309 257.566 27.3113C259.978 27.3113 262.389 27.3113 264.801 27.3113C265.742 27.3113 265.919 27.586 265.879 28.4493C265.879 30.7841 265.879 33.1189 265.879 35.4341C265.879 36.2581 266.036 36.5328 266.919 36.5132C269.33 36.5132 271.742 36.5132 274.134 36.5132C274.899 36.5132 275.075 36.7094 275.075 37.4549C275.075 49.0439 275.075 60.646 275.075 72.2611C275.075 73.0263 274.859 73.1832 274.134 73.1832C271.801 73.1832 269.467 73.1832 267.154 73.1832C266.193 73.1832 265.84 73.3402 265.879 74.3801C265.879 76.7541 265.879 79.1281 265.879 81.5022C265.879 82.1693 265.703 82.3851 265.017 82.3655C262.566 82.3655 260.134 82.3655 257.684 82.3655C256.86 82.3655 256.684 82.6205 256.703 83.3857C256.703 85.6224 256.703 87.8787 256.703 90.135C256.703 91.2534 256.507 91.587 255.311 91.587C245.057 91.5673 234.822 91.587 224.645 91.587Z" fill="#FEFEFE"/>
<path d="M210.979 229.376H238.429C238.429 232.142 238.429 234.908 238.429 237.675C238.429 238.362 238.233 238.558 237.566 238.558H211.822C211.136 238.558 210.94 238.362 210.959 237.675C210.959 234.908 210.959 232.142 210.959 229.376H210.979Z" fill="#FE7F27"/>
<path d="M201.804 201.907C204.568 201.907 207.333 201.907 210.098 201.907C210.745 201.907 210.999 202.064 210.98 202.771C210.98 205.243 210.98 207.735 210.98 210.207C210.98 210.893 210.784 211.09 210.098 211.09C207.627 211.09 205.137 211.09 202.666 211.09C201.961 211.09 201.804 210.854 201.804 210.187C201.804 207.44 201.804 204.674 201.804 201.907Z" fill="#FE7F27"/>
<path d="M247.566 201.888C247.566 204.654 247.566 207.421 247.566 210.167C247.566 210.835 247.409 211.09 246.703 211.07C244.213 211.07 241.743 211.07 239.253 211.07C238.586 211.07 238.37 210.874 238.39 210.187C238.39 207.715 238.39 205.223 238.39 202.751C238.39 202.045 238.606 201.868 239.272 201.888C242.037 201.888 244.801 201.888 247.566 201.888Z" fill="#FE7F27"/>
<path d="M210.98 229.356C208.215 229.356 205.451 229.356 202.686 229.356C202.039 229.356 201.784 229.199 201.804 228.493C201.804 226.021 201.804 223.529 201.804 221.057C201.804 220.37 202 220.174 202.686 220.174C205.157 220.174 207.647 220.174 210.117 220.174C210.823 220.174 210.98 220.409 210.98 221.076C210.98 223.823 210.98 226.59 210.98 229.356Z" fill="#FE7F27"/>
<path d="M238.43 229.376C238.43 226.609 238.43 223.843 238.43 221.096C238.43 220.429 238.587 220.174 239.292 220.193C241.763 220.193 244.253 220.193 246.724 220.193C247.41 220.193 247.606 220.39 247.606 221.076C247.606 223.548 247.606 226.04 247.606 228.512C247.606 229.219 247.371 229.395 246.704 229.376C243.959 229.376 241.194 229.376 238.43 229.376Z" fill="#FE7F27"/>
<path d="M45.861 247.681H36.7045C36.7045 241.913 36.7045 236.125 36.7045 230.357C36.7045 229.572 36.528 229.336 35.7241 229.356C33.3516 229.356 30.9792 229.356 28.6263 229.356C27.6852 229.356 27.5283 229.081 27.5283 228.218C27.5283 213.686 27.5283 199.154 27.5283 184.622C27.5283 183.68 27.8224 183.523 28.6851 183.523C49.2857 183.523 69.8994 183.523 90.5262 183.523C91.4673 183.523 91.6242 183.779 91.6242 184.661C91.6242 196.434 91.6242 208.271 91.6242 220.174C88.8595 220.174 86.0949 220.174 83.3107 220.174C82.6245 220.174 82.4284 220.37 82.448 221.037C82.448 223.823 82.448 226.59 82.448 229.356H46.8218C46.0375 229.356 45.8218 229.552 45.8218 230.337C45.861 236.125 45.8414 241.913 45.861 247.681Z" fill="#720898"/>
<path d="M36.7245 55.1718C36.7245 52.4446 36.7245 49.7174 36.7245 46.9902C36.7245 46.1858 36.9598 45.97 37.7441 45.9896C40.1558 45.9896 42.5479 45.9896 44.9596 45.9896C45.6654 45.9896 45.9203 46.1466 45.9203 46.9117C45.9203 52.4054 45.9203 57.899 45.9203 63.3927C45.9203 64.1382 45.7046 64.3541 44.9596 64.3344C42.6067 64.3344 40.2342 64.3344 37.8814 64.3344C36.999 64.3344 36.7049 64.1579 36.7245 63.2161C36.7245 60.5478 36.7245 57.8598 36.7245 55.1718Z" fill="#656EEC"/>
<path d="M82.4681 55.113C82.4681 57.8402 82.4681 60.5674 82.4681 63.2946C82.4681 64.0402 82.3505 64.3541 81.5074 64.3345C79.0565 64.3345 76.6252 64.3345 74.1743 64.3345C73.4881 64.3345 73.292 64.1186 73.292 63.4516C73.292 57.9187 73.292 52.3858 73.292 46.8529C73.292 46.2643 73.39 45.9896 74.0763 45.9896C76.586 45.9896 79.1153 45.9896 81.6446 45.9896C82.4093 45.9896 82.4485 46.3428 82.4485 46.9314C82.4485 49.6586 82.4681 52.425 82.4681 55.113Z" fill="#656EEC"/>
<path d="M211.058 54.9953C211.058 46.2447 211.058 37.4941 211.058 28.7435C211.058 27.7821 211.234 27.4486 212.293 27.4682C217.521 27.4682 222.815 27.4682 228.175 27.4682C229.096 27.4682 229.292 27.7429 229.273 28.6062C229.273 30.9017 229.273 33.1777 229.273 35.4732C229.273 36.3561 229.41 36.7093 230.41 36.6701C232.782 36.6701 235.155 36.6701 237.508 36.6701C238.253 36.6701 238.468 36.827 238.449 37.5922C238.449 40.0447 238.449 42.4973 238.449 44.9498C238.449 45.6953 238.665 45.8719 239.39 45.8719C241.723 45.8719 244.056 45.8719 246.37 45.8719C247.331 45.8719 247.664 46.0093 247.664 47.0688C247.664 52.4054 247.664 57.7421 247.664 63.0788C247.664 63.9421 247.527 64.256 246.566 64.2168C244.174 64.2168 241.762 64.2168 239.351 64.2168C238.684 64.2168 238.468 64.3934 238.488 65.0801C238.488 67.5326 238.488 69.9851 238.488 72.4376C238.488 73.242 238.253 73.4186 237.488 73.4186C235.253 73.4186 232.998 73.4186 230.743 73.4186C229.645 73.4186 229.233 73.5952 229.292 74.8313C229.41 77.1072 229.292 79.4028 229.292 81.6787C229.292 82.4047 229.135 82.6401 228.371 82.6205C222.959 82.6205 217.528 82.6205 212.116 82.6205C211.234 82.6205 211.097 82.3262 211.097 81.5218C211.071 72.6273 211.058 63.7851 211.058 54.9953Z" fill="#EC1C24"/>
<path d="M54.9984 202.025C54.9984 204.752 54.9984 207.48 54.9984 210.207C54.9984 210.893 54.8023 211.07 54.1357 211.07C51.6456 211.07 49.1751 211.07 46.685 211.07C45.9791 211.07 45.8223 210.854 45.8223 210.187C45.8223 204.654 45.8223 199.121 45.8223 193.589C45.8223 192.902 46.0183 192.725 46.7046 192.725C49.1751 192.725 51.6652 192.725 54.1553 192.725C54.8416 192.725 55.018 192.941 54.9984 193.608C54.9788 196.414 54.9984 199.161 54.9984 202.025Z" fill="#FEFEFE"/>
<path d="M82.4486 201.888C82.4486 204.654 82.4486 207.421 82.4486 210.187C82.4486 210.854 82.2918 211.09 81.6055 211.07C79.1154 211.07 76.6253 211.07 74.1548 211.07C73.4685 211.07 73.2725 210.893 73.2725 210.207C73.2725 204.674 73.2725 199.141 73.2725 193.608C73.2725 192.941 73.4489 192.706 74.1352 192.725C76.6253 192.725 79.0958 192.725 81.5859 192.725C82.2721 192.725 82.4682 192.902 82.4486 193.589C82.429 196.355 82.4486 199.161 82.4486 201.888Z" fill="#FEFEFE"/>
</g>
<defs>
<clipPath id="clip0_751_593">
<rect width="284" height="266" fill="white"/>
</clipPath>
</defs>
</svg>
