<svg width="216" height="200" viewBox="0 0 216 200" fill="none" xmlns="http://www.w3.org/2000/svg">
<path d="M107.929 0C132.103 0 156.241 0 180.415 0C182.157 0 182.761 0.320808 182.69 2.20995C182.69 6.52291 182.69 10.8359 182.69 15.1132C182.69 16.3964 183.045 16.7172 184.29 16.7172C188.485 16.7172 192.715 16.7172 196.945 16.7172C199.043 16.7172 199.434 17.3944 199.363 19.2836C199.363 23.4183 199.363 27.5887 199.363 31.7234C199.363 33.0779 199.647 33.47 201.034 33.4343C205.406 33.4343 209.779 33.4343 214.116 33.4343C215.716 33.4343 216 33.9333 216 35.3948C216 78.453 216 121.499 216 164.534C216 166.102 215.751 166.673 214.009 166.601C209.672 166.601 205.3 166.601 200.927 166.601C199.683 166.601 199.327 166.958 199.363 168.205C199.363 172.411 199.363 176.653 199.363 180.895C199.363 182.998 198.723 183.354 196.839 183.318C192.679 183.318 188.556 183.318 184.396 183.318C183.081 183.318 182.654 183.604 182.69 184.994C182.69 189.307 182.69 193.62 182.69 197.897C182.69 199.679 182.157 200 180.521 200H51.5115C46.1435 200 40.8466 200 35.372 200C33.8078 200 33.239 199.75 33.3101 198.004C33.3101 193.655 33.3101 189.271 33.3101 184.887C33.3101 183.639 32.9546 183.283 31.7103 183.318C27.5155 183.318 23.2851 183.318 19.0546 183.318C16.9572 183.318 16.5662 182.677 16.6373 180.788C16.6373 176.617 16.6373 172.483 16.6373 168.312C16.6373 166.993 16.3529 166.566 14.9664 166.601C10.5938 166.601 6.2212 166.601 1.88414 166.601C0.2844 166.601 0 166.138 0 164.641C0 121.63 0 78.5956 0 35.5373C0 33.969 0.248849 33.3987 1.99078 33.4343C6.32785 33.4343 10.7005 33.4343 15.0731 33.4343C16.3173 33.4343 16.6728 33.0779 16.6373 31.866C16.6373 27.6956 16.6373 23.5252 16.6373 19.3905C16.6373 17.038 17.3483 16.6459 19.4101 16.7172C23.4984 16.8954 27.551 16.7172 31.6392 16.7172C32.9546 16.7172 33.3812 16.3964 33.3456 15.0062C33.3456 10.7289 33.3456 6.41598 33.3456 2.10303C33.3456 0.320812 33.8789 0 35.5142 0C59.6169 0.0356443 83.7907 0 107.929 0Z" fill="#272727"/>
<path d="M66.4324 167C61.4015 167 56.3349 167 51.304 167C50.0552 167 49.6984 166.641 49.7341 165.387C49.7341 161.048 49.7341 156.746 49.7341 152.408C49.7341 150.471 49.1632 150.149 47.4148 150.185C43.2046 150.185 38.9586 150.185 34.7127 150.185C33.3925 150.185 33 149.862 33 148.5C33 110.566 33 72.6213 33 34.6642C33 32.7282 34.0347 33.015 35.1765 33.015H160.557C167.408 33.015 174.294 33.015 181.145 33.015C182.5 33.015 183 33.266 183 34.7718C183 61.4947 183 88.2057 183 114.905C183 116.339 182.643 116.769 181.18 116.733C176.221 116.733 171.261 116.733 166.302 116.733L166.016 116.411C165.583 115.157 165.449 113.818 165.624 112.502C165.624 93.1415 165.624 73.7806 165.624 54.4196C165.624 50.5474 165.624 50.5474 161.735 50.5474H54.3725C50.4834 50.5474 50.4834 50.5474 50.4834 54.3837V128.995C50.4834 129.497 50.4834 130.035 50.4834 130.537C50.4834 132.114 51.0899 132.796 52.6598 132.796C56.2279 132.796 59.7959 132.796 63.1855 132.796C66.5752 132.796 67.1104 133.262 67.1104 136.74C67.1104 145.775 67.1104 154.666 67.1104 163.809C67.212 164.76 67.0771 165.72 66.7179 166.606L66.4324 167Z" fill="#FEFEFE"/>
<path d="M149 133.708C149 138.576 149 143.443 149 148.311C149 149.91 148.646 150.372 146.98 150.336C131.848 150.336 116.717 150.336 101.55 150.336C99.778 150.336 99.211 150.727 99.2818 152.575C99.2818 156.838 99.2818 161.137 99.2818 165.437C99.2818 166.68 98.9275 167 97.7226 167C92.726 167 87.7294 167 82.6973 167L82.4138 166.68C82.0743 165.798 81.9409 164.85 82.024 163.909V136.941C82.024 133.388 82.4492 133.033 85.9221 133.033C105.861 133.033 125.812 133.033 145.775 133.033C146.715 132.932 147.664 133.066 148.539 133.424L149 133.708Z" fill="#FEFEFE"/>
<path d="M166 116.675C166 121.593 166 126.545 166 131.463C166 132.684 165.687 133.033 164.468 132.998C159.56 132.998 154.617 132.998 149.709 132.998C149.187 132.31 148.939 131.452 149.013 130.591C149.013 126.755 149.013 122.918 149.013 119.082C149.013 116.606 149.604 116.082 152.076 116.013C155.905 116.013 159.734 116.013 163.563 116.013C164.423 115.939 165.278 116.188 165.965 116.71L166 116.675Z" fill="#FEFEFE"/>
<path d="M83 166.674C83 171.592 83 176.51 83 181.428C83 182.649 82.6731 183.033 81.402 182.998C76.7894 182.998 72.1769 182.998 67.6007 182.998C66.2932 182.998 65.9663 182.649 66.0027 181.428C66.0027 176.51 66.0027 171.592 66.0027 166.674C66.638 166.186 67.4434 165.949 68.2544 166.011C72.4311 166.011 76.5715 166.011 80.7119 166.011C81.5347 165.943 82.3535 166.181 83 166.674Z" fill="#FEFEFE"/>
<path d="M99.9973 83.7294C99.9973 88.6353 99.9973 93.5412 99.9973 98.447C99.9973 99.6823 99.6341 100 98.3993 100C93.7868 100 89.2106 100 84.598 100C83.2905 100 83 99.6118 83 98.4118C83 88.4588 83 78.5059 83 68.553C83 67.3177 83.3632 67 84.6343 67C89.2106 67 93.8231 67 98.4356 67C99.7068 67 100.034 67.3882 99.9973 68.5882C99.961 73.6353 99.9973 78.5765 99.9973 83.7294Z" fill="#FEFEFE"/>
<path d="M148.998 83.4824C148.998 88.4582 148.998 93.4341 148.998 98.41C148.998 99.6098 148.724 100.033 147.528 99.998C143.187 99.998 138.845 99.998 134.538 99.998C133.342 99.998 133 99.6804 133 98.4452C133 88.4935 133 78.5418 133 68.59C133 67.3902 133.308 66.9667 134.504 67.002C138.845 67.002 143.152 67.002 147.494 67.002C148.69 67.002 149.032 67.3196 148.998 68.5548C148.964 73.5306 148.998 78.5771 148.998 83.4824Z" fill="#FEFEFE"/>
</svg>
