<svg width="216" height="201" viewBox="0 0 216 201" fill="none" xmlns="http://www.w3.org/2000/svg">
<path d="M108 200.302C83.9052 200.302 59.8342 200.302 35.7868 200.302C33.7256 200.302 33.2636 199.66 33.3346 197.732C33.3346 193.591 33.3346 189.414 33.3346 185.273C33.3346 183.881 32.9082 183.524 31.5933 183.56C27.2221 183.56 22.8509 183.56 18.5153 183.56C17.0582 183.56 16.6673 183.131 16.6673 181.703C16.6673 177.313 16.6673 172.957 16.6673 168.567C16.6673 167.21 16.3119 166.782 14.9615 166.817C10.8391 166.817 6.68114 166.817 2.52319 166.817C0.568605 166.817 0 166.389 0 164.354C0 125.181 0 86.0206 0 46.8716C0 43.0876 0 39.3036 0 35.4839C0 33.7704 0.533067 33.4491 2.09674 33.4848C6.32576 33.4848 10.5548 33.4848 14.7483 33.4848C16.3475 33.4848 16.7029 33.0208 16.6673 31.5214C16.6673 27.202 16.6673 22.8825 16.6673 18.563C16.6673 17.1351 17.0938 16.7067 18.5153 16.7424C22.8865 16.7424 27.2576 16.7424 31.5933 16.7424C32.9437 16.7424 33.3702 16.3854 33.3346 15.0289C33.3346 10.8522 33.3346 6.67555 33.3346 2.53457C33.3346 0.57117 33.7611 0 35.7868 0C69.5479 0 103.297 0 137.035 0C151.427 0 165.82 0 180.213 0C182.31 0 182.736 0.606868 182.665 2.53457C182.665 6.63985 182.665 10.7451 182.665 14.8147C182.665 16.3854 183.127 16.7781 184.62 16.7424C188.92 16.7424 193.22 16.7424 197.485 16.7424C198.942 16.7424 199.333 17.1708 199.333 18.5987C199.333 22.9896 199.333 27.3448 199.333 31.7356C199.333 33.0922 199.688 33.4848 201.038 33.4848C205.161 33.4848 209.319 33.4848 213.477 33.4848C215.431 33.4848 216 33.9132 216 35.948C216 74.978 216 113.984 216 152.966C216 156.929 216 160.856 216 164.818C216 166.532 215.467 166.853 213.903 166.817C209.674 166.817 205.445 166.817 201.252 166.817C199.653 166.817 199.297 167.281 199.333 168.781C199.333 173.1 199.333 177.42 199.333 181.739C199.333 183.167 198.906 183.56 197.485 183.56C193.113 183.56 188.742 183.56 184.407 183.56C183.056 183.56 182.63 183.917 182.665 185.273C182.665 189.521 182.665 193.734 182.665 197.982C182.665 199.767 182.274 200.302 180.426 200.302C156.308 200.278 132.166 200.278 108 200.302Z" fill="#000BAA"/>
<path d="M16.8062 117.089C16.8062 106.63 16.8062 96.1704 16.8062 85.7465C16.8062 84.1044 17.1971 83.6046 18.8674 83.676C22.9898 83.676 27.1478 83.676 31.3057 83.676C32.976 83.676 33.5091 83.2833 33.4735 81.5341C33.4735 71.8956 33.4735 62.2572 33.4735 52.583C33.4735 50.8338 33.7934 50.1912 35.7124 50.2626C39.6927 50.2626 43.7085 50.2626 47.6887 50.2626C49.821 50.2626 50.2119 49.5843 50.1409 47.6923C50.1409 43.6227 50.1409 39.5175 50.1409 35.4122C50.1409 34.0913 50.3541 33.4845 51.8822 33.5202C61.7618 33.5202 71.6769 33.5202 81.5565 33.5202C83.0135 33.5202 83.4044 33.9485 83.3689 35.3765C83.3689 39.7316 83.3689 44.1225 83.3689 48.5134C83.3689 49.8699 83.7598 50.2269 85.0747 50.2269H131.274C132.66 50.2269 133.158 49.9056 133.122 48.442C133.122 44.0511 133.122 39.6602 133.122 35.2694C133.122 33.9842 133.406 33.5202 134.792 33.5202C144.79 33.5202 154.753 33.5202 164.68 33.5202C166.101 33.5202 166.386 34.0199 166.35 35.3051C166.35 39.5888 166.35 43.9083 166.35 48.2278C166.35 49.9413 166.883 50.2983 168.447 50.2269C172.676 50.2269 176.869 50.2269 181.098 50.2269C182.662 50.2269 183.017 50.691 183.017 52.226C183.017 61.9359 183.017 71.6458 183.017 81.3556C183.017 83.1763 183.479 83.7117 185.292 83.6403C189.485 83.6403 193.714 83.6403 197.943 83.6403C199.258 83.6403 199.685 83.9616 199.685 85.3538C199.685 106.44 199.685 127.549 199.685 148.682C199.685 150.146 199.116 150.36 197.872 150.324C193.75 150.324 189.592 150.324 185.434 150.324C183.337 150.324 182.946 151.003 183.017 152.895C183.017 156.964 183.017 161.07 183.017 165.175C183.017 166.496 182.804 167.067 181.276 167.067C165.853 167.067 150.429 167.067 135.077 167.067C133.62 167.067 133.229 166.638 133.264 165.211C133.264 160.82 133.264 156.465 133.264 152.074C133.264 150.717 132.873 150.36 131.558 150.36H85.359C83.973 150.36 83.4755 150.681 83.511 152.145C83.511 156.536 83.511 160.927 83.511 165.318C83.511 166.603 83.2267 167.067 81.8408 167.067H35.0017C33.5802 167.067 33.3314 166.567 33.3314 165.282C33.3314 160.998 33.3314 156.679 33.3314 152.359C33.3314 150.646 32.8339 150.289 31.2346 150.324C27.0412 150.324 22.8121 150.324 18.5831 150.324C17.0194 150.324 16.6641 149.896 16.6641 148.361C16.8062 137.973 16.8062 127.513 16.8062 117.089Z" fill="#FEFEFE"/>
<path d="M66.5612 100.383C66.5612 95.4207 66.5612 90.4587 66.5612 85.4966C66.5612 84.033 66.9877 83.6403 68.4092 83.676C72.7804 83.676 77.116 83.676 81.4872 83.676C82.7665 83.676 83.2285 83.9616 83.2285 85.3538C83.2285 95.3493 83.2285 105.345 83.2285 115.34C83.2285 116.697 82.8376 117.089 81.4872 117.054C77.2226 117.054 72.9225 117.054 68.658 117.054C67.0588 117.054 66.5257 116.732 66.5612 115.019C66.5612 110.164 66.5612 105.273 66.5612 100.383Z" fill="#000BAA"/>
<path d="M149.473 100.275C149.473 105.237 149.473 110.199 149.473 115.162C149.473 116.518 149.259 117.089 147.731 117.054C143.289 117.054 138.882 117.054 134.44 117.054C133.196 117.054 132.841 116.661 132.841 115.447C132.841 105.38 132.841 95.3134 132.841 85.2465C132.841 84.1756 133.019 83.6758 134.262 83.6758C138.811 83.6758 143.396 83.6758 147.98 83.6758C149.366 83.6758 149.437 84.3183 149.437 85.3893C149.437 90.3513 149.473 95.3848 149.473 100.275Z" fill="#000BAA"/>
</svg>
