<svg width="190" height="209" viewBox="0 0 190 209" fill="none" xmlns="http://www.w3.org/2000/svg">
<path d="M152.984 20.7651C153.088 20.785 153.15 20.8645 153.171 20.9639C154.585 21.6991 154.523 23.0304 154.523 24.2425C154.585 33.4229 154.585 42.5834 154.523 51.7638C154.523 52.956 154.627 54.3271 153.15 55.0027C153.067 55.1816 152.963 55.3604 152.88 55.5194C152.152 56.3142 151.133 56.5924 150.113 56.5527C147.701 56.4533 147.118 57.6853 147.201 59.7121C147.285 61.739 147.222 63.7857 147.201 65.8324C147.201 67.1041 146.993 68.2964 146.12 69.3297C146.016 69.5482 145.912 69.7668 145.808 69.9854C144.497 70.5617 143.125 70.6411 141.71 70.6411C103.521 70.6411 65.3326 70.6411 27.123 70.6213C25.459 70.6213 23.691 70.8597 22.4222 69.4091C22.2766 69.27 22.1518 69.1111 22.0062 68.972C21.0494 68.3758 20.779 67.4419 20.779 66.4484C20.7166 62.8517 20.4462 59.2352 21.0078 55.6386C21.5694 47.9486 21.1118 40.2386 21.2574 32.5486C21.299 30.9589 21.0702 29.3096 21.923 27.8193C24.419 26.0905 26.9358 26.5277 29.4526 27.7398C30.0142 28.5148 30.0766 29.409 30.1806 30.3032C30.4926 33.5024 30.5342 33.562 33.8622 33.562C50.5438 33.5819 67.2254 33.5819 83.9278 33.5819C99.8606 33.5819 115.793 33.5819 131.726 33.5819C132.849 33.5819 133.973 33.562 135.096 33.6216C138.237 33.8203 139.131 34.4761 139.277 37.4964C139.381 39.8412 140.4 40.6758 142.75 40.5764C144.705 40.4771 146.681 40.4771 148.657 40.5764C150.925 40.6957 151.861 39.8611 151.819 37.6157C151.736 33.3236 151.757 29.0116 151.819 24.7195C151.84 23.3484 151.59 21.8183 152.984 20.7651Z" fill="#FEAD2B"/>
<path d="M152.984 20.7651C152.943 26.7462 152.818 32.7473 152.922 38.7284C152.964 40.8745 152.423 41.8084 149.989 41.6693C147.098 41.4905 144.186 41.5103 141.295 41.6494C138.903 41.7687 138.05 40.795 138.3 38.6489C138.341 38.2912 138.258 37.9336 138.32 37.5759C138.715 35.1715 137.634 34.5754 135.18 34.5953C101.484 34.6747 67.7667 34.6549 34.0707 34.635C28.4547 34.635 29.2035 35.3305 29.1411 29.9455C29.1411 29.2301 29.1411 28.5148 29.1619 27.7994C27.6227 25.9911 27.9139 23.9246 28.3507 21.8977C28.7459 20.0299 30.4099 19.6126 32.0531 19.6722C34.6323 19.7716 36.1299 19.0959 36.0883 16.2743C36.0467 14.3865 37.3363 13.393 39.3123 13.2142C40.6227 13.0949 41.9331 13.1148 43.2435 13.1148C72.6339 13.1148 102.045 13.1148 131.436 13.1148C132.559 13.1148 133.682 13.0949 134.805 13.0949C136.448 13.0949 137.155 12.3398 137.197 10.7899C137.239 9.27971 137.052 7.70991 138.196 6.43817C140.816 5.16643 143.416 5.20617 145.954 6.65675L145.933 6.63688C147.244 7.31249 147.16 8.52461 147.202 9.65725C147.306 12.0418 147.285 14.4263 147.243 16.8307C147.202 18.6389 147.784 19.7119 149.906 19.6523C151.029 19.6126 152.132 19.851 152.984 20.6459V20.7651Z" fill="#FDE027"/>
<path d="M65.7694 111.575C66.6846 110.602 67.8702 111.078 68.931 111.078C93.3086 111.039 117.665 111.059 142.043 111.059C145.725 111.059 145.683 111.059 145.745 107.641C145.766 106.627 145.267 105.495 146.161 104.581C147.035 105.395 147.181 106.488 147.16 107.541C147.118 109.429 148.137 109.986 149.947 109.986C154.606 109.966 159.265 109.985 163.925 109.966C165.422 109.966 166.4 109.588 166.421 107.859C166.421 106.071 165.505 105.554 163.821 105.534C159.245 105.495 154.689 105.554 150.113 105.515C148.72 105.495 147.285 105.614 146.161 104.561C146.952 103.806 147.929 104.163 148.824 104.163C154.336 104.124 159.848 104.104 165.36 104.163C166.816 104.183 167.544 103.905 167.544 102.276C167.481 85.0475 167.481 67.7996 167.544 50.5715C167.544 48.9619 166.92 48.5844 165.401 48.6837C163.717 48.7831 162.032 48.7434 160.347 48.7434C160.389 46.6172 162.198 47.3524 163.301 47.2133C166.525 46.8556 166.545 46.9152 166.317 43.6365C165.838 42.3449 164.694 42.484 163.613 42.4244C162.302 42.3648 160.846 42.7225 159.806 41.5501C158.912 39.2649 158.725 36.9996 159.993 34.794C161.387 34.1382 161.262 35.3504 161.491 35.9862C161.824 36.9798 161.387 38.0925 162.094 39.3444C163.197 37.3573 164.029 35.3504 166.067 34.2575C166.691 34.0985 167.211 34.2972 167.689 34.635C167.856 34.5356 168.001 34.5555 168.126 34.7145C168.459 35.3504 168.189 35.9266 167.897 36.483C166.67 37.9733 167.315 39.106 168.709 40.0796C171.704 41.1924 174.824 40.4771 177.861 40.6559C179.441 40.7552 181.064 40.5565 182.395 41.6296L182.561 41.5302L182.728 41.6494C183.414 42.7026 183.289 43.875 183.289 45.0474C183.289 65.4945 183.289 85.9218 183.289 106.369C183.289 108.058 183.435 109.787 182.187 111.218L182.312 111.357L182.187 111.496C181.251 112.449 180.003 112.469 178.797 112.41C176.675 112.31 175.656 113.105 175.843 115.212C175.947 116.364 175.968 117.576 174.699 118.311C173.597 119.563 172.037 119.464 170.581 119.464C166.296 119.504 162.032 119.524 157.747 119.464C155.625 119.424 154.336 119.981 154.481 122.286C154.544 123.279 154.232 124.213 153.483 124.968C153.317 125.147 153.171 125.326 153.005 125.525C150.737 126.657 148.283 126.498 145.849 126.498C124.009 126.538 102.211 126.518 80.3918 126.518C79.2686 126.518 78.1454 126.578 77.0222 126.518C75.0878 126.419 73.9854 127.074 74.0478 129.101C74.0894 130.194 73.7774 131.228 72.987 132.082C73.1118 132.241 73.091 132.38 72.9038 132.479C71.8638 133.195 70.6574 133.413 69.4302 133.354C67.4126 133.254 66.5806 133.97 66.6222 135.997C66.7262 140.388 66.7262 144.76 66.6222 149.151C66.5806 151.238 67.4542 152.072 69.5966 151.953C70.803 151.893 72.051 151.973 73.0078 152.887C80.3502 152.628 80.4542 152.628 80.3086 159.683C80.2462 162.047 81.203 164.531 79.6638 166.777C78.187 165.167 78.811 163.2 78.6862 161.372C78.603 159.861 78.6654 158.331 78.6446 156.801C78.6446 155.311 78.1454 154.457 76.3774 154.457C74.6718 154.457 74.0478 155.192 74.0062 156.722C73.9646 158.967 74.0062 161.193 73.9646 163.438C73.9438 164.69 73.923 165.962 72.9454 166.975C73.0494 167.154 73.0286 167.313 72.8622 167.432C70.6158 168.227 68.307 167.711 66.019 167.711C63.5646 167.949 61.0894 167.949 58.635 167.73C53.123 167.969 53.123 167.969 52.2078 173.115C52.083 173.394 51.8958 173.632 51.667 173.831C51.3758 174.01 51.0846 173.99 50.7934 173.791C50.8558 171.486 50.939 169.201 51.0014 166.896C50.0654 165.982 50.003 164.809 49.9822 163.637C49.9406 161.491 49.9614 159.345 49.9614 157.199C49.9614 155.609 49.7118 154.397 47.5278 154.437C45.4894 154.476 45.3022 155.629 45.3022 157.099C45.2814 159.245 45.323 161.392 45.2814 163.538C45.2606 164.69 45.2814 165.882 44.3038 166.796C42.9934 165.644 43.763 164.154 43.7006 162.842C43.5758 160.16 43.7422 157.477 43.6382 154.794C43.5758 153.264 44.1998 152.847 45.7598 152.807C51.0222 152.688 51.0014 152.628 51.0014 147.522C51.0014 140.726 51.0222 133.93 50.9806 127.134C50.9806 125.823 51.0638 124.928 52.8734 124.909C54.5998 124.909 56.9502 125.763 57.907 124.471C58.7598 123.319 58.1982 121.213 58.2814 119.524C58.2814 119.345 58.3646 119.166 58.3854 119.007C60.0494 119.384 59.7374 120.756 59.7998 121.809C59.883 123.597 60.8814 124.054 62.5454 124.034C64.1262 124.014 64.6462 123.279 64.6878 121.868C64.7294 120.179 64.0222 119.384 62.2334 119.424C60.923 119.464 59.6126 119.404 58.4894 118.59C60.7982 117.377 63.315 118.51 65.707 117.974C67.1838 116.662 69.0142 116.92 70.7822 116.92C93.5374 116.901 116.293 116.901 139.027 116.901C140.15 116.901 141.273 116.92 142.397 116.861C143.769 116.781 144.393 116.066 144.393 114.774C144.414 113.503 143.894 112.708 142.48 112.628C141.357 112.549 140.233 112.569 139.11 112.569C116.355 112.569 93.5998 112.569 70.8654 112.549C69.1182 112.549 67.267 112.867 65.7694 111.575Z" fill="#485974"/>
<path d="M138.32 6.83561C138.465 14.0885 138.465 14.0885 131.04 14.0885C100.755 14.0885 70.4909 14.1481 40.2061 14.009C37.0653 13.9891 36.5245 15.1019 36.8365 17.546C37.1069 19.5927 36.7741 20.8645 33.9661 20.7453C29.1405 20.5465 29.1197 20.7254 29.1197 25.3752C29.1197 26.1899 29.0989 26.9847 29.0989 27.7994C26.8317 27.7994 24.5645 27.7796 22.2973 27.7796C20.6957 25.3752 20.7997 22.9907 22.2973 20.5863C22.2765 15.9961 22.2765 11.3861 22.2557 6.79587C23.7533 5.32542 25.7085 5.64335 27.5597 5.64335C55.8061 5.62348 84.0733 5.62349 112.32 5.62349C119.516 5.62349 126.734 5.60361 133.931 5.64335C135.491 5.64335 137.196 5.38504 138.32 6.83561Z" fill="#FCF4C5"/>
<path d="M22.4021 69.429C23.6085 69.4687 24.8357 69.5482 26.0421 69.5482C64.8757 69.5482 103.709 69.5482 142.543 69.5681C143.624 69.5681 144.789 69.1706 145.767 69.9854C145.184 72.0321 146.807 74.8935 144.976 76.0062C143.375 76.9998 140.629 76.3242 138.383 76.3242C100.922 76.3242 63.4405 76.3242 25.9797 76.3242C22.1317 76.3242 22.1109 76.3242 22.1525 72.6083C22.1733 71.5353 22.3189 70.4821 22.4021 69.429Z" fill="#040405"/>
<path d="M138.32 6.8356C138.133 6.79585 137.945 6.75611 137.758 6.75611C99.2574 6.77598 60.7566 6.77598 22.2558 6.79585C21.8398 0 21.8398 0 28.9326 0C66.6014 0 104.27 0 141.939 0C145.683 0 145.662 4.7376e-07 145.683 3.49728C145.683 4.55044 145.808 5.62347 145.87 6.67662C143.374 6.73624 140.857 6.77598 138.32 6.8356Z" fill="#020402"/>
<path d="M73.0078 132.082C73.0078 125.326 73.0078 125.326 79.9758 125.326C102.481 125.326 124.987 125.306 147.493 125.366C149.323 125.366 151.195 124.67 152.984 125.525C152.984 131.983 152.984 131.963 146.141 131.983C122.699 131.983 99.2574 131.983 75.8158 132.003C74.8798 132.003 73.9438 132.062 73.0078 132.082Z" fill="#010202"/>
<path d="M65.7693 111.575C91.3533 111.575 116.937 111.555 142.521 111.595C143.54 111.595 145.1 110.979 145.454 112.31C145.912 113.999 146.078 115.907 145.329 117.576C144.955 118.431 143.624 118.033 142.729 118.033C128.024 118.053 113.297 118.053 98.5917 118.053C87.6301 118.053 76.6685 118.013 65.7069 117.993C65.7069 117.815 65.7277 117.656 65.7485 117.477C66.0813 115.669 66.1229 113.86 65.7277 112.052C65.6653 111.853 65.6861 111.714 65.7693 111.575Z" fill="#010306"/>
<path d="M182.146 111.198C182.166 89.2403 182.208 67.2631 182.25 45.3057C182.25 44.0737 181.979 42.802 182.707 41.6296C184.912 41.8085 187.845 40.6758 189.114 42.1264C190.195 43.3584 189.467 46.0608 189.467 48.1075C189.467 68.0778 189.426 88.0481 189.53 108.018C189.55 110.383 189.01 111.436 186.347 111.078C184.974 110.92 183.56 111.158 182.146 111.198Z" fill="#010304"/>
<path d="M72.9664 201.571C72.9248 201.789 72.8832 201.988 72.8416 202.206C71.9472 202.842 70.9072 202.822 69.8672 202.842C65 202.862 60.112 202.882 55.2448 202.822C53.768 202.803 52.1872 202.922 51.2304 201.451C50.544 199.285 50.5232 197.1 51.2096 194.934C52.1872 193.841 53.56 193.88 54.8496 193.88C56.6592 193.88 57.4288 193.106 57.3248 191.416C57.304 191.059 57.3248 190.701 57.3664 190.343C57.5744 187.164 58.0736 186.488 61.3392 186.409C63.6064 186.349 64.2928 185.495 64.1472 183.468C64.0224 181.68 64.064 179.891 64.168 178.103C64.272 176.434 64.792 174.943 66.352 173.95C68.6816 173.572 71.0112 173.135 73.216 174.427C74.0688 175.401 74.0896 176.573 74.0896 177.725C74.1312 184.422 74.1104 191.118 74.1104 197.795C74.1104 199.166 73.84 200.438 72.9664 201.571Z" fill="#9C0707"/>
<path d="M167.44 43.2192C167.71 48.1075 167.71 48.0876 162.656 48.187C161.866 48.2068 160.93 47.8094 160.368 48.7235C160.347 49.26 160.285 49.7766 160.285 50.3132C160.243 55.9168 159.266 56.5526 153.15 55.0226C153.358 43.6763 153.462 32.33 153.171 20.9837C153.608 20.9241 154.066 20.8048 154.502 20.8048C159.994 20.7651 160.035 20.785 160.243 26.011C160.306 27.402 160.742 27.7994 162.178 27.8193C167.523 27.9584 167.523 27.9981 167.565 33.0453C167.565 33.5818 167.627 34.0985 167.669 34.635C167.045 34.6549 166.442 34.6747 165.818 34.7145C164.154 35.867 162.469 35.9067 160.763 34.794C159.702 36.9798 160.555 39.3047 160.222 41.5501C161.678 42.3052 163.259 41.8283 164.757 41.8879C165.942 41.9078 166.962 42.027 167.44 43.2192Z" fill="#030103"/>
<path d="M22.318 20.5863C22.318 22.9906 22.318 25.3752 22.318 27.7795C22.318 36.2048 22.3388 44.6301 22.318 53.0355C22.318 53.9098 22.526 54.8437 21.8604 55.6187C19.3852 57.1289 16.9308 57.0097 14.4764 55.5591L14.5388 55.5988C12.7084 53.4329 13.4988 50.949 13.5404 48.5446C13.2284 41.5898 13.2284 34.6151 13.5404 27.6603C13.5612 25.2559 12.4588 22.6727 14.7468 20.626L14.6844 20.6459C17.0348 19.2947 19.4268 19.1556 21.8396 20.5068C22.006 20.5465 22.1516 20.5664 22.318 20.5863Z" fill="#FDDE2A"/>
<path d="M72.966 201.571C72.9452 192.509 72.9244 183.448 72.9244 174.387C72.7788 174.169 72.7995 173.99 73.0283 173.831C75.3163 174.049 78.3116 172.877 79.7468 174.308C81.1612 175.719 80.142 178.56 80.1836 180.766C80.246 186.826 80.1004 192.887 80.2876 198.948C80.35 201.153 79.5595 201.69 77.4795 201.531C75.9611 201.392 74.4636 201.551 72.966 201.571Z" fill="#030406"/>
<path d="M14.456 27.7199C14.456 34.6549 14.456 41.5898 14.456 48.5248C13.6032 49.5581 12.3552 49.5779 11.1904 49.5581C9.44319 49.5382 8.7152 50.3132 8.7152 51.9426C8.7152 53.0554 8.7984 54.2675 7.6752 55.0822C7.6336 50.9292 7.2176 47.1139 1.0608 48.6043C0.270397 48.803 0 48.0677 0 47.3723C0.0416 40.9738 0.0831949 34.5555 0.124795 28.1571C0.124795 28.0379 0.353599 27.8988 0.478399 27.7795C1.4144 29.0115 1.4352 30.4422 1.4352 31.8928C1.4352 36.0061 1.4144 40.1194 1.4352 44.2128C1.4352 45.7627 1.6224 47.0146 3.8064 47.0345C6.0944 47.0543 6.0736 45.6634 6.0944 44.1731C6.1152 40.1591 6.0528 36.1253 6.1152 32.1114C6.136 30.1839 5.5744 29.0513 3.3072 29.0712C2.3712 29.0712 1.1648 29.0314 0.915197 27.7199C1.1024 27.6802 1.26879 27.6206 1.45599 27.6007C3.28639 27.3424 5.5952 28.3558 6.864 27.1238C8.0288 26.011 7.2176 23.8848 7.2384 22.1958C7.2592 20.8446 7.88319 20.5068 9.15199 20.5664C10.7328 20.6658 12.3344 20.6856 13.9152 20.7452C13.4576 22.2554 12.0432 22.017 10.92 22.0766C9.2352 22.1759 8.6736 22.9509 8.6736 24.481C8.6736 26.1303 9.5056 26.6866 11.0864 26.7065C12.2928 26.7463 13.5824 26.6668 14.456 27.7199Z" fill="#495971"/>
<path d="M51.5005 201.253C52.3533 202.028 53.4349 201.769 54.4333 201.769C59.4669 201.789 64.5213 201.769 69.5549 201.769C70.6781 201.769 71.8013 201.67 72.8413 202.206C73.1325 208.545 73.1325 208.545 66.6845 208.545C62.9613 208.545 59.2381 208.545 55.5149 208.565C51.1885 208.585 51.2301 208.585 51.1677 204.551C51.1469 203.458 51.6669 202.206 50.4397 201.332C48.7549 200.597 46.9869 201.213 45.2605 200.974C44.9277 200.935 44.7613 200.756 44.7197 200.458C45.0941 199.583 45.9469 199.365 46.7165 199.425C48.5053 199.544 49.5037 198.51 50.5021 197.378C52.2909 198.351 50.7309 200.08 51.5005 201.253Z" fill="#0B0605"/>
<path d="M73.0292 152.887C65.7076 152.907 65.7076 152.907 65.7076 145.753C65.7076 141.819 65.7492 137.884 65.6868 133.97C65.666 132.777 65.8948 132.102 67.3716 132.301C69.202 132.559 71.074 132.002 72.9252 132.479C72.9668 139.295 73.0084 146.091 73.0292 152.887Z" fill="#020304"/>
<path d="M153.441 124.988C152.942 118.391 152.942 118.49 159.827 118.351C164.84 118.252 169.873 118.888 174.844 117.954C174.928 118.053 174.99 118.133 175.073 118.232C175.011 118.331 174.948 118.431 174.886 118.53C174.907 124.988 174.907 124.988 168.084 124.988C163.196 124.988 158.308 124.988 153.441 124.988Z" fill="#020303"/>
<path d="M0.935988 27.7199C2.35039 28.4552 3.86879 28.018 5.32479 28.0577C6.78079 28.0776 7.30079 28.6141 7.27999 29.9852C7.21759 35.3504 7.19679 40.7155 7.27999 46.0807C7.30079 47.7896 6.57279 48.3062 4.95039 48.1671C4.30559 48.1075 3.63999 48.0876 2.99519 48.1671C1.01919 48.4254 0.45759 47.6306 0.49919 45.7627C0.60319 39.7816 0.519994 33.7806 0.519994 27.7795C0.623994 27.6802 0.769588 27.6603 0.935988 27.7199Z" fill="#020204"/>
<path d="M167.565 36.2445C167.752 35.7278 167.94 35.2112 168.106 34.6946C172.224 34.6946 176.322 34.7343 180.44 34.6747C181.751 34.6548 182.25 34.9728 182.208 36.2842C182.146 38.0527 182.312 39.8411 182.375 41.6096C178.215 41.6096 174.055 41.5699 169.895 41.6096C168.647 41.6295 167.69 41.4507 167.565 40.0398C166.775 38.7681 166.65 37.5162 167.565 36.2445Z" fill="#030403"/>
<path d="M21.8398 20.5068C19.4478 20.5465 17.0766 20.6061 14.6846 20.6459C14.7262 16.8108 14.8302 12.9956 14.7886 9.16048C14.7678 7.55094 15.0174 6.77597 17.035 6.79584C21.819 6.85546 21.819 6.73623 21.819 11.4059C21.8398 14.4461 21.8398 17.4665 21.8398 20.5068Z" fill="#020203"/>
<path d="M152.922 20.6657C145.996 20.7055 145.996 20.7055 145.996 14.1282C145.996 11.6443 145.933 9.1406 145.892 6.65674C146.724 6.71635 147.535 6.83558 148.367 6.83558C152.964 6.83558 152.964 6.81571 152.964 11.3463C152.964 14.466 152.943 17.5659 152.922 20.6657Z" fill="#030206"/>
<path d="M14.4766 55.5392C16.931 55.5591 19.4062 55.5789 21.8606 55.5988C21.9022 60.0499 21.9438 64.501 22.0062 68.9719C20.0926 69.6078 18.1374 69.1508 16.203 69.2899C14.7678 69.3892 14.8302 68.4354 14.8302 67.5213C14.8302 64.501 14.851 61.4607 14.8302 58.4403C14.8094 57.4667 14.9966 56.4731 14.4766 55.5392Z" fill="#060407"/>
<path d="M146.099 69.3296C146.057 65.4349 146.099 61.5402 145.932 57.6455C145.87 55.9962 146.411 55.4399 148.137 55.579C149.697 55.6982 151.278 55.579 152.859 55.5591C152.901 59.4538 152.838 63.3684 152.984 67.2631C153.046 68.8726 152.568 69.4886 150.82 69.3495C149.26 69.1707 147.68 69.3098 146.099 69.3296Z" fill="#040204"/>
<path d="M44.3243 166.796C44.2827 163.061 44.3243 159.325 44.1995 155.589C44.1371 153.841 44.7611 153.105 46.5915 153.324C47.2363 153.403 47.9019 153.403 48.5467 153.324C50.4395 153.105 51.2091 153.761 51.1259 155.689C50.9803 159.424 51.0635 163.16 51.0427 166.896C48.7963 166.856 46.5707 166.836 44.3243 166.796Z" fill="#040608"/>
<path d="M72.9876 166.975C72.9876 163.24 73.0708 159.484 72.946 155.748C72.8836 153.9 73.4452 153.244 75.442 153.304C80.6004 153.463 79.7684 152.986 79.7892 157.437C79.81 160.557 79.706 163.677 79.6644 166.796C77.4596 166.836 75.2132 166.916 72.9876 166.975Z" fill="#030706"/>
<path d="M73.0285 173.831C72.9869 174.01 72.9661 174.208 72.9245 174.387C70.6781 174.387 68.4525 174.407 66.2061 174.407C61.9837 175.023 57.7405 175.281 53.4765 175.162C52.8317 175.142 52.2285 174.824 51.7917 174.308C51.7293 174.169 51.6669 174.01 51.6045 173.87C51.6253 173.692 51.6253 173.513 51.6461 173.334C52.4781 172.479 53.6013 172.38 54.7037 172.4C56.5341 172.44 57.4285 171.744 57.3661 169.936C57.3245 168.903 57.3661 167.81 58.3021 167.015C60.9229 167.015 63.5229 166.995 66.1437 166.995C67.2253 167.83 67.2045 169.022 67.1213 170.135C66.9965 171.863 67.7661 172.499 69.5133 172.46C70.6781 172.42 71.9261 172.38 72.8413 173.354C72.9037 173.493 72.9661 173.672 73.0285 173.831Z" fill="#7F0303"/>
<path d="M7.67498 55.0822C7.71658 54.029 7.94538 52.9361 7.75818 51.9227C7.25898 49.0215 8.67338 48.2267 11.419 48.5844C12.4174 48.7036 13.4366 48.5446 14.4558 48.5248C14.4766 50.8894 14.5182 53.2342 14.539 55.5988C12.2926 55.0226 9.90058 55.9168 7.67498 55.0822Z" fill="#020305"/>
<path d="M174.844 117.974C174.886 116.404 174.969 114.814 174.928 113.244C174.886 111.873 175.468 111.317 176.883 111.376C178.63 111.456 180.398 111.456 182.145 111.496C181.896 113.682 182.811 115.927 181.625 118.053C179.337 118.272 177.07 118.47 174.803 117.954L174.844 117.974Z" fill="#03060A"/>
<path d="M14.4563 27.72C13.4371 27.7001 12.3971 27.6604 11.3779 27.6604C7.77947 27.6604 7.92507 27.6604 7.73787 24.183C7.61307 21.7985 8.27867 20.7056 10.9411 21.0632C11.8979 21.1825 13.0003 21.3812 13.9363 20.7652C14.2067 20.7056 14.4771 20.6658 14.7683 20.6062C14.6643 22.9907 14.5603 25.3553 14.4563 27.72Z" fill="#040505"/>
<path d="M58.4894 118.57C59.9662 118.57 61.4846 118.709 62.9406 118.53C65.2286 118.272 65.7903 119.186 65.7071 121.213C65.5823 124.69 63.1695 126.24 59.6543 124.928C58.6767 124.571 58.8638 123.855 58.7806 123.2C58.635 121.809 59.0927 120.358 58.4271 119.007C58.3855 118.848 58.4062 118.709 58.4894 118.57Z" fill="#030604"/>
<path d="M72.8415 173.314C66.0399 173.672 66.0399 173.672 66.1647 166.975C68.4111 167.095 70.7407 166.359 72.9247 167.432C72.8831 169.4 72.8623 171.347 72.8415 173.314Z" fill="#020304"/>
<path d="M51.5011 201.253C50.3571 200.16 51.5427 198.53 50.5235 197.418C49.6915 196.821 49.4835 195.947 49.4627 195.053C49.3171 188.734 49.3171 182.435 49.4627 176.116C49.4835 175.579 49.6499 175.063 49.9203 174.586C50.1283 174.288 50.3987 174.049 50.7315 173.89L50.7939 173.791C51.0643 173.811 51.3139 173.831 51.5843 173.871L51.7299 174.049C53.1859 177.09 53.0819 192.271 51.6051 194.795C51.5843 196.961 51.5427 199.107 51.5011 201.253Z" fill="#7F0303"/>
<path d="M50.7524 173.91C50.7316 174.089 50.6692 174.248 50.5652 174.387C49.9204 174.944 49.1508 175.361 48.298 175.321C45.6564 175.222 45.3028 176.732 45.3444 178.779C45.4068 184.064 45.3652 189.33 45.3652 194.616C45.3652 196.662 45.386 198.709 44.866 200.716V200.736C45.1988 200.935 45.1988 201.114 44.8868 201.332C43.5348 201.61 43.8884 200.617 43.8884 200.021C43.8676 191.893 43.8884 183.786 43.8468 175.659C43.8468 174.308 44.2004 173.712 45.7396 173.811C47.3828 173.95 49.0676 173.89 50.7524 173.91Z" fill="#0B0605"/>
<path d="M174.803 117.934C177.07 117.854 179.358 117.675 181.625 118.033C179.379 118.193 177.112 118.371 174.865 118.531C174.844 118.332 174.824 118.133 174.803 117.934Z" fill="#485974"/>
<path d="M65.7071 112.032C66.3519 113.84 66.2895 115.649 65.7279 117.457C65.4367 115.629 65.4783 113.84 65.7071 112.032Z" fill="#485974"/>
<path d="M44.8655 201.333C44.8655 201.134 44.8447 200.935 44.8447 200.736C46.6959 200.995 48.6927 200.12 50.4399 201.333C48.5887 201.591 46.7375 201.571 44.8655 201.333Z" fill="#020403"/>
<path d="M174.866 76.2844C174.866 84.7097 174.741 93.1151 174.928 101.54C174.99 104.481 173.243 104.104 171.371 104.104C169.541 104.104 168.022 104.342 168.043 101.6C168.168 84.6699 168.126 67.7598 168.064 50.8298C168.064 49.0414 168.646 48.3856 170.456 48.5843C171.101 48.6638 171.787 48.6638 172.411 48.5843C174.45 48.3061 174.907 49.2003 174.886 51.0285C174.824 59.4537 174.866 67.8591 174.866 76.2844Z" fill="#020205"/>
<path d="M51.6045 139.176C51.6045 135.341 51.6669 131.506 51.5837 127.671C51.5421 126.121 51.9581 125.286 53.7469 125.505C54.5789 125.604 55.4317 125.584 56.2637 125.505C57.8237 125.366 58.4061 125.922 58.4061 127.452C58.3437 135.301 58.3645 143.15 58.4061 151.019C58.4061 152.35 58.0525 153.066 56.5133 152.907C55.7645 152.827 55.0157 152.807 54.2669 152.907C52.2285 153.165 51.4589 152.489 51.5629 150.423C51.7293 146.687 51.6045 142.931 51.6045 139.176Z" fill="#010201"/>
<path d="M146.183 104.541C152.464 104.561 158.725 104.64 164.986 104.561C166.858 104.541 167.627 104.938 167.565 106.906C167.399 111.873 167.939 110.979 163.218 111.019C158.351 111.078 153.483 110.959 148.616 111.059C146.869 111.098 146.016 110.701 146.183 108.833C146.328 107.422 146.183 105.991 146.183 104.541Z" fill="#030201"/>
<path d="M58.3236 166.995C58.4692 173.453 58.4692 173.453 51.6676 173.334C51.6676 173.255 51.6468 173.155 51.6468 173.076C51.7924 165.823 49.8996 166.856 58.3236 166.995Z" fill="#010403"/>
<path d="M160.764 34.7741C162.448 34.7542 164.133 34.7343 165.818 34.6946C164.965 36.5227 163.343 37.9534 162.948 40.02C162.823 40.636 162.22 41.093 161.45 40.8943C160.784 40.7155 160.784 40.0995 160.784 39.5828C160.764 37.9733 160.764 36.3637 160.764 34.7741Z" fill="#495977"/>
<path d="M167.44 43.2193C166.254 42.1462 164.819 42.1264 163.3 42.1264C162.24 42.1264 161.054 42.5437 160.201 41.5104C162.136 41.5501 164.07 41.6495 166.004 41.6296C167.294 41.6097 167.689 42.1065 167.44 43.2193Z" fill="#030403"/>
<path d="M167.565 36.2445C167.565 37.4964 167.565 38.7681 167.585 40.02C166.109 38.7681 165.422 37.5162 167.565 36.2445Z" fill="#495977"/>
<path d="M51.626 194.795C51.6676 187.88 51.7092 180.964 51.7508 174.049C53.9348 174.526 56.1188 174.487 58.3236 174.129C60.9652 173.692 63.6068 173.632 66.2276 174.407C64.3348 177.924 65.1252 181.72 65.2916 185.376C65.3748 187.144 64.8548 187.264 63.3988 187.303C58.4276 187.442 58.3028 187.482 58.4068 192.112C58.4484 194.238 57.7412 195.053 55.5364 194.814C54.2468 194.715 52.9364 194.815 51.626 194.795Z" fill="#BE0103"/>
<path d="M44.8455 200.716C43.9927 199.901 44.3255 198.868 44.3047 197.914C44.2839 191.218 44.4087 184.501 44.2215 177.805C44.1383 175.162 44.8039 173.91 47.7575 174.367C48.6727 174.506 49.6295 174.387 50.5655 174.387C50.5447 182.057 50.5447 189.747 50.5239 197.417C50.7943 199.623 49.7959 200.497 47.4871 200.219C46.6135 200.12 45.5943 199.961 44.8455 200.716Z" fill="#020403"/>
</svg>
