<svg id="Слой_1" data-name="Слой 1" xmlns="http://www.w3.org/2000/svg" viewBox="0 0 476.11 87.96"><defs><style>.cls-1{fill:#d9dcf2;}.cls-2{fill:#0318b0;}.cls-3{fill:#fcca03;}.cls-4{fill:#fcca02;}.cls-5{fill:#0418b0;}.cls-6{fill:#fbca03;}.cls-7{fill:#fbc903;}.cls-8{fill:#0419b0;}.cls-9{fill:#e3e5f6;}</style></defs><path class="cls-1" d="M476.72,33.54l-.14.06-.15,0c0-2.38,0-4.77,0-7.15a.74.74,0,0,1,.33,0Z" transform="translate(-0.61 -0.34)"/><path class="cls-2" d="M114.87,59.69c1-6.82,3.72-13.09,6.54-19.31a57.79,57.79,0,0,1,4.24-7.91c1.09-1.67,1-3.09-.53-4.42-1.85-1.56-3.13-3.77-5.57-4.66-1.33-.49-.74-1.49-.31-2.25s.58-1.12-.42-1.85C117,18,115.14,18.1,113.14,18.2a109,109,0,0,0-11.7,1.11c-.53.09-1.17.15-1.29.83s.32.91.69,1.22A6.36,6.36,0,0,0,103.48,23c1.64.33,1.92,1.4,1.8,2.78a21.9,21.9,0,0,1-1.86,6.4C99.34,42.33,94.48,52.13,90,62.1L75,63.55c4.58-11.12,10.2-21.77,14.84-32.87-5.95,10.76-11.13,21.88-16.25,33l-1.54,0q7.05-15.14,14.11-30.26a62.62,62.62,0,0,0,3.74-10.17c.63-2.36.1-3-2.31-2.64-3.46.51-7,.68-10.39,1.44a18.91,18.91,0,0,1-3.77.12c-1.53,0-2-.6-1.78-2.21.31-1.84.83-3.77-1.11-5.33-1-.76.28-2.7-1.41-3.56a62.13,62.13,0,0,1,0,11.89c-.18,1.27,0,2.73-1.91,3a3,3,0,0,1-3.52-2.31c-.6-2.18-1.52-3.64-3.92-3.89-.89-.1-1.12-.91-1.38-1.67a2.28,2.28,0,0,0-3-1.59A28,28,0,0,0,45.54,21a51.33,51.33,0,0,0-9.06,7.42c-.49.5-1.45,1-1,1.87.38.7,1.26.43,1.93.42,4.27,0,8.52-.13,12.79.28,7.16.69,11.72,4.8,13.25,11.25,1.42,6,2,12.38.64,18.64A7,7,0,0,1,61.5,65c-1.19.07-2.37.09-3.56.2L37.24,67c5.53-3.25,11.12-6.42,14.49-12.22A44.11,44.11,0,0,1,31.56,68c-1.69-.44-3.41.4-5.09-.14a46.57,46.57,0,0,0,21.43-12,23.32,23.32,0,0,0,3.41-4c.94-1.46.71-2.48-.92-3.37-3.35-1.85-7-1.91-10.62-1.9A118.93,118.93,0,0,0,22.62,48a20.48,20.48,0,0,1-2.72.17c-3.24,0-3-.06-4-3-.85-2.66-1.8-5.39-3.94-7.4a2.41,2.41,0,0,1-.61-2.29A16.15,16.15,0,0,1,14.29,28c4-5.76,9.2-10.31,14.84-14.38,7.45-5.38,15.31-10,24.29-12.44A19.5,19.5,0,0,1,63.59.91c1.46.38,2.63.92,3.11,2.67.43,1.58,1.11,3.49,2.32,4.33S71.76,7,73.27,6.73C80.08,5.45,87,4.7,93.85,3.9a258,258,0,0,1,34.37-1.78c3.58.06,4.4.93,3.92,4.43-.06.48-.16,1,.35,1.32s.9-.23,1.28-.48a39.72,39.72,0,0,1,18.71-6.16c8.06-.67,14.19,2.92,19.43,8.47,1.79,1.89,2.4,4.54,3.54,6.84a78.73,78.73,0,0,1,5.87,15.61,16.18,16.18,0,0,1-.95,10.64,50.44,50.44,0,0,1-6.59,11.36l-18.53,1.6c4.68-6.26,8.75-12.84,10.72-20.5-2.12,3.44-3.52,7.26-5.6,10.73a66,66,0,0,1-7.2,10.22l-1.3-.09c1.46-2,2.87-3.93,4.39-5.83,6.5-8.09,8.82-17.35,7.85-27.55a2.08,2.08,0,0,0-.74-1.66c-2.22-1.47-4.74-1.55-7.27-1.4-1.76.11-1.73,1.77-2.36,2.85a4.08,4.08,0,0,1-.76,1c-5.79,5.5-10,12.15-13.53,19.19a87.32,87.32,0,0,0-5.69,15.22L117.37,59.5c.48-5.29,3.15-10,4.23-15.09a51.93,51.93,0,0,0-5.53,15.18ZM57.61,2.88c-1.91-.59-3.19-.49-6.59.64C36.77,8.22,25.58,17.21,16,28.39c-.32.36-1.08.87-.52,1.33.84.7,1.19-.37,1.54-.81A72.72,72.72,0,0,1,31.66,15C39.32,9.38,47.43,4.65,57.1,3.41,57.38,3.38,57.64,3.25,57.61,2.88Zm62.72,1.61c-3.76-1.88-40.85,2-43.77,4.81C91.36,6.22,105.87,5.59,120.33,4.49ZM132.75,11c7.78-5.83,16.78-7.33,26.22-7.36-1.77-1.12-3.65-.69-5.46-.64A36.6,36.6,0,0,0,134.08,8.6C133.3,9.11,132.23,9.5,132.75,11ZM36,32.76c5,.49,10,.08,15,.54C49.36,31.84,39.18,31.45,36,32.76ZM128.38,32c-1.9.7-5.94,8.15-5.6,10.38C125.13,39,126.5,35.35,128.38,32ZM127.1,3.86a4.09,4.09,0,0,0-3.88,0C124.66,4.72,125.88,4.21,127.1,3.86ZM56.71,35.18c-1-.89-1.71-1.63-2.86-1.51-.11,0-.29.45-.25.48A3.32,3.32,0,0,0,56.71,35.18Z" transform="translate(-0.61 -0.34)"/><path class="cls-3" d="M476.39,26.43c0,2.38,0,4.77,0,7.15a14.19,14.19,0,0,1-4.55,9.59,99.26,99.26,0,0,1-19.2,15.51c-.48.29-1.11.53-1.11,1.15,0,.8.79.87,1.36,1.07q3.35,1.22,6.71,2.4a24.25,24.25,0,0,1,4.73,2.21c1.4.86,1.37,2,1.48,3.53.31,4-2.49,7.24-2.21,11.15.08,1-.7,1.45-1.64,1.53-2.21.18-4.54.14-6.31-1.12-6.29-4.46-13.71-5.75-20.89-7.72-2.75-.76-5.62-1.11-8.38-1.87-2.05-.57-3.13.1-4,1.92-1.35,3-2.8,5.92-4.3,8.82a32.69,32.69,0,0,1-2.4,3.68c-.94,1.29-2.05,1.42-3.09.13-2.26-2.82-5.59-3.24-8.79-3.85-1.45-.28-1.94-.87-1.64-2.25a14.32,14.32,0,0,1,2.67-6.29c2.16-2.61,3-5.8,4.33-8.77.36-.78.16-1-.72-1.18a40.5,40.5,0,0,0-8.38-.31,3.21,3.21,0,0,0-3.38,3c-1,4.85-2,9.68-2.11,14.66a11.81,11.81,0,0,1-.56,3.28c-.71,2.33-1.79,2.7-3.94,1.55A2.33,2.33,0,0,0,389,85c-2.76.21-5.52-.93-8.29.16-1.73.68-1.8-.75-1.94-1.84-.52-4,.24-7.91,1-11.82.26-1.36.61-2.71.86-4.08s-.42-2.17-1.87-2q-9.28,1-18.56,2.12a3.25,3.25,0,0,0-2.29,1.68A51.53,51.53,0,0,0,352,79.77a11.66,11.66,0,0,1-4.14,5.42c-1.36,1-2.46.88-3.27-.65a7.28,7.28,0,0,0-3.88-3.28c-1.58-.69-2.72-2.16-4.68-2.44-1.14-.17-.63-1.47-.33-2.31a47.84,47.84,0,0,1,5-9.38c2-3.25,4.15-6.45,6.21-9.69C351.69,50,357.31,43.07,362.68,36l1.76,0c-.48.69-.94,1.38-1.44,2-7.26,9.72-14.46,19.48-20.72,29.89-.35.58-1,1.11-.71,2,.83,0,.92-.65,1.2-1.07,2.93-4.41,5.74-8.9,8.77-13.24,4.74-6.8,9.5-13.6,14.76-20l3.13-.18c4.5-.3,8.95-1.17,13.49-1.06-.25,1.15-1.16,1.87-1.81,2.75-2.46,3.39-5,6.72-7.46,10.1-.52.71-1.33,1.53-.76,2.43.44.68,1.43.33,2.17.27,2.51-.22,5-.56,7.51-.71,1.76-.11,2.52-.94,3-2.6,1.16-4.36,2-8.82,3.48-13.08L405.55,32c-.84,4.22-2.66,8.18-3.4,12.43-.39,2.23-.24,2.5,2.12,2.54,2.1,0,4.2,0,6.29,0,2.3.09,3.09,1.25,2.22,3.41-.58,1.46.81,2.06,1,3.27,2.48-5.31,4.9-10.46,7.32-15.61.43-.92.93-2-.68-2.11-3.27-.14-3.89-2.33-4.2-4.88l8.15-.87,15.87-1.66c3.47,1.43,3.51,1.56,1.55,4.65-.19.29-.36.6-.57.87-3.37,4.5-5.53,9.64-8,14.62-.26.53-.77,1.12-.26,1.71s1.28.38,1.94.11,1.29-.53,1.91-.83a105.08,105.08,0,0,0,10.06-6,41.48,41.48,0,0,0,15.7-17.22l1.95,0c.11.71-.87,1.33-.08,2.19.91-.57.88-1.63,1.31-2.42l10.28-1C476.15,25.6,476.27,26,476.39,26.43ZM462.56,31.1c-7,9.48-16.3,16-26.87,20.94C442.57,51.36,461.76,37.32,462.56,31.1Zm-39.22,7.79c-2.41,2.65-10.06,20.4-9.49,21.58C417.24,53.34,420.47,46.19,423.34,38.89ZM382.7,68.83l-.65-.09a45.25,45.25,0,0,0-1.82,12l.75.11Q381.85,74.85,382.7,68.83Zm7.81-33.76c-1.38,4.15-2.82,8.25-3.23,12.62C389.13,43.67,389.75,39.34,390.51,35.07ZM412.71,63l-.79-.35-3.86,8.68.69.31Zm40.72.68,7.07,3C459.67,65.21,456.13,63.71,453.43,63.67Zm-79-11.49a15.79,15.79,0,0,0,5.87-.4A6.3,6.3,0,0,0,374.47,52.18Zm33.87-3.36c-3-.45-3.28-.4-4.22.58A9.82,9.82,0,0,0,408.34,48.82Z" transform="translate(-0.61 -0.34)"/><path class="cls-4" d="M351.43,37.19c-3.31,6.44-6.68,12.86-9.94,19.32-3,6-5.41,12.36-7.85,18.65A19.08,19.08,0,0,1,331.26,80c-.79,1-1.63,1.94-3.12,1.64-.92-.18-1.38.48-1.95,1-2,1.81-2.69,1.59-5.15.51a11.29,11.29,0,0,0-7.68-.6c-1.56.46-2.26.09-2.77-1.17a12.53,12.53,0,0,1-.86-4.49c-.21-7.68.51-15.31,1-23,.08-1.11.13-2.23.17-3.34,0-.44-.07-.9-.52-1a1.06,1.06,0,0,0-1.09.47,5.72,5.72,0,0,0-.58.87c-5.63,9.22-12.08,17.93-16.86,27.67a15.73,15.73,0,0,1-3.32,4.79c-1.22,1.12-2.27,1.24-3.32-.19-.58-.79-1.25-1.5-1.89-2.24s-1.26-1.25-2.33-.64a1.52,1.52,0,0,1-2.07-.45c-.84-1.17-1.47-.8-2.21.08-.49.59-1.14,1.24-2,.94-1-.35-.8-1.36-.85-2.16a73.59,73.59,0,0,1,.85-15.62c.9-6.33,1.76-12.67,3-18.95l1.52-.08c-1.06,7.57-2.5,15.09-3,22.74,1.93-7.51,2.79-15.21,4.06-22.83l13.66-1.31c.64.41,1.12,0,1.61-.31l2.17-.09a.84.84,0,0,0,1-.19c.41,0,.83,0,1.25,0l27.42-2.53c-.08,2.21-.19,4.41-.23,6.62,0,.56-.31,1.43.49,1.6s1-.65,1.28-1.17c1.4-2.54,2.75-5.1,4.12-7.66h.14l1.63-.14c-.95,2.85-2.82,5.33-3.15,8.48l4.59-8.69ZM312.71,58.41l-.74,0q-.27,8.28-.52,16.56c0,.35.05.81.46.82.7,0,.64-.59.65-1.05.11-4,.26-7.91.28-11.87C312.84,61.37,313.37,59.85,312.71,58.41Zm.13-3.49A8.61,8.61,0,0,0,313,51C312.13,52.42,311.83,53.5,312.84,54.92Z" transform="translate(-0.61 -0.34)"/><path class="cls-2" d="M180.18,53.5C184.3,44,189.66,35,192.55,24.77a16.63,16.63,0,0,1-3.75,3c-3.47,1.88-4.92,1.2-6.18-2.45a16.21,16.21,0,0,0-4.56-6.68c-1.35-1.21-1.06-2.12,0-3.12a42.45,42.45,0,0,1,14.68-9.12A86.29,86.29,0,0,1,228.18.94c7.92.5,15.28,6.87,15.95,15.11.34,4.3,1.34,8.51,1.26,12.88a17.94,17.94,0,0,1-5,12.26,55.84,55.84,0,0,1-8.68,7.57c-6.71.22-13.36,1.16-20,1.75-9.54.83-19.08,1.78-28.62,2.67,3.21-7.59,7.49-14.69,10.39-22.43-4.34,7.31-8,15-11.71,22.57Zm38.11-35.61A57.88,57.88,0,0,0,207,19.09c-1.53.35-4,.11-4.13,2.07s2,3.34,3.7,4.45a1,1,0,0,0,.39.14c1.29.21,1.42,1.12,1.4,2.18a10.17,10.17,0,0,1-1.06,3.8c-1.94,4.39-4,8.75-5.91,13.14-.32.72-1.13,1.55-.44,2.29s1.71.14,2.54-.18a60.44,60.44,0,0,0,20.64-12.92,34.73,34.73,0,0,0,7.19-9.72c1.29-2.65.88-3.5-1.78-4.65A24.91,24.91,0,0,0,218.29,17.89ZM229.4,3.54a5,5,0,0,0-.82-.37c-.54-.11-1.1-.18-1.65-.24-13.36-1.45-25.84,1.7-37.86,7.2A46.4,46.4,0,0,0,181.89,14c-.39.26-1.19.61-.63,1.25s.84-.19,1.21-.4C196.52,6.61,211.51,2.28,228,4.1A1.18,1.18,0,0,0,229.4,3.54ZM211.72,45c5.87-.7,19.64-12.64,20.06-17.34-2.76,3.46-5.43,7-8.89,9.79S215.37,42.38,211.72,45Zm-5.83,3.76c1.6-.25,2.68-.69,2.72-1.13,0-.16-.15-.48-.24-.48a4.13,4.13,0,0,0-2.47,1.24S205.89,48.5,205.89,48.75Z" transform="translate(-0.61 -0.34)"/><path class="cls-5" d="M476,25.18l-10.28,1c-.67-1.26-.83.09-1.23.23l-1.95,0c1.29-4.64,1.13-5.48-3.32-7.22-8.08-3.15-16-1.91-23.78,1.45a3.41,3.41,0,0,0-1.84,1.94c-.45,1.2-.05,2.11,1.28,1.83s2.07.45,2.81,1.3,1.68,1.87,2.52,2.79l-15.87,1.66-8.15.87c-1.48-2.33-2.12-5.12-4.16-7.15-1-1-.69-2.18-.22-3.34a15.57,15.57,0,0,1,5.25-6.41C429.79,4.48,444-.59,460.13,1.36A14.86,14.86,0,0,1,471,8C474.7,13.27,475,19.26,476,25.18ZM415.8,18.83c13.69-12,29.17-17,47-14.45C454.27-1.81,419.1,8.86,415.8,18.83Z" transform="translate(-0.61 -0.34)"/><path class="cls-6" d="M117.37,59.5l16.39-1.58c-.42,2.8-1.19,5.56-1.24,8.42,0,2.11.71,2.74,2.79,2.21a18.77,18.77,0,0,0,5.71-3,88,88,0,0,0,10.85-9.46l1.3.09c-3.72,5.08-8.75,8.82-13.67,12.67,1,.24,1.59-.36,2.23-.74,5.39-3.17,9.47-7.76,13.52-12.38l18.53-1.6c-7.24,10.51-15.29,20.29-25.88,27.7a35.8,35.8,0,0,1-10.19,4.81,8.07,8.07,0,0,1-7.55-1.21A34.57,34.57,0,0,0,123,81.3c-5.75-2.38-8.71-7-9-13.14a24.54,24.54,0,0,1,.86-8.47l1.2-.1c-.34,3.11-.77,6.22,0,9.36C117,65.85,116.39,62.56,117.37,59.5Z" transform="translate(-0.61 -0.34)"/><path class="cls-2" d="M364.44,36l-1.76,0q7-9.36,14.09-18.71a19.41,19.41,0,0,0,3.78-6.88c.65-2.56,2.54-4.62,4.54-6.4,1.78-1.58,3-1.39,4.51.61,1.15,1.53,3.11,2.14,4.12,3.94.47.84,1.29-.3,1.59-1,.61-1.32,1-2.72,1.64-4s1.67-1.82,3.22-1.1c2.63,1.23,5.57,1.9,7.43,4.41.2.27.56.41.82.64.78.68,2.34.29,2.61,1.47a9.81,9.81,0,0,1-.08,4.57c-1.59,6.2-3.43,12.32-5.4,18.41L389,33.54c.49-1.8,1-3.58,1.44-5.39.13-.55.37-1.34-.39-1.62-.6-.21-1,.38-1.32.81l-5.46,6.78c-.2,0-.44-.06-.4.27h0c-4.54-.11-9,.76-13.49,1.06l-3.12.18c3.66-5.33,8-10.15,11.65-15.51C373,25,368.83,30.62,364.44,36Z" transform="translate(-0.61 -0.34)"/><path class="cls-7" d="M180.18,53.5l1.5-.18a164,164,0,0,0-8.58,21.81c1.06-.61,1.19-1.69,1.56-2.62,2.6-6.52,5-13.11,8.34-19.33,9.54-.89,19.08-1.84,28.62-2.67,6.68-.59,13.33-1.53,20-1.75A105,105,0,0,1,196.27,65.5a3.94,3.94,0,0,1-1.44.25c-2.88-.43-4.1,1.21-5,3.6-1.42,3.7-3.09,7.31-4.32,11.08a25.68,25.68,0,0,1-1.14,2.7c-2.18,4.68-2.74,4.81-6.47,1.48-.78-.7-1.47-1.55-2.72-1.2a1.1,1.1,0,0,1-1.26-.54,2.12,2.12,0,0,0-2.66-.92c-1.54.41-2.18-.22-1.72-1.94a139.1,139.1,0,0,1,8-21.05C178.4,57.13,179.3,55.32,180.18,53.5Z" transform="translate(-0.61 -0.34)"/><path class="cls-6" d="M37.24,67l20.7-1.85c1.19-.11,2.37-.13,3.56-.2-4.35,4.54-9.62,7.81-15.12,10.71A73.51,73.51,0,0,1,21.72,84a39.14,39.14,0,0,1-10.43.32C7.81,83.84,6.21,82.44,5.48,79a9,9,0,0,0-2-4.31,11.09,11.09,0,0,1-2.3-4.17c2.36-.2,4.73-.3,7.07-.65,3.13-.46,6.37-.14,9.41-1.25a45.53,45.53,0,0,0,8.79-.84c1.68.54,3.4-.3,5.09.14-2.9,1.39-6.18,1.41-9.19,2.52a6,6,0,0,0,3.38.16C29.83,70.24,33.49,68.49,37.24,67Zm-21.7,3.48c1.61.46,2.67.69,3.8.27.1,0,.19-.48.14-.51-.94-.61-2-.25-3-.25C16.4,70,16.28,70.13,15.54,70.51Z" transform="translate(-0.61 -0.34)"/><path class="cls-8" d="M294.07,42.65,280.41,44c1.6-10.1,3.21-20.2,4.75-30.31.14-.92.84-2.49-.24-2.71s-.77,1.49-.91,2.37q-2.38,15.36-4.7,30.74l-1.52.08Q280,30,282.1,15.86c.52-3.44,1-6.89,1.48-10.34a12.92,12.92,0,0,1,.45-2c.58-1.82,1.53-2.1,2.83-.77.83.84,1.32,1.91,2.9.95.47-.29,1.78.54,2.57,1A8.94,8.94,0,0,0,295.83,6c2.54.39,3.12,1,2.8,3.55-.5,4-1.12,8-1.75,12-1.05,6.6-2.21,13.18-2.86,19.84A8.63,8.63,0,0,0,294.07,42.65Z" transform="translate(-0.61 -0.34)"/><path class="cls-8" d="M334.93,38.73l-1.63.14-.06-.13c4.45-8.5,9-17,13.33-25.51,1.2-2.34,2-4.9,3-7.34a15.13,15.13,0,0,1,1.24-2.4c1.4-2.2,2.43-2.25,3.88-.16.51.73,1,1.42,2,1.18s1.41.36,1.82,1c1,1.76,2.13,3.41,4.36,3.93,1,.22,1.08,1.15,1,2a12.46,12.46,0,0,1-1.27,4.17C359,23,355.36,30.15,351.43,37.2l-15.06,1.32c3.15-6.78,7.12-13.15,10.36-19.9-1,.31-1.32,1.12-1.75,1.81C341.31,26.36,338.26,32.62,334.93,38.73Z" transform="translate(-0.61 -0.34)"/><path class="cls-5" d="M327.5,39.49,300.08,42c-.42,0-.84,0-1.25,0,2.29-3.91,4.72-7.75,7-12.28-.7.38-1,.45-1.12.63-2.45,3.85-5,7.62-6.83,11.84l-2.17.09A175.39,175.39,0,0,0,305.36,26c1-2,1.29-4.27,2.58-6.14,1-1.5,2-3,3.89-3.62.81-.27,1.59-.19,1.72.57.5,3.05,3.5,3.31,5.35,4.76a17.83,17.83,0,0,0,6.15,3,4.17,4.17,0,0,1,3.07,4.49C328,32.54,327.71,36,327.5,39.49ZM306.75,27.93A3.73,3.73,0,0,0,308.58,25,2.74,2.74,0,0,0,306.75,27.93Z" transform="translate(-0.61 -0.34)"/><path class="cls-7" d="M72.06,63.75l1.54,0c-.85,3-2.74,5.6-2.45,8.91L75,63.55,90,62.1Q85,73.58,79.92,85a13.72,13.72,0,0,1-1,1.81c-1.24,1.93-1.52,1.83-3.31.31C74.25,86,73.23,84,70.85,85a.85.85,0,0,1-.74-.27c-.79-1.2-1.86-1.25-3.11-.94-1.66.42-1.92-.51-1.67-1.85a43,43,0,0,1,2.15-7.4A90.83,90.83,0,0,1,72.06,63.75Z" transform="translate(-0.61 -0.34)"/><path class="cls-8" d="M17.68,68.66c-3,1.11-6.28.79-9.41,1.25-2.34.35-4.71.45-7.07.65-.64-1.31-1-2.73.17-3.83C3,65.22,4.86,64,7.21,64.81,10.73,66,14.36,66.92,17.68,68.66Z" transform="translate(-0.61 -0.34)"/><polygon class="cls-9" points="332.63 38.4 332.7 38.53 332.56 38.54 332.63 38.4"/><path class="cls-1" d="M50.93,33.3c-5-.46-10,0-15-.54" transform="translate(-0.61 -0.34)"/><path class="cls-1" d="M56.71,35.18a3.32,3.32,0,0,1-3.11-1s.14-.47.25-.48" transform="translate(-0.61 -0.34)"/><path class="cls-3" d="M383.28,34.12l-.4.27C382.84,34.06,383.08,34.12,383.28,34.12Z" transform="translate(-0.61 -0.34)"/></svg>