<svg width="234" height="176" viewBox="0 0 234 176" fill="none" xmlns="http://www.w3.org/2000/svg">
<g clip-path="url(#clip0_1016_1145)">
<path d="M96.042 175.254C93.3465 174.435 89.8286 173.663 86.6305 172.253C84.3005 171.253 84.6203 168.799 85.2599 166.662C87.4529 159.162 89.6915 151.662 91.8845 144.161C100.337 115.069 108.697 85.9772 117.149 56.8851C122.129 39.6116 127.2 22.3836 132.226 5.15565C133.505 0.837292 134.967 0.0190806 139.216 1.2464C140.952 1.74642 142.688 2.20099 144.47 2.70101C148.171 3.74651 149.176 5.61022 148.125 9.29219C145.429 18.6108 142.734 27.8839 139.993 37.2024C132.866 61.7489 125.693 86.2499 118.611 110.796C112.763 130.843 107.007 150.934 101.159 170.981C100.245 173.89 98.8746 175.163 96.042 175.254Z" fill="white"/>
<path d="M22.075 88.0682C23.3085 88.9773 24.0852 89.4319 24.7248 90.0683C40.2584 105.478 55.7462 120.933 71.234 136.343C75.026 140.116 75.026 141.525 71.1883 145.298C69.635 146.843 68.1273 148.434 66.4826 149.934C64.381 151.844 62.2337 151.798 60.2692 149.843C40.6239 130.297 20.9785 110.751 1.33318 91.2047C-0.905471 88.9773 -0.905471 86.8863 1.2875 84.7044C20.9328 65.1581 40.5782 45.6119 60.2235 26.0656C62.1424 24.1565 64.3353 24.0201 66.2542 25.8383C68.4471 27.8384 70.5487 29.9294 72.5589 32.1113C74.5235 34.2023 74.4778 35.9297 72.6046 38.1116C72.1021 38.7025 71.5538 39.2025 71.0056 39.748C55.5635 55.1123 40.1213 70.522 24.6335 85.8863C24.0852 86.4772 23.3542 87.0227 22.075 88.0682Z" fill="white"/>
<path d="M211.035 87.5227C210.167 86.9318 209.299 86.5681 208.66 85.9317C193.08 70.4765 177.547 54.9759 161.968 39.5207C158.313 35.8842 158.313 34.3841 162.013 30.7022C163.521 29.2021 164.983 27.6566 166.536 26.202C168.912 23.9746 170.922 24.0201 173.252 26.3383C189.563 42.5663 205.873 58.7942 222.183 75.0222C225.381 78.2041 228.533 81.3406 231.686 84.5226C234.107 86.9772 234.199 89.0228 231.823 91.3865C212.223 110.887 192.624 130.388 173.024 149.889C171.014 151.889 168.866 152.025 166.81 150.116C164.709 148.162 162.653 146.116 160.688 144.025C158.678 141.889 158.77 140.07 160.688 137.843C161.145 137.343 161.648 136.843 162.105 136.388C177.684 120.888 193.217 105.433 208.797 89.9319C209.391 89.2501 209.939 88.6591 211.035 87.5227Z" fill="white"/>
</g>
<defs>
<clipPath id="clip0_1016_1145">
<rect width="234" height="176" fill="white"/>
</clipPath>
</defs>
</svg>
