<svg width="61" height="61" viewBox="0 0 61 61" fill="none" xmlns="http://www.w3.org/2000/svg">
<g clip-path="url(#clip0_755_1116)">
<path d="M15.0864 5.15536C15.0864 3.48902 15.0864 1.83012 15.0864 0.119141C25.2481 0.119141 35.3577 0.119141 45.579 0.119141C45.579 1.79292 45.579 3.47414 45.579 5.15536L45.6087 5.13304C35.4247 5.13304 25.2407 5.13304 15.0566 5.13304L15.0864 5.15536Z" fill="white"/>
<path d="M4.91024 45.8246C3.2439 45.8246 1.585 45.8246 -0.125977 45.8246C-0.125977 35.6629 -0.125977 25.5532 -0.125977 15.332C1.5478 15.332 3.22902 15.332 4.91024 15.332L4.88792 15.3022C4.88792 25.4863 4.88792 35.6703 4.88792 45.8543L4.91024 45.8246Z" fill="white"/>
<path d="M55.7559 15.332C57.4222 15.332 59.0811 15.332 60.7921 15.332C60.7921 25.4937 60.7921 35.6033 60.7921 45.8246C59.1183 45.8246 57.4371 45.8246 55.7559 45.8246L55.7782 45.8543C55.7782 35.6703 55.7782 25.4863 55.7782 15.3022L55.7559 15.332Z" fill="white"/>
<path d="M45.579 56.0085C45.579 57.6749 45.579 59.3338 45.579 61.0448C35.4172 61.0448 25.3076 61.0448 15.0864 61.0448C15.0864 59.371 15.0864 57.6898 15.0864 56.0085L15.0566 56.0309C25.2407 56.0309 35.4247 56.0309 45.6087 56.0309L45.579 56.0085Z" fill="white"/>
<path d="M9.9985 10.2437C9.9985 8.58476 9.9985 6.92586 9.9985 5.15537C11.7244 5.15537 13.4056 5.15537 15.0868 5.15537L15.057 5.13306C15.057 6.81428 15.057 8.4955 15.057 10.2213C13.2866 10.2213 11.6277 10.2213 9.96875 10.2213L9.9985 10.2437Z" fill="white"/>
<path d="M45.5791 5.15537C47.238 5.15537 48.9043 5.15537 50.6674 5.15537C50.6674 6.88123 50.6674 8.56245 50.6674 10.2437L50.6972 10.2213C49.0159 10.2213 47.3347 10.2213 45.6089 10.2213C45.6089 8.45086 45.6089 6.79196 45.6089 5.13306L45.5791 5.15537Z" fill="white"/>
<path d="M4.91061 15.332C4.91061 13.6731 4.91061 12.0068 4.91061 10.2438C6.64391 10.2438 8.32513 10.2438 9.99891 10.2438L9.96915 10.2214C9.96915 11.9027 9.96915 13.5839 9.96915 15.3097C8.19866 15.3097 6.53976 15.3097 4.88086 15.3097L4.91061 15.332Z" fill="white"/>
<path d="M50.668 10.2436C52.3269 10.2436 53.9932 10.2436 55.7563 10.2436C55.7563 11.9769 55.7563 13.6581 55.7563 15.3319L55.7786 15.3022C54.0974 15.3022 52.4161 15.3022 50.6903 15.3022C50.6903 13.5317 50.6903 11.8728 50.6903 10.2139L50.668 10.2436Z" fill="white"/>
<path d="M9.9983 50.9128C8.3394 50.9128 6.6805 50.9128 4.91001 50.9128C4.91001 49.1869 4.91001 47.5057 4.91001 45.8245L4.8877 45.8542C6.56891 45.8542 8.25013 45.8542 9.97599 45.8542C9.97599 47.6247 9.97599 49.2836 9.97599 50.9425L9.9983 50.9128Z" fill="white"/>
<path d="M55.7563 45.8245C55.7563 47.4834 55.7563 49.1497 55.7563 50.9128C54.0304 50.9128 52.3492 50.9128 50.668 50.9128L50.6903 50.9425C50.6903 49.2613 50.6903 47.5801 50.6903 45.8542C52.4608 45.8542 54.1197 45.8542 55.7786 45.8542L55.7563 45.8245Z" fill="white"/>
<path d="M15.0872 56.0085C13.4283 56.0085 11.7619 56.0085 9.99888 56.0085C9.99888 54.2752 9.99888 52.5939 9.99888 50.9202L9.97656 50.9499C11.6578 50.9499 13.339 50.9499 15.0649 50.9499C15.0649 52.7204 15.0649 54.3793 15.0649 56.0382L15.0872 56.0085Z" fill="white"/>
<path d="M50.6674 50.9128C50.6674 52.5717 50.6674 54.2381 50.6674 56.0011C48.9341 56.0011 47.2529 56.0011 45.5791 56.0011L45.6089 56.0234C45.6089 54.3422 45.6089 52.661 45.6089 50.9352C47.3793 50.9352 49.0383 50.9352 50.6972 50.9352L50.6674 50.9128Z" fill="white"/>
<path d="M32.8954 17.8761C32.8954 16.2097 32.8954 14.5508 32.8954 12.8398C36.2727 12.8398 39.598 12.8398 42.9827 12.8398C42.9827 24.653 42.9827 36.4736 42.9827 48.3389C41.3387 48.3389 39.7095 48.3389 37.9911 48.3389C37.9911 46.68 37.9911 45.0285 37.9911 43.3175C34.5766 43.3175 31.2439 43.3175 27.8071 43.3175C27.8071 41.5768 27.8071 39.8881 27.8071 38.2069L27.7773 38.2292C31.1547 38.2292 34.532 38.2292 37.9167 38.2292C37.9167 31.3928 37.9167 24.6456 37.9167 17.8537C36.1909 17.8537 34.532 17.8537 32.8656 17.8537L32.8954 17.8761Z" fill="white"/>
<path d="M27.8079 38.1995C26.1416 38.1995 24.4752 38.1995 22.7196 38.1995C22.7196 39.8882 22.7196 41.5397 22.7196 43.2358C21.0012 43.2358 19.3721 43.2358 17.6313 43.2358C17.6313 39.8659 17.6313 36.4886 17.6313 33.1112L17.6016 33.1336C19.2753 33.1336 20.9566 33.1336 22.7122 33.1336C22.7122 31.378 22.7122 29.6967 22.7122 28.0229L22.6899 28.0453C24.3711 28.0453 26.0523 28.0453 27.7781 28.0453C27.7781 31.5119 27.7781 34.8669 27.7781 38.2219L27.8079 38.1995Z" fill="white"/>
<path d="M22.7192 22.957C22.7192 21.2981 22.7192 19.6318 22.7192 17.8688C26.1412 17.8688 29.5185 17.8688 32.8958 17.8688L32.866 17.8464C32.866 19.5277 32.866 21.2089 32.866 22.9347C29.3995 22.9347 26.0445 22.9347 22.6895 22.9347L22.7192 22.957Z" fill="white"/>
<path d="M17.6308 33.1112C15.1164 33.1112 12.6094 33.1112 10.043 33.1112C10.043 31.4226 10.043 29.7934 10.043 28.0527C12.5648 28.0527 15.0941 28.0527 17.6233 28.0527L17.601 28.0229C17.601 29.7265 17.601 31.43 17.601 33.1336L17.6308 33.1112Z" fill="white"/>
<path d="M17.6235 28.0528C17.6235 26.3938 17.6235 24.7275 17.6235 22.9645C19.3568 22.9645 21.038 22.9645 22.7118 22.9645L22.682 22.9421C22.682 24.6457 22.682 26.3492 22.682 28.0528L22.7044 28.0304C21.0008 28.0304 19.2973 28.0304 17.5938 28.0304L17.6235 28.0528Z" fill="white"/>
</g>
<defs>
<clipPath id="clip0_755_1116">
<rect width="61" height="61" fill="white"/>
</clipPath>
</defs>
</svg>
