<svg width="39" height="32" viewBox="0 0 39 32" fill="none" xmlns="http://www.w3.org/2000/svg">
<path fill-rule="evenodd" clip-rule="evenodd" d="M29.874 31.6467C30.3972 32.0115 31.0716 32.1027 31.6728 31.8787C32.274 31.6531 32.716 31.1475 32.8493 30.5347C34.2614 24.0003 37.6868 7.46105 38.9721 1.51704C39.0696 1.06904 38.9071 0.603438 38.5496 0.304238C38.1922 0.00503727 37.6965 -0.081363 37.2546 0.0802372C30.4411 2.56344 9.45793 10.3154 0.881376 13.4403C0.337014 13.6387 -0.0172281 14.1539 0.000646498 14.7187C0.0201461 15.2851 0.406887 15.7763 0.96425 15.9411C4.81054 17.0739 9.8593 18.6499 9.8593 18.6499C9.8593 18.6499 12.2187 25.6659 13.4488 29.2339C13.6032 29.6819 13.9591 30.0339 14.4287 30.1555C14.8967 30.2755 15.3972 30.1491 15.7465 29.8243C17.7225 27.9875 20.7774 25.1475 20.7774 25.1475C20.7774 25.1475 26.5818 29.3379 29.874 31.6467ZM11.9831 17.7635L14.7114 26.6243L15.3175 21.0131C15.3175 21.0131 25.8587 11.6515 31.8678 6.31544C32.0433 6.15864 32.0677 5.89624 31.9214 5.71224C31.7768 5.52824 31.5103 5.48504 31.3104 5.60984C24.3458 9.98905 11.9831 17.7635 11.9831 17.7635Z" fill="black"/>
</svg>
