<svg width="85" height="62" viewBox="0 0 85 62" fill="none" xmlns="http://www.w3.org/2000/svg">
<g clip-path="url(#clip0_755_1136)">
<path d="M10.8272 2.77928C12.0256 2.77928 13.2309 2.77928 14.4293 2.77928C15.5161 2.77928 15.3559 2.85767 15.3629 1.76733C15.3698 1.21859 15.3768 0.669854 15.3629 0.121119C15.3559 -0.213824 15.4743 -0.349224 15.8018 -0.327845C16.0247 -0.313592 16.2407 -0.327845 16.4637 -0.327845C33.9444 -0.327845 51.4252 -0.327845 68.9059 -0.327845C69.0661 -0.327845 69.2264 -0.306465 69.3797 -0.327845C69.8883 -0.399109 70.0346 -0.15681 70.0067 0.334914C69.9719 0.976293 70.0137 1.6248 69.9928 2.2733C69.9858 2.62962 70.0694 2.80779 70.4665 2.78641C71.0657 2.7579 71.6649 2.77928 72.2711 2.77928C74.3264 2.77928 76.3817 2.77216 78.437 2.77928C79.092 2.77928 79.0989 2.79353 79.1059 3.47767C79.1129 4.06204 79.1338 4.64641 79.0989 5.22365C79.0711 5.70112 79.1756 5.93629 79.712 5.89353C80.3391 5.84365 80.9731 5.90066 81.6071 5.87216C82.0182 5.8579 82.1506 6.00756 82.1436 6.42802C82.1227 7.94595 82.1366 9.46388 82.1366 10.9889C82.1366 12.0864 82.1366 12.0864 83.2583 12.0864C83.767 12.0864 84.2686 12.0935 84.7772 12.0864C85.0489 12.0864 85.1813 12.2004 85.1743 12.4855C85.1674 12.7135 85.1743 12.9416 85.1743 13.1625C85.1743 24.8641 85.1743 36.5728 85.1743 48.2745C85.1743 49.4788 85.3415 49.322 84.1014 49.3363C83.6276 49.3434 83.1538 49.3577 82.6801 49.3292C82.276 49.3078 82.1227 49.4432 82.1366 49.8708C82.1645 50.8756 82.1436 51.8733 82.1436 52.8781C82.1436 53.5551 82.1088 54.2393 82.1575 54.9163C82.1924 55.4579 81.9694 55.5719 81.5026 55.5505C80.8686 55.522 80.2346 55.5577 79.6075 55.5363C79.2522 55.522 79.0989 55.6361 79.1059 56.028C79.1268 56.705 79.085 57.3892 79.1198 58.0662C79.1477 58.5508 78.9526 58.6648 78.5137 58.6577C76.0194 58.6434 73.5182 58.6505 71.0239 58.6505C70.0067 58.6505 70.0067 58.6505 70.0067 59.6625C70.0067 60.2112 69.9928 60.76 70.0067 61.3087C70.0206 61.6508 69.8674 61.7719 69.5538 61.7577C69.3309 61.7434 69.1079 61.7577 68.892 61.7577C51.4112 61.7577 33.9305 61.7577 16.4497 61.7577C15.1887 61.7577 15.4116 61.9501 15.3629 60.6174C15.342 59.9832 15.6555 59.1779 15.2096 58.7646C14.8264 58.4082 14.06 58.6648 13.4608 58.6577C11.3079 58.6434 9.16204 58.6505 7.00917 58.6505C6.19401 58.6505 6.25672 58.7004 6.25672 57.8524C6.25672 57.268 6.23581 56.6908 6.26368 56.1064C6.28458 55.7002 6.15917 55.522 5.73417 55.5363C5.07229 55.5648 4.40344 55.522 3.74155 55.5505C3.31655 55.5719 3.21204 55.4009 3.21204 54.9947C3.22598 53.377 3.21901 51.7593 3.21901 50.1416C3.21901 49.3434 3.21204 49.3434 2.46655 49.3363C1.83254 49.3292 1.19852 49.3292 0.57147 49.3363C0.285815 49.3434 0.17434 49.2151 0.188274 48.9372C0.202209 48.7092 0.188274 48.4811 0.188274 48.2602C0.188274 36.5586 0.188274 24.8499 0.188274 13.1482C0.188274 11.9154 0.0210603 12.1078 1.25426 12.0864C1.70016 12.0793 2.13909 12.0579 2.57803 12.0935C3.0518 12.1292 3.24688 11.9866 3.23295 11.4522C3.19811 10.0269 3.21901 8.60871 3.21901 7.18342C3.21901 6.95537 3.23991 6.72733 3.21204 6.50641C3.14237 5.98618 3.36532 5.83652 3.85303 5.86503C4.41737 5.90066 4.98868 5.87928 5.55999 5.87216C6.23581 5.86503 6.24278 5.8579 6.24975 5.19514C6.25672 4.54664 6.27065 3.89813 6.24278 3.25675C6.22885 2.87192 6.37516 2.7579 6.73745 2.76503C8.10999 2.79353 9.4686 2.77928 10.8272 2.77928Z" fill="white"/>
<path d="M39.4975 43.1292C37.5397 43.2004 35.5819 43.1791 33.6241 43.1434C33.4569 42.8798 33.5266 42.5804 33.5266 42.2954C33.5196 34.5846 33.5196 26.8738 33.5266 19.163C33.5266 18.8779 33.4499 18.5786 33.6241 18.3149C35.4495 18.3078 37.2749 18.3078 39.1003 18.2793C39.5532 18.2722 39.7204 18.4218 39.6925 18.885C39.6577 19.5264 39.7134 20.1749 39.6786 20.8163C39.6507 21.308 39.8528 21.4078 40.2848 21.4007C41.6991 21.3793 43.1204 21.3864 44.5348 21.3935C44.8831 21.3935 45.2245 21.4149 45.5729 21.4292C45.8167 22.7262 45.761 24.0588 45.8167 25.363C45.9839 28.9404 45.8864 32.5393 45.8655 36.1239C45.8655 36.3804 45.8307 36.6441 45.7122 36.8722C45.545 37.9198 45.8098 38.9816 45.5729 40.0221C43.629 40.0292 41.6921 40.0434 39.7483 40.0506C39.4278 40.6777 39.6647 41.3476 39.595 41.9961C39.5462 42.3738 39.6786 42.7657 39.4975 43.1292Z" fill="#1B1B1B"/>
<path d="M45.6004 36.9364C45.5865 36.1311 45.5656 35.3187 45.5656 34.5134C45.5586 30.152 45.5656 25.7835 45.5656 21.4221C45.7676 21.4791 45.7537 21.6502 45.7537 21.8069C45.7537 22.3842 45.7537 22.9614 45.7537 23.5458C45.7607 24.6005 45.6562 24.4936 46.6385 24.4936C47.9902 24.5007 49.3418 24.4936 50.6935 24.4936C51.007 24.4936 51.3205 24.515 51.634 24.5292C51.8082 27.4226 52.066 30.3159 51.9127 33.2235C51.9058 33.4159 51.857 33.6012 51.7664 33.7722C51.6131 34.8127 51.8709 35.8745 51.634 36.915C49.6902 36.9292 47.7463 36.9364 45.8025 36.9506C45.7328 37.029 45.6631 37.0219 45.6004 36.9364Z" fill="#1B1B1B"/>
<path d="M51.6756 33.8291C51.6617 30.7291 51.6477 27.6291 51.6338 24.5291C51.8358 24.5861 51.8219 24.7571 51.8219 24.9139C51.8219 25.4911 51.8219 26.0684 51.8219 26.6527C51.8289 27.7074 51.7244 27.6006 52.7067 27.6006C54.0584 27.6077 55.41 27.6006 56.7617 27.6006C57.0752 27.6006 57.3887 27.6219 57.7022 27.6362C57.8555 29.6957 57.8555 31.7553 57.7022 33.8148C55.7584 33.8291 53.8145 33.8362 51.8707 33.8504C51.801 33.9288 51.7313 33.9217 51.6756 33.8291Z" fill="#1B1B1B"/>
<path d="M33.6174 18.3079C33.6035 18.5359 33.5826 18.7568 33.5826 18.9849C33.5826 26.8097 33.5826 34.6345 33.5826 42.4594C33.5826 42.6874 33.6035 42.9083 33.6174 43.1364C33.3248 42.9297 33.4293 42.609 33.4293 42.3382C33.4223 34.5918 33.4223 26.8525 33.4293 19.106C33.4293 18.8352 33.3317 18.5145 33.6174 18.3079Z" fill="#FF4040"/>
<path d="M57.7021 33.8148C57.7021 31.7553 57.7021 29.6958 57.7021 27.6362C57.9042 27.6932 57.8903 27.8643 57.8903 28.0211C57.8903 29.824 57.8903 31.6342 57.8903 33.4371C57.8903 33.5868 57.9112 33.7578 57.7021 33.8148Z" fill="#1B1B1B"/>
<path d="M51.6764 33.8291C51.7461 33.8362 51.8088 33.8434 51.8785 33.8434C51.774 34.6771 51.8645 35.5109 51.8227 36.3376C51.8158 36.5371 51.9412 36.8008 51.6416 36.9077C51.6486 35.8886 51.6625 34.8624 51.6764 33.8291Z" fill="#1B1B1B"/>
<path d="M45.6003 36.9363C45.6699 36.9434 45.7326 36.9505 45.8023 36.9505C45.6978 37.7843 45.7884 38.6181 45.7466 39.4448C45.7396 39.6443 45.865 39.908 45.5654 40.0149C45.5794 38.9958 45.5933 37.9625 45.6003 36.9363Z" fill="#1B1B1B"/>
<path d="M39.4972 43.1292C39.4972 42.3239 39.4972 41.5257 39.4972 40.7204C39.4972 40.471 39.4484 40.1931 39.741 40.0505C39.6156 40.8843 39.7201 41.7181 39.6783 42.5519C39.6644 42.7515 39.7968 43.0151 39.4972 43.1292Z" fill="#1B1B1B"/>
</g>
<defs>
<clipPath id="clip0_755_1136">
<rect width="85" height="62" fill="white"/>
</clipPath>
</defs>
</svg>
