<svg width="47" height="47" viewBox="0 0 47 47" fill="none" xmlns="http://www.w3.org/2000/svg">
<path d="M46.0439 12.1884C45.7764 11.1931 45.2537 10.2854 44.5277 9.55572C43.8018 8.82602 42.8979 8.29972 41.9061 8.02921C38.2286 7.0165 23.5163 7.00002 23.5163 7.00002C23.5163 7.00002 8.80627 6.98353 5.12643 7.95149C4.13525 8.23445 3.23325 8.76819 2.50701 9.50147C1.78077 10.2348 1.25469 11.143 0.979261 12.1389C0.00939721 15.827 3.44067e-06 23.4765 3.44067e-06 23.4765C3.44067e-06 23.4765 -0.00938988 31.1636 0.953429 34.814C1.49355 36.8323 3.07868 38.4268 5.09355 38.9708C8.80862 39.9835 23.481 40 23.481 40C23.481 40 38.1934 40.0165 41.8709 39.0509C42.863 38.7808 43.7677 38.2557 44.4955 37.5275C45.2233 36.7993 45.7489 35.8932 46.0204 34.8988C46.9926 31.213 46.9997 23.5659 46.9997 23.5659C46.9997 23.5659 47.0466 15.8765 46.0439 12.1884ZM18.8102 30.563L18.8219 16.4323L31.0497 23.5094L18.8102 30.563Z" fill="black"/>
</svg>
